<svg width="21" height="24" viewBox="0 0 21 24" fill="none" xmlns="http://www.w3.org/2000/svg">
<path d="M14.4864 -0.000586885C13.1252 0.091288 11.6683 0.901288 10.7664 1.99441C9.97703 2.95629 9.31515 4.36816 9.5664 5.83441C9.3414 5.76504 9.13703 5.75754 8.8914 5.66941C8.22203 5.43129 7.45703 5.17441 6.5064 5.17441C4.61828 5.17441 2.68515 6.29754 1.4664 8.17441C-0.307345 10.9007 0.0489044 15.6988 2.7414 19.7994C3.21578 20.5194 3.7689 21.305 4.4514 21.9294C5.1339 22.5538 5.9589 23.03 6.9264 23.0394C7.75328 23.0488 8.3289 22.7732 8.8464 22.5444C9.3639 22.3157 9.84578 22.1132 10.7514 22.1094C10.757 22.1094 10.7608 22.1094 10.7664 22.1094C11.6683 22.1019 12.1352 22.3007 12.6414 22.5294C13.1477 22.7582 13.7177 23.0469 14.5464 23.0394C15.5327 23.0319 16.3708 22.4919 17.0664 21.8244C17.762 21.1569 18.3339 20.3375 18.8064 19.6194C19.4833 18.5882 19.7552 18.0257 20.2764 16.8744C20.3308 16.7544 20.3327 16.6157 20.2802 16.4938C20.2295 16.3719 20.1302 16.2763 20.0064 16.2294C18.3002 15.5844 17.327 14.075 17.1864 12.4794C17.0458 10.8838 17.7208 9.24129 19.4214 8.30941C19.547 8.24191 19.6352 8.12379 19.6652 7.98504C19.6933 7.84629 19.6595 7.70004 19.5714 7.58941C18.3508 6.07254 16.6333 5.17441 14.9514 5.17441C13.8789 5.17441 13.0914 5.42754 12.4464 5.66941C12.3395 5.71066 12.2608 5.70691 12.1614 5.74441C12.8158 5.39941 13.3933 4.92129 13.8264 4.36441C14.6139 3.35379 15.2214 1.91566 14.9964 0.404413C14.9589 0.156913 14.7358 -0.0193369 14.4864 -0.000586885ZM13.9764 1.13941C13.9445 2.10879 13.6127 3.05754 13.0614 3.76441C12.4839 4.50691 11.5127 5.02066 10.5714 5.17441C10.5883 4.24254 10.9558 3.27691 11.5164 2.59441C12.1052 1.88191 13.0802 1.36816 13.9764 1.13941ZM6.5064 6.13441C6.9264 6.13441 7.9014 6.33504 8.5614 6.56941C9.2214 6.80379 9.91703 7.07941 10.7364 7.07941C11.537 7.07941 12.1708 6.80191 12.7914 6.56941C13.412 6.33691 14.0308 6.13441 14.9514 6.13441C16.1533 6.13441 17.4527 6.75879 18.4764 7.84441C16.8377 9.00129 16.0708 10.805 16.2264 12.5544C16.382 14.3225 17.447 16.0007 19.1964 16.8744C19.1939 16.8799 19.1914 16.8853 19.1889 16.8907C18.8143 17.7066 18.5646 18.2507 18.0114 19.0944C17.552 19.7938 17.0064 20.5588 16.4064 21.1344C15.8064 21.71 15.1708 22.0738 14.5314 22.0794C13.9145 22.085 13.5639 21.9013 13.0314 21.6594C12.4989 21.4175 11.8108 21.14 10.7514 21.1494C9.6939 21.155 8.9964 21.4213 8.4564 21.6594C7.9164 21.8975 7.56203 22.085 6.9414 22.0794C6.28515 22.0738 5.67578 21.755 5.0964 21.2244C4.51703 20.6938 3.9939 19.97 3.5364 19.2744C1.0164 15.4344 0.813905 10.9232 2.2614 8.69941C3.32265 7.06629 6.0864 6.13441 6.5064 6.13441Z" fill="black"/>
<path d="M6.5064 6.13441C6.9264 6.13441 7.9014 6.33504 8.5614 6.56941C9.2214 6.80379 9.91703 7.07941 10.7364 7.07941C11.537 7.07941 12.1708 6.80191 12.7914 6.56941C13.412 6.33691 14.0308 6.13441 14.9514 6.13441C16.1533 6.13441 17.4527 6.75879 18.4764 7.84441C16.8377 9.00129 16.0708 10.805 16.2264 12.5544C16.382 14.3225 17.447 16.0007 19.1964 16.8744L19.1889 16.8907C18.8143 17.7066 18.5646 18.2507 18.0114 19.0944C17.552 19.7938 17.0064 20.5588 16.4064 21.1344C15.8064 21.71 15.1708 22.0738 14.5314 22.0794C13.9145 22.085 13.5639 21.9013 13.0314 21.6594C12.4989 21.4175 11.8108 21.14 10.7514 21.1494C9.6939 21.155 8.9964 21.4213 8.4564 21.6594C7.9164 21.8975 7.56203 22.085 6.9414 22.0794C6.28515 22.0738 5.67578 21.755 5.0964 21.2244C4.51703 20.6938 3.9939 19.97 3.5364 19.2744C1.0164 15.4344 0.813905 10.9232 2.2614 8.69941C3.32265 7.06629 6.0864 6.13441 6.5064 6.13441Z" fill="black"/>
<path d="M13.9764 1.13941C13.9445 2.10879 13.6127 3.05754 13.0614 3.76441C12.4839 4.50691 11.5127 5.02066 10.5714 5.17441C10.5883 4.24254 10.9558 3.27691 11.5164 2.59441C12.1052 1.88191 13.0802 1.36816 13.9764 1.13941Z" fill="black"/>
</svg>
