<?xml version="1.0" encoding="UTF-8"?>
<svg version="1.1" xmlns="http://www.w3.org/2000/svg" width="500" height="500">
<path d="M0 0 C2.17339617 1.12165348 4.36903496 2.12404139 6.61401367 3.09301758 C20.05257827 8.97537859 20.05257827 8.97537859 25.52807617 12.72167969 C28.72904533 14.41469949 30.80511819 14.53790985 34.41088867 14.56176758 C35.620271 14.58150635 36.82965332 14.60124512 38.07568359 14.62158203 C39.36708252 14.63278076 40.65848145 14.64397949 41.98901367 14.65551758 C74.51168859 15.27669342 109.29611861 19.25240642 137.23901367 37.15551758 C138.32698242 37.81293945 139.41495117 38.47036133 140.53588867 39.14770508 C146.17522711 42.59714813 146.17522711 42.59714813 148.23901367 44.15551758 C148.23901367 44.81551758 148.23901367 45.47551758 148.23901367 46.15551758 C149.55901367 46.81551758 150.87901367 47.47551758 152.23901367 48.15551758 C152.23901367 48.81551758 152.23901367 49.47551758 152.23901367 50.15551758 C153.55901367 50.81551758 154.87901367 51.47551758 156.23901367 52.15551758 C156.23901367 53.14551758 156.23901367 54.13551758 156.23901367 55.15551758 C152.50798007 55.94099834 148.85457194 56.29415423 145.05151367 56.40551758 C144.21233398 56.43129883 143.3731543 56.45708008 142.50854492 56.48364258 C140.23901367 56.15551758 140.23901367 56.15551758 138.43823242 54.82739258 C137.23901367 53.15551758 137.23901367 53.15551758 137.23901367 50.15551758 C136.24901367 49.82551758 135.25901367 49.49551758 134.23901367 49.15551758 C134.23901367 48.49551758 134.23901367 47.83551758 134.23901367 47.15551758 C132.91901367 46.49551758 131.59901367 45.83551758 130.23901367 45.15551758 C130.23901367 44.49551758 130.23901367 43.83551758 130.23901367 43.15551758 C129.24901367 43.15551758 128.25901367 43.15551758 127.23901367 43.15551758 C127.23901367 42.49551758 127.23901367 41.83551758 127.23901367 41.15551758 C126.1794043 40.75139648 126.1794043 40.75139648 125.09838867 40.33911133 C122.13339548 39.11179857 119.3357506 37.69786892 116.48901367 36.21801758 C107.76674464 31.73427765 107.76674464 31.73427765 98.23901367 30.15551758 C98.94928711 30.55383789 99.65956055 30.9521582 100.39135742 31.36254883 C101.31045898 31.89235352 102.22956055 32.4221582 103.17651367 32.96801758 C104.09303711 33.49008789 105.00956055 34.0121582 105.95385742 34.55004883 C108.23901367 36.15551758 108.23901367 36.15551758 109.23901367 39.15551758 C110.22901367 39.48551758 111.21901367 39.81551758 112.23901367 40.15551758 C113.62573242 41.89770508 113.62573242 41.89770508 114.92651367 44.03051758 C115.36350586 44.72918945 115.80049805 45.42786133 116.25073242 46.14770508 C117.23901367 48.15551758 117.23901367 48.15551758 117.23901367 51.15551758 C114.06363036 50.81529794 113.21624502 50.13085154 110.98901367 47.71801758 C109.23901367 45.15551758 109.23901367 45.15551758 109.23901367 43.15551758 C108.65506836 43.04079102 108.07112305 42.92606445 107.46948242 42.80786133 C105.07922594 42.10878457 103.57697914 41.14900681 101.55151367 39.71801758 C93.56284523 34.61824031 83.80718467 33.91184023 74.59838867 35.65551758 C65.56406038 38.09423196 59.51208623 42.21791128 53.78198242 49.58129883 C53.27280273 50.10079102 52.76362305 50.6202832 52.23901367 51.15551758 C51.24901367 51.15551758 50.25901367 51.15551758 49.23901367 51.15551758 C49.56901367 49.50551758 49.89901367 47.85551758 50.23901367 46.15551758 C50.89901367 46.15551758 51.55901367 46.15551758 52.23901367 46.15551758 C52.32151367 45.59864258 52.40401367 45.04176758 52.48901367 44.46801758 C53.47796909 41.41873839 55.08658833 39.50361795 57.23901367 37.15551758 C57.89901367 37.15551758 58.55901367 37.15551758 59.23901367 37.15551758 C59.23901367 36.49551758 59.23901367 35.83551758 59.23901367 35.15551758 C64.12182617 32.32348633 64.12182617 32.32348633 66.23901367 31.15551758 C67.15682617 30.62958008 68.07463867 30.10364258 69.02026367 29.56176758 C72.69634556 27.95571239 75.61934868 27.65644517 79.61401367 27.46801758 C80.85924805 27.40227539 82.10448242 27.3365332 83.38745117 27.26879883 C84.3284668 27.23141602 85.26948242 27.1940332 86.23901367 27.15551758 C84.8017961 26.86246237 83.3642154 26.57118822 81.92651367 26.28051758 C81.12600586 26.1180957 80.32549805 25.95567383 79.50073242 25.78833008 C78.42436523 25.57950195 77.34799805 25.37067383 76.23901367 25.15551758 C75.47447876 24.99727509 74.70994385 24.83903259 73.92224121 24.67599487 C67.12991876 23.33660994 60.54586742 22.7796902 53.63354492 22.59301758 C52.55183517 22.55619873 51.47012543 22.51937988 50.3556366 22.48144531 C46.92112793 22.36514841 43.4864223 22.25927514 40.05151367 22.15551758 C25.80899971 21.7164341 11.6267564 21.17986128 -2.56437683 19.84338379 C-10.10473733 19.14363365 -17.61575276 18.87931444 -25.18711853 18.82244873 C-29.49183315 18.76676432 -31.27964833 18.52098932 -34.81176758 15.83911133 C-37.34147509 12.35632763 -37.38530814 10.36968983 -36.76098633 6.15551758 C-35.76098633 4.21801758 -35.76098633 4.21801758 -33.76098633 3.15551758 C-31.0421661 2.91956474 -28.50141611 3.02074234 -25.76098633 3.15551758 C-29.30523984 1.10358133 -32.82421206 0.38294662 -36.82348633 -0.40698242 C-38.05196289 -0.65577148 -39.28043945 -0.90456055 -40.54614258 -1.16088867 C-72.70825684 -6.80507802 -106.74868691 -1.28695282 -138.76098633 3.15551758 C-138.26598633 5.13551758 -138.26598633 5.13551758 -137.76098633 7.15551758 C-136.42293945 7.24639648 -136.42293945 7.24639648 -135.05786133 7.33911133 C-133.88739258 7.42290039 -132.71692383 7.50668945 -131.51098633 7.59301758 C-130.35083008 7.67422852 -129.19067383 7.75543945 -127.99536133 7.83911133 C-124.76098633 8.15551758 -124.76098633 8.15551758 -123.00268555 8.63037109 C-119.9061544 9.3557728 -116.82635016 9.58867544 -113.65942383 9.87426758 C-112.2687957 10.00314004 -110.87817079 10.13204733 -109.48754883 10.26098633 C-107.30406181 10.45961957 -105.12046038 10.65691367 -102.93676758 10.85327148 C-100.8231643 11.04442546 -98.71004675 11.24038549 -96.59692383 11.43676758 C-95.33412598 11.55084961 -94.07132813 11.66493164 -92.77026367 11.7824707 C-89.76098633 12.15551758 -89.76098633 12.15551758 -87.76098633 13.15551758 C-87.76098633 13.81551758 -87.76098633 14.47551758 -87.76098633 15.15551758 C-103.93098633 15.15551758 -120.10098633 15.15551758 -136.76098633 15.15551758 C-126.67536133 15.86708008 -126.67536133 15.86708008 -116.38598633 16.59301758 C-114.30495605 16.74053467 -112.22392578 16.88805176 -110.07983398 17.04003906 C-100.65258682 17.70349985 -91.22674069 18.31145422 -81.78926086 18.80905151 C-77.0214789 19.06685745 -72.28037626 19.44572834 -67.52905273 19.90991211 C-62.19917706 20.38282223 -56.85514314 20.65837244 -51.51391602 20.97146606 C-40.55126104 21.61662349 -29.61965699 22.38762822 -18.69042969 23.47338867 C-10.58931808 24.24448336 -2.48134767 24.56720288 5.65112305 24.81396484 C6.6134082 24.84546631 7.57569336 24.87696777 8.56713867 24.90942383 C9.42210937 24.93335205 10.27708008 24.95728027 11.15795898 24.98193359 C13.23901367 25.15551758 13.23901367 25.15551758 15.23901367 26.15551758 C15.23901367 26.81551758 15.23901367 27.47551758 15.23901367 28.15551758 C-0.47659843 29.07611238 -16.13437823 29.289262 -31.87426758 29.25317383 C-34.31048045 29.25130316 -36.74669371 29.24988233 -39.1829071 29.24888611 C-45.52020348 29.24511195 -51.85747606 29.23532677 -58.19476318 29.22418213 C-64.69144367 29.21385679 -71.18812809 29.20936493 -77.68481445 29.2043457 C-90.37688176 29.19369865 -103.06893276 29.17688436 -115.76098633 29.15551758 C-115.4342392 29.97574654 -115.4342392 29.97574654 -115.10089111 30.81254578 C-114.82146667 31.53118301 -114.54204224 32.24982025 -114.25415039 32.99023438 C-113.83459076 34.05796333 -113.83459076 34.05796333 -113.40655518 35.14726257 C-112.58132979 37.71439855 -112.75102822 39.39620813 -113.51098633 41.96801758 C-113.71208008 42.69633789 -113.91317383 43.4246582 -114.12036133 44.17504883 C-114.65831629 45.83811692 -115.2082485 47.4973041 -115.76098633 49.15551758 C-116.75098633 49.15551758 -117.74098633 49.15551758 -118.76098633 49.15551758 C-119.24107895 47.09323292 -119.72002177 45.03068057 -120.19848633 42.96801758 C-120.46532227 41.81946289 -120.7321582 40.6709082 -121.00708008 39.48754883 C-121.63410834 36.71627883 -122.2199781 33.94459884 -122.76098633 31.15551758 C-123.42098633 31.15551758 -124.08098633 31.15551758 -124.76098633 31.15551758 C-126.88598633 29.28051758 -126.88598633 29.28051758 -128.76098633 27.15551758 C-128.76098633 26.49551758 -128.76098633 25.83551758 -128.76098633 25.15551758 C-129.44161133 24.88739258 -130.12223633 24.61926758 -130.82348633 24.34301758 C-132.94371929 23.48590212 -135.0461661 22.58432657 -137.13598633 21.65551758 C-140.67334163 20.19178435 -144.06939013 19.13492065 -147.76098633 18.15551758 C-147.76098633 16.83551758 -147.76098633 15.51551758 -147.76098633 14.15551758 C-148.42098633 14.48551758 -149.08098633 14.81551758 -149.76098633 15.15551758 C-151.59643633 15.2505639 -153.43244358 15.33958198 -155.26953125 15.39453125 C-173.96178387 15.99073428 -196.25077638 18.63902721 -211.01879883 31.23364258 C-214.88424942 35.49777193 -216.61161937 40.02703842 -217.01098633 45.71801758 C-216.88723633 46.92458008 -216.88723633 46.92458008 -216.76098633 48.15551758 C-220.76098633 48.15551758 -220.76098633 48.15551758 -222.39379883 46.54614258 C-223.13243164 45.4865332 -223.13243164 45.4865332 -223.88598633 44.40551758 C-224.38356445 43.70942383 -224.88114258 43.01333008 -225.39379883 42.29614258 C-228.26728776 37.79707991 -229.95489433 33.5951472 -229.76098633 28.15551758 C-227.64733615 22.31781709 -224.45086435 19.62760204 -219.08520508 16.63598633 C-212.5590551 13.7295106 -205.70027975 11.78508959 -198.85424805 9.77929688 C-196.13418731 8.96873527 -193.44845382 8.06774246 -190.76098633 7.15551758 C-179.89604178 3.59094408 -168.87405105 0.82233035 -157.76098633 -1.84448242 C-156.8823291 -2.0575 -156.00367188 -2.27051758 -155.09838867 -2.48999023 C-136.97758988 -6.85860425 -118.55642679 -10.89885178 -99.88208008 -11.66870117 C-96.46461282 -11.8611743 -93.14668851 -12.34736041 -89.76098633 -12.84448242 C-59.48962503 -15.81298153 -27.44345383 -14.36867102 0 0 Z M-22.76098633 4.15551758 C-21.99786133 4.71239258 -21.23473633 5.26926758 -20.44848633 5.84301758 C-17.76098633 8.15551758 -17.76098633 8.15551758 -16.26098633 10.84301758 C-14.98735595 13.29710098 -14.98735595 13.29710098 -12.69848633 13.96801758 C-8.383373 14.24345034 -4.08295267 14.23104709 0.23901367 14.15551758 C-2.24241044 10.43338141 -3.97903582 10.08298074 -8.13598633 8.59301758 C-14.54213458 6.27205416 -14.54213458 6.27205416 -16.92504883 5.00317383 C-19.02922589 3.8760638 -19.02922589 3.8760638 -22.76098633 4.15551758 Z M88.23901367 27.15551758 C88.23901367 27.48551758 88.23901367 27.81551758 88.23901367 28.15551758 C89.88901367 28.15551758 91.53901367 28.15551758 93.23901367 28.15551758 C93.23901367 27.82551758 93.23901367 27.49551758 93.23901367 27.15551758 C91.58901367 27.15551758 89.93901367 27.15551758 88.23901367 27.15551758 Z " fill="#232224" transform="translate(272.760986328125,224.844482421875)"/>
<path d="M0 0 C1.41655793 -0.0272415 2.83327045 -0.04650467 4.25 -0.0625 C5.03890625 -0.07410156 5.8278125 -0.08570313 6.640625 -0.09765625 C9 0 9 0 10.70361328 0.46118164 C13.82024718 1.19246072 16.91357196 1.4312583 20.1015625 1.71875 C21.49219063 1.84762246 22.88281554 1.97652975 24.2734375 2.10546875 C26.45692452 2.30410199 28.64052595 2.50139609 30.82421875 2.69775391 C32.93782203 2.88890788 35.05093958 3.08486791 37.1640625 3.28125 C38.42686035 3.39533203 39.6896582 3.50941406 40.99072266 3.62695312 C44 4 44 4 46 5 C46 5.66 46 6.32 46 7 C29.83 7 13.66 7 -3 7 C7.085625 7.7115625 7.085625 7.7115625 17.375 8.4375 C19.45603027 8.58501709 21.53706055 8.73253418 23.68115234 8.88452148 C33.10839951 9.54798227 42.53424564 10.15593664 51.97172546 10.65353394 C56.73950743 10.91133987 61.48061007 11.29021076 66.23193359 11.75439453 C71.56180926 12.22730465 76.90584319 12.50285487 82.24707031 12.81594849 C93.20972529 13.46110592 104.14132934 14.23211065 115.07055664 15.31787109 C123.17166824 16.08896579 131.27963866 16.4116853 139.41210938 16.65844727 C140.37439453 16.68994873 141.33667969 16.7214502 142.328125 16.75390625 C143.61058105 16.78979858 143.61058105 16.78979858 144.91894531 16.82641602 C147 17 147 17 149 18 C149 18.66 149 19.32 149 20 C133.2843879 20.9205948 117.6266081 21.13374442 101.88671875 21.09765625 C99.45050587 21.09578558 97.01429261 21.09436475 94.57807922 21.09336853 C88.24078285 21.08959437 81.90351027 21.0798092 75.56622314 21.06866455 C69.06954266 21.05833922 62.57285824 21.05384735 56.07617188 21.04882812 C43.38410457 21.03818107 30.69205357 21.02136679 18 21 C18.21783142 21.54681931 18.43566284 22.09363861 18.66009521 22.6570282 C18.93951965 23.37566544 19.21894409 24.09430267 19.50683594 24.8347168 C19.78654236 25.5465361 20.06624878 26.25835541 20.35443115 26.991745 C21.17965654 29.55888098 21.00995811 31.24069055 20.25 33.8125 C20.04890625 34.54082031 19.8478125 35.26914062 19.640625 36.01953125 C19.10267003 37.68259935 18.55273783 39.34178652 18 41 C17.01 41 16.02 41 15 41 C14.51990738 38.93771534 14.04096456 36.87516299 13.5625 34.8125 C13.29566406 33.66394531 13.02882812 32.51539063 12.75390625 31.33203125 C12.12687799 28.56076125 11.54100823 25.78908126 11 23 C10.34 23 9.68 23 9 23 C6.875 21.125 6.875 21.125 5 19 C5 18.34 5 17.68 5 17 C4.319375 16.731875 3.63875 16.46375 2.9375 16.1875 C0.81726704 15.33038455 -1.28517977 14.42880899 -3.375 13.5 C-6.9123553 12.03626677 -10.3084038 10.97940307 -14 10 C-14 8.68 -14 7.36 -14 6 C-14.99 6.495 -14.99 6.495 -16 7 C-18.37402501 7.07116382 -20.75000677 7.08409085 -23.125 7.0625 C-24.40632813 7.05347656 -25.68765625 7.04445312 -27.0078125 7.03515625 C-28.48894531 7.01775391 -28.48894531 7.01775391 -30 7 C-30 6.67 -30 6.34 -30 6 C-29.10168457 5.9498877 -28.20336914 5.89977539 -27.27783203 5.84814453 C-23.94886224 5.65800392 -20.62060798 5.45953673 -17.29248047 5.25537109 C-15.85127201 5.1686843 -14.40985893 5.0853329 -12.96826172 5.00537109 C-10.89748432 4.88993202 -8.82773632 4.76256197 -6.7578125 4.6328125 C-5.5114502 4.55949707 -4.26508789 4.48618164 -2.98095703 4.41064453 C0.11236751 4.29029559 0.11236751 4.29029559 2 2 C1.34 1.34 0.68 0.68 0 0 Z " fill="#262526" transform="translate(139,233)"/>
<path d="M0 0 C4.50490956 -0.22725063 8.62686351 -0.17417149 13 1 C15.21036749 3.42799054 16.37388197 5.64137828 17.65625 8.65234375 C19.42406773 11.74088577 20.61864279 11.9625747 24 13 C26.61804785 13.28637912 29.15291898 13.48594363 31.77709961 13.59375 C32.52409842 13.63077026 33.27109724 13.66779053 34.04073238 13.70593262 C41.87909432 14.07853958 49.72200984 14.3030509 57.56640625 14.5 C59.09887957 14.54072666 60.63134505 14.58174964 62.1638031 14.62304688 C66.15742375 14.7301277 70.15111344 14.83431396 74.14483643 14.9375 C81.26461814 15.12155636 88.38430887 15.30894753 95.50390625 15.5 C96.6427722 15.530439 96.6427722 15.530439 97.80464554 15.56149292 C110.87563341 15.91350615 123.93803788 16.39579286 137 17 C137.33 17.66 137.66 18.32 138 19 C108.57464699 19.60840241 79.14568776 20.12091721 49.71374512 20.23217773 C47.07870657 20.24402571 44.44368612 20.26108589 41.80871582 20.28344727 C38.11715289 20.31320187 34.42604378 20.32333096 30.734375 20.328125 C29.64523804 20.34043152 28.55610107 20.35273804 27.43395996 20.36541748 C20.00669397 20.34369514 14.92405543 19.65823221 9.25 14.5 C8.5075 13.675 7.765 12.85 7 12 C6.4225 11.46375 5.845 10.9275 5.25 10.375 C4 9 4 9 3 6 C2.01 5.34 1.02 4.68 0 4 C0 2.68 0 1.36 0 0 Z " fill="#323132" transform="translate(171,256)"/>
<path d="M0 0 C6.48176208 -0.25594322 11.58176474 0.35985233 17.6875 2.5 C18.85261108 2.89940796 18.85261108 2.89940796 20.04125977 3.30688477 C27.60533607 6.01803713 34.2120732 9.71939974 41 14 C42.09183594 14.65871094 43.18367188 15.31742187 44.30859375 15.99609375 C49.95535062 19.45608108 49.95535062 19.45608108 52 21 C52 21.66 52 22.32 52 23 C53.32 23.66 54.64 24.32 56 25 C56 25.66 56 26.32 56 27 C57.32 27.66 58.64 28.32 60 29 C60 29.99 60 30.98 60 32 C56.2689664 32.78548076 52.61555827 33.13863665 48.8125 33.25 C47.97332031 33.27578125 47.13414062 33.3015625 46.26953125 33.328125 C44 33 44 33 42.19921875 31.671875 C41 30 41 30 41 27 C40.01 26.67 39.02 26.34 38 26 C38 25.34 38 24.68 38 24 C36.68 23.34 35.36 22.68 34 22 C34 21.34 34 20.68 34 20 C33.01 20 32.02 20 31 20 C31 19.34 31 18.68 31 18 C30.29875 17.731875 29.5975 17.46375 28.875 17.1875 C24.77928314 15.49579086 20.88281471 13.45041567 16.9375 11.4375 C14.0625569 9.98154884 14.0625569 9.98154884 11.234375 8.9140625 C8.8717184 7.94752117 7.69695681 6.8666525 6 5 C5.67 5 5.34 5 5 5 C2.66666667 5 0.33333333 5 -2 5 C-1.34 3.35 -0.68 1.7 0 0 Z " fill="#212021" transform="translate(369,248)"/>
<path d="M0 0 C0 0.66 0 1.32 0 2 C0.86625 2.14888672 0.86625 2.14888672 1.75 2.30078125 C7.92459057 4.21962103 13.02363663 10.52349139 16 16 C16.75 18.875 16.75 18.875 17 21 C13.28999757 20.45393904 12.08510254 19.20420742 9.875 16.25 C4.23543437 9.51150403 -3.50074031 6.50793317 -12 5 C-23.54684413 4.24282989 -32.86609859 6.71618707 -42 14 C-44.13615927 16.24492502 -46.03833876 18.59696498 -48 21 C-48.99 21 -49.98 21 -51 21 C-50.125 16.25 -50.125 16.25 -49 14 C-48.34 14 -47.68 14 -47 14 C-46.34 12.35 -45.68 10.7 -45 9 C-44.34 9 -43.68 9 -43 9 C-43 8.34 -43 7.68 -43 7 C-30.26125837 -3.37008672 -15.42396863 -5.9705685 0 0 Z " fill="#202022" transform="translate(128,255)"/>
<path d="M0 0 C0.33 0.66 0.66 1.32 1 2 C0.34 2 -0.32 2 -1 2 C-0.67 3.32 -0.34 4.64 0 6 C0.66 6 1.32 6 2 6 C1 9 1 9 -1 11 C-1.433125 11.8971875 -1.433125 11.8971875 -1.875 12.8125 C-3 15 -3 15 -5 17.375 C-8.54044763 22.02183752 -9.27424199 26.24091812 -9 32 C-13 32 -13 32 -14.6328125 30.390625 C-15.37144531 29.33101563 -15.37144531 29.33101563 -16.125 28.25 C-16.62257813 27.55390625 -17.12015625 26.8578125 -17.6328125 26.140625 C-20.50130477 21.64938567 -22.21366986 17.43331932 -22 12 C-19.58480544 5.80450091 -15.9930813 2.7767172 -10 0 C-6.38659366 -0.97284017 -3.52191135 -1.43485277 0 0 Z " fill="#191919" transform="translate(65,241)"/>
<path d="M0 0 C5.48025264 1.71769112 5.48025264 1.71769112 7.46484375 5.5078125 C11.13111536 10.04812326 15.19417605 10.03824929 20.78125 10.78125 C22.73755446 11.07431006 24.69330654 11.37108562 26.6484375 11.671875 C27.56077148 11.80916016 28.47310547 11.94644531 29.41308594 12.08789062 C32.36428366 12.61270213 35.11186058 13.45138426 37.90625 14.53125 C37.90625 14.86125 37.90625 15.19125 37.90625 15.53125 C29.90562954 15.59914925 21.90690945 15.59228789 13.90625 15.53125 C12.87757813 15.52544922 11.84890625 15.51964844 10.7890625 15.51367188 C7.93086071 15.48553997 5.07599601 15.42108323 2.21875 15.34375 C1.35354736 15.33802979 0.48834473 15.33230957 -0.40307617 15.32641602 C-4.73895179 15.17059211 -6.59347774 14.91237931 -10.14453125 12.20703125 C-12.67765956 8.72969079 -12.71764729 6.74255674 -12.09375 2.53125 C-9.57519701 -2.06140545 -4.50694686 -1.00901795 0 0 Z " fill="#222123" transform="translate(248.09375,228.46875)"/>
<path d="M0 0 C0.8664917 -0.00451172 1.7329834 -0.00902344 2.62573242 -0.01367188 C8.19921399 -0.00088499 13.59562002 0.42126073 19.125 1.125 C19.125 1.455 19.125 1.785 19.125 2.125 C15.165 2.125 11.205 2.125 7.125 2.125 C7.62 5.095 7.62 5.095 8.125 8.125 C8.83527344 8.17398438 9.54554688 8.22296875 10.27734375 8.2734375 C11.65599609 8.38558594 11.65599609 8.38558594 13.0625 8.5 C13.97902344 8.56960937 14.89554688 8.63921875 15.83984375 8.7109375 C16.59394531 8.84757813 17.34804687 8.98421875 18.125 9.125 C18.62 10.115 18.62 10.115 19.125 11.125 C2.295 11.125 -14.535 11.125 -31.875 11.125 C-31.875 10.795 -31.875 10.465 -31.875 10.125 C-25.935 9.63 -25.935 9.63 -19.875 9.125 C-19.875 8.795 -19.875 8.465 -19.875 8.125 C-21.195 8.125 -22.515 8.125 -23.875 8.125 C-23.875 7.465 -23.875 6.805 -23.875 6.125 C-23.215 6.125 -22.555 6.125 -21.875 6.125 C-21.875 5.465 -21.875 4.805 -21.875 4.125 C-20.885 3.795 -19.895 3.465 -18.875 3.125 C-21.185 2.795 -23.495 2.465 -25.875 2.125 C-25.875 1.795 -25.875 1.465 -25.875 1.125 C-17.24359184 0.38251328 -8.66314724 0.01846661 0 0 Z " fill="#333335" transform="translate(208.875,210.875)"/>
<path d="M0 0 C1.41655793 -0.0272415 2.83327045 -0.04650467 4.25 -0.0625 C5.03890625 -0.07410156 5.8278125 -0.08570313 6.640625 -0.09765625 C9 0 9 0 10.70361328 0.46118164 C13.82024718 1.19246072 16.91357196 1.4312583 20.1015625 1.71875 C21.49219063 1.84762246 22.88281554 1.97652975 24.2734375 2.10546875 C26.45692452 2.30410199 28.64052595 2.50139609 30.82421875 2.69775391 C32.93782203 2.88890788 35.05093958 3.08486791 37.1640625 3.28125 C38.42686035 3.39533203 39.6896582 3.50941406 40.99072266 3.62695312 C44 4 44 4 46 5 C46 5.66 46 6.32 46 7 C29.83 7 13.66 7 -3 7 C0.3 7.33 3.6 7.66 7 8 C7 8.33 7 8.66 7 9 C3.7 9 0.4 9 -3 9 C-2.27731765 12.2985139 -2.27731765 12.2985139 1.0625 13.6875 C2.5165625 14.3371875 2.5165625 14.3371875 4 15 C3.67 15.66 3.34 16.32 3 17 C2.35933594 16.66226563 1.71867187 16.32453125 1.05859375 15.9765625 C-3.91183896 13.41356739 -8.55791498 11.30136816 -14 10 C-14 8.68 -14 7.36 -14 6 C-14.99 6.495 -14.99 6.495 -16 7 C-18.37402501 7.07116382 -20.75000677 7.08409085 -23.125 7.0625 C-24.40632813 7.05347656 -25.68765625 7.04445312 -27.0078125 7.03515625 C-28.48894531 7.01775391 -28.48894531 7.01775391 -30 7 C-30 6.67 -30 6.34 -30 6 C-29.10168457 5.9498877 -28.20336914 5.89977539 -27.27783203 5.84814453 C-23.94886224 5.65800392 -20.62060798 5.45953673 -17.29248047 5.25537109 C-15.85127201 5.1686843 -14.40985893 5.0853329 -12.96826172 5.00537109 C-10.89748432 4.88993202 -8.82773632 4.76256197 -6.7578125 4.6328125 C-5.5114502 4.55949707 -4.26508789 4.48618164 -2.98095703 4.41064453 C0.11236751 4.29029559 0.11236751 4.29029559 2 2 C1.34 1.34 0.68 0.68 0 0 Z " fill="#171621" transform="translate(139,233)"/>
<path d="M0 0 C-0.6875 1.9375 -0.6875 1.9375 -2 4 C-4.625 4.75 -4.625 4.75 -7 5 C-6.7525 5.928125 -6.7525 5.928125 -6.5 6.875 C-6 9 -6 9 -6 11 C-5.21367188 10.68289062 -4.42734375 10.36578125 -3.6171875 10.0390625 C0.91556757 8.73699679 5.18278778 8.54459803 9.875 8.375 C11.19371094 8.31699219 11.19371094 8.31699219 12.5390625 8.2578125 C14.69238793 8.16418966 16.84616414 8.08103541 19 8 C15.71052975 10.19298016 13.99187682 10.41173114 10.125 10.875 C-0.73577138 12.43344217 -10.38621355 15.7543437 -20 21 C-20.66 21.33 -21.32 21.66 -22 22 C-22.33 21.01 -22.66 20.02 -23 19 C-21.68 17.68 -20.36 16.36 -19 15 C-19.66 15 -20.32 15 -21 15 C-21.5534764 12.92446352 -22 11.15634036 -22 9 C-24.31 9 -26.62 9 -29 9 C-25.52614142 6.68409428 -22.01935435 5.66899009 -18.0625 4.5 C-2.52595269 -0.11481603 -2.52595269 -0.11481603 0 0 Z " fill="#1C1C1D" transform="translate(86,232)"/>
<path d="M0 0 C0.92232422 0.05220703 1.84464844 0.10441406 2.79492188 0.15820312 C5.05121536 0.28680016 7.30694029 0.4217071 9.5625 0.5625 C9.5625 0.8925 9.5625 1.2225 9.5625 1.5625 C3.1275 2.0575 3.1275 2.0575 -3.4375 2.5625 C-3.4375 3.2225 -3.4375 3.8825 -3.4375 4.5625 C-1.62634044 6.37365956 1.17528227 5.94449448 3.625 6.125 C5.28208984 6.25068359 5.28208984 6.25068359 6.97265625 6.37890625 C7.82730469 6.43949219 8.68195313 6.50007812 9.5625 6.5625 C9.5625 6.8925 9.5625 7.2225 9.5625 7.5625 C8.88670898 7.61784912 8.21091797 7.67319824 7.51464844 7.73022461 C4.44697302 7.98340531 1.37974404 8.2416479 -1.6875 8.5 C-3.28271484 8.63051758 -3.28271484 8.63051758 -4.91015625 8.76367188 C-5.93496094 8.85068359 -6.95976562 8.93769531 -8.015625 9.02734375 C-9.42956543 9.14517212 -9.42956543 9.14517212 -10.87207031 9.26538086 C-13.39041337 9.49846449 -13.39041337 9.49846449 -15.6015625 10.1171875 C-18.29273118 10.76993905 -20.49444804 10.17002242 -23.1875 9.625 C-24.17234375 9.43035156 -25.1571875 9.23570312 -26.171875 9.03515625 C-26.91953125 8.87917969 -27.6671875 8.72320312 -28.4375 8.5625 C-28.4375 9.2225 -28.4375 9.8825 -28.4375 10.5625 C-31.0775 10.5625 -33.7175 10.5625 -36.4375 10.5625 C-35.1175 9.2425 -33.7975 7.9225 -32.4375 6.5625 C-33.4275 5.9025 -34.4175 5.2425 -35.4375 4.5625 C-33.85523035 4.36622609 -32.27160729 4.18084462 -30.6875 4 C-29.80578125 3.89558594 -28.9240625 3.79117188 -28.015625 3.68359375 C-25.55317549 3.56793324 -23.77211936 3.82611305 -21.4375 4.5625 C-21.4375 3.9025 -21.4375 3.2425 -21.4375 2.5625 C-20.4475 2.5625 -19.4575 2.5625 -18.4375 2.5625 C-18.1075 1.9025 -17.7775 1.2425 -17.4375 0.5625 C-11.59580698 -0.74698018 -5.93958166 -0.37202563 0 0 Z " fill="#1B1A1B" transform="translate(190.4375,212.4375)"/>
<path d="M0 0 C1.41750563 0.11509661 2.83401169 0.24253658 4.25 0.375 C5.03890625 0.44460937 5.8278125 0.51421875 6.640625 0.5859375 C9.11950243 1.02097228 10.87024344 1.66650378 13 3 C13.33333333 4.33333333 13.66666667 5.66666667 14 7 C15.9837767 8.28436734 15.9837767 8.28436734 18 9 C17.67 9.598125 17.34 10.19625 17 10.8125 C15.79212012 13.05386471 15.79212012 13.05386471 16 16 C3.09638554 13.35742972 3.09638554 13.35742972 0.6875 10.375 C-0.32932398 6.86233535 -0.12169983 3.65099493 0 0 Z " fill="#1C1C1D" transform="translate(265,224)"/>
<path d="M0 0 C0 0.33 0 0.66 0 1 C-2.64 1.66 -5.28 2.32 -8 3 C-8 3.99 -8 4.98 -8 6 C-9.32 6 -10.64 6 -12 6 C-12 6.66 -12 7.32 -12 8 C-11.34 7.67 -10.68 7.34 -10 7 C-7.3276379 6.86584528 -4.67749512 6.95681459 -2 7 C-2 7.33 -2 7.66 -2 8 C-2.66644531 8.06316406 -3.33289063 8.12632812 -4.01953125 8.19140625 C-15.49673257 9.71634908 -22.83681705 15.22510089 -30 24 C-30.99 24 -31.98 24 -33 24 C-32.125 19.25 -32.125 19.25 -31 17 C-30.34 17 -29.68 17 -29 17 C-28.34 15.35 -27.68 13.7 -27 12 C-26.34 12 -25.68 12 -25 12 C-25 11.34 -25 10.68 -25 10 C-17.75760609 4.10426437 -9.42677426 -0.20948387 0 0 Z " fill="#3E3D41" transform="translate(110,252)"/>
<path d="M0 0 C0.495 0.99 0.495 0.99 1 2 C-28.04 2 -57.08 2 -87 2 C-87 1.67 -87 1.34 -87 1 C-74.56742986 0.11061937 -62.14724052 -0.33992332 -49.6875 -0.625 C-48.72920288 -0.64779022 -47.77090576 -0.67058044 -46.78356934 -0.69406128 C-31.14684901 -1.0539437 -15.61862829 -0.94457146 0 0 Z " fill="#080506" transform="translate(308,273)"/>
<path d="M0 0 C2.25 0.25 2.25 0.25 5 1 C5.5053125 1.66 6.010625 2.32 6.53125 3 C10.39158216 6.1273577 14.42091338 5.67560231 19.25 5.75 C20.65378906 5.79447266 20.65378906 5.79447266 22.0859375 5.83984375 C24.39071092 5.91039804 26.69448168 5.96316252 29 6 C29 6.33 29 6.66 29 7 C27.02 7.33 25.04 7.66 23 8 C25.97 8 28.94 8 32 8 C32 8.66 32 9.32 32 10 C20.45 10 8.9 10 -3 10 C-3 3.25 -3 3.25 0 0 Z " fill="#100E12" transform="translate(291,235)"/>
<path d="M0 0 C0.66 0.33 1.32 0.66 2 1 C1.67 1.66 1.34 2.32 1 3 C4.3 3 7.6 3 11 3 C8.34898031 4.76734646 6.66136389 5.5018448 3.6875 6.375 C-3.5232462 8.73975198 -7.7337454 12.52894822 -12.38671875 18.390625 C-14 20 -14 20 -17 20 C-16.67 18.35 -16.34 16.7 -16 15 C-15.34 15 -14.68 15 -14 15 C-13.9175 14.443125 -13.835 13.88625 -13.75 13.3125 C-12.76104459 10.26322081 -11.15242534 8.34810037 -9 6 C-8.34 6 -7.68 6 -7 6 C-7 5.34 -7 4.68 -7 4 C-1.7265625 0.77734375 -1.7265625 0.77734375 0 0 Z " fill="#302E32" transform="translate(339,256)"/>
<path d="M0 0 C1.08539063 0.08314453 2.17078125 0.16628906 3.2890625 0.25195312 C9.56828473 0.77142984 15.51106596 1.66223435 21.625 3.1875 C21.625 3.8475 21.625 4.5075 21.625 5.1875 C8.23741696 5.62563908 -5.0482607 4.3178528 -18.375 3.1875 C-18.705 2.1975 -19.035 1.2075 -19.375 0.1875 C-12.82214716 -1.13621383 -6.62691437 -0.57438468 0 0 Z " fill="#212026" transform="translate(163.375,234.8125)"/>
<path d="M0 0 C0.33 0.66 0.66 1.32 1 2 C0.01 2 -0.98 2 -2 2 C-2 2.66 -2 3.32 -2 4 C-5.3 4 -8.6 4 -12 4 C-12 5.32 -12 6.64 -12 8 C-11.01 8.66 -10.02 9.32 -9 10 C-9 9.34 -9 8.68 -9 8 C-3.555 8.495 -3.555 8.495 2 9 C2 9.33 2 9.66 2 10 C-7.08785235 11.39049107 -15.78372955 12.30892527 -25 12 C-24.01 11.34 -23.02 10.68 -22 10 C-22.66 9.34 -23.32 8.68 -24 8 C-22.35 7.67 -20.7 7.34 -19 7 C-19 6.34 -19 5.68 -19 5 C-21.64 5 -24.28 5 -27 5 C-27 4.67 -27 4.34 -27 4 C-18.01638277 2.34292907 -9.11689851 0.72356337 0 0 Z " fill="#353034" transform="translate(171,213)"/>
<path d="M0 0 C0 0.66 0 1.32 0 2 C-0.66 2 -1.32 2 -2 2 C-2 2.66 -2 3.32 -2 4 C-5.10301129 4.36482375 -8.20750373 4.71500944 -11.3125 5.0625 C-12.19357422 5.16626953 -13.07464844 5.27003906 -13.98242188 5.37695312 C-14.82998047 5.47041016 -15.67753906 5.56386719 -16.55078125 5.66015625 C-17.33106689 5.74918213 -18.11135254 5.83820801 -18.9152832 5.92993164 C-21 6 -21 6 -24 5 C-23.75 3.125 -23.75 3.125 -23 1 C-16.68963679 -3.79587604 -7.01493223 -1.96418102 0 0 Z " fill="#141216" transform="translate(364,254)"/>
<path d="M0 0 C0.268125 0.598125 0.53625 1.19625 0.8125 1.8125 C2.05317513 4.09795418 2.92085706 5.44064279 5 7 C6.99551782 7.35919321 8.99548879 7.69496569 11 8 C11.495 8.99 11.495 8.99 12 10 C8.15516042 12.50219719 4.06492501 12.44693809 -0.375 12.625 C-1.16632324 12.66294678 -1.95764648 12.70089355 -2.77294922 12.73999023 C-9.85013594 13.05353648 -16.91644592 13.10249516 -24 13 C-20.48974207 10.83720049 -17.63355905 10.80647712 -13.5625 10.75 C-9.07742241 10.56035423 -9.07742241 10.56035423 -5.109375 8.74609375 C-2.95203501 6.15338695 -1.31344444 3.10450504 0 0 Z " fill="#141315" transform="translate(131,226)"/>
<path d="M0 0 C6.27 0 12.54 0 19 0 C19 0.33 19 0.66 19 1 C12.565 1.495 12.565 1.495 6 2 C6 2.66 6 3.32 6 4 C7.81115956 5.81115956 10.61278227 5.38199448 13.0625 5.5625 C14.16722656 5.64628906 15.27195313 5.73007813 16.41015625 5.81640625 C17.26480469 5.87699219 18.11945313 5.93757812 19 6 C19 6.33 19 6.66 19 7 C18.32420898 7.05534912 17.64841797 7.11069824 16.95214844 7.16772461 C13.88447302 7.42090531 10.81724404 7.6791479 7.75 7.9375 C6.15478516 8.06801758 6.15478516 8.06801758 4.52734375 8.20117188 C3.50253906 8.28818359 2.47773438 8.37519531 1.421875 8.46484375 C0.00793457 8.58267212 0.00793457 8.58267212 -1.43457031 8.70288086 C-3.94466169 8.93093031 -3.94466169 8.93093031 -6.10449219 9.56079102 C-9.14590687 10.26551861 -11.96290186 9.5256516 -15 9 C-15 8.67 -15 8.34 -15 8 C-10.71 7.34 -6.42 6.68 -2 6 C-1.34 4.02 -0.68 2.04 0 0 Z " fill="#0F0F10" transform="translate(181,213)"/>
<path d="M0 0 C8.26082413 1.01177241 16.11962476 2.276368 24 5 C24 5.33 24 5.66 24 6 C20.16673205 6.05859888 16.33358112 6.09379643 12.5 6.125 C11.42234375 6.14175781 10.3446875 6.15851563 9.234375 6.17578125 C3.11175408 6.2131143 -2.14105614 5.80603367 -8 4 C-8 3.67 -8 3.34 -8 3 C-5.69 3 -3.38 3 -1 3 C-0.67 2.01 -0.34 1.02 0 0 Z " fill="#0F0F10" transform="translate(262,238)"/>
<path d="M0 0 C0 3 0 3 -1 5.8125 C-2.02180756 9.06951159 -2.16134036 11.61185252 -2 15 C-6 15 -6 15 -7.703125 13.3203125 C-8.21359375 12.59585937 -8.7240625 11.87140625 -9.25 11.125 C-9.77078125 10.40570313 -10.2915625 9.68640625 -10.828125 8.9453125 C-12 7 -12 7 -12 5 C-8.26436721 2.28317615 -4.44380808 1.13273539 0 0 Z " fill="#222225" transform="translate(58,258)"/>
<path d="M0 0 C0.66451172 0.08507812 1.32902344 0.17015625 2.01367188 0.2578125 C3.0278418 0.350625 3.0278418 0.350625 4.0625 0.4453125 C6.69985362 0.70773575 8.93707308 0.9382631 11.32617188 2.1328125 C11.32617188 2.7928125 11.32617188 3.4528125 11.32617188 4.1328125 C10.33617187 4.4628125 9.34617187 4.7928125 8.32617188 5.1328125 C8.98617188 5.7928125 9.64617187 6.4528125 10.32617188 7.1328125 C3.09871137 7.37372785 -3.57677151 6.47777078 -10.67382812 5.1328125 C-7.36286862 1.02133087 -5.38343576 -0.46858788 0 0 Z " fill="#1C1B1D" transform="translate(355.673828125,243.8671875)"/>
<path d="M0 0 C0.74056641 0.05671875 1.48113281 0.1134375 2.24414062 0.171875 C4.05943743 0.31241411 5.87361597 0.46727095 7.6875 0.625 C7.6875 1.285 7.6875 1.945 7.6875 2.625 C8.3475 3.285 9.0075 3.945 9.6875 4.625 C-0.7075 5.12 -0.7075 5.12 -11.3125 5.625 C-11.9725 4.305 -12.6325 2.985 -13.3125 1.625 C-8.83671488 -0.68793038 -4.87371482 -0.43554199 0 0 Z " fill="#29282A" transform="translate(197.3125,269.375)"/>
<path d="M0 0 C4.21912747 0.4794463 6.79663178 1.16625119 10 4 C9.360625 4.144375 8.72125 4.28875 8.0625 4.4375 C6.02454854 4.81007181 6.02454854 4.81007181 5 6 C4.75266863 10.14276875 4.75266863 10.14276875 6 14 C0.27789404 12.13236819 -5.37661751 10.14710968 -11 8 C-11 7.67 -11 7.34 -11 7 C-9.35 7 -7.7 7 -6 7 C-5.67 6.34 -5.34 5.68 -5 5 C-4.525625 5.66 -4.05125 6.32 -3.5625 7 C-2.7890625 7.99 -2.7890625 7.99 -2 9 C-1.67 9 -1.34 9 -1 9 C-1.165 8.401875 -1.33 7.80375 -1.5 7.1875 C-2 5 -2 5 -2 2 C-1.34 2 -0.68 2 0 2 C0 1.34 0 0.68 0 0 Z " fill="#282828" transform="translate(261,221)"/>
<path d="M0 0 C1.06863281 0.01804688 2.13726562 0.03609375 3.23828125 0.0546875 C4.04652344 0.07789063 4.85476562 0.10109375 5.6875 0.125 C5.6875 0.785 5.6875 1.445 5.6875 2.125 C4.6975 2.785 3.7075 3.445 2.6875 4.125 C3.6775 4.785 4.6675 5.445 5.6875 6.125 C4.924375 6.269375 4.16125 6.41375 3.375 6.5625 C0.60577092 7.0882594 0.60577092 7.0882594 -2.3125 8.125 C-4.6531065 7.84730092 -6.98874308 7.51960023 -9.3125 7.125 C-9.3125 6.135 -9.3125 5.145 -9.3125 4.125 C-9.9725 3.465 -10.6325 2.805 -11.3125 2.125 C-7.38392246 0.27368517 -4.32474888 -0.09504943 0 0 Z " fill="#161517" transform="translate(146.3125,217.875)"/>
<path d="M0 0 C5.4389165 -0.21755666 9.87080814 -0.10428384 15 2 C15.33 3.65 15.66 5.3 16 7 C12.18510326 8.46726798 9.70988378 7.43336419 6 6 C6 5.34 6 4.68 6 4 C5.67 4.33 5.34 4.66 5 5 C2.66702567 5.04092937 0.33294775 5.04241723 -2 5 C-1.34 3.35 -0.68 1.7 0 0 Z " fill="#121214" transform="translate(369,248)"/>
<path d="M0 0 C1.13050781 0.04382813 2.26101563 0.08765625 3.42578125 0.1328125 C11.73183568 0.49091784 11.73183568 0.49091784 14 1.625 C14 2.285 14 2.945 14 3.625 C5.93868629 3.73060673 -2.07564323 3.6510571 -10.125 3.1875 C-10.83454834 3.14826416 -11.54409668 3.10902832 -12.27514648 3.06860352 C-15.92729167 2.84146162 -19.43345122 2.45071849 -23 1.625 C-23 1.295 -23 0.965 -23 0.625 C-15.2695892 -0.4111019 -7.77972072 -0.36481692 0 0 Z " fill="#1E1F21" transform="translate(274,249.375)"/>
<path d="M0 0 C9.24 0 18.48 0 28 0 C28 0.33 28 0.66 28 1 C26.73542969 1.04898438 25.47085938 1.09796875 24.16796875 1.1484375 C22.50779053 1.2234738 20.84763536 1.29902127 19.1875 1.375 C18.35412109 1.4059375 17.52074219 1.436875 16.66210938 1.46875 C15.85966797 1.50742188 15.05722656 1.54609375 14.23046875 1.5859375 C13.49207764 1.6173584 12.75368652 1.6487793 11.99291992 1.68115234 C9.68650412 1.90834614 9.68650412 1.90834614 7 4 C7.8971875 4.61875 7.8971875 4.61875 8.8125 5.25 C11.02470202 7.01976162 12.50154217 8.60246747 14 11 C14 11.99 14 12.98 14 14 C13.34 14 12.68 14 12 14 C7 8.52380952 7 8.52380952 7 6 C6.030625 5.7525 5.06125 5.505 4.0625 5.25 C3.051875 4.8375 2.04125 4.425 1 4 C0.67 2.68 0.34 1.36 0 0 Z " fill="#232326" transform="translate(136,242)"/>
<path d="M0 0 C3.53264443 1.4582881 5.35982394 3.30823263 7.6875 6.3125 C8.28949219 7.07175781 8.89148438 7.83101563 9.51171875 8.61328125 C11.08115514 11.13014642 11.61247182 13.08062107 12 16 C8.23456806 15.45380548 6.81182464 14.02518177 4.4375 11.125 C2.37608537 8.63661084 0.32462871 6.24690557 -2 4 C-1.34 3.34 -0.68 2.68 0 2 C0 1.34 0 0.68 0 0 Z " fill="#222124" transform="translate(133,260)"/>
<path d="M0 0 C2.64 0 5.28 0 8 0 C8 0.66 8 1.32 8 2 C7.34 2.66 6.68 3.32 6 4 C6.66 4.66 7.32 5.32 8 6 C7.67 6.66 7.34 7.32 7 8 C7.66 8.33 8.32 8.66 9 9 C9.33 8.34 9.66 7.68 10 7 C10.33 7.99 10.66 8.98 11 10 C8.6875 10.25 8.6875 10.25 6 10 C4.1875 8 4.1875 8 3 6 C2.67 6.33 2.34 6.66 2 7 C-3.41176471 7.47058824 -3.41176471 7.47058824 -5.875 5.5 C-6.24625 5.005 -6.6175 4.51 -7 4 C-5.02 3.67 -3.04 3.34 -1 3 C-0.67 2.01 -0.34 1.02 0 0 Z " fill="#121213" transform="translate(253,221)"/>
<path d="M0 0 C6.6 0.99 13.2 1.98 20 3 C20 3.33 20 3.66 20 4 C18.02090602 4.02686553 16.04171029 4.04633375 14.0625 4.0625 C12.96035156 4.07410156 11.85820312 4.08570313 10.72265625 4.09765625 C8 4 8 4 7 3 C4.67182036 2.63239269 2.3381615 2.29758419 0 2 C0 1.34 0 0.68 0 0 Z M-5 3 C-4.01 3 -3.02 3 -2 3 C-2 3.99 -2 4.98 -2 6 C-0.02463255 5.65213292 -0.02463255 5.65213292 2 5 C2.33 4.34 2.66 3.68 3 3 C4.98 3.66 6.96 4.32 9 5 C6.57884809 7.42115191 5.35839475 7.60948898 2 8 C0.3317102 7.67488765 -1.33482064 7.34068549 -3 7 C-4.618626 6.86173037 -6.24041432 6.75688451 -7.86328125 6.68359375 C-9.19262695 6.62075195 -9.19262695 6.62075195 -10.54882812 6.55664062 C-11.46083984 6.51732422 -12.37285156 6.47800781 -13.3125 6.4375 C-14.24384766 6.39431641 -15.17519531 6.35113281 -16.13476562 6.30664062 C-18.42304454 6.20102775 -20.71142372 6.09892248 -23 6 C-23 5.67 -23 5.34 -23 5 C-17.06 4.67 -11.12 4.34 -5 4 C-5 3.67 -5 3.34 -5 3 Z " fill="#4D4B4D" transform="translate(341,241)"/>
<path d="M0 0 C4 5 4 5 8 10 C1.375 13 1.375 13 -2 13 C-4.6875 10.5 -4.6875 10.5 -7 8 C-6.01 8 -5.02 8 -4 8 C-1.68294159 5.50470633 -0.59646305 3.34019306 0 0 Z " fill="#2D2D2F" transform="translate(184,259)"/>
<path d="M0 0 C2.52090778 -0.0272367 5.04151457 -0.04695207 7.5625 -0.0625 C8.61920898 -0.07506836 8.61920898 -0.07506836 9.69726562 -0.08789062 C14.2146401 -0.10870802 18.55366884 0.09013301 23 1 C23.33 1.66 23.66 2.32 24 3 C22.35 3 20.7 3 19 3 C19.33 3.33 19.66 3.66 20 4 C20 4.33 20 4.66 20 5 C18.02 5 16.04 5 14 5 C14 4.01 14 3.02 14 2 C13.67 2.66 13.34 3.32 13 4 C8.71 4 4.42 4 0 4 C0 2.66666667 0 1.33333333 0 0 Z " fill="#100E10" transform="translate(325,242)"/>
<path d="M0 0 C-0.6875 1.9375 -0.6875 1.9375 -2 4 C-3.65708738 4.37808767 -5.32663687 4.70209947 -7 5 C-9.08792194 5.67343596 -11.17101143 6.36197124 -13.25 7.0625 C-18.78650022 8.80722191 -23.22976017 9.3912027 -29 9 C-25.52614142 6.68409428 -22.01935435 5.66899009 -18.0625 4.5 C-2.52595269 -0.11481603 -2.52595269 -0.11481603 0 0 Z " fill="#2C2A2D" transform="translate(86,232)"/>
<path d="M0 0 C0 0.99 0 1.98 0 3 C0.66 3 1.32 3 2 3 C2 3.66 2 4.32 2 5 C-6.415 5.495 -6.415 5.495 -15 6 C-15 5.34 -15 4.68 -15 4 C-13.68 3.67 -12.36 3.34 -11 3 C-11.66 2.34 -12.32 1.68 -13 1 C-8.31506124 -1.48887372 -5.0555786 -0.85687773 0 0 Z " fill="#100F12" transform="translate(113,254)"/>
<path d="M0 0 C4.95 0 9.9 0 15 0 C15.33 0.66 15.66 1.32 16 2 C14.02 2 12.04 2 10 2 C9.67 3.32 9.34 4.64 9 6 C9.66 6.33 10.32 6.66 11 7 C3.25 7.125 3.25 7.125 1 6 C0.67 4.02 0.34 2.04 0 0 Z " fill="#121214" transform="translate(216,213)"/>
<path d="M0 0 C6.625 0.75 6.625 0.75 10 3 C9.49396008 5.16874252 9.00016187 6.99967627 8 9 C6.35 8.67 4.7 8.34 3 8 C3 7.34 3 6.68 3 6 C1.68 5.67 0.36 5.34 -1 5 C-0.67 3.35 -0.34 1.7 0 0 Z " fill="#1A1A1B" transform="translate(395,256)"/>
<path d="M0 0 C1.32 0.33 2.64 0.66 4 1 C4 1.66 4 2.32 4 3 C4.99 3.33 5.98 3.66 7 4 C8.38671875 5.7421875 8.38671875 5.7421875 9.6875 7.875 C10.34298828 8.92300781 10.34298828 8.92300781 11.01171875 9.9921875 C12 12 12 12 12 15 C9.02963628 14.65880957 8.01169776 14.01171911 5.859375 11.85546875 C5.16328125 10.97503906 4.4671875 10.09460938 3.75 9.1875 C3.04359375 8.31480469 2.3371875 7.44210937 1.609375 6.54296875 C0 4 0 4 0 0 Z " fill="#333239" transform="translate(378,261)"/>
<path d="M0 0 C2.375 0.3125 2.375 0.3125 5 1 C5.66 1.99 6.32 2.98 7 4 C6.67 4.66 6.34 5.32 6 6 C5.34 6 4.68 6 4 6 C4 6.99 4 7.98 4 9 C1.69 9.33 -0.62 9.66 -3 10 C-3.36923077 4.58461538 -3.36923077 4.58461538 -1.5 1.625 C-1.005 1.08875 -0.51 0.5525 0 0 Z " fill="#1F1F20" transform="translate(291,235)"/>
<path d="M0 0 C2.93832645 0.11381897 5.8751065 0.24056551 8.8125 0.375 C10.06256836 0.42140625 10.06256836 0.42140625 11.33789062 0.46875 C12.14033203 0.50742188 12.94277344 0.54609375 13.76953125 0.5859375 C14.87711792 0.63306885 14.87711792 0.63306885 16.00708008 0.68115234 C18 1 18 1 21 3 C18.59940183 4.20029908 17.10639351 4.11459743 14.4296875 4.09765625 C13.53378906 4.09443359 12.63789063 4.09121094 11.71484375 4.08789062 C10.77769531 4.07951172 9.84054688 4.07113281 8.875 4.0625 C7.93011719 4.05798828 6.98523438 4.05347656 6.01171875 4.04882812 C3.67441613 4.03702357 1.33723939 4.02055759 -1 4 C-0.01 3.67 0.98 3.34 2 3 C2 2.34 2 1.68 2 1 C1.34 0.67 0.68 0.34 0 0 Z " fill="#111012" transform="translate(227,248)"/>
<path d="M0 0 C0.66 0.99 1.32 1.98 2 3 C2.66 3 3.32 3 4 3 C2.75491753 6.7352474 1.05380051 7.60058531 -2 10 C-2.53625 10.7425 -3.0725 11.485 -3.625 12.25 C-4.07875 12.8275 -4.5325 13.405 -5 14 C-5.99 14 -6.98 14 -8 14 C-7.125 9.25 -7.125 9.25 -6 7 C-5.34 7 -4.68 7 -4 7 C-3.34 5.35 -2.68 3.7 -2 2 C-1.34 2 -0.68 2 0 2 C0 1.34 0 0.68 0 0 Z " fill="#403E41" transform="translate(85,262)"/>
<path d="M0 0 C13.365 0.495 13.365 0.495 27 1 C27.33 1.66 27.66 2.32 28 3 C18.43 3 8.86 3 -1 3 C-0.67 2.01 -0.34 1.02 0 0 Z " fill="#333333" transform="translate(281,272)"/>
<path d="M0 0 C3.37503669 1.1858237 5.64722731 2.27573689 8 5 C7.34 5 6.68 5 6 5 C6.50603992 7.16874252 6.99983813 8.99967627 8 11 C5.43365172 9.76815282 3.00041934 8.4013162 0.5625 6.9375 C-2.26401892 5.29885002 -4.71952335 4.39763353 -8 4 C-8 3.67 -8 3.34 -8 3 C-6.865625 2.87625 -5.73125 2.7525 -4.5625 2.625 C-3.386875 2.41875 -2.21125 2.2125 -1 2 C-0.67 1.34 -0.34 0.68 0 0 Z " fill="#313133" transform="translate(373,257)"/>
<path d="M0 0 C0.66 0.33 1.32 0.66 2 1 C2 1.66 2 2.32 2 3 C3.32 3.66 4.64 4.32 6 5 C6 5.99 6 6.98 6 8 C0.94997778 9.03590199 -3.87416389 9.10251672 -9 9 C-9 8.34 -9 7.68 -9 7 C-7.72125 6.87625 -6.4425 6.7525 -5.125 6.625 C-1.65209064 6.30957601 -1.65209064 6.30957601 1 4 C0.34 3.34 -0.32 2.68 -1 2 C-0.67 1.34 -0.34 0.68 0 0 Z " fill="#222222" transform="translate(423,272)"/>
<path d="M0 0 C19.96810934 0.96355353 19.96810934 0.96355353 29 2 C29 2.33 29 2.66 29 3 C27.02 3.33 25.04 3.66 23 4 C23 4.33 23 4.66 23 5 C20.03 5 17.06 5 14 5 C13.67 4.34 13.34 3.68 13 3 C10.47907827 2.60741061 10.47907827 2.60741061 7.5625 2.5 C2.22145805 2.22145805 2.22145805 2.22145805 0 0 Z " fill="#404042" transform="translate(232,247)"/>
<path d="M0 0 C6.65050424 -0.24991456 12.56986533 0.26044666 19 2 C19 2.66 19 3.32 19 4 C14.38 4 9.76 4 5 4 C4.67 3.34 4.34 2.68 4 2 C1.98330173 0.86649466 1.98330173 0.86649466 0 0 Z " fill="#3B3A40" transform="translate(166,236)"/>
<path d="M0 0 C2.97 0.495 2.97 0.495 6 1 C7.46726798 4.81489674 6.43336419 7.29011622 5 11 C3.68 10.67 2.36 10.34 1 10 C0.22157062 6.59437148 -0.09978121 3.49234244 0 0 Z " fill="#131314" transform="translate(265,224)"/>
<path d="M0 0 C2 3 2 3 1.79296875 5.15625 C1.59316406 5.9296875 1.39335937 6.703125 1.1875 7.5 C0.99542969 8.2734375 0.80335938 9.046875 0.60546875 9.84375 C0.11881701 11.57685815 -0.43074665 13.29223995 -1 15 C-1.99 15 -2.98 15 -4 15 C-4.33 11.37 -4.66 7.74 -5 4 C-3 4 -3 4 -1.375 5.5 C-0.92125 5.995 -0.4675 6.49 0 7 C0 4.69 0 2.38 0 0 Z " fill="#3C3A3D" transform="translate(158,259)"/>
<path d="M0 0 C0.66 0.33 1.32 0.66 2 1 C2 1.99 2 2.98 2 4 C2.66 4.66 3.32 5.32 4 6 C-2.4 9.07692308 -2.4 9.07692308 -5.4375 8.6875 C-5.953125 8.460625 -6.46875 8.23375 -7 8 C-5.08864614 4.46399535 -3.37357234 2.21027154 0 0 Z " fill="#3E3D3F" transform="translate(92,257)"/>
<path d="M0 0 C2.64 0.33 5.28 0.66 8 1 C8 1.33 8 1.66 8 2 C6.02 2.33 4.04 2.66 2 3 C2.66 3.66 3.32 4.32 4 5 C2.68 5 1.36 5 0 5 C0 5.99 0 6.98 0 8 C-2.31 8 -4.62 8 -7 8 C-7.66 6.68 -8.32 5.36 -9 4 C-7.35 4 -5.7 4 -4 4 C-3.67 3.34 -3.34 2.68 -3 2 C-2.01 2 -1.02 2 0 2 C0 1.34 0 0.68 0 0 Z M-6 6 C-6 6.33 -6 6.66 -6 7 C-4.35 7 -2.7 7 -1 7 C-1 6.67 -1 6.34 -1 6 C-2.65 6 -4.3 6 -6 6 Z " fill="#38373A" transform="translate(367,246)"/>
<path d="M0 0 C10.06354218 -0.12847075 19.96724089 0.20307162 30 1 C30 1.33 30 1.66 30 2 C26.04978266 2.21692384 22.09912984 2.41380269 18.14697266 2.59204102 C16.80229928 2.65552415 15.45787401 2.72450857 14.11376953 2.79907227 C12.1833561 2.90520939 10.25180741 2.99002538 8.3203125 3.07421875 C6.57645264 3.16062622 6.57645264 3.16062622 4.79736328 3.2487793 C3.8742334 3.16668213 2.95110352 3.08458496 2 3 C1.34 2.01 0.68 1.02 0 0 Z M0 3 C2 4 2 4 2 4 Z " fill="#4F4F50" transform="translate(167,243)"/>
<path d="M0 0 C-3.31226232 2.20817488 -5.22396514 2.48355094 -9.125 3 C-14.50085085 3.75851871 -19.71929671 4.74695176 -25 6 C-24 3 -24 3 -21.8046875 1.8515625 C-18.84925398 0.95423032 -16.20360095 0.59090189 -13.125 0.375 C-12.08085938 0.30152344 -11.03671875 0.22804687 -9.9609375 0.15234375 C-6.62751619 -0.01916473 -3.33626542 -0.07582421 0 0 Z " fill="#3B393B" transform="translate(105,240)"/>
<path d="M0 0 C0 3.38023517 -0.87455622 5.83468937 -2 9 C-2.66 8.01 -3.32 7.02 -4 6 C-5.94074861 6.27617533 -5.94074861 6.27617533 -8 7 C-8.99 8.485 -8.99 8.485 -10 10 C-10.66 8.35 -11.32 6.7 -12 5 C-8.14522751 2.43015167 -4.47959418 1.14185734 0 0 Z " fill="#29282B" transform="translate(58,258)"/>
<path d="M0 0 C0 0.33 0 0.66 0 1 C-6.93 1 -13.86 1 -21 1 C-14.87793043 -5.12206957 -7.49899182 -2.81212193 0 0 Z " fill="#141417" transform="translate(286,243)"/>
<path d="M0 0 C-0.99 1.485 -0.99 1.485 -2 3 C-2.33 3.99 -2.66 4.98 -3 6 C-0.69 6 1.62 6 4 6 C4 6.33 4 6.66 4 7 C0.37 7.66 -3.26 8.32 -7 9 C-7.33 7.68 -7.66 6.36 -8 5 C-7.34 4.01 -6.68 3.02 -6 2 C-7.32 1.67 -8.64 1.34 -10 1 C-3.375 -1.125 -3.375 -1.125 0 0 Z " fill="#464048" transform="translate(140,219)"/>
<path d="M0 0 C7.425 0.99 7.425 0.99 15 2 C15 2.33 15 2.66 15 3 C13.906875 2.95875 12.81375 2.9175 11.6875 2.875 C7.91107771 2.67925334 7.91107771 2.67925334 5 5 C2 5.75 2 5.75 -1 6 C-1.99 5.34 -2.98 4.68 -4 4 C-3.34 3.525625 -2.68 3.05125 -2 2.5625 C-1.34 2.046875 -0.68 1.53125 0 1 C0 0.67 0 0.34 0 0 Z " fill="#292929" transform="translate(231,213)"/>
<path d="M0 0 C1.07765625 0.11988281 2.1553125 0.23976562 3.265625 0.36328125 C4.08546875 0.47027344 4.9053125 0.57726562 5.75 0.6875 C5.75 1.0175 5.75 1.3475 5.75 1.6875 C2.45 1.6875 -0.85 1.6875 -4.25 1.6875 C-3.52731765 4.9860139 -3.52731765 4.9860139 -0.1875 6.375 C0.781875 6.808125 1.75125 7.24125 2.75 7.6875 C2.42 8.3475 2.09 9.0075 1.75 9.6875 C0.12258256 8.90081482 -1.50186131 8.1079759 -3.125 7.3125 C-4.02992188 6.87164062 -4.93484375 6.43078125 -5.8671875 5.9765625 C-8.25 4.6875 -8.25 4.6875 -10.25 2.6875 C-6.80273592 -0.56731973 -4.61498646 -0.55179186 0 0 Z " fill="#4D4C50" transform="translate(140.25,240.3125)"/>
<path d="M0 0 C0.66 0.66 1.32 1.32 2 2 C0.75 3.5 0.75 3.5 -1 5 C-2.32 5 -3.64 5 -5 5 C-5 3.68 -5 2.36 -5 1 C-5.99 1.495 -5.99 1.495 -7 2 C-9.37402501 2.07116382 -11.75000677 2.08409085 -14.125 2.0625 C-15.40632813 2.05347656 -16.68765625 2.04445312 -18.0078125 2.03515625 C-19.48894531 2.01775391 -19.48894531 2.01775391 -21 2 C-21 1.67 -21 1.34 -21 1 C-6.91515729 -0.33460439 -6.91515729 -0.33460439 0 0 Z " fill="#464549" transform="translate(130,238)"/>
<path d="M0 0 C2.64 0 5.28 0 8 0 C8 0.66 8 1.32 8 2 C7.01 2.33 6.02 2.66 5 3 C5.66 3.66 6.32 4.32 7 5 C1.158256 5.35050464 -2.8531808 5.16727335 -8 2 C-5.07175348 1.02391783 -3.04386724 0.91773332 0 1 C0 0.67 0 0.34 0 0 Z " fill="#0D0B0E" transform="translate(359,246)"/>
<path d="M0 0 C0.82757813 0.16371094 1.65515625 0.32742188 2.5078125 0.49609375 C6.32194189 1.0464547 10.03353501 1.11089055 13.875 1.0625 C14.56335938 1.05798828 15.25171875 1.05347656 15.9609375 1.04882812 C17.64066335 1.03716336 19.32034375 1.01923271 21 1 C21 1.33 21 1.66 21 2 C17.89698871 2.36482375 14.79249627 2.71500944 11.6875 3.0625 C10.80642578 3.16626953 9.92535156 3.27003906 9.01757812 3.37695312 C7.74624023 3.51713867 7.74624023 3.51713867 6.44921875 3.66015625 C5.66893311 3.74918213 4.88864746 3.83820801 4.0847168 3.92993164 C2 4 2 4 -1 3 C-0.67 2.01 -0.34 1.02 0 0 Z " fill="#0C0A0D" transform="translate(341,256)"/>
<path d="M0 0 C0 0.66 0 1.32 0 2 C-4.29 2 -8.58 2 -13 2 C-13.33 1.01 -13.66 0.02 -14 -1 C-8.51053913 -2.12029814 -5.16569441 -1.79217969 0 0 Z " fill="#08070D" transform="translate(158,236)"/>
<path d="M0 0 C1.32 0 2.64 0 4 0 C4.66 0.66 5.32 1.32 6 2 C7.31747324 2.69748583 8.64914193 3.36959957 10 4 C10 4.66 10 5.32 10 6 C10.99 6.33 11.98 6.66 13 7 C13 7.99 13 8.98 13 10 C11.68 9.34 10.36 8.68 9 8 C9 7.34 9 6.68 9 6 C8.01 6 7.02 6 6 6 C6 5.34 6 4.68 6 4 C5.195625 3.71125 4.39125 3.4225 3.5625 3.125 C1 2 1 2 0 0 Z " fill="#2D2D30" transform="translate(394,262)"/>
<path d="M0 0 C3.99881788 0.61520275 6.80358226 2.60268669 10 5 C10 5.66 10 6.32 10 7 C10.66 7.33 11.32 7.66 12 8 C11.34 8 10.68 8 10 8 C9.67 8.66 9.34 9.32 9 10 C8.608125 9.401875 8.21625 8.80375 7.8125 8.1875 C6.08201063 5.85012464 6.08201063 5.85012464 3.375 4.4375 C1 3 1 3 0 0 Z " fill="#2E2D2D" transform="translate(411,264)"/>
<path d="M0 0 C1.32 0.66 2.64 1.32 4 2 C3.01 2.33 2.02 2.66 1 3 C1.20625 3.928125 1.4125 4.85625 1.625 5.8125 C2 9 2 9 0 12 C0 11.01 0 10.02 0 9 C-0.99 8.67 -1.98 8.34 -3 8 C-2.67 6.02 -2.34 4.04 -2 2 C-1.34 2 -0.68 2 0 2 C0 1.34 0 0.68 0 0 Z " fill="#232323" transform="translate(410,266)"/>
<path d="M0 0 C0.99 0.495 0.99 0.495 2 1 C2 1.99 2 2.98 2 4 C5.465 3.505 5.465 3.505 9 3 C7.79618552 5.49361571 6.54571278 7.68143083 5 10 C4.731875 9.38125 4.46375 8.7625 4.1875 8.125 C3.04443152 5.7004767 3.04443152 5.7004767 0 4 C0 2.68 0 1.36 0 0 Z " fill="#323234" transform="translate(171,256)"/>
<path d="M0 0 C1.6266848 0.28211877 3.25132896 0.57602375 4.875 0.875 C5.77992188 1.03742188 6.68484375 1.19984375 7.6171875 1.3671875 C10 2 10 2 12 4 C10.72125 4.144375 9.4425 4.28875 8.125 4.4375 C5.74307106 4.70642746 4.15547309 4.92226346 2 6 C2 5.34 2 4.68 2 4 C1.34 3.67 0.68 3.34 0 3 C0 2.01 0 1.02 0 0 Z " fill="#2D2D2E" transform="translate(249,217)"/>
<path d="M0 0 C-1.32 0.33 -2.64 0.66 -4 1 C-3.67 2.98 -3.34 4.96 -3 7 C-5.64 7 -8.28 7 -11 7 C-9.68 5.68 -8.36 4.36 -7 3 C-7.99 2.34 -8.98 1.68 -10 1 C-6.61981469 -0.04005702 -3.5219721 -0.08004482 0 0 Z " fill="#100E10" transform="translate(165,216)"/>
<path d="M0 0 C1.32 0.66 2.64 1.32 4 2 C0.7 1.67 -2.6 1.34 -6 1 C-6.33 2.65 -6.66 4.3 -7 6 C-7.66 6 -8.32 6 -9 6 C-9.33 7.32 -9.66 8.64 -10 10 C-10.35915493 3.65492958 -10.35915493 3.65492958 -8.9375 1.0625 C-5.90586445 -0.60000982 -3.38969378 -0.29734156 0 0 Z " fill="#4C4B4D" transform="translate(246,228)"/>
<path d="M0 0 C4.29 0.33 8.58 0.66 13 1 C12.67 1.66 12.34 2.32 12 3 C7.71 3 3.42 3 -1 3 C-0.67 2.01 -0.34 1.02 0 0 Z " fill="#242425" transform="translate(281,272)"/>
<path d="M0 0 C0 0.66 0 1.32 0 2 C0.99 2.33 1.98 2.66 3 3 C-0.63 3.33 -4.26 3.66 -8 4 C-8.33 3.34 -8.66 2.68 -9 2 C-5.62902617 0.50178941 -3.79557881 0 0 0 Z " fill="#100F12" transform="translate(193,269)"/>
<path d="M0 0 C0.99 0.33 1.98 0.66 3 1 C2.67 2.32 2.34 3.64 2 5 C2.99 5 3.98 5 5 5 C5 5.66 5 6.32 5 7 C3.02 7.99 3.02 7.99 1 9 C-1 6 -1 6 -0.625 2.8125 C-0.41875 1.884375 -0.2125 0.95625 0 0 Z " fill="#252426" transform="translate(151,253)"/>
<path d="M0 0 C1.4370809 -0.05422947 2.87475462 -0.09289723 4.3125 -0.125 C5.11300781 -0.14820313 5.91351563 -0.17140625 6.73828125 -0.1953125 C9 0 9 0 12 2 C6.58461538 5.07692308 6.58461538 5.07692308 3.625 4.6875 C3.08875 4.460625 2.5525 4.23375 2 4 C2.33 3.34 2.66 2.68 3 2 C2.01 1.34 1.02 0.68 0 0 Z " fill="#525254" transform="translate(139,233)"/>
<path d="M0 0 C1.65 0 3.3 0 5 0 C5.33 0.66 5.66 1.32 6 2 C2.65060119 4.02558881 0.13037449 4.21738987 -3.75 4.125 C-4.73484375 4.10695312 -5.7196875 4.08890625 -6.734375 4.0703125 C-7.85585937 4.03550781 -7.85585937 4.03550781 -9 4 C-8.67 3.01 -8.34 2.02 -8 1 C-7.071875 1.2784375 -7.071875 1.2784375 -6.125 1.5625 C-3.95839822 2.23686176 -3.95839822 2.23686176 -2 1 C-2 1.66 -2 2.32 -2 3 C-1.01 2.67 -0.02 2.34 1 2 C0.67 1.34 0.34 0.68 0 0 Z " fill="#0D0C11" transform="translate(137,234)"/>
<path d="M0 0 C5.445 1.485 5.445 1.485 11 3 C11 3.66 11 4.32 11 5 C9.56163249 4.88541307 8.12429034 4.75790884 6.6875 4.625 C5.88699219 4.55539062 5.08648437 4.48578125 4.26171875 4.4140625 C2 4 2 4 -1 2 C-0.67 1.34 -0.34 0.68 0 0 Z " fill="#414044" transform="translate(117,252)"/>
<path d="M0 0 C0.33 0.66 0.66 1.32 1 2 C0.01 2 -0.98 2 -2 2 C-2 2.66 -2 3.32 -2 4 C-5.96 3.67 -9.92 3.34 -14 3 C-10.3750203 1.18751015 -8.62740416 0.68111085 -4.75 0.375 C-3.85796875 0.30023438 -2.9659375 0.22546875 -2.046875 0.1484375 C-1.37140625 0.09945312 -0.6959375 0.05046875 0 0 Z " fill="#4B4B4D" transform="translate(171,213)"/>
<path d="M0 0 C1.98 0.66 3.96 1.32 6 2 C5.01 2.495 5.01 2.495 4 3 C4.50603992 5.16874252 4.99983813 6.99967627 6 9 C3.15616877 7.7251791 0.86245982 6.54862922 -1 4 C-0.6875 1.8125 -0.6875 1.8125 0 0 Z " fill="#4A4A4B" transform="translate(375,259)"/>
<path d="M0 0 C3.16115776 1.36983503 3.9927092 1.9890638 6 5 C5.01 5.33 4.02 5.66 3 6 C2.67 6.66 2.34 7.32 2 8 C0.68 6.68 -0.64 5.36 -2 4 C-1.34 3.34 -0.68 2.68 0 2 C0 1.34 0 0.68 0 0 Z " fill="#424243" transform="translate(133,260)"/>
<path d="M0 0 C2.29013653 3.4352048 2.17842973 4.985331 2 9 C1.01 8.67 0.02 8.34 -1 8 C-1 7.34 -1 6.68 -1 6 C-1.99 5.67 -2.98 5.34 -4 5 C-2.68 4.34 -1.36 3.68 0 3 C0 2.01 0 1.02 0 0 Z " fill="#100E11" transform="translate(156,257)"/>
<path d="M0 0 C3.2542015 2.83430453 4.5206753 4.68607774 5 9 C3.125 8.75 3.125 8.75 1 8 C-0.25 5.9375 -0.25 5.9375 -1 4 C-0.34 4 0.32 4 1 4 C0.67 2.68 0.34 1.36 0 0 Z " fill="#403C48" transform="translate(140,267)"/>
<path d="M0 0 C0 0.99 0 1.98 0 3 C-5.45769231 6.10096154 -5.45769231 6.10096154 -8.203125 5.58984375 C-8.79609375 5.39519531 -9.3890625 5.20054687 -10 5 C-8.71186658 4.16121545 -7.41936744 3.32913217 -6.125 2.5 C-5.40570313 2.0359375 -4.68640625 1.571875 -3.9453125 1.09375 C-2 0 -2 0 0 0 Z " fill="#3D3B3E" transform="translate(57,241)"/>
<path d="M0 0 C0.99 0 1.98 0 3 0 C3 0.66 3 1.32 3 2 C2.34 2 1.68 2 1 2 C1 2.66 1 3.32 1 4 C2.65 4.33 4.3 4.66 6 5 C6 5.33 6 5.66 6 6 C-1.42857143 6.28571429 -1.42857143 6.28571429 -5 4 C-4.360625 3.71125 -3.72125 3.4225 -3.0625 3.125 C-0.84793921 2.17176549 -0.84793921 2.17176549 0 0 Z " fill="#333033" transform="translate(350,244)"/>
<path d="M0 0 C-0.66 0.66 -1.32 1.32 -2 2 C-3.66666667 2 -5.33333333 2 -7 2 C-7.680625 2.37125 -8.36125 2.7425 -9.0625 3.125 C-9.701875 3.41375 -10.34125 3.7025 -11 4 C-13.12109375 3.0546875 -13.12109375 3.0546875 -15 2 C-13.06524329 1.46906676 -11.12706845 0.95057683 -9.1875 0.4375 C-8.10855469 0.14746094 -7.02960938 -0.14257812 -5.91796875 -0.44140625 C-3 -1 -3 -1 0 0 Z " fill="#434244" transform="translate(115,225)"/>
<path d="M0 0 C0.99 0.33 1.98 0.66 3 1 C-2.14285714 6.57142857 -2.14285714 6.57142857 -6 7 C-5.67 5.35 -5.34 3.7 -5 2 C-4.360625 1.855625 -3.72125 1.71125 -3.0625 1.5625 C-1.02454854 1.18992819 -1.02454854 1.18992819 0 0 Z " fill="#403D43" transform="translate(328,269)"/>
<path d="M0 0 C1.875 0.25 1.875 0.25 4 1 C5.72101535 3.58152302 6 4.84918025 6 8 C5.34 8 4.68 8 4 8 C2.2856382 6.04072937 0.61594832 4.04119788 -1 2 C-0.67 1.34 -0.34 0.68 0 0 Z " fill="#2C2C2C" transform="translate(144,248)"/>
<path d="M0 0 C0.66 0 1.32 0 2 0 C2.33 0.99 2.66 1.98 3 3 C2.34 3 1.68 3 1 3 C1 3.66 1 4.32 1 5 C0.34 5 -0.32 5 -1 5 C-0.67 6.32 -0.34 7.64 0 9 C-0.99 9.495 -0.99 9.495 -2 10 C-2.33 7.69 -2.66 5.38 -3 3 C-2.01 2.67 -1.02 2.34 0 2 C0 1.34 0 0.68 0 0 Z " fill="#121111" transform="translate(409,263)"/>
<path d="M0 0 C1.32 0.33 2.64 0.66 4 1 C4.33 2.98 4.66 4.96 5 7 C3.0625 6.3125 3.0625 6.3125 1 5 C0.25 2.375 0.25 2.375 0 0 Z " fill="#08080A" transform="translate(378,261)"/>
<path d="M0 0 C0.66 1.32 1.32 2.64 2 4 C1.01 4.33 0.02 4.66 -1 5 C-1.99 6.485 -1.99 6.485 -3 8 C-3.66 6.35 -4.32 4.7 -5 3 C-3.35 2.01 -1.7 1.02 0 0 Z " fill="#2F2F2F" transform="translate(51,260)"/>
<path d="M0 0 C2.31 0.66 4.62 1.32 7 2 C5 4 5 4 1.375 4.125 C0.26125 4.08375 -0.8525 4.0425 -2 4 C-2.33 3.34 -2.66 2.68 -3 2 C-2.01 2 -1.02 2 0 2 C0 1.34 0 0.68 0 0 Z " fill="#0D0D10" transform="translate(367,256)"/>
<path d="M0 0 C0 0.33 0 0.66 0 1 C-1.72814161 1.19672365 -3.45759197 1.38196799 -5.1875 1.5625 C-6.15042969 1.66691406 -7.11335938 1.77132812 -8.10546875 1.87890625 C-10.94233377 1.99758751 -13.25423671 1.67765639 -16 1 C-16 0.67 -16 0.34 -16 0 C-10.47032059 -0.71033431 -5.50016964 -1.30267176 0 0 Z " fill="#060608" transform="translate(267,250)"/>
<path d="M0 0 C-0.66 1.32 -1.32 2.64 -2 4 C-4.64 3.67 -7.28 3.34 -10 3 C-8.0130571 -0.97388579 -3.91761109 -0.08705802 0 0 Z " fill="#514F52" transform="translate(86,232)"/>
<path d="M0 0 C-0.33 0.66 -0.66 1.32 -1 2 C-3.97 2 -6.94 2 -10 2 C-10 1.34 -10 0.68 -10 0 C-6.30458414 -0.95024979 -3.69541586 -0.95024979 0 0 Z " fill="#363636" transform="translate(424,279)"/>
<path d="M0 0 C-0.66 1.98 -1.32 3.96 -2 6 C-3.65 6 -5.3 6 -7 6 C-6.75 4.125 -6.75 4.125 -6 2 C-3.85331506 0.61504198 -2.56128588 0 0 0 Z " fill="#171518" transform="translate(92,260)"/>
<path d="M0 0 C1.98 0.66 3.96 1.32 6 2 C6 2.66 6 3.32 6 4 C6.66 4.33 7.32 4.66 8 5 C8 5.66 8 6.32 8 7 C4.59679258 5.98823563 3.24274669 5.35156418 1.1875 2.375 C0.795625 1.59125 0.40375 0.8075 0 0 Z " fill="#373737" transform="translate(177,266)"/>
<path d="M0 0 C2.91517292 1.07401108 4.77810176 1.77810176 7 4 C4.69 4.66 2.38 5.32 0 6 C0 4.02 0 2.04 0 0 Z " fill="#202022" transform="translate(185,265)"/>
<path d="M0 0 C1.11375 0.3403125 1.11375 0.3403125 2.25 0.6875 C-0.30991624 2.69886276 -2.79590299 4.31595496 -5.75 5.6875 C-6.08 4.6975 -6.41 3.7075 -6.75 2.6875 C-4.29511132 0.41445492 -3.41240272 -0.38777304 0 0 Z " fill="#505051" transform="translate(69.75,248.3125)"/>
<path d="M0 0 C0 0.33 0 0.66 0 1 C-1.1446875 1.2165625 -1.1446875 1.2165625 -2.3125 1.4375 C-5.08172908 1.9632594 -5.08172908 1.9632594 -8 3 C-10.3406065 2.72230092 -12.67624308 2.39460023 -15 2 C-15 1.67 -15 1.34 -15 1 C-9.94997778 -0.03590199 -5.12583611 -0.10251672 0 0 Z " fill="#070708" transform="translate(152,223)"/>
<path d="M0 0 C-2.28176413 2.07384637 -3.44323483 2.98397191 -6.578125 3.07421875 C-7.90070313 2.88279297 -7.90070313 2.88279297 -9.25 2.6875 C-10.14203125 2.56761719 -11.0340625 2.44773438 -11.953125 2.32421875 C-12.62859375 2.21722656 -13.3040625 2.11023438 -14 2 C-14 1.67 -14 1.34 -14 1 C-9.23692563 0.04738513 -4.8333472 -0.08333357 0 0 Z " fill="#0B090C" transform="translate(180,220)"/>
<path d="M0 0 C0 1.98 0 3.96 0 6 C-1.65 5.67 -3.3 5.34 -5 5 C-5 4.01 -5 3.02 -5 2 C-1.125 0 -1.125 0 0 0 Z " fill="#181818" transform="translate(237,217)"/>
<path d="M0 0 C0.99 0 1.98 0 3 0 C2.1875 2.9375 2.1875 2.9375 1 6 C0.01 6.33 -0.98 6.66 -2 7 C-1.125 2.25 -1.125 2.25 0 0 Z " fill="#201B20" transform="translate(334,260)"/>
<path d="M0 0 C1.32 0.33 2.64 0.66 4 1 C4 2.32 4 3.64 4 5 C2 6.75 2 6.75 0 8 C0 6.68 0 5.36 0 4 C0.66 3.67 1.32 3.34 2 3 C2 2.34 2 1.68 2 1 C1.34 0.67 0.68 0.34 0 0 Z " fill="#222125" transform="translate(59,250)"/>
<path d="M0 0 C-0.99 0.495 -0.99 0.495 -2 1 C-2 1.99 -2 2.98 -2 4 C-4.86724686 3.42655063 -5.8614515 3.1385485 -8 1 C-4.93251126 -0.86240388 -3.40254489 -1.2151946 0 0 Z " fill="#383438" transform="translate(349,254)"/>
<path d="M0 0 C0.78375 0.04125 1.5675 0.0825 2.375 0.125 C1.375 3.125 1.375 3.125 -0.6875 4.3125 C-1.326875 4.580625 -1.96625 4.84875 -2.625 5.125 C-3.285 4.135 -3.945 3.145 -4.625 2.125 C-2.625 0.125 -2.625 0.125 0 0 Z " fill="#131215" transform="translate(110.625,225.875)"/>
<path d="M0 0 C1.65 0.33 3.3 0.66 5 1 C4.01 1.33 3.02 1.66 2 2 C2 2.66 2 3.32 2 4 C0.68 4.33 -0.64 4.66 -2 5 C-2.33 4.34 -2.66 3.68 -3 3 C-2.34 3 -1.68 3 -1 3 C-0.67 2.01 -0.34 1.02 0 0 Z " fill="#19191A" transform="translate(253,221)"/>
<path d="M0 0 C1.134375 0.020625 2.26875 0.04125 3.4375 0.0625 C2.7775 1.3825 2.1175 2.7025 1.4375 4.0625 C-0.2125 4.0625 -1.8625 4.0625 -3.5625 4.0625 C-3.8925 3.0725 -4.2225 2.0825 -4.5625 1.0625 C-3.5625 0.0625 -3.5625 0.0625 0 0 Z " fill="#333333" transform="translate(231.5625,218.9375)"/>
<path d="M0 0 C0.185625 0.9590625 0.185625 0.9590625 0.375 1.9375 C0.684375 2.9584375 0.684375 2.9584375 1 4 C1.66 4.33 2.32 4.66 3 5 C2.34 5.66 1.68 6.32 1 7 C0.01 7 -0.98 7 -2 7 C-1.125 2.25 -1.125 2.25 0 0 Z " fill="#575758" transform="translate(79,269)"/>
<path d="M0 0 C1.65 1.65 3.3 3.3 5 5 C1.38970831 5 -1.55806676 4.03907418 -5 3 C-5 2.67 -5 2.34 -5 2 C-3.35 2 -1.7 2 0 2 C0 1.34 0 0.68 0 0 Z " fill="#464647" transform="translate(255,226)"/>
<path d="M0 0 C3.63 0.33 7.26 0.66 11 1 C11 1.33 11 1.66 11 2 C7.37 2.33 3.74 2.66 0 3 C0 2.01 0 1.02 0 0 Z " fill="#4A484C" transform="translate(162,221)"/>
<path d="M0 0 C0.99 0.33 1.98 0.66 3 1 C3.99 0.67 4.98 0.34 6 0 C5.34 1.98 4.68 3.96 4 6 C2 4.6875 2 4.6875 0 3 C0 2.01 0 1.02 0 0 Z " fill="#0F0F11" transform="translate(177,263)"/>
<path d="M0 0 C2.64 0 5.28 0 8 0 C8 0.66 8 1.32 8 2 C5.69 2.33 3.38 2.66 1 3 C0.67 2.01 0.34 1.02 0 0 Z " fill="#131114" transform="translate(359,246)"/>
</svg>
