<?xml version="1.0" encoding="UTF-8"?>
<svg version="1.1" xmlns="http://www.w3.org/2000/svg" width="500" height="500">
<path d="M0 0 C165 0 330 0 500 0 C500 165 500 330 500 500 C335 500 170 500 0 500 C0 335 0 170 0 0 Z " fill="#FEFEFE" transform="translate(0,0)"/>
<path d="M0 0 C26.09864807 23.09582067 42.80166298 53.06989 48.75 87.43359375 C49.00910156 88.79895264 49.00910156 88.79895264 49.2734375 90.19189453 C51.7402608 106.97185342 51.15272516 127.09485735 46.75 143.43359375 C46.55664062 144.19816895 46.36328125 144.96274414 46.1640625 145.75048828 C36.11010912 184.96556108 10.76524831 217.07320278 -23.94140625 237.66015625 C-39.005492 246.25252045 -55.28300631 251.23616637 -72.25 254.43359375 C-73.16185059 254.60938965 -74.07370117 254.78518555 -75.01318359 254.96630859 C-78.65238117 255.49168378 -82.22593261 255.6138339 -85.89453125 255.63671875 C-86.62258469 255.64241882 -87.35063812 255.6481189 -88.10075378 255.6539917 C-89.641292 255.66340295 -91.18185 255.6699602 -92.72241211 255.67382812 C-95.01780244 255.68340722 -97.31224601 255.71441225 -99.60742188 255.74609375 C-113.63646618 255.84804215 -127.17358802 254.00095248 -140.5 249.43359375 C-141.36568604 249.1394458 -142.23137207 248.84529785 -143.12329102 248.54223633 C-164.27694169 241.01310009 -182.19852722 228.89753092 -198.25 213.43359375 C-198.95511719 212.79164063 -199.66023438 212.1496875 -200.38671875 211.48828125 C-219.00381279 194.04183613 -230.75912855 168.70637896 -237.25 144.43359375 C-237.73339844 142.63535156 -237.73339844 142.63535156 -238.2265625 140.80078125 C-240.41005301 130.86283846 -240.53691096 120.94114616 -240.5625 110.80859375 C-240.56617584 110.11202667 -240.56985168 109.41545959 -240.57363892 108.69778442 C-240.61053074 95.28711429 -239.57603444 82.17403579 -235.5 69.30859375 C-235.23759521 68.46095459 -234.97519043 67.61331543 -234.70483398 66.73999023 C-232.45408623 59.67475131 -229.65663232 53.023754 -226.25 46.43359375 C-225.72792969 45.38171875 -225.20585937 44.32984375 -224.66796875 43.24609375 C-217.72376991 29.7154768 -208.75463242 18.33733834 -198.25 7.43359375 C-197.60804688 6.72847656 -196.96609375 6.02335937 -196.3046875 5.296875 C-145.03154951 -49.41666836 -54.78864354 -45.94919669 0 0 Z " fill="#FCCA58" transform="translate(345.25,139.56640625)"/>
<path d="M0 0 C40.92 0 81.84 0 124 0 C124 49.17 124 98.34 124 149 C119.05 148.67 114.1 148.34 109 148 C109 147.67 109 147.34 109 147 C107.90042969 146.82984375 106.80085938 146.6596875 105.66796875 146.484375 C98.06550046 145.25722528 90.88150096 143.9477488 83.7175293 141.01416016 C81.09870853 140.03683723 78.55651113 139.38548156 75.8359375 138.7578125 C69.70086189 137.11314704 64.80445242 134.3049133 59.5 130.875 C58.5814624 130.29097412 57.6629248 129.70694824 56.71655273 129.10522461 C50.05511131 124.8126109 43.81615158 120.40508522 38 115 C37.46358887 114.50983398 36.92717773 114.01966797 36.37451172 113.51464844 C21.92585489 100.19661611 12.07223832 84.75935272 3.75 67.0625 C3.06164062 65.6074707 3.06164062 65.6074707 2.359375 64.12304688 C1.23708215 61.74986511 0.11735995 59.37550724 -1 57 C-1.66 57.66 -2.32 58.32 -3 59 C-6.03457085 46.6856031 -8.25162441 35.66538728 -6 23 C-5.67 23 -5.34 23 -5 23 C-4.93941406 24.31355469 -4.87882812 25.62710937 -4.81640625 26.98046875 C-4.73196744 28.71615541 -4.64732112 30.45183198 -4.5625 32.1875 C-4.52318359 33.05181641 -4.48386719 33.91613281 -4.44335938 34.80664062 C-4.23652984 38.95914122 -3.99896469 42.94537862 -3 47 C-3.10699219 45.75089844 -3.21398437 44.50179687 -3.32421875 43.21484375 C-4.36100236 29.0436344 -4.55004061 13.65012182 0 0 Z " fill="#FEC109" transform="translate(376,0)"/>
<path d="M0 0 C5.61 0 11.22 0 17 0 C19.5575 -0.103125 22.115 -0.20625 24.75 -0.3125 C37.07361916 -0.1348839 48.96116445 7.32958925 59.8293457 12.5612793 C63.23751699 14.10777605 66.64658917 15.28028477 70.21630859 16.38183594 C72.57669417 17.19986171 74.3751416 18.37350831 76.3125 19.9375 C76.95832031 20.45441406 77.60414062 20.97132813 78.26953125 21.50390625 C80.2833696 23.24498997 82.19390696 25.0433992 84 27 C83.67 27.66 83.34 28.32 83 29 C81.02 27.35 79.04 25.7 77 24 C76.67 24.66 76.34 25.32 76 26 C76.53625 26.2475 77.0725 26.495 77.625 26.75 C80 28 80 28 83 30.0625 C85.72077114 32.07614855 85.72077114 32.07614855 88.125 32.4375 C91.1986736 33.35960208 92.22524649 35.39333077 94 38 C94.99427942 39.91753888 95.9279515 41.85965546 96.8671875 43.8046875 C100.96818052 51.84617794 100.96818052 51.84617794 108 57 C108.66 57.66 109.32 58.32 110 59 C109.72212646 58.49549316 109.44425293 57.99098633 109.15795898 57.47119141 C107.90949126 55.19357073 106.67338993 52.90946816 105.4375 50.625 C104.99986328 49.8309375 104.56222656 49.036875 104.11132812 48.21875 C103.70205078 47.45820313 103.29277344 46.69765625 102.87109375 45.9140625 C102.48880615 45.2123291 102.10651855 44.5105957 101.71264648 43.78759766 C101.47747314 43.19769043 101.2422998 42.6077832 101 42 C101.495 41.01 101.495 41.01 102 40 C103.68555495 42.65602597 105.34657136 45.32400202 107 48 C107.58910156 48.92941406 108.17820312 49.85882813 108.78515625 50.81640625 C109.69587891 52.29947266 109.69587891 52.29947266 110.625 53.8125 C111.19476563 54.72644531 111.76453125 55.64039063 112.3515625 56.58203125 C114.18741162 60.38859045 115.14292746 64.08701147 116.18310547 68.16821289 C116.95590515 70.847144 117.91435543 73.24029666 119.078125 75.76953125 C127.02964366 93.76044759 125.97502709 112.76053697 124 132 C123.67 132.33 123.34 132.66 123 133 C123 134.89985381 123.00350388 136.80028116 123.0625 138.69921875 C122.98675201 141.48769176 122.45859125 144.24845251 122 147 C81.74 147 41.48 147 0 147 C0 98.49 0 49.98 0 0 Z " fill="#FEC108" transform="translate(0,353)"/>
<path d="M0 0 C26.09864807 23.09582067 42.80166298 53.06989 48.75 87.43359375 C49.00910156 88.79895264 49.00910156 88.79895264 49.2734375 90.19189453 C51.7402608 106.97185342 51.15272516 127.09485735 46.75 143.43359375 C46.55664062 144.19816895 46.36328125 144.96274414 46.1640625 145.75048828 C36.11010912 184.96556108 10.76524831 217.07320278 -23.94140625 237.66015625 C-39.005492 246.25252045 -55.28300631 251.23616637 -72.25 254.43359375 C-73.16185059 254.60938965 -74.07370117 254.78518555 -75.01318359 254.96630859 C-78.65238117 255.49168378 -82.22593261 255.6138339 -85.89453125 255.63671875 C-86.62258469 255.64241882 -87.35063812 255.6481189 -88.10075378 255.6539917 C-89.641292 255.66340295 -91.18185 255.6699602 -92.72241211 255.67382812 C-95.01780244 255.68340722 -97.31224601 255.71441225 -99.60742188 255.74609375 C-113.63646618 255.84804215 -127.17358802 254.00095248 -140.5 249.43359375 C-141.36568604 249.1394458 -142.23137207 248.84529785 -143.12329102 248.54223633 C-164.27694169 241.01310009 -182.19852722 228.89753092 -198.25 213.43359375 C-198.95511719 212.79164063 -199.66023438 212.1496875 -200.38671875 211.48828125 C-219.00381279 194.04183613 -230.75912855 168.70637896 -237.25 144.43359375 C-237.73339844 142.63535156 -237.73339844 142.63535156 -238.2265625 140.80078125 C-240.41005301 130.86283846 -240.53691096 120.94114616 -240.5625 110.80859375 C-240.56617584 110.11202667 -240.56985168 109.41545959 -240.57363892 108.69778442 C-240.61053074 95.28711429 -239.57603444 82.17403579 -235.5 69.30859375 C-235.23759521 68.46095459 -234.97519043 67.61331543 -234.70483398 66.73999023 C-232.45408623 59.67475131 -229.65663232 53.023754 -226.25 46.43359375 C-225.72792969 45.38171875 -225.20585937 44.32984375 -224.66796875 43.24609375 C-217.72376991 29.7154768 -208.75463242 18.33733834 -198.25 7.43359375 C-197.60804688 6.72847656 -196.96609375 6.02335937 -196.3046875 5.296875 C-145.03154951 -49.41666836 -54.78864354 -45.94919669 0 0 Z M-132.25 -21.56640625 C-133.28511719 -21.28925781 -134.32023437 -21.01210937 -135.38671875 -20.7265625 C-157.157931 -14.28133323 -175.95381731 -1.88252325 -191.85546875 14.04296875 C-193.1868505 15.37217859 -194.53046952 16.69041712 -195.91796875 17.9609375 C-214.32962149 35.04732989 -226.51110375 61.86811841 -230.25 86.43359375 C-230.43175781 87.56410156 -230.61351562 88.69460937 -230.80078125 89.859375 C-235.10601755 125.7647897 -227.86672773 162.77078152 -205.421875 191.76953125 C-204.70515625 192.64867187 -203.9884375 193.5278125 -203.25 194.43359375 C-202.61288086 195.23458496 -202.61288086 195.23458496 -201.96289062 196.05175781 C-180.04677643 223.48553968 -148.21933436 241.88635565 -113.25 246.43359375 C-108.39017562 246.82758215 -103.53054865 246.828399 -98.65795898 246.76977539 C-96.55218544 246.74597718 -94.44767325 246.74927775 -92.34179688 246.75585938 C-55.63545126 246.68495328 -23.40569309 231.44722737 2.296875 205.90234375 C3.51117188 204.6803125 3.51117188 204.6803125 4.75 203.43359375 C5.50539063 202.68722656 6.26078125 201.94085938 7.0390625 201.171875 C28.62475231 178.75596635 41.45881852 146.00274842 41.08618164 115.02685547 C41.0625066 112.93417757 41.06566611 110.84277927 41.07226562 108.75 C41.04785413 96.11501655 39.92003029 83.6768009 36.125 71.55859375 C35.7391272 70.30477905 35.7391272 70.30477905 35.34545898 69.02563477 C31.27961866 56.32333905 25.46880514 44.32319437 17.75 33.43359375 C17.04617188 32.43328125 16.34234375 31.43296875 15.6171875 30.40234375 C-6.16823759 0.77991755 -37.00506591 -18.40355415 -73.24609375 -24.65625 C-80.94562608 -25.7975585 -88.60875137 -25.96148359 -96.375 -25.94140625 C-97.09722748 -25.9415271 -97.81945496 -25.94164795 -98.56356812 -25.94177246 C-110.21349987 -25.9140855 -121.04571631 -24.87807403 -132.25 -21.56640625 Z " fill="#060606" transform="translate(345.25,139.56640625)"/>
<path d="M0 0 C4.06799379 -0.04582221 8.13117563 -0.05969959 12.19921875 -0.015625 C15.12744212 0.01466496 17.96504497 -0.05807693 20.89453125 -0.234375 C35.18893902 -0.52402865 47.25881409 6.51011732 59.8293457 12.5612793 C63.23751699 14.10777605 66.64658917 15.28028477 70.21630859 16.38183594 C72.57669417 17.19986171 74.3751416 18.37350831 76.3125 19.9375 C76.95832031 20.45441406 77.60414062 20.97132813 78.26953125 21.50390625 C80.2833696 23.24498997 82.19390696 25.0433992 84 27 C83.67 27.66 83.34 28.32 83 29 C81.02 27.35 79.04 25.7 77 24 C76.67 24.66 76.34 25.32 76 26 C76.53625 26.2475 77.0725 26.495 77.625 26.75 C80 28 80 28 83 30.0625 C85.72077114 32.07614855 85.72077114 32.07614855 88.125 32.4375 C91.1986736 33.35960208 92.22524649 35.39333077 94 38 C94.99427942 39.91753888 95.9279515 41.85965546 96.8671875 43.8046875 C100.96818052 51.84617794 100.96818052 51.84617794 108 57 C108.66 57.66 109.32 58.32 110 59 C109.72212646 58.49549316 109.44425293 57.99098633 109.15795898 57.47119141 C107.90949126 55.19357073 106.67338993 52.90946816 105.4375 50.625 C104.99986328 49.8309375 104.56222656 49.036875 104.11132812 48.21875 C103.70205078 47.45820313 103.29277344 46.69765625 102.87109375 45.9140625 C102.48880615 45.2123291 102.10651855 44.5105957 101.71264648 43.78759766 C101.47747314 43.19769043 101.2422998 42.6077832 101 42 C101.495 41.01 101.495 41.01 102 40 C103.68555495 42.65602597 105.34657136 45.32400202 107 48 C107.58910156 48.92941406 108.17820312 49.85882813 108.78515625 50.81640625 C109.69587891 52.29947266 109.69587891 52.29947266 110.625 53.8125 C111.19476563 54.72644531 111.76453125 55.64039063 112.3515625 56.58203125 C114.18741162 60.38859045 115.14292746 64.08701147 116.18310547 68.16821289 C116.95590515 70.847144 117.91435543 73.24029666 119.078125 75.76953125 C127.02964366 93.76044759 125.97502709 112.76053697 124 132 C123.67 132.33 123.34 132.66 123 133 C123 134.95185071 123.00311814 136.90382078 123.03125 138.85546875 C122.99074063 141.6354242 122.54434848 144.2782576 122 147 C118.37 147 114.74 147 111 147 C112.87744979 135.60119768 112.87744979 135.60119768 113.49462891 132.57348633 C114.90687036 125.47180082 115.41248652 118.54238569 115.625 111.3125 C115.66367188 110.21744141 115.70234375 109.12238281 115.7421875 107.99414062 C115.83527252 105.329582 115.92109852 102.66500978 116 100 C115.67 100 115.34 100 115 100 C112.87279907 93.49326774 112.87279907 93.49326774 113.51171875 91.015625 C114.44680052 87.15560744 112.37427097 83.59342447 111 80 C110.65839844 79.030625 110.31679687 78.06125 109.96484375 77.0625 C107.52553623 70.57973017 104.673587 65.96453074 99.87109375 60.98046875 C97.52517547 58.49741954 95.7857461 55.90183741 94 53 C93.01 53.99 93.01 53.99 92 55 C89.87491756 51.81237635 89.4979837 49.73487777 89 46 C88.42121094 45.92265625 87.84242187 45.8453125 87.24609375 45.765625 C84.25195098 44.74501286 83.08089477 43.16408008 81.0625 40.75 C80.36125 39.93273437 79.66 39.11546875 78.9375 38.2734375 C78.298125 37.52320313 77.65875 36.77296875 77 36 C73.27337163 31.98670791 69.19181162 28.78712405 64.79296875 25.55078125 C64.20128906 25.03902344 63.60960937 24.52726562 63 24 C63 23.34 63 22.68 63 22 C62.113125 21.731875 61.22625 21.46375 60.3125 21.1875 C57 20 57 20 54.75 18.4375 C51.94263869 16.97001568 50.5976267 16.79784997 47.51171875 16.62109375 C41.71271818 16.10824627 36.56128786 14.46202311 31.0625 12.625 C20.79142015 9.32828627 10.69246232 7.31004497 0 6 C0 4.02 0 2.04 0 0 Z " fill="#FECA2B" transform="translate(0,353)"/>
<path d="M0 0 C3.79655073 2.31164188 6.15966166 5.16745635 7.4375 9.4375 C8.82683846 17.82645794 6.65891725 25.16432771 2.4375 32.4375 C-1.84003126 37.59898666 -7.48341361 40.88709854 -14.16796875 41.7890625 C-20.05195644 42.09746461 -24.00077367 41.29331312 -28.90625 38.01953125 C-32.22354881 34.85088498 -33.45992946 32.31443193 -33.99609375 27.73046875 C-34.01995625 26.36218661 -34.02046351 24.9933372 -34 23.625 C-33.99097656 22.91158447 -33.98195313 22.19816895 -33.97265625 21.46313477 C-33.74432189 14.52985717 -32.45604081 10.40812284 -27.65625 5.48046875 C-19.73607925 -1.77476229 -10.43499324 -4.57882001 0 0 Z " fill="#070502" transform="translate(317.5625,238.5625)"/>
<path d="M0 0 C3.09876962 2.50538821 4.70393512 3.97516001 5.8125 7.8125 C5.874375 8.534375 5.93625 9.25625 6 10 C0.82421875 13.22265625 0.82421875 13.22265625 -1 14 C-4 13 -4 13 -5.9375 10.4375 C-10.05180418 7.16284973 -12.98438129 7.34643434 -18.12109375 7.5859375 C-22.06520104 8.15320395 -24.14542812 9.21679242 -27 12 C-32.08230439 19.19993121 -33.71554698 27.27032684 -33 36 C-31.43343215 40.32225496 -31.43343215 40.32225496 -28 43 C-23.52938922 43.41145444 -19.38670979 43.55468391 -15.1875 41.875 C-12.39549649 39.48185413 -10.25825107 36.90346566 -8 34 C-4.13151386 35.11756266 -1.71077243 36.02873292 1 39 C-2.63460042 45.31924846 -6.17009535 50.05221842 -13 53 C-20.72100793 54.96189546 -29.29164155 55.40260487 -36.31640625 51.26953125 C-40.63345196 48.01421836 -43.27732323 44.13025231 -45 39 C-46.291199 28.79051954 -44.1974125 18.02149213 -38.1875 9.5625 C-37.15834252 8.34598967 -36.09595555 7.15669526 -35 6 C-34.21302734 5.15308594 -34.21302734 5.15308594 -33.41015625 4.2890625 C-24.76136279 -4.05447942 -10.52224158 -5.86907252 0 0 Z " fill="#080602" transform="translate(173,226)"/>
<path d="M0 0 C2.31 0 4.62 0 7 0 C6.77280273 1.20946289 6.77280273 1.20946289 6.54101562 2.44335938 C5.97620188 5.46902315 5.417882 8.49579712 4.86376953 11.5234375 C4.5065422 13.46445259 4.14201019 15.40411876 3.77734375 17.34375 C1.77721692 28.31587432 1.97513612 37.14351731 3.875 48.125 C4.04902344 49.18332031 4.22304688 50.24164063 4.40234375 51.33203125 C5.81636833 59.68001338 8.06623877 66.47457316 12.125 73.875 C12.49753906 74.56335938 12.87007813 75.25171875 13.25390625 75.9609375 C14.16499526 77.64294798 15.08190315 79.32180436 16 81 C15.7215625 80.071875 15.7215625 80.071875 15.4375 79.125 C15 77 15 77 16 75 C16.31638428 75.49290527 16.63276855 75.98581055 16.95874023 76.49365234 C25.13842547 89.18793265 25.13842547 89.18793265 34.86328125 100.70703125 C37.21284792 103.22841266 39.27146632 105.89599082 41.375 108.625 C45.22750747 113.40022342 49.37401896 116.77731209 54.42578125 120.22265625 C56.69729602 121.79100105 58.7485977 123.42301364 60.8125 125.25 C63.71371973 127.81484643 66.73066434 129.92676275 70 132 C69.34 132.33 68.68 132.66 68 133 C65.8359375 132.00390625 65.8359375 132.00390625 63.375 130.5625 C62.55773437 130.08941406 61.74046875 129.61632812 60.8984375 129.12890625 C60.27195312 128.75636719 59.64546875 128.38382813 59 128 C59.556875 128.556875 60.11375 129.11375 60.6875 129.6875 C62.27097039 131.27097039 63.83263835 132.87646143 65.375 134.5 C68.11972891 137.11402753 70.80102325 138.99134018 74 141 C71 142 71 142 69.08203125 141.171875 C66.37074039 139.47323494 63.68068277 137.74665871 61 136 C59.82962721 135.28352715 58.65904376 134.56739834 57.48828125 133.8515625 C42.25735816 124.24805021 21.01994367 107.78580141 16.08984375 89.65234375 C14.83157504 85.4355651 12.9399322 82.12242569 10.6875 78.375 C6.65020659 71.46088144 3.58808329 64.5951791 1 57 C0.34 57.99 -0.32 58.98 -1 60 C-5.09321059 51.49836507 -5.49922427 43.68680131 -5.09423828 34.46777344 C-5.00074029 32.26742181 -4.94905427 30.0689737 -4.90234375 27.8671875 C-4.60671732 18.07702569 -2.93683587 9.35348075 0 0 Z " fill="#FFFAEE" transform="translate(364,0)"/>
<path d="M0 0 C1.37478516 0.01740234 1.37478516 0.01740234 2.77734375 0.03515625 C3.69644531 0.04417969 4.61554688 0.05320313 5.5625 0.0625 C6.27277344 0.07410156 6.98304688 0.08570313 7.71484375 0.09765625 C7.71484375 1.74765625 7.71484375 3.39765625 7.71484375 5.09765625 C8.47796875 4.27265625 9.24109375 3.44765625 10.02734375 2.59765625 C13.81820454 -0.57944613 17.35885244 -0.49357635 22.15234375 -0.265625 C25.31422885 0.18263005 27.3013476 0.99557896 29.71484375 3.09765625 C33.65571433 9.00896212 31.92445138 16.68854493 30.65625 23.38671875 C30.20801228 25.50114625 29.74828106 27.61316845 29.27734375 29.72265625 C29.04724609 30.80933594 28.81714844 31.89601563 28.58007812 33.015625 C26.86835033 40.94414967 26.86835033 40.94414967 25.71484375 42.09765625 C24.02875409 42.16971136 22.33983716 42.18151693 20.65234375 42.16015625 C19.73324219 42.15113281 18.81414062 42.14210938 17.8671875 42.1328125 C17.15691406 42.12121094 16.44664062 42.10960937 15.71484375 42.09765625 C16.22414616 37.00463211 17.13089694 32.15152609 18.27734375 27.16015625 C19.49792803 21.62287149 20.09817874 16.7518474 19.71484375 11.09765625 C18.50523031 9.67696355 18.50523031 9.67696355 14.96484375 9.72265625 C11.75449448 9.80305856 10.74093923 10.08141906 7.90234375 11.84765625 C4.68513283 16.62751248 3.82379231 21.49652625 2.71484375 27.09765625 C2.43296619 28.47019078 2.15038818 29.84258161 1.8671875 31.21484375 C1.1265637 34.83803319 0.41433003 38.46628065 -0.28515625 42.09765625 C-3.91515625 42.09765625 -7.54515625 42.09765625 -11.28515625 42.09765625 C-9.82586592 32.98237897 -8.09603439 23.94886392 -6.22265625 14.91015625 C-5.95105867 13.57619492 -5.67957371 12.24221065 -5.40820312 10.90820312 C-5.14974609 9.65716797 -4.89128906 8.40613281 -4.625 7.1171875 C-4.39159912 5.98385986 -4.15819824 4.85053223 -3.91772461 3.68286133 C-3.04844994 0.13027564 -3.04844994 0.13027564 0 0 Z " fill="#090703" transform="translate(341.28515625,236.90234375)"/>
<path d="M0 0 C1.37478516 0.01740234 1.37478516 0.01740234 2.77734375 0.03515625 C3.69644531 0.04417969 4.61554688 0.05320313 5.5625 0.0625 C6.27277344 0.07410156 6.98304688 0.08570313 7.71484375 0.09765625 C7.13673953 4.41940623 6.42541276 8.67100273 5.55957031 12.94702148 C4.26421812 19.39038907 3.25214093 25.50414103 3.71484375 32.09765625 C4.80553654 33.40174384 4.80553654 33.40174384 7.46484375 33.34765625 C11.29872139 33.05274259 12.83772404 32.66373599 15.71484375 30.09765625 C18.51356003 23.76801149 19.85535465 16.75123882 21.40234375 10.03515625 C21.62728516 9.07416016 21.85222656 8.11316406 22.08398438 7.12304688 C22.63136389 4.78212596 23.17364168 2.44001305 23.71484375 0.09765625 C27.01484375 0.09765625 30.31484375 0.09765625 33.71484375 0.09765625 C33.13449239 7.29662142 31.96266383 14.08122163 30.27734375 21.09765625 C29.83984324 22.95151599 29.40363733 24.80568175 28.96875 26.66015625 C28.75879395 27.55476563 28.54883789 28.449375 28.33251953 29.37109375 C27.37509229 33.59739708 26.54316708 37.84431227 25.71484375 42.09765625 C22.41484375 42.09765625 19.11484375 42.09765625 15.71484375 42.09765625 C15.71484375 40.44765625 15.71484375 38.79765625 15.71484375 37.09765625 C15.24175781 37.53078125 14.76867187 37.96390625 14.28125 38.41015625 C9.89200536 42.10636226 6.66173311 44.03234583 0.83203125 43.62890625 C-2.88448424 42.69634886 -4.68762091 40.89000674 -7.28515625 38.09765625 C-10.11187042 29.61751375 -7.8232012 20.41906329 -5.84765625 11.97265625 C-5.61755859 10.93367187 -5.38746094 9.8946875 -5.15039062 8.82421875 C-3.18877976 0.13627264 -3.18877976 0.13627264 0 0 Z " fill="#0A0803" transform="translate(189.28515625,236.90234375)"/>
<path d="M0 0 C1.18529297 0.01353516 1.18529297 0.01353516 2.39453125 0.02734375 C3.28205078 0.04474609 3.28205078 0.04474609 4.1875 0.0625 C4.1875 0.3925 4.1875 0.7225 4.1875 1.0625 C3.63924561 1.16796143 3.09099121 1.27342285 2.52612305 1.38208008 C-22.90179027 6.29905041 -47.06998996 13.36351293 -66.8125 31.0625 C-68.06933594 32.15884766 -68.06933594 32.15884766 -69.3515625 33.27734375 C-71.87222567 35.504818 -74.34584081 37.77553121 -76.8125 40.0625 C-77.46734375 40.64 -78.1221875 41.2175 -78.796875 41.8125 C-102.51678093 63.76811541 -114.75464764 98.07051228 -116.03515625 129.7421875 C-116.7575677 158.25073579 -109.61415402 187.67264554 -92.8125 211.0625 C-92.10867187 212.06152344 -91.40484375 213.06054688 -90.6796875 214.08984375 C-80.78074756 227.56612337 -69.14133949 239.34565095 -54.8125 248.0625 C-54.19262207 248.44100098 -53.57274414 248.81950195 -52.93408203 249.20947266 C-22.24492507 267.75131581 12.92575696 273.29605397 48.0859375 266.28515625 C67.54928392 261.4504444 86.90338146 253.26628018 102.1875 240.0625 C102.8475 240.3925 103.5075 240.7225 104.1875 241.0625 C91.19603178 253.42023807 73.60586985 261.42677722 56.5625 266.375 C55.72831543 266.61758545 54.89413086 266.8601709 54.03466797 267.11010742 C41.83067616 270.46662043 29.73893797 271.47344283 17.125 271.4375 C16.04208176 271.43668427 16.04208176 271.43668427 14.93728638 271.43585205 C3.00266636 271.39466012 -8.33362117 270.51255264 -19.8125 267.0625 C-20.49441406 266.85882813 -21.17632812 266.65515625 -21.87890625 266.4453125 C-37.57824798 261.54493994 -53.08072314 253.44207175 -65.8125 243.0625 C-66.34649414 242.63775391 -66.88048828 242.21300781 -67.43066406 241.77539062 C-93.4301826 221.00507103 -112.76443923 189.91799784 -117.30859375 156.59765625 C-121.38131629 118.73642076 -114.1219456 82.68505508 -90.8125 52.0625 C-86.88944582 47.26129954 -82.58735892 42.83470195 -78.203125 38.45703125 C-76.87391516 37.1256495 -75.55567663 35.78203048 -74.28515625 34.39453125 C-57.8228231 16.65534123 -32.97707703 6.17182549 -9.8125 1.0625 C-8.97460938 0.87300781 -8.13671875 0.68351562 -7.2734375 0.48828125 C-4.79221821 0.05899093 -2.51464416 -0.037532 0 0 Z " fill="#EDE8DD" transform="translate(231.8125,114.9375)"/>
<path d="M0 0 C1.65 0 3.3 0 5 0 C4.90388428 0.71430176 4.80776855 1.42860352 4.70874023 2.16455078 C2.24775175 19.50626053 2.24775175 19.50626053 2.671875 36.93359375 C3.24350198 42.27558395 3.08021906 47.6342365 3 53 C2.67 53 2.34 53 2 53 C0.44876534 45.34925042 -0.48351265 37.78808563 -1 30 C-1.48032656 38.71703754 -0.07313419 46.54704214 2 55 C2.66 55 3.32 55 4 55 C4.29543701 55.69335449 4.59087402 56.38670898 4.89526367 57.10107422 C16.50622605 84.04705979 32.13040665 108.4202711 57 125 C56.505 126.485 56.505 126.485 56 128 C55.29875 127.41992188 54.5975 126.83984375 53.875 126.2421875 C52.92625 125.46101563 51.9775 124.67984375 51 123.875 C49.99195313 123.04484375 48.98390625 122.2146875 47.9453125 121.359375 C45.63331181 119.50732139 43.3113846 117.8018639 40.875 116.125 C36.59812944 112.9717879 33.54306648 109.00089388 30.28125 104.83984375 C28.15265439 102.19003381 25.91198338 99.76539374 23.5625 97.3125 C17.68743832 90.90805997 13.42158496 83.44007824 9 76 C9.66 77.98 10.32 79.96 11 82 C10.01 82.495 10.01 82.495 9 83 C7.3553114 80.19859239 5.738145 77.38217081 4.125 74.5625 C3.66480469 73.77939453 3.20460938 72.99628906 2.73046875 72.18945312 C-0.30242906 66.84891568 -2.03146783 62.05107517 -3 56 C-3.14066895 55.19103271 -3.28133789 54.38206543 -3.42626953 53.54858398 C-3.85362703 51.01510472 -4.24397272 48.47832987 -4.625 45.9375 C-4.82609375 44.6680957 -4.82609375 44.6680957 -5.03125 43.37304688 C-6.57102053 33.18385108 -5.58659682 24.69529989 -3.5625 14.625 C-3.33240234 13.43777344 -3.10230469 12.25054687 -2.86523438 11.02734375 C-1.14773261 2.29546523 -1.14773261 2.29546523 0 0 Z " fill="#FEFBF1" transform="translate(371,0)"/>
<path d="M0 0 C1.39195915 4.17587745 -0.17676781 6.13474776 -2 10 C-2.67546875 10.01417969 -3.3509375 10.02835938 -4.046875 10.04296875 C-4.93890625 10.09066406 -5.8309375 10.13835937 -6.75 10.1875 C-7.63171875 10.22230469 -8.5134375 10.25710937 -9.421875 10.29296875 C-13.02149675 11.28013775 -14.01662926 12.88942073 -16 16 C-17.21967769 18.88129465 -17.21967769 18.88129465 -18.0625 22 C-18.38863281 23.12792969 -18.71476563 24.25585938 -19.05078125 25.41796875 C-20.50746166 30.91498906 -21.79922404 36.44186279 -23 42 C-26.3 42 -29.6 42 -33 42 C-32.38284364 33.83810715 -30.83633946 26.0940203 -29 18.125 C-28.59007812 16.31128906 -28.59007812 16.31128906 -28.171875 14.4609375 C-27.15238847 9.96320279 -26.11856017 5.47424068 -25 1 C-21.7 1 -18.4 1 -15 1 C-14.67 2.32 -14.34 3.64 -14 5 C-13.175 4.175 -12.35 3.35 -11.5 2.5 C-7.71189747 -0.71716841 -4.82272823 -0.41575243 0 0 Z " fill="#080602" transform="translate(260,237)"/>
<path d="M0 0 C2.31 0 4.62 0 7 0 C6.77280273 1.20946289 6.77280273 1.20946289 6.54101562 2.44335938 C5.97620188 5.46902315 5.417882 8.49579712 4.86376953 11.5234375 C4.5065422 13.46445259 4.14201019 15.40411876 3.77734375 17.34375 C1.77721692 28.31587432 1.97513612 37.14351731 3.875 48.125 C4.04902344 49.18332031 4.22304688 50.24164063 4.40234375 51.33203125 C6.0305192 60.94429667 9.12114364 68.56711892 13.625 77.1875 C14.15899414 78.21238525 14.69298828 79.23727051 15.24316406 80.29321289 C18.97158495 87.33248498 22.89419091 93.858012 28 100 C27.67 100.66 27.34 101.32 27 102 C14.9397471 90.63674946 5.94568735 72.65049747 1 57 C0.34 57.99 -0.32 58.98 -1 60 C-5.09321059 51.49836507 -5.49922427 43.68680131 -5.09423828 34.46777344 C-5.00074029 32.26742181 -4.94905427 30.0689737 -4.90234375 27.8671875 C-4.60671732 18.07702569 -2.93683587 9.35348075 0 0 Z " fill="#FEC517" transform="translate(364,0)"/>
<path d="M0 0 C4.06799379 -0.04582221 8.13117563 -0.05969959 12.19921875 -0.015625 C15.12744212 0.01466496 17.96504497 -0.05807693 20.89453125 -0.234375 C35.18893902 -0.52402865 47.25881409 6.51011732 59.8293457 12.5612793 C63.23751699 14.10777605 66.64658917 15.28028477 70.21630859 16.38183594 C72.57669417 17.19986171 74.3751416 18.37350831 76.3125 19.9375 C76.95832031 20.45441406 77.60414062 20.97132813 78.26953125 21.50390625 C80.2833696 23.24498997 82.19390696 25.0433992 84 27 C83.67 27.66 83.34 28.32 83 29 C80.69 27.35 78.38 25.7 76 24 C75.01 25.485 75.01 25.485 74 27 C73.30962646 26.62190186 72.61925293 26.24380371 71.90795898 25.85424805 C68.75291799 24.1287234 65.59524206 22.4080763 62.4375 20.6875 C60.80844727 19.79514648 60.80844727 19.79514648 59.14648438 18.88476562 C49.05100045 13.18287842 49.05100045 13.18287842 38 10 C40.64 10.99 43.28 11.98 46 13 C42.7636144 14.0787952 41.9928685 13.95182872 38.83984375 13.07421875 C38.04642578 12.85443359 37.25300781 12.63464844 36.43554688 12.40820312 C35.61119141 12.17037109 34.78683594 11.93253906 33.9375 11.6875 C33.10927734 11.46126953 32.28105469 11.23503906 31.42773438 11.00195312 C25.2607444 9.2607444 25.2607444 9.2607444 23 7 C22.34 7 21.68 7 21 7 C18.66508361 6.67794257 16.33157492 6.34541851 14 6 C14 5.34 14 4.68 14 4 C9.38 4.33 4.76 4.66 0 5 C0 3.35 0 1.7 0 0 Z " fill="#FEC518" transform="translate(0,353)"/>
<path d="M0 0 C9.39039109 1.02069468 17.89846105 4.10776928 26.375 8.1875 C27.19935547 8.58259766 28.02371094 8.97769531 28.87304688 9.38476562 C60.5447855 24.88581233 85.73848759 53.63159306 97.32373047 86.9296875 C98.6069413 90.85807299 99.73570163 94.82309527 100.8125 98.8125 C101.0197168 99.57667236 101.22693359 100.34084473 101.44042969 101.12817383 C110.15591949 135.23689719 103.06037597 171.51957501 85.99609375 201.671875 C77.8446935 215.26285937 67.10621778 226.84752341 55 237 C56.2904696 234.13802177 57.61123532 232.17313747 59.90625 230.0390625 C60.48028564 229.49266113 61.05432129 228.94625977 61.64575195 228.38330078 C62.25765381 227.80306152 62.86955566 227.22282227 63.5 226.625 C78.84623123 211.62651976 89.21763795 193.25957181 96 173 C96.31710937 172.07445312 96.63421875 171.14890625 96.9609375 170.1953125 C107.27458335 138.23322191 102.81265962 100.505265 88.09130859 70.71044922 C69.24246561 34.90812443 37.60515634 13.38077455 0 1 C0 0.67 0 0.34 0 0 Z " fill="#EAE4D6" transform="translate(282,118)"/>
<path d="M0 0 C3.80330461 3.38745353 6.09726735 7.17663078 8.5625 11.5625 C8.94857422 12.21541016 9.33464844 12.86832031 9.73242188 13.54101562 C12.43151396 18.30925837 13.89408079 22.94499997 15.22045898 28.24731445 C15.97267851 30.90352339 16.92558731 33.26495319 18.078125 35.76953125 C26.02964366 53.76044759 24.97502709 72.76053697 23 92 C22.67 92.33 22.34 92.66 22 93 C22 94.95185071 22.00311814 96.90382078 22.03125 98.85546875 C21.99074063 101.6354242 21.54434848 104.2782576 21 107 C18.69 107 16.38 107 14 107 C14.99 102.71 15.98 98.42 17 94 C16.34 95.65 15.68 97.3 15 99 C14.67 99 14.34 99 14 99 C14.71051552 89.29585386 15.82162326 79.65582492 17 70 C17.66 70.99 18.32 71.98 19 73 C19.33 71.96875 19.66 70.9375 20 69.875 C20.185625 69.29492188 20.37125 68.71484375 20.5625 68.1171875 C21.78096761 62.2206746 20.48957926 58.31479567 17.75 53.125 C14.38823738 46.40907674 12.4865479 39.88746255 10.921875 32.55859375 C10.01084295 29.04185562 8.67620163 26.20644187 7 23 C7 22.34 7 21.68 7 21 C7.99 21 8.98 21 10 21 C9.69707031 20.43490723 9.39414063 19.86981445 9.08203125 19.28759766 C7.71707746 16.73565904 6.35847139 14.18039483 5 11.625 C4.52304688 10.73554688 4.04609375 9.84609375 3.5546875 8.9296875 C3.10351562 8.07890625 2.65234375 7.228125 2.1875 6.3515625 C1.76855469 5.56604004 1.34960938 4.78051758 0.91796875 3.97119141 C0 2 0 2 0 0 Z " fill="#FEC413" transform="translate(101,393)"/>
<path d="M0 0 C3.3 0 6.6 0 10 0 C8.35843975 13.88422455 5.30776035 27.43314539 2 41 C-1.3 41 -4.6 41 -8 41 C-7.36480917 32.67106024 -5.79887775 24.71260415 -4 16.5625 C-3.72671875 15.29728516 -3.4534375 14.03207031 -3.171875 12.72851562 C-1.15826613 3.47479839 -1.15826613 3.47479839 0 0 Z " fill="#060502" transform="translate(268,238)"/>
<path d="M0 0 C2.23164546 1.57410706 2.8951735 2.47681186 3.43359375 5.1640625 C3.44511553 12.42278185 2.02753589 18.43183271 -2.75 24.0625 C-6.20793648 25.50330687 -9.32615049 25.77542315 -13 25 C-15.72782069 22.88593897 -16.75313842 21.35259573 -17.375 17.9453125 C-17.74648431 11.2353771 -15.60501263 6.08742238 -11.3125 1 C-7.68798326 -0.56735859 -3.87529644 -0.72795624 0 0 Z " fill="#F7C655" transform="translate(311,246)"/>
<path d="M0 0 C0.66 0.66 1.32 1.32 2 2 C2.639375 1.835 3.27875 1.67 3.9375 1.5 C4.618125 1.335 5.29875 1.17 6 1 C6.99 1.66 7.98 2.32 9 3 C8.67 3.33 8.34 3.66 8 4 C13.28 5.32 18.56 6.64 24 8 C20.7 7.01 17.4 6.02 14 5 C14 4.67 14 4.34 14 4 C15.299375 4.103125 16.59875 4.20625 17.9375 4.3125 C19.03384766 4.39951172 19.03384766 4.39951172 20.15234375 4.48828125 C28.43053358 5.9758572 35.3044298 9.58628082 42.5 13.8125 C43.38558594 14.32103516 44.27117188 14.82957031 45.18359375 15.35351562 C62.22623527 25.22623527 62.22623527 25.22623527 69 32 C69.6328125 34.3828125 69.6328125 34.3828125 70.125 37.125 C70.29257813 38.03507812 70.46015625 38.94515625 70.6328125 39.8828125 C70.81457031 40.93082031 70.81457031 40.93082031 71 42 C67.35658086 40.53306538 65.81454126 38.66991108 63.5625 35.5 C59.69303156 30.44839793 55.34705354 26.89422261 50.21704102 23.22460938 C48.78185622 22.18946355 47.38671667 21.09922663 46 20 C46 19.34 46 18.68 46 18 C45.113125 17.731875 44.22625 17.46375 43.3125 17.1875 C40 16 40 16 37.75 14.4375 C34.94263869 12.97001568 33.5976267 12.79784997 30.51171875 12.62109375 C24.71271818 12.10824627 19.56128786 10.46202311 14.0625 8.625 C3.79142015 5.32828627 -6.30753768 3.31004497 -17 2 C-17 1.67 -17 1.34 -17 1 C-5.08636483 -1.56503533 -5.08636483 -1.56503533 0 0 Z " fill="#FEF4D6" transform="translate(17,357)"/>
<path d="M0 0 C23.9846502 -0.27959088 44.93029863 5.87750295 65 19 C64.01 19.495 64.01 19.495 63 20 C60.85205078 19.11962891 60.85205078 19.11962891 58.1953125 17.7265625 C57.21820313 17.2315625 56.24109375 16.7365625 55.234375 16.2265625 C53.19548748 15.17638174 51.1614139 14.1167901 49.1328125 13.046875 C41.98646004 9.45508848 33.99416131 6.40463306 25.90673828 8.55712891 C23.58766568 9.09577138 22.27525984 8.63174537 20 8 C18.41307361 7.92133041 16.82321751 7.89215886 15.234375 7.90234375 C14.34492188 7.90556641 13.45546875 7.90878906 12.5390625 7.91210938 C11.61867188 7.92048828 10.69828125 7.92886719 9.75 7.9375 C8.34621094 7.94426758 8.34621094 7.94426758 6.9140625 7.95117188 C4.60930959 7.96293082 2.30468773 7.97936574 0 8 C0 5.36 0 2.72 0 0 Z " fill="#FEC30F" transform="translate(0,342)"/>
<path d="M0 0 C3 1 3 1 4.02734375 2.96875 C4.32769531 3.8040625 4.62804687 4.639375 4.9375 5.5 C6.23559036 9.00835232 7.62786663 12.37963102 9.25 15.75 C12.15848052 22.28835581 10.83824898 27.33634744 9 34 C8.34 33.67 7.68 33.34 7 33 C6.01 40.92 5.02 48.84 4 57 C4.99 54.03 5.98 51.06 7 48 C8.16915233 52.6766093 7.45376457 54.69677051 6.0625 59.25 C5.68222656 60.51328125 5.30195312 61.7765625 4.91015625 63.078125 C4.45962891 64.52445313 4.45962891 64.52445313 4 66 C1.525 66.495 1.525 66.495 -1 67 C-0.70946625 65.22898044 -0.4174913 63.45819731 -0.125 61.6875 C0.03742188 60.70136719 0.19984375 59.71523438 0.3671875 58.69921875 C0.71727158 56.6527396 1.07993572 54.60785732 1.49462891 52.57348633 C2.90687036 45.47180082 3.41248652 38.54238569 3.625 31.3125 C3.68300781 29.66991211 3.68300781 29.66991211 3.7421875 27.99414062 C3.83527252 25.329582 3.92109852 22.66500978 4 20 C3.67 20 3.34 20 3 20 C1.62056133 15.78054055 0.90469356 13.24431245 2 9 C1.38290413 6.98415349 0.71706982 4.98248715 0 3 C0 2.01 0 1.02 0 0 Z " fill="#FEF9E7" transform="translate(112,433)"/>
<path d="M0 0 C3.4494952 3.14717989 5.7873626 6.66638052 8.1875 10.625 C11.60415539 16.09973622 15.30227231 20.8719011 19.7578125 25.56640625 C22.13224083 28.14352968 24.23606708 30.8504767 26.375 33.625 C30.22750747 38.40022342 34.37401896 41.77731209 39.42578125 45.22265625 C41.69729602 46.79100105 43.7485977 48.42301364 45.8125 50.25 C48.71371973 52.81484643 51.73066434 54.92676275 55 57 C54.01 57.495 54.01 57.495 53 58 C50.56461909 56.81579603 48.31047555 55.58457112 46 54.1875 C45.32590088 53.78241211 44.65180176 53.37732422 43.95727539 52.95996094 C38.64962899 49.65067348 34.48078874 45.97904226 30.24609375 41.359375 C27.9974782 38.88976998 27.9974782 38.88976998 25.09375 36.68359375 C21.44095986 33.70288001 18.81645972 30.11103418 16.0625 26.3125 C15.54179932 25.60496582 15.02109863 24.89743164 14.48461914 24.16845703 C12.98095187 22.1185329 11.48880027 20.06073645 10 18 C8.89785156 16.48599609 8.89785156 16.48599609 7.7734375 14.94140625 C0 4.07513298 0 4.07513298 0 0 Z " fill="#FEC720" transform="translate(379,75)"/>
<path d="M0 0 C10.48329532 4.96333009 14.54134392 12.98872696 19.12744141 23.12548828 C19.95513563 24.90361817 20.8719683 26.63945239 21.79296875 28.37109375 C22.19128906 29.23863281 22.58960937 30.10617187 23 31 C22.67 31.66 22.34 32.32 22 33 C20.68 31.35 19.36 29.7 18 28 C17.34 28.33 16.68 28.66 16 29 C10.33890534 20.23904379 4.98626326 11.67827637 1 2 C0.67 1.34 0.34 0.68 0 0 Z " fill="#FEF7DF" transform="translate(88,381)"/>
<path d="M0 0 C3.71376688 4.42795281 6.85422023 9.16346521 10 14 C10.44730469 14.67417969 10.89460938 15.34835937 11.35546875 16.04296875 C19.8795844 29.18322088 19.8795844 29.18322088 19 36 C17.23134259 33.81023368 15.91983028 31.82362661 14.75 29.25 C12.80595594 25.63963245 10.46022992 22.98902449 7.71875 19.96875 C5.52348102 17.45416917 3.76699588 14.82719341 2 12 C1.34 12.66 0.68 13.32 0 14 C-2.15844568 10.76233149 -2.45827933 8.79204469 -3 5 C-3.31674575 3.66262906 -3.64270064 2.32711192 -4 1 C-2.68 2.32 -1.36 3.64 0 5 C0 4.67 0 4.34 0 4 C0 2.68 0 1.36 0 0 Z " fill="#FEFAEE" transform="translate(92,394)"/>
<path d="M0 0 C4.66870514 3.89058762 8.95312743 7.92340509 13.10546875 12.36328125 C15.17414642 14.15044814 16.40601969 14.36038842 19 15 C20.921875 16.62890625 20.921875 16.62890625 22.75 18.5625 C23.67039062 19.52349609 23.67039062 19.52349609 24.609375 20.50390625 C25.06828125 20.99761719 25.5271875 21.49132812 26 22 C25.67 22.66 25.34 23.32 25 24 C27.66596786 25.73024583 30.33290524 27.45899184 33 29.1875 C34.11568359 29.91163086 34.11568359 29.91163086 35.25390625 30.65039062 C40.13963976 33.81549625 45.05329582 36.93105529 50 40 C47 41 47 41 45.08203125 40.171875 C42.37074039 38.47323494 39.68068277 36.74665871 37 35 C35.82962721 34.28352715 34.65904376 33.56739834 33.48828125 32.8515625 C24.74918498 27.3372873 17.38154784 20.85274815 10.0625 13.5625 C9.17965332 12.68577637 8.29680664 11.80905273 7.38720703 10.90576172 C0.58778037 3.96962276 0.58778037 3.96962276 0 0 Z " fill="#FEC721" transform="translate(388,101)"/>
<path d="M0 0 C8.35691204 2.14279796 15.96249153 7.96249153 22 14 C22.6328125 16.3828125 22.6328125 16.3828125 23.125 19.125 C23.29257813 20.03507812 23.46015625 20.94515625 23.6328125 21.8828125 C23.75398438 22.58148438 23.87515625 23.28015625 24 24 C20.3322111 22.5280584 18.77235474 20.62178657 16.5 17.4375 C12.40650455 12.08804572 7.84958744 8.66475579 2.34375 4.91015625 C1.5703125 4.27980469 0.796875 3.64945312 0 3 C0 2.01 0 1.02 0 0 Z " fill="#FEFBF2" transform="translate(64,375)"/>
<path d="M0 0 C2 2 2 2 2.3125 4.9375 C2 8 2 8 0.9375 9.875 C-2.14071911 11.66235303 -4.52906068 11.43386742 -8 11 C-10 9.3125 -10 9.3125 -11 7 C-10.86340503 4.1998031 -10.31153277 2.51922128 -8.875 0.125 C-5.81663109 -1.71002135 -3.34391796 -0.79038061 0 0 Z " fill="#0D0B04" transform="translate(280,221)"/>
<path d="M0 0 C2.31 0 4.62 0 7 0 C7.33 0.66 7.66 1.32 8 2 C10.12338449 2.65702205 10.12338449 2.65702205 12.69140625 3.0703125 C13.63564453 3.24433594 14.57988281 3.41835938 15.55273438 3.59765625 C16.54595703 3.77167969 17.53917969 3.94570313 18.5625 4.125 C19.55958984 4.30675781 20.55667969 4.48851562 21.58398438 4.67578125 C24.05468861 5.1250002 26.52658084 5.56602249 29 6 C28.67 6.99 28.34 7.98 28 9 C26.34484375 8.75443359 26.34484375 8.75443359 24.65625 8.50390625 C19.59776685 7.87159586 14.59063952 7.8894053 9.5 7.9375 C8.12328125 7.94426758 8.12328125 7.94426758 6.71875 7.95117188 C4.47909609 7.96283674 2.23958455 7.97920386 0 8 C0 5.36 0 2.72 0 0 Z " fill="#FEF7E0" transform="translate(0,342)"/>
<path d="M0 0 C0.66 0 1.32 0 2 0 C3.33346412 1.95030467 4.43891316 3.99004369 5.5859375 6.0546875 C7.19569514 8.26921597 8.54844163 8.8792876 11 10 C12.25 12.125 12.25 12.125 13 14 C12.34 14 11.68 14 11 14 C11.33773437 14.60585938 11.67546875 15.21171875 12.0234375 15.8359375 C15.21041847 21.82304047 17.04336857 27.28930189 18 34 C17.01 34.495 17.01 34.495 16 35 C16 34.34 16 33.68 16 33 C15.34 33 14.68 33 14 33 C13 30 13 30 12.640625 26.75390625 C11.93919617 22.6437044 10.63888978 19.64547276 8.75 15.9375 C7.87601563 14.18759766 7.87601563 14.18759766 6.984375 12.40234375 C5.4869961 9.8349874 4.18271314 7.94476755 2.265625 5.75390625 C0 3 0 3 0 0 Z " fill="#FECB31" transform="translate(97,400)"/>
<path d="M0 0 C0.33 0 0.66 0 1 0 C1.11654436 3.5622231 1.1873639 7.12395342 1.25 10.6875 C1.30027344 12.19860352 1.30027344 12.19860352 1.3515625 13.74023438 C1.45112665 21.28221903 1.45112665 21.28221903 -1.015625 25.20703125 C-1.67046875 25.79871094 -2.3253125 26.39039063 -3 27 C-4.70137504 20.40717171 -4.35911051 13.62566373 -3 7 C-2.67 7 -2.34 7 -2 7 C-1.34 4.69 -0.68 2.38 0 0 Z " fill="#FEC61E" transform="translate(128,473)"/>
<path d="M0 0 C0.33 0 0.66 0 1 0 C0.67 4.95 0.34 9.9 0 15 C0.99 12.03 1.98 9.06 3 6 C4.16915233 10.6766093 3.45376457 12.69677051 2.0625 17.25 C1.68222656 18.51328125 1.30195312 19.7765625 0.91015625 21.078125 C0.45962891 22.52445312 0.45962891 22.52445312 0 24 C-1.65 24.33 -3.3 24.66 -5 25 C-3.70834692 16.56626517 -2.00616752 8.2921591 0 0 Z " fill="#FEE79F" transform="translate(116,475)"/>
<path d="M0 0 C4.06813148 1.60026025 6.67269878 4.52839368 9.625 7.625 C15.59199483 13.7457976 21.87223057 19.24815372 29 24 C28.67 24.99 28.34 25.98 28 27 C27.29875 26.41992188 26.5975 25.83984375 25.875 25.2421875 C24.92625 24.46101563 23.9775 23.67984375 23 22.875 C21.99195313 22.04484375 20.98390625 21.2146875 19.9453125 20.359375 C17.63331181 18.50732139 15.3113846 16.8018639 12.875 15.125 C7.6799977 11.32036138 3.79296077 6.15386105 0 1 C0 0.67 0 0.34 0 0 Z " fill="#FEF6DE" transform="translate(399,101)"/>
<path d="M0 0 C5.23771519 2.16325102 7.21207383 6.35774541 10.125 11 C10.66253906 11.81339844 11.20007813 12.62679688 11.75390625 13.46484375 C15.37220329 19.17651963 17.1563963 24.29397481 18 31 C14.87534432 28.15145344 13.06765677 25.55278664 11.30859375 21.71875 C10.60379883 20.20861328 10.60379883 20.20861328 9.88476562 18.66796875 C9.40716797 17.62253906 8.92957031 16.57710938 8.4375 15.5 C7.48196231 13.42519125 6.52247242 11.35219702 5.55859375 9.28125 C5.13892334 8.36408203 4.71925293 7.44691406 4.28686523 6.50195312 C3.05537615 4.1076636 1.68182552 2.09577091 0 0 Z " fill="#FEE8A6" transform="translate(69,400)"/>
<path d="M0 0 C4.59538025 0.56505303 8.78344885 1.46351528 13.1875 2.875 C22.29612328 5.57312192 31.60092712 6.75183338 41 8 C40.67 8.66 40.34 9.32 40 10 C32.06958622 9.84338501 24.82856445 8.65628268 17.1875 6.625 C16.40012451 6.41593018 15.61274902 6.20686035 14.80151367 5.99145508 C9.74671083 4.59788842 4.88473631 2.90488007 0 1 C0 0.67 0 0.34 0 0 Z " fill="#E0DACE" transform="translate(198,376)"/>
<path d="M0 0 C3.30286086 1.10095362 3.78510901 1.6896019 5.6875 4.4375 C6.34298828 5.36369141 6.34298828 5.36369141 7.01171875 6.30859375 C8 8 8 8 8 10 C8.69480469 10.20367187 9.38960938 10.40734375 10.10546875 10.6171875 C13.95317027 12.4553607 16.39384782 15.06803988 19.3125 18.125 C20.13717773 18.96998047 20.13717773 18.96998047 20.97851562 19.83203125 C22.32595438 21.21462058 23.66394273 22.60640916 25 24 C24.34 24.66 23.68 25.32 23 26 C22.41992188 25.40832031 21.83984375 24.81664063 21.2421875 24.20703125 C16.15644035 19.01976531 16.15644035 19.01976531 10.6875 14.25 C8.01947545 12.01630502 6.08211191 9.77614921 4 7 C3.2575 6.113125 2.515 5.22625 1.75 4.3125 C0 2 0 2 0 0 Z " fill="#FEE597" transform="translate(380,90)"/>
<path d="M0 0 C4.66870514 3.89058762 8.95312743 7.92340509 13.10546875 12.36328125 C15.17414642 14.15044814 16.40601969 14.36038842 19 15 C20.921875 16.62890625 20.921875 16.62890625 22.75 18.5625 C23.67039062 19.52349609 23.67039062 19.52349609 24.609375 20.50390625 C25.06828125 20.99761719 25.5271875 21.49132812 26 22 C25.01 22.33 24.02 22.66 23 23 C22.34 22.67 21.68 22.34 21 22 C21 21.34 21 20.68 21 20 C20.34 20 19.68 20 19 20 C18.34 19.01 17.68 18.02 17 17 C15.67360516 16.64004774 14.33942883 16.30792744 13 16 C10.8216958 14.11289767 8.82068549 12.23928903 6.8125 10.1875 C6.26658203 9.65318359 5.72066406 9.11886719 5.15820312 8.56835938 C2.40089295 5.79054875 0.71810612 3.84629444 0 0 Z " fill="#FEC519" transform="translate(388,101)"/>
<path d="M0 0 C0.66 0.66 1.32 1.32 2 2 C2.639375 1.835 3.27875 1.67 3.9375 1.5 C4.618125 1.335 5.29875 1.17 6 1 C6.99 1.66 7.98 2.32 9 3 C8.01 4.485 8.01 4.485 7 6 C6.35675781 5.87882812 5.71351562 5.75765625 5.05078125 5.6328125 C-2.27861578 4.27358053 -9.62778626 3.10172988 -17 2 C-17 1.67 -17 1.34 -17 1 C-5.08636483 -1.56503533 -5.08636483 -1.56503533 0 0 Z " fill="#FEEAAC" transform="translate(17,357)"/>
<path d="M0 0 C3 1 3 1 4.1328125 3.14453125 C4.46023437 4.02496094 4.78765625 4.90539062 5.125 5.8125 C5.45757812 6.68519531 5.79015625 7.55789063 6.1328125 8.45703125 C6.87335725 10.62862868 7.48945093 12.76504539 8 15 C7.34 15 6.68 15 6 15 C6 16.32 6 17.64 6 19 C5.01 19.33 4.02 19.66 3 20 C1.62056133 15.78054055 0.90469356 13.24431245 2 9 C1.38290413 6.98415349 0.71706982 4.98248715 0 3 C0 2.01 0 1.02 0 0 Z " fill="#FFF6DE" transform="translate(112,433)"/>
<path d="M0 0 C-0.66 0.33 -1.32 0.66 -2 1 C-4.19555664 0.11962891 -4.19555664 0.11962891 -6.91015625 -1.2734375 C-7.90080078 -1.7684375 -8.89144531 -2.2634375 -9.91210938 -2.7734375 C-11.98749113 -3.82849828 -14.06047928 -4.88828279 -16.13085938 -5.953125 C-22.25743577 -9.00258791 -27.14163523 -10.72880556 -34 -11 C-34 -11.33 -34 -11.66 -34 -12 C-22.19163556 -15.09519068 -9.49047732 -6.2297826 0 0 Z " fill="#FECB30" transform="translate(65,361)"/>
<path d="M0 0 C0.33 0 0.66 0 1 0 C0.65449241 5.38515273 -0.03572857 10.46979525 -1.4375 15.6875 C-3.30801453 22.72026785 -4.16181707 29.78176581 -5 37 C-8.51083433 31.74037273 -6.46767963 25.18302547 -5.46533203 19.31103516 C-4.14339271 12.74572685 -2.06330437 6.36316767 0 0 Z " fill="#EAE4D6" transform="translate(121,203)"/>
<path d="M0 0 C0.33 0 0.66 0 1 0 C1.07347656 1.88332031 1.07347656 1.88332031 1.1484375 3.8046875 C1.74473683 18.10899695 1.74473683 18.10899695 5 32 C4.0625 34.1875 4.0625 34.1875 3 36 C-0.03457085 23.6856031 -2.25162441 12.66538728 0 0 Z " fill="#FECF40" transform="translate(370,23)"/>
<path d="M0 0 C0.33 0 0.66 0 1 0 C2.62888013 11.63485807 3.1755387 23.25841171 3 35 C2.67 35 2.34 35 2 35 C0.32245572 27.89893879 -0.31055175 20.82875119 -0.6875 13.5625 C-0.73575928 12.68625977 -0.78401855 11.81001953 -0.83374023 10.90722656 C-0.87184814 10.07288086 -0.90995605 9.23853516 -0.94921875 8.37890625 C-0.98362061 7.6319751 -1.01802246 6.88504395 -1.0534668 6.11547852 C-0.9983529 3.93483062 -0.60876896 2.08860035 0 0 Z " fill="#FEF7E1" transform="translate(371,18)"/>
<path d="M0 0 C0.99 0.4021875 0.99 0.4021875 2 0.8125 C2.99 1.204375 3.98 1.59625 5 2 C5.99386719 2.39638672 5.99386719 2.39638672 7.0078125 2.80078125 C7.70648438 3.07277344 8.40515625 3.34476562 9.125 3.625 C9.78757812 3.88539062 10.45015625 4.14578125 11.1328125 4.4140625 C13.15090123 5.14970567 13.15090123 5.14970567 16 5 C18.02323613 5.95211112 20.02699884 6.94773272 22 8 C21.01 8.495 21.01 8.495 20 9 C20 9.66 20 10.32 20 11 C15.42771852 9.61235767 11.3904991 7.7672178 7.1875 5.5 C6.04667969 4.8915625 4.90585937 4.283125 3.73046875 3.65625 C1 2 1 2 0 0 Z " fill="#FEE18A" transform="translate(430,119)"/>
<path d="M0 0 C0.99 0 1.98 0 3 0 C2.01 5.28 1.02 10.56 0 16 C-0.66 15.67 -1.32 15.34 -2 15 C-2.99 15.99 -3.98 16.98 -5 18 C-4.35702496 15.37426939 -3.71075589 12.74942697 -3.0625 10.125 C-2.88009766 9.37863281 -2.69769531 8.63226563 -2.50976562 7.86328125 C-1.11328125 2.2265625 -1.11328125 2.2265625 0 0 Z " fill="#FED968" transform="translate(368,0)"/>
<path d="M0 0 C5.92909506 0.5861719 11.31580266 1.80404381 17 3.5625 C17.77472656 3.79646484 18.54945312 4.03042969 19.34765625 4.27148438 C21.2335214 4.84190038 23.1170209 5.42012803 25 6 C25 6.33 25 6.66 25 7 C19.26715899 7.28892302 14.59092029 6.30247209 9.125 4.625 C8.35414062 4.40328125 7.58328125 4.1815625 6.7890625 3.953125 C4.83802052 3.36918638 2.91552528 2.69160103 1 2 C0.67 1.34 0.34 0.68 0 0 Z " fill="#FEF7DF" transform="translate(24,362)"/>
<path d="M0 0 C7.78703782 1.15160418 13.81758179 6.31605744 19 12 C18.67 12.66 18.34 13.32 18 14 C16.6696875 12.8553125 16.6696875 12.8553125 15.3125 11.6875 C12.67245779 9.48540872 9.97055864 7.73886359 7 6 C4.61315023 4.39212212 2.3096619 2.72092455 0 1 C0 0.67 0 0.34 0 0 Z " fill="#FEC927" transform="translate(65,368)"/>
<path d="M0 0 C2.95918198 0.11358476 5.91676783 0.24033086 8.875 0.375 C10.13763672 0.42140625 10.13763672 0.42140625 11.42578125 0.46875 C12.63427734 0.52675781 12.63427734 0.52675781 13.8671875 0.5859375 C14.61081543 0.6173584 15.35444336 0.6487793 16.12060547 0.68115234 C18 1 18 1 20 3 C13.4 3.33 6.8 3.66 0 4 C0 2.68 0 1.36 0 0 Z " fill="#FEC928" transform="translate(0,346)"/>
<path d="M0 0 C3.60297114 3.28288942 6.01746162 6.89703762 8.5625 11 C12.09004788 16.63067899 12.09004788 16.63067899 16 22 C15.01 22 14.02 22 13 22 C11.19008795 19.82691481 9.59054647 17.70000469 8 15.375 C7.56171875 14.75753906 7.1234375 14.14007813 6.671875 13.50390625 C0 3.95830196 0 3.95830196 0 0 Z " fill="#FECC34" transform="translate(379,75)"/>
<path d="M0 0 C2.8125 0.4375 2.8125 0.4375 6 2 C7.53069997 4.87141945 8.46717928 7.79110218 9 11 C8.67 11.66 8.34 12.32 8 13 C6.68 11.02 5.36 9.04 4 7 C3.01 7.495 3.01 7.495 2 8 C1.34 5.36 0.68 2.72 0 0 Z " fill="#FEE086" transform="translate(85,389)"/>
<path d="M0 0 C3.93040242 3.47759108 6.31076993 7.49218152 8.875 12 C9.30296875 12.7115625 9.7309375 13.423125 10.171875 14.15625 C10.56632812 14.8471875 10.96078125 15.538125 11.3671875 16.25 C11.72925293 16.87390625 12.09131836 17.4978125 12.46435547 18.140625 C13 20 13 20 12.10205078 22.234375 C11.73837402 22.81703125 11.37469727 23.3996875 11 24 C10.54109375 22.99839844 10.0821875 21.99679687 9.609375 20.96484375 C8.98974847 19.6223196 8.36994744 18.27987599 7.75 16.9375 C7.44964844 16.28072266 7.14929688 15.62394531 6.83984375 14.94726562 C5.28093324 11.58068229 3.64689014 8.32821826 1.765625 5.12890625 C0 2 0 2 0 0 Z " fill="#FED14A" transform="translate(101,393)"/>
<path d="M0 0 C5.1239751 0.46047195 8.3275701 3.0789325 12.3125 6.0625 C12.95767578 6.53494141 13.60285156 7.00738281 14.26757812 7.49414062 C15.85070051 8.65509704 17.42613569 9.82652336 19 11 C18.67 11.66 18.34 12.32 18 13 C14.99631075 11.02638799 11.99769165 9.04520747 9 7.0625 C8.14148438 6.49853516 7.28296875 5.93457031 6.3984375 5.35351562 C5.58632813 4.81533203 4.77421875 4.27714844 3.9375 3.72265625 C3.18339844 3.22515869 2.42929687 2.72766113 1.65234375 2.21508789 C1.10707031 1.81410889 0.56179688 1.41312988 0 1 C0 0.67 0 0.34 0 0 Z " fill="#FEF2CC" transform="translate(412,124)"/>
<path d="M0 0 C1.0528418 0.07831055 1.0528418 0.07831055 2.12695312 0.15820312 C3.85588054 0.28757865 5.58425355 0.42432531 7.3125 0.5625 C7.3125 0.8925 7.3125 1.2225 7.3125 1.5625 C2.0325 2.2225 -3.2475 2.8825 -8.6875 3.5625 C-9.3475 2.5725 -10.0075 1.5825 -10.6875 0.5625 C-6.99441024 -0.66852992 -3.80699288 -0.30925152 0 0 Z " fill="#FFF8E5" transform="translate(482.6875,145.4375)"/>
<path d="M0 0 C3.67952474 4.90603299 3.29124516 6.17509683 3 12 C1.68 12 0.36 12 -1 12 C-0.67 8.04 -0.34 4.08 0 0 Z " fill="#FECF3E" transform="translate(118,463)"/>
<path d="M0 0 C2.42130331 2.42130331 2.52840504 3.80111377 3.125 7.125 C3.29257813 8.03507812 3.46015625 8.94515625 3.6328125 9.8828125 C3.81457031 10.93082031 3.81457031 10.93082031 4 12 C3.01 12.495 3.01 12.495 2 13 C2 12.34 2 11.68 2 11 C1.34 11 0.68 11 0 11 C-1.07536348 7.77390955 -1.14375422 5.37822416 -1 2 C-0.67 1.34 -0.34 0.68 0 0 Z " fill="#FEDC76" transform="translate(111,422)"/>
<path d="M0 0 C2.33333333 2.33333333 4.66666667 4.66666667 7 7 C6.34 8.98 5.68 10.96 5 13 C1.70458667 10.42098087 1.49476847 8.04060914 1 4 C0.68325425 2.66262906 0.35729936 1.32711192 0 0 Z " fill="#FEEFC2" transform="translate(88,395)"/>
<path d="M0 0 C1.98523557 1.98523557 2.85464378 3.5016206 4.0625 6 C4.40410156 6.70125 4.74570312 7.4025 5.09765625 8.125 C5.54431641 9.053125 5.54431641 9.053125 6 10 C6.33 10.66 6.66 11.32 7 12 C6.34 12.66 5.68 13.32 5 14 C2.37200898 12.13497412 1.13634249 10.69589209 0.51171875 7.5078125 C0.27406427 5.0035728 0.0959336 2.51346021 0 0 Z " fill="#FEDB70" transform="translate(451,71)"/>
<path d="M0 0 C1.27118864 0.79109602 2.54193623 1.58290078 3.8125 2.375 C4.52019531 2.81585938 5.22789063 3.25671875 5.95703125 3.7109375 C7.65432039 4.78188476 9.33014358 5.88676239 11 7 C10.67 7.99 10.34 8.98 10 10 C9.44570312 9.57847656 8.89140625 9.15695312 8.3203125 8.72265625 C7.59585938 8.17480469 6.87140625 7.62695312 6.125 7.0625 C5.40570313 6.51722656 4.68640625 5.97195313 3.9453125 5.41015625 C2.05642921 3.96035376 2.05642921 3.96035376 0 3 C0 2.01 0 1.02 0 0 Z " fill="#FEEAAC" transform="translate(76,376)"/>
<path d="M0 0 C5.61 0 11.22 0 17 0 C17 0.33 17 0.66 17 1 C15.02 1 13.04 1 11 1 C11 1.66 11 2.32 11 3 C7.37 2.34 3.74 1.68 0 1 C0 0.67 0 0.34 0 0 Z " fill="#FECC36" transform="translate(5,343)"/>
<path d="M0 0 C3.21043882 1.38188453 5.04936365 2.92421903 7.25 5.625 C8.03117187 6.57246094 8.03117187 6.57246094 8.828125 7.5390625 C9.40820312 8.26222656 9.40820312 8.26222656 10 9 C8.35 8.67 6.7 8.34 5 8 C5 7.34 5 6.68 5 6 C4.34 6 3.68 6 3 6 C0 2.53846154 0 2.53846154 0 0 Z " fill="#FED559" transform="translate(404,115)"/>
<path d="M0 0 C1.32 0 2.64 0 4 0 C3.67 2.64 3.34 5.28 3 8 C2.01 8 1.02 8 0 8 C-0.98120464 4.94736336 -0.98120464 3.05263664 0 0 Z " fill="#FED24C" transform="translate(457,0)"/>
<path d="M0 0 C1.81248985 3.6249797 2.31888915 5.37259584 2.625 9.25 C2.69976562 10.14203125 2.77453125 11.0340625 2.8515625 11.953125 C2.92503906 12.96632813 2.92503906 12.96632813 3 14 C2.01 14 1.02 14 0 14 C0 9.38 0 4.76 0 0 Z " fill="#FEF1C7" transform="translate(122,486)"/>
<path d="M0 0 C1.9375 1.0625 1.9375 1.0625 4 3 C4.75 6.6875 4.75 6.6875 5 10 C4.01 10.33 3.02 10.66 2 11 C0.80712589 7.12315913 0 4.08378077 0 0 Z " fill="#FEE494" transform="translate(113,442)"/>
<path d="M0 0 C2.66130399 1.01755741 3.80516056 1.66684861 5.265625 4.1640625 C5.59046875 4.97617187 5.9153125 5.78828125 6.25 6.625 C6.75273438 7.85089844 6.75273438 7.85089844 7.265625 9.1015625 C7.62914063 10.04128906 7.62914063 10.04128906 8 11 C7.01 11.495 7.01 11.495 6 12 C4.99466333 10.37829621 3.99588093 8.75252763 3 7.125 C2.443125 6.22007812 1.88625 5.31515625 1.3125 4.3828125 C0 2 0 2 0 0 Z " fill="#FEC51A" transform="translate(90,389)"/>
<path d="M0 0 C2.00531963 4.01063926 2.28227139 5.67183871 2 10 C1.67 10.66 1.34 11.32 1 12 C0.34 12 -0.32 12 -1 12 C-0.67 8.04 -0.34 4.08 0 0 Z " fill="#FECF42" transform="translate(125,480)"/>
<path d="M0 0 C7.48291572 6.15034169 7.48291572 6.15034169 10 10 C7 10 7 10 5.17578125 8.3203125 C4.56089844 7.59585937 3.94601563 6.87140625 3.3125 6.125 C2.68988281 5.40570313 2.06726563 4.68640625 1.42578125 3.9453125 C0 2 0 2 0 0 Z " fill="#E4DDCE" transform="translate(147,338)"/>
<path d="M0 0 C2.91517292 1.07401108 4.77810176 1.77810176 7 4 C3.94736336 4.98120464 2.05263664 4.98120464 -1 4 C-0.67 2.68 -0.34 1.36 0 0 Z " fill="#FEF1C6" transform="translate(47,365)"/>
<path d="M0 0 C2.375 0.5 2.375 0.5 5 2 C6.08241903 4.66525288 6.49272107 7.1407915 7 10 C3.66442368 7.0094833 1.84916079 4.06815373 0 0 Z " fill="#FECA2D" transform="translate(87,392)"/>
<path d="M0 0 C4.2742558 1.5830577 6.26531794 4.50568404 9 8 C8.67 8.66 8.34 9.32 8 10 C6.66370254 8.52351062 5.33103329 7.0437367 4 5.5625 C3.2575 4.73878906 2.515 3.91507812 1.75 3.06640625 C0 1 0 1 0 0 Z " fill="#FECE3C" transform="translate(88,381)"/>
<path d="M0 0 C0.33 0 0.66 0 1 0 C0.85904936 1.6254308 0.71207913 3.25034051 0.5625 4.875 C0.48128906 5.77992188 0.40007812 6.68484375 0.31640625 7.6171875 C0 10 0 10 -1 12 C-1.66 12 -2.32 12 -3 12 C-2.68950274 10.56206608 -2.3765224 9.1246682 -2.0625 7.6875 C-1.88847656 6.88699219 -1.71445313 6.08648437 -1.53515625 5.26171875 C-1 3 -1 3 0 0 Z " fill="#D7D3CA" transform="translate(121,203)"/>
<path d="M0 0 C4.83256305 0.41421969 6.82679218 2.46413986 10 6 C6.00452264 5.38531118 3.22493358 3.34540624 0 1 C0 0.67 0 0.34 0 0 Z " fill="#FEEBB2" transform="translate(412,124)"/>
<path d="M0 0 C2.64 0.33 5.28 0.66 8 1 C7.67 1.99 7.34 2.98 7 4 C4.36 3.67 1.72 3.34 -1 3 C-0.67 2.01 -0.34 1.02 0 0 Z " fill="#FEE493" transform="translate(21,347)"/>
<path d="M0 0 C1.15518918 0.90484792 2.29885406 1.8244206 3.4375 2.75 C4.07558594 3.26046875 4.71367187 3.7709375 5.37109375 4.296875 C7.18810554 6.19667629 7.60423197 7.43586908 8 10 C6.84481082 9.09515208 5.70114594 8.1755794 4.5625 7.25 C3.60537109 6.48429687 3.60537109 6.48429687 2.62890625 5.703125 C0.81189446 3.80332371 0.39576803 2.56413092 0 0 Z " fill="#FECF41" transform="translate(388,101)"/>
<path d="M0 0 C1.1725131 0.95117134 2.33787015 1.91117009 3.5 2.875 C4.47453125 3.67550781 4.47453125 3.67550781 5.46875 4.4921875 C5.9740625 4.98976563 6.479375 5.48734375 7 6 C7 6.66 7 7.32 7 8 C3.64379729 6.61122646 1.92701272 5.08322035 0 2 C0 1.34 0 0.68 0 0 Z " fill="#FECF42" transform="translate(392,111)"/>
<path d="M0 0 C2.7972908 2.06756277 3.02692273 3.14440371 3.6875 6.6875 C3.790625 7.780625 3.89375 8.87375 4 10 C1.16625119 6.79663178 0.4794463 4.21912747 0 0 Z " fill="#FEF6DE" transform="translate(107,420)"/>
<path d="M0 0 C-3.1749094 1.9078584 -5.10585211 2.1609041 -8.75 1.625 C-9.54921875 1.51414062 -10.3484375 1.40328125 -11.171875 1.2890625 C-11.77515625 1.19367188 -12.3784375 1.09828125 -13 1 C-13 0.67 -13 0.34 -13 0 C-8.34462607 -0.83796731 -4.62921525 -1.0161692 0 0 Z " fill="#FFFAED" transform="translate(13,358)"/>
<path d="M0 0 C0 0.66 0 1.32 0 2 C-2.8125 4.6875 -2.8125 4.6875 -6 7 C-6.99 6.67 -7.98 6.34 -9 6 C-7.8803014 4.99406757 -6.7540588 3.9954151 -5.625 3 C-4.68527344 2.1646875 -4.68527344 2.1646875 -3.7265625 1.3125 C-2 0 -2 0 0 0 Z " fill="#E8E3D7" transform="translate(170,140)"/>
<path d="M0 0 C0.33 0 0.66 0 1 0 C1.144375 0.763125 1.28875 1.52625 1.4375 2.3125 C1.9632594 5.08172908 1.9632594 5.08172908 3 8 C2.0625 10.1875 2.0625 10.1875 1 12 C0.63762737 10.37681021 0.28534843 8.7513642 -0.0625 7.125 C-0.25972656 6.22007813 -0.45695312 5.31515625 -0.66015625 4.3828125 C-1 2 -1 2 0 0 Z " fill="#FEE391" transform="translate(372,47)"/>
<path d="M0 0 C0.74955438 2.9982175 1.41070989 5.96936513 2 9 C0.68 9 -0.64 9 -2 9 C-1.34 6.03 -0.68 3.06 0 0 Z " fill="#FEF5D9" transform="translate(113,491)"/>
<path d="M0 0 C3.37462715 0.54723683 5.08235 1.0549 8 3 C7.67 3.99 7.34 4.98 7 6 C5.83054208 5.19152271 4.66449539 4.37810888 3.5 3.5625 C2.8503125 3.11003906 2.200625 2.65757812 1.53125 2.19140625 C1.0259375 1.79824219 0.520625 1.40507812 0 1 C0 0.67 0 0.34 0 0 Z " fill="#FEDB6F" transform="translate(65,368)"/>
<path d="M0 0 C3.87132028 0.57352893 6.08172796 2.48704352 9 5 C5.65626525 4.44271087 2.96687001 3.64826111 0 2 C0 1.34 0 0.68 0 0 Z " fill="#FECC35" transform="translate(429,137)"/>
<path d="M0 0 C4.455 0.99 4.455 0.99 9 2 C5 4 5 4 2.8125 3.8125 C2.214375 3.544375 1.61625 3.27625 1 3 C0.67 2.01 0.34 1.02 0 0 Z " fill="#FEE495" transform="translate(461,132)"/>
</svg>
