<?xml version="1.0" standalone="no"?>
<!DOCTYPE svg PUBLIC "-//W3C//DTD SVG 20010904//EN"
 "http://www.w3.org/TR/2001/REC-SVG-20010904/DTD/svg10.dtd">
<svg version="1.0" xmlns="http://www.w3.org/2000/svg"
 width="640.000000pt" height="451.000000pt" viewBox="0 0 640.000000 451.000000"
 preserveAspectRatio="xMidYMid meet">

<g transform="translate(0.000000,451.000000) scale(0.100000,-0.100000)"
fill="#000000" stroke="none">
<path d="M3255 3729 c-55 -16 -172 -49 -260 -74 -292 -80 -1030 -286 -1048
-291 -10 -3 -17 -8 -14 -10 3 -3 769 -218 1301 -364 l140 -39 627 175 c345 96
643 174 663 174 l36 0 0 -178 c0 -170 -1 -180 -21 -198 -39 -34 -49 -76 -49
-204 l0 -120 121 0 121 0 -4 138 c-3 134 -4 139 -31 171 l-27 33 1 207 c1 252
2 236 -17 255 -12 12 -37 16 -106 16 -86 0 -118 8 -703 170 -337 94 -616 169
-621 169 -5 -1 -54 -14 -109 -30z"/>
<path d="M2450 2992 l1 -137 234 -240 c128 -132 236 -238 238 -235 3 3 35 61
72 130 36 69 72 131 80 139 28 29 51 3 105 -122 29 -67 54 -123 55 -125 1 -1
63 8 137 20 74 12 142 19 151 15 28 -11 20 -40 -43 -160 -59 -112 -60 -115
-38 -120 16 -4 57 11 133 48 181 91 394 152 613 177 l112 12 0 368 c0 289 -3
366 -12 363 -7 -2 -216 -61 -464 -129 l-451 -125 -449 124 c-247 69 -455 127
-461 130 -10 3 -13 -27 -13 -133z"/>
<path d="M2224 2883 c-54 -121 -87 -204 -83 -207 10 -9 742 -387 744 -384 5 5
-622 648 -632 648 -2 0 -15 -26 -29 -57z"/>
<path d="M1662 2748 c-49 -16 -126 -90 -153 -145 -17 -36 -23 -66 -23 -118 -1
-121 55 -188 247 -296 266 -150 760 -419 763 -416 3 2 11 29 19 61 40 152 149
288 296 369 l33 18 -160 83 c-87 46 -316 166 -509 266 -338 177 -352 183 -415
186 -36 2 -80 -2 -98 -8z"/>
<path d="M3020 2394 c-36 -69 -66 -129 -68 -133 -4 -12 334 -181 344 -172 5 5
49 -17 106 -55 54 -35 148 -90 210 -123 326 -171 897 -465 944 -486 58 -26
142 -98 175 -152 12 -19 24 -32 27 -28 3 3 40 86 83 186 51 118 74 182 66 184
-7 3 -176 56 -377 119 -897 282 -1196 377 -1208 381 -10 4 4 38 48 120 34 63
56 115 50 115 -6 0 -56 -8 -112 -17 -63 -10 -106 -13 -115 -7 -8 5 -31 49 -52
99 -21 49 -43 90 -47 92 -5 1 -38 -54 -74 -123z"/>
<path d="M2847 2133 c-86 -46 -172 -130 -214 -209 -32 -59 -67 -180 -57 -195
6 -10 315 -181 319 -177 2 2 11 32 20 67 38 147 125 270 251 351 61 41 65 45
48 58 -29 21 -272 142 -286 142 -7 0 -44 -17 -81 -37z"/>
<path d="M3261 1938 c-92 -47 -181 -133 -225 -217 -41 -79 -71 -204 -52 -220
18 -15 1068 -592 1071 -589 2 2 -3 28 -11 58 -26 99 -12 190 42 290 37 68 122
145 185 167 27 10 48 21 46 26 -1 4 -95 55 -207 113 -113 58 -334 173 -492
255 -157 82 -288 149 -291 149 -2 0 -32 -14 -66 -32z"/>
<path d="M4335 1367 c-66 -22 -99 -43 -142 -90 -142 -153 -93 -406 96 -499 36
-18 63 -23 126 -23 95 0 142 21 210 91 80 82 96 183 41 262 -97 140 -296 75
-296 -97 0 -43 4 -53 26 -68 24 -15 29 -15 53 -2 16 9 31 30 39 56 14 43 31
57 57 47 39 -15 25 -101 -23 -147 -97 -92 -232 -25 -232 116 0 138 104 247
237 247 39 0 72 -7 98 -20 21 -11 40 -18 43 -16 9 10 -86 100 -130 122 -59 30
-148 39 -203 21z"/>
</g>
</svg>
