<?xml version="1.0" standalone="no"?>
<!DOCTYPE svg PUBLIC "-//W3C//DTD SVG 20010904//EN"
 "http://www.w3.org/TR/2001/REC-SVG-20010904/DTD/svg10.dtd">
<svg version="1.0" xmlns="http://www.w3.org/2000/svg"
 width="500.000000pt" height="500.000000pt" viewBox="0 0 500.000000 500.000000"
 preserveAspectRatio="xMidYMid meet">

<g transform="translate(0.000000,500.000000) scale(0.100000,-0.100000)"
fill="#000000" stroke="none">
<path d="M2387 3556 c-104 -38 -181 -150 -196 -288 -29 -262 102 -669 342
-1061 50 -83 58 -101 46 -112 -8 -7 -102 -77 -209 -155 -107 -78 -196 -145
-198 -149 -4 -13 111 -152 194 -234 160 -157 297 -237 419 -245 42 -3 87 1
108 7 45 15 100 77 116 130 10 33 22 46 89 87 42 27 121 77 176 112 l98 64
-75 41 c-146 80 -292 214 -418 382 -151 201 -298 518 -339 731 -19 97 -10 220
20 278 26 51 78 99 120 111 24 8 24 7 -7 -29 -48 -53 -67 -131 -60 -236 27
-367 357 -902 688 -1117 390 -252 530 99 260 652 -191 390 -591 829 -896 983
-118 59 -204 74 -278 48z m484 -494 c83 -55 148 -205 105 -241 -20 -16 -54 0
-97 46 -104 109 -110 263 -8 195z m369 -228 c82 -74 120 -215 60 -222 -37 -4
-94 48 -129 120 -29 57 -40 116 -24 131 16 17 56 4 93 -29z m-267 -253 c74
-68 119 -190 82 -221 -56 -47 -206 154 -175 235 14 36 44 31 93 -14z m199 -8
c44 -46 61 -109 32 -120 -30 -11 -94 70 -94 122 0 34 29 33 62 -2z m270 -120
c42 -25 105 -124 113 -178 8 -52 2 -65 -31 -65 -69 0 -185 181 -154 240 13 25
33 25 72 3z m-138 -214 c78 -68 123 -219 69 -227 -65 -9 -186 163 -166 237 8
32 55 27 97 -10z"/>
<path d="M2056 3317 c-59 -59 -102 -127 -69 -108 53 29 90 66 110 111 12 28
20 50 17 50 -3 0 -29 -24 -58 -53z"/>
<path d="M2003 3112 c-48 -32 -53 -38 -52 -71 1 -20 4 -48 8 -64 l6 -27 53 35
c55 38 57 42 44 121 l-7 41 -52 -35z"/>
<path d="M2040 2909 c-14 -12 -33 -27 -42 -33 -16 -11 -16 -17 -3 -65 7 -29
16 -55 19 -58 6 -6 96 57 96 68 0 28 -25 109 -34 109 -6 -1 -22 -10 -36 -21z"/>
<path d="M1447 2851 c-36 -40 -72 -99 -65 -107 2 -2 18 7 36 19 27 19 79 113
69 124 -3 2 -20 -14 -40 -36z"/>
<path d="M2098 2677 c-26 -18 -48 -40 -48 -49 0 -9 9 -37 20 -63 l20 -47 28
19 c16 10 39 25 51 35 l23 16 -22 61 c-13 34 -23 61 -24 60 0 0 -22 -15 -48
-32z"/>
<path d="M1387 2629 c-35 -29 -37 -34 -37 -88 0 -32 3 -60 6 -64 4 -3 24 8 45
25 38 30 39 33 39 95 0 35 -3 63 -8 63 -4 0 -24 -14 -45 -31z"/>
<path d="M2185 2454 c-22 -15 -44 -30 -48 -34 -5 -4 5 -35 23 -69 l31 -62 45
32 c25 17 48 37 50 44 6 14 -42 115 -54 115 -4 0 -25 -12 -47 -26z"/>
<path d="M1406 2416 l-40 -34 13 -56 c7 -31 15 -56 19 -56 4 0 24 15 46 33
l38 33 -12 57 c-7 31 -16 57 -19 57 -3 -1 -24 -16 -45 -34z"/>
<path d="M2299 2219 c-24 -18 -46 -33 -48 -35 -3 -3 54 -110 65 -122 5 -6 95
59 100 73 6 13 -52 115 -65 115 -5 0 -28 -14 -52 -31z"/>
<path d="M1470 2192 l-44 -39 18 -46 c10 -26 22 -49 27 -53 10 -6 89 52 89 66
0 4 -10 31 -23 59 l-23 52 -44 -39z"/>
<path d="M1563 1987 c-23 -18 -42 -39 -42 -47 -1 -8 12 -37 28 -63 l28 -48 41
33 c22 18 41 40 41 48 1 8 -12 36 -27 62 l-28 47 -41 -32z"/>
<path d="M1677 1767 c-20 -18 -37 -35 -37 -40 0 -9 63 -107 70 -107 3 0 24 17
48 38 l43 37 -36 53 c-19 28 -39 52 -43 52 -4 -1 -24 -15 -45 -33z"/>
</g>
</svg>
