<?xml version="1.0" standalone="no"?>
<!DOCTYPE svg PUBLIC "-//W3C//DTD SVG 20010904//EN"
 "http://www.w3.org/TR/2001/REC-SVG-20010904/DTD/svg10.dtd">
<svg version="1.0" xmlns="http://www.w3.org/2000/svg"
 width="960.000000pt" height="640.000000pt" viewBox="0 0 960.000000 640.000000"
 preserveAspectRatio="xMidYMid meet">

<g transform="translate(0.000000,640.000000) scale(0.100000,-0.100000)"
fill="#000000" stroke="none">
<path d="M4763 5796 c-179 -45 -324 -194 -368 -377 -8 -35 -15 -81 -15 -102
l0 -37 -52 6 c-157 18 -312 -65 -380 -204 -29 -58 -33 -77 -33 -143 0 -113 35
-161 90 -125 24 16 32 37 53 149 15 79 44 122 106 157 66 39 136 40 221 5 73
-30 106 -31 130 -5 15 17 17 28 9 77 -24 160 -1 262 77 348 173 189 494 152
595 -69 16 -35 26 -80 30 -132 10 -142 34 -163 121 -104 90 61 124 74 193 74
53 1 75 -5 117 -28 72 -40 89 -60 152 -188 62 -125 49 -117 159 -102 46 6 60
3 117 -25 84 -41 138 -109 169 -208 l7 -23 -416 0 -417 0 -29 -29 c-35 -35
-36 -52 -6 -85 27 -32 12 -31 540 -28 l408 2 25 25 c23 23 25 32 22 90 l-3 65
143 0 c159 0 197 10 208 57 8 32 -4 53 -42 73 -22 11 -68 15 -189 15 l-160 0
-63 66 c-89 95 -204 149 -312 149 -25 0 -33 7 -54 48 -56 111 -138 195 -232
239 -51 24 -71 28 -144 27 -52 -1 -102 -8 -129 -18 -24 -9 -47 -16 -51 -16 -4
0 -17 26 -29 58 -46 127 -159 251 -276 303 -62 27 -213 35 -292 15z"/>
<path d="M4313 4730 c-12 -5 -29 -21 -39 -35 -21 -32 -7 -71 32 -85 33 -13
240 -13 263 0 10 5 24 22 30 39 17 40 1 67 -47 81 -45 12 -208 12 -239 0z"/>
<path d="M4837 4730 c-16 -5 -35 -14 -43 -21 -21 -17 -17 -63 7 -85 18 -17 40
-19 171 -22 83 -2 161 -1 175 3 58 14 81 75 42 111 -19 17 -39 19 -173 21 -83
1 -164 -2 -179 -7z"/>
<path d="M3216 4669 c-72 -57 7 -132 263 -248 l106 -49 3 -197 2 -197 -89 -94
c-149 -156 -277 -328 -346 -465 -35 -68 -35 -68 -67 -61 -18 4 -65 7 -105 6
-125 -1 -242 -74 -326 -202 -53 -81 -75 -134 -83 -204 -6 -51 -9 -54 -61 -88
-136 -87 -208 -253 -184 -424 25 -176 118 -308 269 -379 64 -30 74 -32 213
-35 l146 -4 33 -82 c112 -277 280 -528 492 -731 294 -284 653 -464 1053 -531
132 -21 371 -29 500 -15 549 59 1051 329 1374 738 34 43 75 94 91 114 106 132
240 463 293 723 19 98 22 141 22 356 -1 276 -12 352 -83 566 l-37 112 140 5
c86 3 159 11 190 21 149 47 237 162 252 328 14 156 -59 319 -158 357 -22 8
-27 18 -33 58 -8 65 -47 141 -102 202 -102 114 -251 156 -392 113 -136 -43
-231 -147 -277 -304 -13 -45 -23 -61 -50 -78 -19 -12 -50 -39 -68 -60 l-33
-39 -60 60 c-221 226 -561 405 -890 469 -114 22 -357 42 -420 35 -21 -2 -77
-7 -123 -10 -273 -19 -620 -139 -866 -299 l-85 -56 0 146 0 145 165 80 c90 44
178 91 195 105 31 26 39 64 20 94 -23 37 -158 -3 -332 -101 l-107 -59 -197
100 c-108 55 -202 100 -209 100 -7 0 -24 -9 -39 -21z m1814 -374 c69 -8 163
-24 209 -35 88 -21 261 -78 274 -89 4 -4 -19 -38 -50 -75 -93 -110 -88 -91
-57 -202 24 -89 26 -109 20 -200 -6 -77 -4 -110 7 -135 32 -76 273 -348 342
-385 34 -18 37 -18 103 -1 37 10 96 35 132 57 69 40 153 121 164 158 10 29 16
28 55 -12 49 -51 135 -85 230 -93 l80 -6 19 -41 c34 -71 73 -207 95 -331 30
-166 32 -538 3 -660 -10 -44 -25 -92 -32 -107 l-14 -27 -55 19 c-125 43 -287
63 -547 68 l-247 4 21 41 c11 23 42 65 69 93 26 28 54 67 62 85 55 133 13 222
-129 269 -50 17 -75 34 -140 98 -71 70 -86 79 -149 97 l-69 20 -27 65 c-39 94
-71 127 -151 154 -37 13 -92 42 -123 66 -50 38 -62 43 -137 51 -78 9 -123 26
-205 79 -19 12 -26 12 -56 -2 -19 -9 -50 -30 -70 -47 -20 -18 -46 -31 -61 -31
-24 0 -26 3 -26 48 0 89 -42 127 -148 138 -65 7 -72 13 -46 38 18 19 42 20
132 4 37 -6 80 -8 95 -5 38 10 57 54 57 129 0 60 2 65 30 81 16 10 46 38 66
63 21 25 54 54 73 64 62 31 93 73 99 129 7 78 -2 95 -87 166 -82 67 -109 109
-118 176 l-6 39 94 0 c52 0 150 -7 219 -15z m-423 -69 c16 -93 36 -128 119
-202 41 -36 74 -72 74 -80 0 -7 -27 -28 -61 -44 -51 -26 -64 -38 -80 -76 -12
-26 -31 -50 -49 -59 -44 -23 -68 -61 -76 -121 -5 -46 -9 -54 -23 -48 -47 21
-111 27 -150 16 -108 -33 -171 -155 -125 -243 18 -35 82 -68 132 -69 26 0 32
-4 32 -21 0 -29 18 -60 54 -91 17 -14 28 -29 23 -34 -12 -13 -50 16 -92 70
-34 43 -50 54 -101 71 -79 26 -87 33 -113 105 -26 72 -65 120 -95 120 -23 0
-65 -38 -86 -78 -12 -24 -12 -24 -26 -4 -8 12 -30 59 -50 106 -53 126 -78 143
-254 166 -46 6 -91 16 -100 20 -12 7 4 28 80 103 196 192 479 340 824 432 134
35 130 36 143 -39z m2198 -5 c74 -34 124 -111 145 -223 9 -47 19 -61 89 -133
44 -44 88 -99 100 -122 39 -78 24 -156 -45 -233 -60 -66 -103 -83 -221 -88
l-103 -4 0 83 0 84 56 35 c70 44 144 122 144 151 0 58 -77 79 -134 36 -57 -43
-59 -43 -53 -6 14 92 -33 173 -97 167 -49 -5 -58 -34 -51 -167 l7 -113 -44 29
c-42 29 -98 53 -124 53 -22 0 -44 -30 -44 -60 0 -37 45 -90 108 -126 80 -46
102 -72 102 -121 l0 -43 -112 0 c-130 0 -174 15 -224 72 -46 53 -67 116 -62
186 6 88 41 148 116 200 71 50 87 75 101 160 11 66 29 108 57 133 74 65 208
88 289 50z m-973 -231 c50 -36 134 -107 185 -158 l93 -92 -6 -53 c-6 -48 0
-85 32 -193 5 -18 -4 -26 -53 -54 -32 -18 -93 -57 -137 -86 -47 -32 -89 -54
-105 -54 -28 0 -87 63 -234 246 l-57 71 3 114 c2 100 -1 121 -22 171 l-23 57
68 76 67 75 49 -27 c26 -16 89 -57 140 -93z m-2306 -384 c58 -20 191 -46 233
-46 5 0 25 -40 45 -89 65 -158 118 -207 194 -182 20 7 42 14 48 17 6 3 23 -14
38 -36 28 -42 108 -90 152 -90 21 0 50 -28 97 -92 17 -22 41 -41 64 -49 21 -6
41 -13 45 -16 4 -2 -16 -47 -43 -99 -76 -141 -75 -152 35 -367 49 -95 97 -182
108 -194 11 -11 46 -35 79 -53 l59 -31 0 -49 c0 -45 -18 -202 -24 -208 -2 -1
-45 14 -97 34 -209 80 -486 135 -761 150 l-116 7 25 56 c14 31 35 86 46 123
19 60 20 76 10 142 -20 139 -91 251 -211 331 -59 40 -60 41 -66 96 -13 130
-98 264 -215 339 l-23 16 42 69 c45 74 159 245 163 245 1 0 34 -11 73 -24z
m-358 -411 c73 -33 141 -101 165 -165 9 -25 21 -81 27 -124 6 -44 11 -81 13
-82 1 -1 20 -11 43 -22 155 -78 245 -261 199 -406 -45 -141 -171 -213 -407
-231 l-88 -6 0 132 0 131 94 89 c144 137 187 215 132 240 -47 22 -94 3 -164
-67 l-65 -65 7 91 c10 137 -16 210 -75 210 -18 0 -35 -9 -48 -26 -20 -25 -21
-40 -21 -212 l0 -185 -73 70 c-114 108 -169 119 -175 36 -3 -34 3 -47 42 -94
25 -30 81 -87 126 -127 l80 -73 0 -75 0 -74 -98 0 c-179 0 -261 27 -336 110
-52 57 -77 121 -83 210 -9 131 47 234 163 301 30 17 62 41 70 54 8 13 22 65
30 117 25 153 72 215 197 260 72 26 164 20 245 -17z m1678 -50 c47 -14 98 -25
113 -25 28 0 65 -18 130 -64 22 -15 68 -38 102 -51 60 -21 62 -24 85 -79 49
-120 72 -142 173 -166 46 -11 64 -23 126 -85 57 -57 83 -76 126 -90 80 -26 99
-40 99 -76 0 -23 -13 -44 -53 -87 -75 -81 -77 -84 -107 -175 l-28 -82 -73 -6
c-92 -7 -204 -35 -421 -104 -177 -56 -315 -91 -325 -82 -3 3 0 43 6 88 29 215
7 304 -85 349 -28 14 -58 31 -67 38 -20 17 -177 296 -177 315 0 8 27 69 60
135 34 67 63 139 66 166 6 42 9 47 43 56 20 5 50 19 66 29 39 25 40 25 141 -4z
m-727 -1114 c79 -16 169 -38 200 -46 86 -25 315 -97 324 -102 5 -3 -31 -22
-80 -43 -161 -70 -353 -185 -553 -333 -105 -78 -249 -198 -294 -246 -17 -17
-36 -31 -43 -31 -21 0 -213 196 -276 282 -81 109 -150 222 -230 378 l-69 135
134 12 c73 7 167 17 208 22 41 5 179 8 305 6 212 -2 241 -5 374 -34z m2057 29
c142 -11 257 -33 334 -64 51 -20 55 -24 52 -51 -5 -41 -121 -252 -201 -366
-338 -478 -917 -772 -1521 -772 -242 0 -417 31 -630 110 -161 60 -390 183
-415 222 -7 12 125 127 282 245 470 353 1068 593 1675 670 126 17 264 19 424
6z"/>
</g>
</svg>
