<svg width="46" height="40" viewBox="0 0 46 40" fill="none" xmlns="http://www.w3.org/2000/svg">
<path d="M17.0766 7.50439C14.5908 7.50439 12.5671 9.54658 12.5671 12.043C12.5671 13.6223 13.378 15.0167 14.6026 15.8295C13.1236 16.324 11.8438 17.2483 10.9051 18.4575C10.3862 18.0583 9.80628 17.7373 9.18115 17.5073C10.1291 16.8035 10.7486 15.673 10.7486 14.4024C10.7486 12.2852 9.03619 10.5519 6.93175 10.5519C4.82731 10.5519 3.11493 12.2852 3.11493 14.4024C3.11493 15.6737 3.73492 16.8048 4.68367 17.5085C2.17184 18.4354 0.37793 20.8621 0.37793 23.7181V25.7243C0.378187 25.8773 0.439363 26.0238 0.547832 26.1315C0.656302 26.2394 0.803074 26.2996 0.956013 26.2991H9.75779C9.77912 26.3014 9.80046 26.3027 9.82179 26.3024H24.332C24.3533 26.3027 24.3749 26.3014 24.396 26.2991H33.1984C33.5148 26.2978 33.7711 26.041 33.7718 25.7243V23.7181C33.7718 20.8621 31.981 18.4354 29.4705 17.5083C30.4193 16.8048 31.0393 15.6735 31.0393 14.4022C31.0393 12.2849 29.3269 10.5517 27.2224 10.5517C25.1181 10.5517 23.4056 12.2849 23.4056 14.4022C23.4056 15.6727 24.0253 16.8034 24.9733 17.507C24.3469 17.7376 23.7667 18.0596 23.247 18.4598C22.3088 17.2499 21.0308 16.3243 19.5518 15.8295C20.7761 15.0167 21.5873 13.6223 21.5873 12.043C21.5873 9.54658 19.5626 7.50439 17.0768 7.50439H17.0766ZM17.0766 8.65594C18.9358 8.65594 20.4346 10.1648 20.4346 12.043C20.4346 13.9065 18.9592 15.4007 17.1206 15.4247C17.1059 15.4247 17.0915 15.4226 17.0766 15.4226C17.0617 15.4226 17.0476 15.4247 17.0327 15.4247C15.1941 15.401 13.7196 13.9066 13.7196 12.043C13.7196 10.1645 15.2172 8.65594 17.0764 8.65594H17.0766ZM6.93182 11.7034C8.40698 11.7034 9.59709 12.9007 9.59709 14.4024C9.59709 15.894 8.42238 17.0861 6.9611 17.1023C6.95133 17.1023 6.94182 17.1013 6.9318 17.1013C6.92203 17.1013 6.91252 17.1023 6.90249 17.1023C5.44121 17.0861 4.2665 15.8937 4.2665 14.4024C4.2665 12.9007 5.45661 11.7034 6.93177 11.7034H6.93182ZM27.2221 11.7034C28.6973 11.7034 29.8874 12.9007 29.8874 14.4024C29.8874 15.894 28.7127 17.0861 27.2514 17.1023C27.2416 17.1023 27.2321 17.1013 27.2221 17.1013C27.2123 17.1013 27.2028 17.1023 27.1928 17.1023C25.7315 17.0861 24.5568 15.8937 24.5568 14.4024C24.5568 12.9007 25.7469 11.7034 27.222 11.7034H27.2221ZM17.0325 16.5762C17.0472 16.5764 17.0616 16.5782 17.0765 16.5782C17.0911 16.5782 17.1055 16.5762 17.1204 16.5762C20.8077 16.5998 23.7586 19.5761 23.7586 23.3019L23.7584 25.1505H10.3951V23.3019C10.3951 19.5758 13.3452 16.5998 17.032 16.5762H17.0325ZM6.88773 18.2552C6.90238 18.2554 6.91677 18.2572 6.93168 18.2572C6.94659 18.2572 6.96073 18.2552 6.97564 18.2552C8.2228 18.2652 9.36098 18.6952 10.2673 19.4147C9.61877 20.5622 9.24372 21.8866 9.24372 23.3022V25.1464H1.52901V23.7181C1.52901 20.6901 3.90976 18.2788 6.88759 18.2549L6.88773 18.2552ZM27.178 18.2552C27.1929 18.2554 27.207 18.2572 27.222 18.2572C27.2369 18.2572 27.251 18.2552 27.2659 18.2552C30.2437 18.2788 32.6245 20.6904 32.6245 23.7183V25.1464H24.9058L24.9056 23.3022C24.9056 21.8874 24.5316 20.5639 23.8843 19.4167C24.7909 18.6963 25.9299 18.2652 27.1781 18.2552H27.178Z" fill="black"/>
<path d="M40.8037 21.5782C40.8037 28.4979 35.1942 34.1074 28.2745 34.1074L9.48058 34.1074C7.55844 34.1074 6.00024 32.5492 6.00024 30.6271L6.00024 6.96071C6.00024 3.11642 9.11665 1.63033e-05 12.9609 1.66394e-05L37.3234 1.87692e-05C39.2455 1.89373e-05 40.8037 1.55822 40.8037 3.48037L40.8037 21.5782Z" fill="black" fill-opacity="0.08"/>
</svg>
