<?xml version="1.0" standalone="no"?>
<!DOCTYPE svg PUBLIC "-//W3C//DTD SVG 20010904//EN"
 "http://www.w3.org/TR/2001/REC-SVG-20010904/DTD/svg10.dtd">
<svg version="1.0" xmlns="http://www.w3.org/2000/svg"
 width="840.000000pt" height="859.000000pt" viewBox="0 0 840.000000 859.000000"
 preserveAspectRatio="xMidYMid meet">

<g transform="translate(0.000000,859.000000) scale(0.100000,-0.100000)"
fill="#000000" stroke="none">
<path d="M4069 8466 c-2 -2 -42 -9 -89 -15 -47 -7 -94 -16 -105 -21 -11 -5
-47 -18 -80 -30 -58 -21 -185 -86 -195 -100 -3 -3 -12 -9 -20 -13 -60 -27
-221 -170 -305 -272 -22 -26 -45 -53 -50 -59 -6 -6 -31 -38 -55 -71 -25 -33
-48 -61 -52 -63 -5 -2 -8 -7 -8 -11 0 -4 -25 -46 -55 -92 -30 -46 -55 -89 -55
-96 0 -6 -3 -13 -7 -15 -5 -1 -24 -34 -43 -73 -19 -38 -38 -71 -42 -73 -5 -2
-8 -7 -8 -12 0 -5 -15 -41 -34 -82 -18 -40 -43 -95 -55 -123 -12 -27 -26 -58
-31 -67 -6 -10 -10 -25 -10 -33 0 -8 -4 -23 -10 -33 -14 -26 -36 -81 -55 -137
-9 -27 -20 -57 -25 -65 -4 -9 -11 -31 -15 -50 -4 -19 -11 -41 -15 -50 -8 -17
-31 -91 -50 -160 -6 -25 -18 -65 -26 -90 -8 -25 -14 -55 -14 -67 0 -12 -4 -24
-9 -27 -5 -3 -11 -20 -14 -38 -2 -18 -12 -64 -21 -103 -24 -96 -47 -201 -56
-255 -5 -25 -16 -85 -25 -135 -9 -49 -20 -119 -25 -155 -5 -36 -13 -92 -19
-125 -12 -68 -14 -165 -3 -150 4 6 27 26 52 45 25 19 59 48 75 65 17 16 46 42
65 56 19 15 46 37 60 49 14 12 49 43 79 68 30 26 60 53 67 60 7 6 15 12 17 12
3 0 27 20 54 45 26 25 63 56 80 68 37 25 48 50 70 152 8 39 19 86 23 105 10
41 38 151 50 200 23 91 124 404 140 432 6 10 10 23 10 29 0 6 7 27 16 47 9 21
23 53 31 72 27 66 31 75 72 161 23 47 41 91 41 97 0 7 5 12 10 12 6 0 10 6 10
14 0 8 6 21 13 28 6 8 23 34 36 58 32 61 93 154 103 158 4 2 8 8 8 14 0 26
199 240 265 285 187 128 362 134 545 20 67 -43 191 -159 250 -237 19 -25 38
-46 42 -48 5 -2 8 -8 8 -13 0 -6 17 -33 38 -62 21 -29 41 -59 45 -67 3 -8 20
-37 36 -65 56 -93 171 -337 171 -361 0 -8 5 -14 10 -14 6 0 10 -7 10 -16 0 -9
6 -30 14 -47 8 -18 22 -54 31 -82 9 -27 20 -57 24 -65 4 -8 15 -42 25 -75 11
-33 22 -69 27 -80 7 -19 20 -68 39 -145 5 -19 16 -60 25 -90 19 -65 32 -114
48 -192 7 -31 15 -60 20 -64 4 -4 7 -21 7 -38 0 -17 5 -47 10 -66 6 -19 15
-60 20 -90 5 -30 16 -95 25 -145 9 -49 21 -119 25 -155 21 -164 31 -239 40
-291 6 -30 10 -77 10 -105 0 -27 5 -78 11 -113 43 -266 43 -1360 0 -1681 -6
-41 -11 -102 -11 -134 0 -33 -4 -73 -9 -90 -6 -17 -15 -76 -21 -131 -19 -156
-27 -213 -45 -315 -9 -52 -21 -122 -27 -155 -6 -33 -11 -73 -12 -90 l-1 -30
220 -8 c121 -5 238 -10 260 -10 l39 -2 13 70 c36 193 63 369 73 470 5 50 12
106 16 125 26 138 55 624 61 1020 6 385 -14 920 -38 1027 -5 23 -9 70 -9 105
0 35 -4 78 -10 96 -5 19 -12 73 -15 120 -3 48 -10 103 -15 122 -4 19 -14 73
-20 120 -7 47 -16 108 -21 135 -4 28 -14 85 -21 127 -7 42 -16 80 -20 84 -5 4
-8 20 -8 35 0 15 -7 54 -15 86 -23 87 -21 100 18 106 17 4 57 11 87 16 366 68
851 73 1050 9 93 -29 154 -53 180 -69 8 -5 23 -12 33 -15 9 -4 17 -10 17 -15
0 -5 6 -9 13 -9 20 0 101 -81 133 -135 16 -27 36 -75 44 -105 16 -63 16 -240
0 -269 -5 -11 -10 -33 -10 -50 0 -16 -4 -32 -9 -35 -5 -4 -12 -24 -16 -46 -4
-22 -11 -42 -16 -46 -5 -3 -9 -12 -9 -19 0 -17 -77 -192 -90 -205 -3 -3 -14
-23 -25 -45 -11 -22 -29 -53 -40 -70 -12 -16 -30 -47 -40 -68 -11 -20 -30 -48
-42 -62 -13 -13 -23 -27 -23 -30 0 -9 -112 -160 -122 -163 -4 -2 -8 -8 -8 -14
0 -5 -6 -15 -13 -22 -7 -8 -29 -33 -48 -56 -18 -24 -45 -55 -59 -69 -14 -15
-43 -49 -65 -76 -51 -63 -381 -392 -467 -465 l-65 -55 -13 -85 c-7 -47 -16
-107 -21 -135 -12 -79 -40 -274 -49 -345 -4 -36 -10 -72 -13 -80 -3 -8 -8 -39
-12 -69 l-6 -54 38 29 c50 38 93 71 163 127 8 7 35 28 59 47 24 19 57 46 72
60 15 14 46 41 69 60 84 69 104 86 199 175 104 97 305 300 398 402 32 36 69
77 83 91 14 15 41 47 60 72 19 25 37 47 40 50 3 3 21 25 40 50 19 25 38 47 42
48 5 2 8 10 8 17 0 7 4 15 8 17 13 5 122 155 122 167 0 6 3 11 8 11 4 0 16 17
27 38 11 20 26 43 32 50 7 7 13 20 13 28 0 8 4 14 8 14 5 0 17 18 28 40 10 22
22 40 25 40 4 0 10 11 13 25 4 14 11 25 16 25 6 0 10 6 10 14 0 15 30 77 41
86 4 3 15 29 25 58 10 28 22 52 26 52 5 0 8 7 8 16 0 9 7 32 16 52 28 64 32
76 49 132 8 30 20 69 25 85 5 17 12 55 15 85 4 30 11 64 16 75 13 26 6 322 -9
393 -12 58 -28 111 -49 159 -7 17 -13 36 -13 42 0 6 -4 11 -10 11 -5 0 -10 5
-10 12 0 13 -61 111 -72 116 -5 2 -8 8 -8 13 0 9 -51 69 -91 108 -54 52 -100
91 -108 91 -5 0 -11 4 -13 8 -7 16 -136 90 -213 121 -44 18 -84 37 -89 42 -6
5 -22 9 -37 9 -15 0 -30 4 -33 9 -4 5 -29 12 -58 16 -29 4 -59 11 -68 16 -50
27 -439 53 -655 44 -77 -3 -194 -13 -260 -21 -132 -16 -131 -16 -260 -39 -49
-9 -114 -20 -144 -24 l-53 -7 -19 44 c-11 24 -19 48 -19 53 0 5 -4 17 -9 27
-5 9 -17 40 -26 67 -19 56 -41 111 -55 137 -6 10 -10 22 -10 27 0 23 -198 429
-220 451 -7 7 -29 43 -37 60 -4 8 -13 21 -20 28 -7 7 -13 20 -13 28 0 8 -4 14
-10 14 -5 0 -10 6 -10 14 0 8 -4 16 -8 18 -4 2 -18 20 -31 41 -12 20 -27 37
-32 37 -5 0 -9 6 -9 13 0 6 -17 32 -38 57 -59 71 -248 260 -260 260 -6 0 -12
3 -14 8 -5 13 -85 72 -97 72 -6 0 -11 4 -11 8 0 11 -171 96 -225 113 -22 6
-49 16 -60 20 -52 22 -282 49 -296 35z"/>
<path d="M1570 6921 c-129 -8 -263 -26 -290 -40 -9 -5 -39 -12 -68 -16 -29 -4
-54 -11 -58 -16 -3 -5 -18 -9 -35 -9 -16 0 -29 -4 -29 -10 0 -5 -7 -10 -16
-10 -15 0 -48 -13 -124 -49 -54 -25 -165 -93 -168 -102 -2 -5 -8 -9 -13 -9
-25 0 -167 -142 -215 -215 -21 -33 -41 -62 -44 -65 -9 -9 -57 -114 -64 -140
-4 -14 -11 -34 -16 -45 -41 -97 -54 -380 -25 -520 8 -38 15 -82 15 -97 0 -16
5 -28 10 -28 6 0 10 -8 10 -17 0 -19 27 -107 41 -135 5 -10 9 -23 9 -29 0 -11
6 -25 57 -139 48 -107 108 -220 160 -302 12 -21 23 -42 23 -48 0 -5 3 -10 8
-10 4 0 23 -27 42 -60 19 -33 38 -60 43 -60 4 0 7 -5 7 -11 0 -6 6 -16 13 -23
6 -8 19 -24 27 -36 8 -12 20 -28 25 -34 6 -6 30 -38 54 -71 25 -33 47 -62 51
-65 3 -3 21 -25 40 -50 19 -24 47 -58 62 -75 67 -75 86 -100 80 -105 -12 -9
-96 -103 -132 -149 -19 -24 -40 -49 -45 -55 -6 -6 -26 -31 -45 -56 -19 -25
-38 -46 -42 -48 -5 -2 -8 -8 -8 -14 0 -5 -6 -16 -12 -23 -30 -33 -38 -45 -38
-54 0 -5 -3 -11 -8 -13 -4 -1 -30 -37 -57 -78 -28 -41 -53 -77 -56 -80 -3 -3
-9 -12 -12 -20 -4 -8 -15 -28 -25 -45 -55 -90 -114 -202 -156 -300 -15 -33
-31 -68 -36 -77 -6 -10 -10 -23 -10 -29 0 -6 -6 -25 -14 -42 -27 -63 -60 -174
-70 -237 -3 -19 -10 -55 -15 -80 -17 -75 -13 -351 4 -400 8 -23 15 -55 15 -71
0 -15 5 -31 10 -34 6 -3 10 -14 10 -23 0 -26 71 -161 120 -228 47 -63 174
-194 189 -194 5 0 11 -4 13 -8 2 -4 34 -27 71 -51 113 -70 307 -151 363 -151
11 0 24 -3 28 -7 8 -8 85 -24 221 -45 100 -16 569 -16 710 0 55 6 141 17 190
26 50 8 121 19 160 26 38 6 85 15 105 20 19 5 71 16 115 25 44 9 88 20 97 26
10 5 28 9 40 9 12 0 35 4 52 10 17 5 58 17 91 26 76 20 154 44 180 55 11 4 36
11 55 15 19 3 40 10 45 14 6 4 21 10 35 12 14 3 63 20 110 38 47 18 97 34 113
37 15 3 30 9 33 14 3 5 12 9 21 9 8 0 29 6 46 14 18 7 48 19 67 26 37 14 85
33 138 56 18 8 39 14 47 14 8 0 15 5 15 10 0 6 10 10 21 10 31 0 9 22 -38 39
-21 7 -54 20 -73 28 -37 16 -51 22 -117 47 -24 9 -62 23 -85 32 -24 9 -52 20
-63 24 -55 21 -113 44 -142 56 -17 8 -36 14 -42 14 -6 0 -19 4 -29 9 -80 42
-129 48 -181 21 -9 -4 -56 -20 -106 -35 -49 -15 -107 -34 -128 -41 -20 -8 -48
-14 -61 -14 -12 0 -26 -3 -30 -7 -4 -4 -33 -14 -64 -21 -31 -7 -75 -17 -97
-22 -22 -5 -71 -16 -110 -25 -38 -9 -83 -19 -100 -21 -16 -3 -48 -9 -70 -15
-96 -23 -458 -58 -610 -59 -118 0 -286 14 -355 30 -19 4 -55 13 -80 20 -25 6
-60 14 -77 17 -18 3 -33 9 -33 14 0 5 -5 9 -12 9 -19 0 -138 61 -138 71 0 5
-5 9 -11 9 -22 0 -99 84 -122 133 -47 100 -48 109 -44 243 4 127 20 230 38
249 5 5 9 17 9 27 0 21 15 57 83 198 28 58 55 107 59 108 4 2 8 10 8 17 0 8 6
20 13 27 6 7 21 30 32 51 11 20 23 37 27 37 5 0 8 4 8 9 0 13 82 133 107 157
13 12 23 24 23 28 0 13 102 142 175 222 5 6 28 33 50 60 69 84 495 504 511
504 3 0 15 10 27 23 12 12 54 49 92 82 39 33 72 62 75 65 3 3 32 25 65 50 33
25 62 47 65 50 3 3 25 21 50 40 25 19 54 43 65 53 11 10 36 28 55 40 19 12 44
29 54 39 11 10 23 18 26 18 4 0 20 11 36 25 16 14 45 35 64 47 19 12 37 25 40
28 11 14 97 71 130 86 8 4 17 10 20 14 3 3 39 28 80 56 41 27 77 52 78 57 2 4
10 7 18 7 8 0 14 4 14 9 0 5 10 13 23 17 12 4 24 9 27 13 8 10 44 31 63 37 9
4 17 10 17 15 0 5 5 9 10 9 6 0 45 22 88 48 42 27 84 52 92 56 8 4 24 12 35
19 126 75 249 144 287 160 16 6 28 15 28 19 0 4 6 8 14 8 13 0 74 29 86 40 11
11 73 40 85 40 7 0 15 3 17 8 4 9 133 72 148 72 5 0 10 5 10 10 0 6 8 10 18
10 9 0 26 7 36 15 11 8 28 15 38 15 10 0 18 3 18 8 0 4 21 16 48 26 26 10 72
30 102 43 30 14 69 31 87 39 17 8 38 14 47 14 9 0 16 4 16 8 0 4 26 16 58 27
31 10 62 22 67 25 6 4 33 15 60 24 28 10 64 24 82 32 17 8 36 14 42 14 6 0 19
4 29 9 9 5 40 18 67 30 47 19 50 22 48 53 -6 80 -47 409 -58 459 -5 23 -11 29
-23 24 -10 -4 -29 -9 -45 -12 -15 -3 -30 -10 -33 -14 -3 -5 -16 -9 -29 -9 -13
0 -26 -4 -30 -9 -3 -5 -20 -13 -37 -17 -18 -3 -39 -10 -48 -14 -8 -5 -78 -32
-155 -60 -137 -51 -179 -68 -240 -95 -16 -7 -46 -20 -65 -28 -19 -9 -58 -25
-85 -37 -145 -62 -189 -83 -193 -92 -2 -5 -9 -8 -16 -8 -7 0 -49 -18 -94 -40
-44 -22 -85 -40 -91 -40 -6 0 -11 -4 -11 -10 0 -5 -5 -10 -11 -10 -5 0 -36
-13 -67 -29 -119 -60 -227 -116 -232 -121 -3 -3 -29 -17 -58 -32 -81 -42 -115
-62 -130 -75 -7 -7 -20 -13 -28 -13 -8 0 -14 -3 -14 -8 0 -4 -14 -13 -30 -20
-17 -8 -36 -19 -43 -25 -7 -7 -30 -21 -52 -32 -40 -20 -246 -145 -255 -155 -7
-7 -42 -29 -60 -37 -8 -4 -17 -9 -20 -12 -3 -3 -39 -28 -80 -56 -41 -27 -77
-52 -80 -55 -10 -10 -45 -31 -62 -36 -10 -4 -18 -10 -18 -14 0 -4 -16 -15 -35
-26 -19 -10 -35 -22 -35 -26 0 -5 -7 -8 -15 -8 -8 0 -15 -3 -15 -7 0 -5 -18
-19 -40 -33 -22 -13 -40 -28 -40 -32 0 -4 -5 -8 -11 -8 -6 0 -17 -6 -24 -12
-30 -27 -44 -38 -50 -38 -3 0 -16 -11 -29 -25 -13 -14 -27 -25 -31 -25 -8 0
-74 -51 -115 -87 -14 -13 -29 -23 -33 -23 -5 0 -23 -16 -41 -35 -19 -19 -37
-35 -42 -35 -5 0 -25 -15 -46 -33 -107 -94 -150 -131 -168 -144 -11 -7 -54
-47 -97 -88 -43 -41 -82 -75 -88 -75 -6 0 -26 19 -45 41 -19 23 -40 47 -47 55
-7 7 -13 16 -13 20 0 4 -10 16 -23 28 -12 12 -43 48 -67 81 -24 33 -49 65 -54
72 -30 35 -36 43 -36 52 0 5 -3 11 -7 13 -17 7 -116 163 -189 298 -10 19 -22
37 -26 38 -5 2 -8 10 -8 17 0 7 -6 26 -14 42 -44 87 -87 207 -93 256 -3 26
-10 47 -14 47 -13 0 -11 277 1 285 6 3 10 13 10 22 0 52 106 187 176 223 16 8
35 21 42 28 7 6 21 12 31 12 9 0 21 4 27 8 24 22 179 65 294 83 100 15 568 16
597 1 10 -5 60 -11 112 -13 l94 -4 38 74 c21 41 46 84 54 97 8 13 15 28 15 34
0 6 10 27 23 48 13 20 32 57 42 82 11 25 22 47 25 50 3 3 14 22 24 43 24 47
18 53 -71 63 -35 3 -66 10 -69 15 -3 5 -29 9 -57 9 -29 0 -92 7 -142 14 -108
18 -442 27 -615 17z"/>
<path d="M4030 5065 c-92 -15 -166 -34 -200 -52 -14 -7 -31 -13 -37 -13 -7 0
-13 -4 -13 -10 0 -5 -7 -10 -16 -10 -16 0 -106 -58 -112 -72 -2 -4 -8 -8 -13
-8 -27 0 -199 -204 -199 -237 0 -7 -3 -13 -7 -13 -15 0 -59 -128 -83 -240 -19
-91 4 -360 32 -360 4 0 8 -9 8 -20 0 -29 65 -158 105 -208 121 -153 269 -248
458 -297 65 -17 272 -21 321 -6 123 36 157 48 201 70 28 14 52 28 55 31 3 3
23 17 45 31 94 62 189 173 244 284 63 130 84 216 84 350 -1 181 -50 338 -144
456 -16 20 -29 40 -29 43 0 6 -108 116 -114 116 -2 0 -31 18 -64 40 -33 22
-65 40 -71 40 -6 0 -11 5 -11 10 0 6 -6 10 -12 10 -7 0 -24 6 -38 13 -39 21
-252 68 -293 66 -12 -1 -56 -7 -97 -14z"/>
<path d="M2045 4092 c-27 -15 -52 -30 -55 -33 -3 -3 -26 -18 -52 -32 -25 -14
-63 -36 -85 -49 -21 -14 -45 -28 -53 -32 -8 -4 -24 -12 -35 -19 -11 -7 -46
-27 -79 -46 l-58 -34 30 -28 c17 -16 33 -29 36 -29 2 0 26 -22 53 -48 26 -26
57 -55 69 -63 20 -13 104 -82 128 -104 6 -6 31 -26 56 -45 25 -19 47 -37 50
-40 3 -3 25 -21 50 -40 25 -19 47 -38 48 -42 2 -4 10 -8 17 -8 7 0 15 -3 17
-7 2 -5 30 -28 63 -53 33 -24 66 -50 73 -57 7 -7 17 -13 21 -13 4 0 16 -8 27
-17 11 -10 42 -33 69 -52 159 -110 237 -161 245 -161 4 0 10 -4 12 -9 4 -11
474 -301 488 -301 5 0 10 -4 10 -9 0 -5 10 -13 23 -17 12 -4 24 -9 27 -13 6
-7 46 -30 122 -69 29 -15 55 -29 58 -32 3 -3 37 -21 75 -40 39 -19 72 -37 75
-40 10 -11 237 -120 248 -120 7 0 12 -4 12 -10 0 -5 4 -10 9 -10 6 0 48 -18
95 -40 47 -22 90 -40 95 -40 6 0 11 -4 11 -10 0 -5 5 -10 11 -10 10 0 61 -22
143 -61 22 -11 48 -19 58 -19 10 0 18 -4 18 -10 0 -5 16 -12 35 -16 19 -3 35
-10 35 -15 0 -5 7 -9 15 -9 8 0 31 -7 52 -16 92 -40 206 -84 308 -119 44 -14
89 -30 100 -35 11 -5 45 -16 75 -25 30 -10 63 -21 72 -26 10 -5 24 -9 33 -9 8
0 33 -7 55 -16 34 -14 38 -19 30 -34 -6 -10 -10 -28 -10 -39 0 -12 -4 -21 -10
-21 -5 0 -10 -8 -10 -17 0 -10 -7 -31 -15 -47 -8 -15 -15 -37 -15 -47 0 -10
-4 -20 -9 -23 -5 -3 -12 -22 -15 -41 -4 -19 -11 -35 -16 -35 -6 0 -10 -7 -10
-15 0 -9 -18 -53 -40 -99 -22 -46 -40 -91 -40 -100 0 -9 -4 -16 -9 -16 -5 0
-12 -11 -15 -25 -4 -14 -11 -25 -16 -25 -6 0 -10 -7 -10 -15 0 -14 -21 -54
-58 -110 -7 -11 -15 -28 -18 -37 -4 -10 -10 -18 -14 -18 -4 0 -10 -8 -14 -17
-6 -19 -27 -54 -37 -63 -3 -3 -25 -32 -49 -65 -63 -87 -195 -216 -267 -262
-15 -9 -30 -20 -33 -24 -3 -3 -27 -14 -55 -23 -27 -10 -58 -22 -67 -27 -24
-12 -195 -12 -203 1 -3 6 -15 10 -25 10 -18 0 -88 28 -100 40 -3 3 -30 22 -61
42 -56 36 -209 182 -209 199 0 4 -13 22 -30 39 -16 17 -30 32 -30 34 0 1 -25
40 -55 86 -74 112 -216 402 -279 568 -15 39 -31 71 -34 69 -4 -2 -38 -19 -77
-36 -127 -59 -140 -66 -143 -73 -2 -5 -11 -8 -19 -8 -8 0 -36 -11 -62 -24 -25
-13 -64 -32 -86 -42 -22 -11 -41 -22 -43 -26 -2 -5 -11 -8 -19 -8 -17 0 -16
-6 14 -85 39 -102 212 -458 225 -463 4 -2 8 -9 8 -16 0 -7 14 -32 30 -54 17
-23 30 -46 30 -52 0 -5 5 -10 10 -10 6 0 10 -5 10 -10 0 -6 18 -35 40 -65 22
-30 40 -58 40 -64 0 -5 3 -11 8 -13 4 -2 23 -23 42 -48 56 -72 196 -220 246
-260 79 -63 103 -80 112 -80 6 0 12 -4 14 -9 4 -11 146 -91 162 -91 6 0 20 -6
31 -13 20 -13 45 -21 157 -52 109 -29 384 -15 473 25 11 4 43 16 70 26 28 10
52 20 55 23 3 4 23 15 45 26 39 19 125 73 135 85 3 3 23 18 45 34 67 50 196
176 247 241 12 17 31 39 41 50 10 11 28 36 40 55 11 19 24 37 27 40 12 10 90
132 90 141 0 5 4 9 9 9 5 0 11 8 15 18 3 9 19 40 36 67 17 28 35 59 40 70 6
11 14 27 19 35 5 8 20 40 34 70 14 30 43 94 66 142 23 48 41 94 41 103 0 8 5
15 10 15 6 0 10 8 10 18 0 9 7 30 15 46 8 15 15 34 15 41 0 8 6 26 14 42 18
37 29 65 52 136 17 55 20 58 43 53 76 -16 194 -37 256 -46 39 -5 81 -12 95
-16 102 -25 658 -43 775 -24 228 36 259 42 361 74 29 9 59 16 68 16 9 0 16 5
16 10 0 6 8 10 18 10 20 1 224 102 242 120 3 3 25 21 50 40 169 130 291 321
342 536 15 65 22 359 9 404 -5 19 -14 60 -20 90 -15 84 -22 113 -31 135 -4 11
-16 43 -25 70 -9 28 -24 66 -32 85 -8 19 -18 44 -23 55 -46 112 -148 302 -221
414 -27 41 -49 77 -49 81 0 4 -7 10 -15 14 -8 3 -15 10 -15 16 0 6 -6 18 -12
25 -30 33 -38 45 -38 54 0 5 -4 11 -8 13 -5 2 -28 30 -53 63 -67 90 -91 115
-111 115 -10 0 -53 -22 -96 -48 -66 -42 -121 -74 -217 -126 -11 -6 -22 -14
-25 -17 -3 -4 -24 -17 -48 -29 -23 -12 -45 -26 -48 -31 -5 -9 22 -50 63 -94
35 -38 133 -173 133 -184 0 -6 4 -11 8 -11 4 0 21 -21 38 -47 16 -25 34 -52
39 -58 13 -14 33 -46 42 -65 3 -8 15 -28 27 -44 11 -16 34 -57 51 -90 17 -34
36 -70 42 -81 6 -11 19 -38 28 -60 9 -22 20 -48 25 -57 6 -10 10 -27 10 -37 0
-11 5 -23 10 -26 6 -3 10 -13 10 -22 0 -8 6 -29 14 -46 18 -43 36 -163 36
-242 0 -82 -40 -235 -62 -235 -4 0 -8 -5 -8 -11 0 -13 -87 -99 -100 -99 -6 0
-10 -4 -10 -8 0 -10 -120 -72 -138 -72 -7 0 -12 -4 -12 -9 0 -5 -15 -11 -32
-14 -18 -3 -62 -13 -98 -22 -102 -25 -275 -45 -395 -45 -127 0 -384 17 -435
30 -19 5 -73 14 -120 20 -47 6 -105 15 -130 20 -25 5 -76 15 -115 23 -38 7
-77 16 -85 19 -32 11 -117 31 -152 36 -21 2 -38 8 -38 13 0 5 -11 9 -25 9 -14
0 -42 7 -62 15 -19 8 -46 15 -59 15 -12 0 -25 4 -28 9 -3 5 -22 12 -42 16 -20
3 -44 10 -53 14 -28 15 -115 41 -133 41 -10 0 -18 5 -18 10 0 6 -8 10 -19 10
-15 0 -279 98 -406 150 -16 7 -46 19 -65 27 -19 8 -43 18 -52 23 -10 6 -25 10
-33 10 -8 0 -15 5 -15 10 0 6 -5 10 -11 10 -10 0 -23 5 -111 44 -20 9 -41 16
-47 16 -6 0 -11 5 -11 10 0 6 -5 10 -10 10 -6 0 -48 18 -94 40 -46 22 -88 40
-94 40 -6 0 -12 3 -14 8 -1 4 -57 34 -123 67 -66 33 -122 62 -125 65 -5 5 -56
32 -185 99 -27 14 -56 32 -63 39 -7 6 -20 12 -28 12 -8 0 -14 5 -14 10 0 6 -5
10 -10 10 -6 0 -45 22 -88 48 -42 26 -84 51 -92 55 -24 12 -53 31 -87 55 -17
12 -34 22 -38 22 -3 0 -21 10 -38 23 -18 12 -39 27 -49 32 -28 17 -163 109
-168 115 -9 9 -45 30 -62 36 -10 4 -18 9 -18 13 0 4 -15 15 -32 26 -18 10 -39
25 -47 33 -8 7 -33 25 -55 39 -22 15 -47 32 -54 40 -7 7 -17 13 -21 13 -4 0
-16 8 -27 18 -41 37 -102 82 -112 82 -6 0 -12 3 -14 8 -1 4 -23 23 -48 42 -45
35 -83 66 -104 85 -6 6 -31 26 -56 45 -25 19 -54 44 -66 55 -39 37 -74 65 -82
65 -4 0 -29 -13 -57 -28z"/>
</g>
</svg>
