<?xml version="1.0" standalone="no"?>
<!DOCTYPE svg PUBLIC "-//W3C//DTD SVG 20010904//EN"
 "http://www.w3.org/TR/2001/REC-SVG-20010904/DTD/svg10.dtd">
<svg version="1.0" xmlns="http://www.w3.org/2000/svg"
 width="728.000000pt" height="299.000000pt" viewBox="0 0 728.000000 299.000000"
 preserveAspectRatio="xMidYMid meet">

<g transform="translate(0.000000,299.000000) scale(0.100000,-0.100000)"
fill="#000000" stroke="none">
<path d="M6395 2964 c-14 -14 -28 -38 -31 -52 -4 -17 -17 -33 -37 -43 -37 -19
-41 -40 -9 -54 29 -13 28 -29 -3 -49 -35 -23 -32 -46 5 -46 27 0 30 -2 20 -19
-5 -11 -10 -24 -10 -30 0 -14 53 -14 67 0 6 6 21 9 33 7 19 -2 11 -11 -44 -51
-37 -26 -82 -50 -99 -54 -18 -3 -81 -30 -140 -59 -59 -30 -116 -54 -125 -54
-9 0 -26 -7 -36 -15 -11 -8 -28 -15 -38 -15 -10 0 -18 -4 -18 -9 0 -5 -18 -22
-40 -38 -22 -15 -40 -34 -40 -42 0 -11 -4 -11 -18 2 -27 25 -60 22 -64 -5 -3
-20 -11 -24 -63 -31 -245 -32 -517 -71 -572 -83 -18 -3 -23 -11 -23 -33 0 -34
16 -41 75 -29 22 4 94 17 160 28 66 11 186 34 266 51 132 28 150 30 175 18 21
-11 44 -12 84 -7 51 8 224 17 331 18 39 0 57 8 137 65 51 36 97 65 101 65 13
0 51 -82 51 -111 0 -13 7 -35 16 -47 10 -15 14 -36 11 -60 -2 -20 0 -48 5 -61
5 -15 4 -28 -3 -37 -6 -8 -8 -25 -5 -38 5 -19 -7 -45 -52 -113 -32 -48 -71
-117 -86 -153 -16 -36 -32 -72 -37 -80 -24 -41 -64 -143 -61 -156 2 -9 -150
-251 -184 -293 -2 -2 -10 2 -18 8 -12 10 -23 8 -56 -10 -22 -12 -40 -30 -40
-39 0 -11 -16 -20 -49 -29 -54 -14 -65 -28 -51 -66 12 -32 48 -38 205 -34 145
5 145 4 145 92 l0 59 90 93 c50 51 90 98 90 103 0 6 10 23 23 39 13 15 29 47
37 70 16 53 66 115 74 93 2 -8 16 -54 31 -102 17 -58 31 -88 40 -88 8 0 39
-11 70 -25 31 -13 62 -22 70 -19 13 5 48 -1 234 -43 77 -18 93 -32 72 -65 -10
-17 -9 -22 6 -33 17 -13 17 -14 0 -32 -34 -39 -23 -53 44 -53 59 0 60 1 75 35
7 19 14 42 14 51 0 9 16 34 35 57 53 62 44 112 -25 132 -14 4 -31 12 -38 18
-9 7 -18 5 -30 -6 -15 -14 -24 -14 -82 -1 -36 8 -83 27 -105 42 -22 14 -76 35
-120 47 l-80 21 1 50 c0 27 4 87 9 133 7 77 11 88 41 117 31 31 74 126 74 162
0 9 -11 39 -23 67 -20 43 -22 54 -11 85 14 41 4 231 -13 252 -6 7 -15 42 -18
78 -4 36 -14 75 -21 88 -14 21 -13 22 10 22 53 0 142 113 106 135 -5 3 -10 -2
-10 -12 0 -27 -20 -43 -49 -42 -26 0 -26 0 -3 9 13 6 22 18 22 32 0 17 -3 19
-12 10 -22 -22 -63 -13 -104 23 -21 19 -49 35 -61 35 -20 0 -23 5 -23 35 0 39
-21 87 -53 123 -18 20 -30 22 -108 22 -81 0 -90 -2 -114 -26z m-45 -214 c0 -5
-7 -10 -15 -10 -8 0 -15 5 -15 10 0 6 7 10 15 10 8 0 15 -4 15 -10z m48 -46
c-3 -18 -48 -40 -48 -24 0 6 5 10 10 10 6 0 10 7 10 15 0 8 7 15 16 15 9 0 14
-7 12 -16z m-142 -297 c-29 -25 -61 -38 -137 -57 -54 -13 -102 -20 -106 -16
-16 16 51 55 111 65 34 6 81 17 106 25 66 21 69 19 26 -17z"/>
<path d="M2575 2889 c-16 -4 -46 -21 -65 -37 -30 -26 -35 -36 -40 -88 l-5 -59
-46 1 c-48 2 -209 76 -298 137 -44 30 -93 39 -111 21 -5 -5 -11 -21 -15 -35
-6 -25 -3 -27 54 -43 34 -9 61 -21 61 -26 0 -5 9 -11 19 -15 11 -3 47 -30 81
-60 33 -30 67 -55 74 -55 8 0 37 -12 65 -27 55 -28 60 -46 21 -87 -16 -17 -23
-17 -91 -6 -41 7 -88 21 -105 31 -17 10 -43 19 -58 19 -38 0 -173 71 -225 118
-45 41 -113 76 -221 112 -125 42 -154 48 -215 41 l-60 -6 -3 -49 -3 -49 28 8
c15 4 49 9 75 12 59 6 134 -27 193 -85 23 -22 61 -50 85 -62 25 -13 52 -32 60
-44 25 -36 96 -103 138 -131 26 -17 45 -39 52 -61 13 -39 48 -70 90 -79 38 -8
82 -65 104 -134 16 -48 16 -55 2 -70 -21 -23 -20 -40 2 -64 15 -16 17 -44 20
-201 1 -99 2 -221 1 -271 0 -49 5 -133 11 -185 9 -70 10 -113 2 -163 -12 -77
-8 -97 19 -97 10 0 19 -4 19 -10 0 -6 28 -10 65 -10 36 0 65 4 65 10 0 5 -16
24 -36 43 -32 29 -36 38 -37 87 0 32 10 97 26 155 23 87 26 118 26 248 0 103
4 163 14 195 8 26 21 69 27 95 9 34 18 47 29 46 31 -4 73 22 130 79 59 59 81
92 151 226 42 79 42 80 31 135 -6 30 -23 73 -38 96 -15 23 -28 58 -31 85 -3
39 0 49 27 79 35 39 54 96 46 138 l-5 28 11 -28 c8 -20 8 -45 0 -91 -18 -101
-14 -141 19 -206 43 -86 56 -79 51 26 -2 23 2 45 8 49 7 4 11 45 11 107 l0
100 -39 39 c-24 25 -48 39 -64 39 -14 0 -44 9 -68 20 -47 21 -85 24 -134 9z"/>
<path d="M4290 2869 c-43 -26 -51 -38 -71 -109 -14 -51 -14 -60 3 -120 10 -36
18 -67 18 -70 0 -3 -24 -20 -53 -37 -29 -17 -58 -42 -63 -55 -6 -13 -20 -43
-31 -68 -11 -25 -48 -75 -81 -112 -34 -37 -68 -81 -77 -98 -17 -33 -33 -53
-78 -101 -51 -54 -62 -122 -26 -153 18 -15 25 -16 50 -6 28 12 69 65 69 89 0
16 50 81 62 81 5 0 35 22 66 49 71 60 188 141 204 141 7 0 26 -16 41 -35 15
-19 34 -35 42 -35 30 0 93 -70 111 -123 9 -29 23 -61 30 -72 25 -36 15 -62
-62 -157 -42 -51 -83 -106 -91 -123 -7 -16 -22 -43 -33 -60 -11 -16 -30 -50
-44 -75 -13 -25 -33 -54 -45 -64 -27 -24 -27 -51 1 -103 27 -50 80 -77 173
-87 64 -7 155 -35 155 -47 0 -4 -11 -16 -25 -27 -14 -11 -25 -24 -25 -28 0 -4
-16 -25 -36 -45 -29 -30 -35 -43 -30 -63 9 -37 63 -45 116 -17 22 12 43 21 45
21 9 0 5 -64 -5 -101 -6 -20 -21 -48 -35 -63 -29 -31 -30 -36 -12 -61 11 -15
23 -17 66 -13 60 6 80 22 116 91 14 29 33 63 41 77 19 33 10 77 -24 113 l-27
29 26 21 c15 12 34 34 43 48 19 29 22 22 -47 96 -30 32 -41 54 -52 105 -7 36
-23 85 -34 109 l-21 44 22 17 c13 9 34 23 48 30 42 21 173 105 206 132 33 27
54 81 54 140 0 56 -42 134 -123 227 -73 84 -95 113 -132 174 -85 139 -155 220
-203 235 -48 16 -60 28 -38 36 11 4 39 -2 66 -13 35 -15 51 -18 59 -10 16 16
14 28 -11 54 -17 18 -21 33 -19 71 3 58 -19 91 -66 96 -17 2 -44 13 -58 25
-37 28 -108 28 -155 0z m190 -1334 c0 -8 -4 -15 -9 -15 -13 0 -22 16 -14 24
11 11 23 6 23 -9z"/>
<path d="M3742 2527 c-36 -21 -80 -80 -87 -121 -15 -77 42 -162 125 -187 109
-33 221 69 207 187 -9 86 -70 134 -167 134 -30 -1 -65 -6 -78 -13z"/>
<path d="M373 2279 c-24 -12 -57 -38 -73 -59 -32 -40 -80 -140 -80 -165 0 -17
-28 -18 -125 -6 -59 8 -85 1 -85 -23 1 -30 22 -40 107 -50 l88 -11 8 -50 c23
-132 30 -156 58 -195 41 -57 84 -74 155 -61 69 13 117 49 146 111 20 43 26 48
48 43 28 -6 50 -21 50 -34 0 -16 82 -143 125 -194 23 -27 57 -81 75 -120 18
-38 48 -91 66 -118 33 -46 34 -49 34 -150 0 -148 -10 -172 -107 -264 -96 -92
-109 -125 -76 -202 17 -40 18 -58 11 -131 -4 -46 -12 -88 -18 -94 -5 -5 -10
-26 -10 -45 -1 -20 -7 -47 -15 -61 -22 -38 -18 -65 10 -78 31 -15 191 -16 200
-2 3 5 -13 28 -36 51 -54 53 -64 95 -38 164 26 69 76 137 98 131 9 -3 80 1
157 8 112 10 149 17 179 35 45 26 55 21 26 -15 -11 -15 -21 -31 -21 -35 0 -22
-62 -137 -84 -156 -25 -22 -44 -97 -33 -127 4 -10 34 -16 109 -21 172 -11 229
3 156 41 -18 9 -37 23 -41 30 -4 8 -21 21 -37 29 -32 17 -38 41 -18 78 11 21
78 105 126 157 69 75 111 166 97 210 -13 41 -49 48 -215 44 l-154 -5 20 23
c11 13 42 47 68 77 l47 55 -6 80 c-9 109 4 161 49 198 42 34 156 201 156 228
0 32 15 30 44 -7 89 -111 255 -67 317 83 12 30 27 54 34 54 7 0 18 6 24 14 8
10 6 19 -9 39 -11 14 -20 37 -20 52 0 85 -70 186 -143 206 -87 24 -157 -16
-226 -128 -20 -33 -40 -53 -51 -53 -10 0 -20 -5 -22 -12 -4 -12 -127 1 -473
52 -71 11 -170 24 -220 31 -58 8 -97 18 -110 30 -11 9 -33 19 -50 21 -30 3
-30 4 -38 78 -12 116 -72 209 -147 230 -49 14 -59 13 -107 -11z m617 -402
c102 -14 205 -30 230 -36 25 -5 77 -12 115 -15 133 -11 171 -21 199 -51 14
-15 26 -31 26 -34 0 -10 -51 -83 -78 -111 -13 -14 -32 -41 -42 -60 -20 -39
-53 -80 -65 -80 -4 0 -5 37 -4 82 l4 83 -43 23 c-71 39 -130 51 -181 36 -24
-7 -51 -21 -60 -31 -29 -32 -61 -90 -61 -111 0 -23 -20 -72 -29 -71 -6 0 -42
44 -119 142 -18 23 -58 73 -89 111 -64 79 -87 120 -79 142 7 18 4 19 276 -19z"/>
<path d="M3310 2285 c-10 -12 -16 -13 -27 -4 -22 19 -67 -20 -73 -62 -3 -19
-14 -47 -25 -63 -22 -34 -35 -167 -17 -189 5 -6 12 -30 14 -52 3 -35 0 -41
-25 -53 -34 -16 -74 -75 -83 -122 -4 -19 -22 -52 -40 -72 -18 -20 -40 -48 -50
-63 -17 -26 -21 -27 -92 -23 -74 3 -74 4 -119 52 -46 48 -47 48 -122 53 -75 5
-77 5 -115 -28 -44 -40 -76 -96 -76 -137 0 -70 78 -165 145 -178 50 -9 108 0
140 22 14 11 37 40 51 67 27 52 32 54 94 32 73 -26 89 -21 160 48 36 35 72 73
80 86 31 48 37 54 48 47 6 -4 14 -23 18 -43 4 -19 19 -49 34 -67 36 -41 45
-83 25 -129 -8 -20 -15 -48 -15 -62 0 -31 -22 -77 -62 -127 -42 -54 -86 -141
-102 -201 -17 -67 -36 -101 -142 -262 -28 -43 -54 -99 -96 -205 -29 -73 -75
-153 -93 -160 -23 -9 -95 -85 -95 -100 0 -6 9 -27 20 -47 11 -21 20 -43 20
-49 0 -15 65 -54 90 -54 22 0 45 36 42 62 -2 9 3 27 11 40 8 13 24 53 36 90
12 36 29 72 37 78 8 7 14 17 14 22 0 5 29 51 65 103 36 52 65 97 65 100 0 3
13 33 30 67 21 45 54 87 114 147 81 81 112 95 101 48 -2 -12 -21 -70 -42 -129
-33 -96 -35 -110 -23 -132 9 -18 25 -28 54 -33 37 -8 41 -12 44 -41 4 -37 30
-48 88 -37 80 15 124 52 124 105 0 10 6 25 13 32 23 25 57 78 66 102 12 31
-11 66 -45 66 -13 0 -24 2 -24 5 0 3 33 44 74 91 68 79 75 92 86 152 16 80 8
189 -25 377 -34 186 -40 235 -29 235 5 0 57 -12 116 -26 94 -23 110 -30 131
-58 40 -54 106 -169 123 -217 15 -41 16 -49 2 -75 -17 -35 -8 -82 22 -109 24
-22 25 -17 5 21 -17 33 -9 48 11 19 32 -49 43 -59 50 -52 4 4 -2 17 -14 30
-23 24 -29 47 -13 47 5 0 11 -7 15 -15 3 -8 13 -15 22 -15 16 0 16 1 1 18 -22
25 -24 50 -2 32 19 -16 34 -5 17 12 -7 7 -12 19 -12 28 0 8 -6 26 -13 40 -8
14 -26 59 -42 100 -46 123 -91 214 -114 234 -24 22 -52 34 -196 82 -104 35
-185 74 -270 131 -91 59 -87 53 -81 132 3 43 1 71 -5 71 -19 0 -32 47 -21 78
11 31 -1 51 -38 65 -11 4 -9 7 7 12 13 4 20 11 17 16 -9 14 -50 10 -64 -6z"/>
<path d="M5411 2165 c-16 -14 -35 -42 -42 -63 -15 -45 -23 -51 -74 -53 -22 0
-49 -5 -60 -10 -17 -7 -16 -8 10 -7 41 1 75 -11 75 -28 0 -17 -5 -17 -32 -3
-18 10 -20 9 -15 -6 4 -9 7 -21 7 -26 0 -4 8 -6 18 -2 15 6 15 4 -2 -16 -15
-16 -21 -18 -28 -9 -5 8 -8 0 -8 -21 0 -27 3 -32 17 -27 15 6 15 4 -2 -14 -10
-11 -31 -20 -47 -20 -22 0 -40 -12 -71 -46 -23 -26 -75 -78 -116 -118 -41 -39
-80 -84 -86 -101 -19 -43 8 -89 89 -155 45 -36 66 -61 66 -75 0 -27 30 -55 58
-55 26 0 27 -6 7 -53 -20 -49 -19 -149 1 -190 9 -18 30 -51 46 -74 35 -49 33
-83 -10 -173 l-27 -55 -47 3 c-29 2 -70 -4 -105 -16 -103 -35 -110 -35 -135
-7 -23 27 -69 34 -85 13 -6 -7 -13 -30 -16 -51 -4 -24 -19 -53 -42 -78 -31
-35 -36 -46 -33 -82 4 -57 30 -62 72 -13 18 22 43 39 61 42 16 3 38 14 48 25
15 16 31 19 90 18 65 -1 102 -5 219 -25 34 -6 38 -4 54 27 9 19 26 43 38 54
12 12 35 38 53 60 l31 39 31 -49 c27 -43 31 -57 30 -119 -1 -88 3 -106 56
-236 44 -109 74 -203 97 -305 l13 -60 65 2 c75 2 144 23 148 45 4 22 -25 48
-54 48 -14 0 -41 15 -64 38 -50 46 -76 122 -89 265 -6 56 -17 122 -26 147 -13
34 -15 63 -10 118 l6 73 -52 96 -52 97 27 75 c47 128 57 172 66 295 5 65 11
121 14 123 2 2 27 -7 54 -21 73 -37 129 -48 147 -29 26 25 20 55 -54 258 -6
17 -19 62 -30 100 -16 57 -26 73 -51 88 -16 10 -30 25 -30 33 0 9 -13 29 -30
46 -34 34 -35 35 -16 53 22 22 30 117 13 157 -33 78 -125 104 -186 53z m-197
-522 c4 -27 9 -88 12 -137 l6 -88 -23 7 c-63 18 -153 108 -147 146 3 15 124
118 139 119 4 0 10 -21 13 -47z m456 -78 c18 -42 30 -78 27 -81 -6 -6 -77 14
-89 25 -8 7 13 131 22 131 4 0 21 -34 40 -75z m-460 -185 c0 -5 -4 -10 -10
-10 -5 0 -10 5 -10 10 0 6 5 10 10 10 6 0 10 -4 10 -10z"/>
</g>
</svg>
