<svg width="308" height="302" viewBox="0 0 308 302" fill="none" xmlns="http://www.w3.org/2000/svg">
<path d="M153.669 265.662C219.49 265.662 272.848 262.547 272.848 258.704C272.848 254.861 219.49 251.746 153.669 251.746C87.8477 251.746 34.4893 254.861 34.4893 258.704C34.4893 262.547 87.8477 265.662 153.669 265.662Z" fill="#F5F5F5"/>
<path d="M214.676 103.308L208.578 100.849C208.578 100.849 200.532 115.521 198.227 116.265C195.092 117.273 188.601 120.076 184.753 120.568C184.231 121.183 183.376 123.094 183.456 123.789C188.626 125.516 199.985 123.223 202.419 121.416C207.957 117.316 214.676 103.308 214.676 103.308Z" fill="#E58A7B"/>
<path d="M216.551 99.9701C217.688 104.168 211.529 112.614 211.529 112.614L203.458 108.09C203.458 108.09 204.97 104.617 206.814 101.083C209.771 95.3723 215.254 95.1818 216.551 99.9701Z" fill="black"/>
<path opacity="0.2" d="M216.551 99.9701C217.688 104.168 211.529 112.614 211.529 112.614L203.458 108.09C203.458 108.09 204.97 104.617 206.814 101.083C209.771 95.3723 215.254 95.1818 216.551 99.9701Z" fill="black"/>
<path opacity="0.2" d="M206.66 109.897L209.838 111.68L210.397 101.925C208.547 103.345 207.244 107.623 206.66 109.897Z" fill="black"/>
<path d="M211.239 96.8104C211.239 96.8104 204.957 110.788 208.621 136.813H233.374C233.767 133.015 232.464 114.476 237.179 96.5769C234.463 96.0462 231.716 95.6951 228.954 95.5258C225.452 95.3228 221.94 95.3228 218.437 95.5258C216.009 95.7723 213.603 96.2018 211.239 96.8104Z" fill="black"/>
<path opacity="0.2" d="M211.239 96.8104C211.239 96.8104 204.957 110.788 208.621 136.813H233.374C233.767 133.015 232.464 114.476 237.179 96.5769C234.463 96.0462 231.716 95.6951 228.954 95.5258C225.452 95.3228 221.94 95.3228 218.437 95.5258C216.009 95.7723 213.603 96.2018 211.239 96.8104Z" fill="black"/>
<g style="mix-blend-mode:multiply">
<path d="M205.498 259.257C205.461 259.921 214.847 260.456 226.459 260.456C238.07 260.456 247.523 259.921 247.56 259.257C247.597 258.593 238.217 258.064 226.6 258.064C214.983 258.064 205.541 258.599 205.498 259.257Z" fill="#E8ECF1"/>
</g>
<path d="M222.021 241.814L217.631 243.514L221.413 253.283L225.803 251.584L222.021 241.814Z" fill="#E58A7B"/>
<path d="M241.598 254.53H236.97L235.273 243.816H239.902L241.598 254.53Z" fill="#E58A7B"/>
<path d="M236.65 253.995H241.85C241.94 253.995 242.028 254.028 242.096 254.086C242.165 254.145 242.211 254.226 242.225 254.315L242.895 258.427C242.909 258.53 242.901 258.635 242.871 258.735C242.841 258.834 242.79 258.927 242.721 259.005C242.652 259.083 242.567 259.145 242.472 259.188C242.377 259.23 242.274 259.252 242.17 259.251C240.357 259.22 239.484 259.109 237.197 259.109C235.79 259.109 232.894 259.257 230.94 259.257C228.985 259.257 228.856 257.339 229.661 257.161C233.276 256.38 234.677 255.317 235.882 254.284C236.094 254.097 236.367 253.995 236.65 253.995Z" fill="#263238"/>
<path d="M221.283 252.409L226.201 250.971C226.288 250.946 226.382 250.952 226.466 250.988C226.55 251.024 226.619 251.087 226.662 251.168L228.506 254.856C228.548 254.949 228.57 255.051 228.57 255.154C228.569 255.257 228.546 255.359 228.502 255.452C228.458 255.545 228.395 255.627 228.316 255.693C228.236 255.759 228.144 255.807 228.045 255.833C226.256 256.325 225.057 256.626 222.82 257.278C221.277 257.726 219.703 258.458 218.179 258.943C217.122 259.281 214.639 259.294 213.354 259.294C211.454 259.294 211.03 257.29 211.848 257.198C213.907 256.97 214.184 257.075 215.321 256.503C217.181 255.69 218.868 254.525 220.287 253.073C220.555 252.768 220.899 252.539 221.283 252.409Z" fill="#263238"/>
<path d="M185.527 120.543L180.438 118.41L178.342 124.053C180.428 124.371 182.55 124.371 184.636 124.053L185.527 120.543Z" fill="#E58A7B"/>
<path d="M176.652 118.263L176.517 122.012L178.342 124.041L180.438 118.398L176.652 118.263Z" fill="#E58A7B"/>
<path d="M222.624 242.644L218.22 244.344L220.17 249.396L224.574 247.696L222.624 242.644Z" fill="#CF6F64"/>
<path d="M239.902 243.816H235.273L236.152 249.342H240.781L239.902 243.816Z" fill="#CF6F64"/>
<path opacity="0.2" d="M207.834 129.776C207.926 130.888 208.031 132.025 208.166 133.193L226.569 127.218C229.443 126.367 231.941 124.561 233.65 122.098C233.724 120.457 233.816 118.73 233.958 116.929C234.019 116.056 234.093 115.159 234.173 114.249C234.253 113.339 234.363 112.331 234.48 111.36L207.834 129.776Z" fill="black"/>
<path d="M213.846 109.614L213.231 109.54C213.594 106.467 215.887 104.045 218.303 104.107V104.721C216.188 104.678 214.172 106.86 213.846 109.614Z" fill="white"/>
<path d="M217.122 115.288H217.018V114.673C219.132 114.753 221.117 112.546 221.443 109.799L222.058 109.873C221.732 112.878 219.513 115.288 217.122 115.288Z" fill="white"/>
<path d="M228.61 83.6812C227.744 87.068 226.723 93.2701 228.954 95.5259C228.954 95.5259 227.393 98.962 221.105 98.962C215.358 98.962 218.437 95.5259 218.437 95.5259C222.261 94.6285 222.328 91.8379 221.824 89.1948L228.61 83.6812Z" fill="#E58A7B"/>
<path d="M225.844 85.9307L221.83 89.1946C221.954 89.802 222.026 90.4189 222.045 91.0386C223.219 92.2065 225.573 89.2499 225.813 87.7378C225.935 87.1425 225.945 86.5298 225.844 85.9307Z" fill="#CF6F64"/>
<path d="M214.927 83.6382C215.207 84.1223 215.583 84.5436 216.032 84.8757C216.482 85.2078 216.995 85.4436 217.54 85.5683C219.015 85.8941 219.753 84.5357 219.347 83.1711C218.984 81.9417 217.773 80.2883 216.274 80.571C215.952 80.6372 215.652 80.7794 215.397 80.9857C215.142 81.192 214.94 81.4564 214.808 81.7568C214.676 82.0571 214.618 82.3847 214.639 82.712C214.66 83.0394 214.759 83.357 214.927 83.6382Z" fill="#CF6F64"/>
<path d="M217.368 72.8015C215.069 73.8526 214.258 82.9867 217.147 84.3389C220.036 85.6912 221.72 70.8038 217.368 72.8015Z" fill="#263238"/>
<path d="M229.311 78.5857C228.758 83.1712 228.697 85.8696 226.238 88.2177C225.476 88.9969 224.514 89.5504 223.457 89.8171C222.4 90.0838 221.291 90.0532 220.25 89.7289C219.21 89.4046 218.279 88.7991 217.561 87.9792C216.843 87.1593 216.366 86.157 216.182 85.0829C215.438 80.9645 216.465 74.1601 221.062 72.3345C222.028 71.9084 223.091 71.7484 224.139 71.8712C225.188 71.994 226.185 72.395 227.026 73.0327C227.868 73.6704 228.523 74.5216 228.925 75.498C229.327 76.4744 229.46 77.5405 229.311 78.5857Z" fill="#E58A7B"/>
<path d="M221.757 75.1741C225.162 74.3074 227.664 73.7173 226.766 76.5509C225.58 80.3373 224.154 84.0008 226.065 84.1668C227.233 84.2713 232.397 82.083 231.739 79.864C231.167 77.934 233.583 77.4053 234.013 76.428C235.605 72.8875 231.05 73.3546 231.862 71.2033C232.673 69.0519 228.174 65.5851 225.715 67.3124C221.714 70.103 214.848 70.06 218.456 65.4683C221.044 62.1921 216.427 62.8621 216.427 62.8621C216.427 62.8621 219.218 64.5156 214.522 67.0726C209.555 69.8018 214.11 77.1349 221.757 75.1741Z" fill="#263238"/>
<path d="M231.118 83.6382C230.446 84.611 229.436 85.2989 228.284 85.5683C226.766 85.8941 226.182 84.5357 226.754 83.1711C227.264 81.9417 228.665 80.2883 230.116 80.571C231.567 80.8538 231.898 82.4335 231.118 83.6382Z" fill="#E58A7B"/>
<path d="M208.621 136.813C208.621 136.813 204.466 174.001 204.14 188.114C203.808 202.793 218.223 248.592 218.223 248.592L225.599 245.519C225.599 245.519 216.993 203.672 218.223 189.258C219.526 173.54 224.91 136.838 224.91 136.838L208.621 136.813Z" fill="black"/>
<path opacity="0.2" d="M218.948 147.023C215.635 153.895 217.866 167.486 219.661 175.538C220.343 169.852 221.154 163.681 221.923 157.971C221.849 149.193 221.167 142.413 218.948 147.023Z" fill="black"/>
<path d="M225.273 243.085C225.31 243.085 226.146 245.433 226.146 245.433L217.639 249.01L216.299 246.515L225.273 243.085Z" fill="black"/>
<path d="M217.404 136.813C217.404 136.813 220.582 172.182 222.684 185.428C224.996 199.941 234.056 248.273 234.056 248.273H242.532C242.532 248.273 237.455 201.115 236.496 186.744C235.451 171.155 233.374 136.813 233.374 136.813H217.404Z" fill="black"/>
<path d="M242.661 246.066C242.698 246.066 242.944 248.433 242.944 248.433H233.626L232.962 245.716L242.661 246.066Z" fill="black"/>
<path opacity="0.2" d="M239.417 243.263C239.397 243.263 239.379 243.256 239.364 243.244C239.349 243.232 239.34 243.214 239.337 243.195C239.287 242.765 234.708 200.168 233.848 187.26C232.913 173.258 231.032 142.198 231.014 141.885C231.013 141.874 231.014 141.864 231.018 141.854C231.021 141.845 231.026 141.836 231.033 141.828C231.04 141.821 231.049 141.815 231.058 141.811C231.067 141.807 231.077 141.805 231.088 141.805C231.108 141.805 231.127 141.812 231.142 141.826C231.157 141.84 231.166 141.858 231.168 141.878C231.168 142.192 233.067 173.227 234.001 187.254C234.862 200.162 239.441 242.728 239.484 243.189C239.486 243.199 239.486 243.21 239.483 243.22C239.48 243.23 239.476 243.239 239.469 243.247C239.463 243.255 239.455 243.262 239.446 243.267C239.437 243.272 239.427 243.275 239.417 243.275V243.263Z" fill="black"/>
<path d="M222.279 79.8641C222.279 80.2391 222.045 80.5403 221.799 80.5403C221.553 80.5403 221.375 80.2391 221.4 79.8641C221.424 79.4892 221.633 79.188 221.879 79.188C222.125 79.188 222.303 79.4953 222.279 79.8641Z" fill="#263238"/>
<path d="M218.062 79.8641C218.062 80.2391 217.822 80.5403 217.583 80.5403C217.343 80.5403 217.159 80.2391 217.177 79.8641C217.195 79.4892 217.417 79.188 217.663 79.188C217.909 79.188 218.087 79.4953 218.062 79.8641Z" fill="#263238"/>
<path d="M219.39 80.0547C218.877 81.1996 218.215 82.2722 217.423 83.2448C218.038 83.8595 219.187 83.5768 219.187 83.5768L219.39 80.0547Z" fill="#DF5753"/>
<path d="M219.501 85.144C219.487 85.144 219.473 85.1411 219.46 85.1355C219.447 85.1299 219.435 85.1216 219.425 85.1112C219.415 85.1009 219.408 85.0886 219.403 85.0752C219.398 85.0618 219.396 85.0476 219.397 85.0333C219.398 85.0034 219.411 84.9753 219.433 84.9547C219.455 84.9341 219.484 84.9227 219.513 84.9227C219.984 84.926 220.448 84.8238 220.874 84.6239C221.299 84.4239 221.675 84.1311 221.972 83.7671C221.993 83.7485 222.021 83.7383 222.049 83.7383C222.077 83.7383 222.105 83.7485 222.126 83.7671C222.146 83.7877 222.157 83.8153 222.157 83.8439C222.157 83.8726 222.146 83.9002 222.126 83.9208C221.807 84.3077 221.406 84.6184 220.952 84.83C220.498 85.0417 220.002 85.149 219.501 85.144Z" fill="#263238"/>
<path d="M223.029 78.7332C222.999 78.7483 222.967 78.7562 222.934 78.7562C222.901 78.7562 222.868 78.7483 222.838 78.7332C222.608 78.5845 222.347 78.4921 222.074 78.4632C221.802 78.4344 221.527 78.47 221.271 78.5672C221.246 78.5797 221.219 78.5871 221.191 78.5889C221.163 78.5907 221.135 78.5869 221.109 78.5777C221.083 78.5685 221.058 78.5542 221.038 78.5355C221.017 78.5168 221 78.4941 220.988 78.4689C220.965 78.4142 220.965 78.3527 220.987 78.2976C221.008 78.2425 221.051 78.1981 221.105 78.1738C221.426 78.0426 221.775 77.9908 222.12 78.0229C222.466 78.055 222.799 78.17 223.09 78.3582C223.114 78.3743 223.134 78.3948 223.15 78.4187C223.165 78.4425 223.176 78.4692 223.181 78.4973C223.186 78.5253 223.186 78.5541 223.18 78.5819C223.174 78.6097 223.162 78.6361 223.146 78.6594C223.115 78.6947 223.074 78.7203 223.029 78.7332Z" fill="#263238"/>
<path d="M216.434 77.5035C216.401 77.4956 216.371 77.4785 216.348 77.4543C216.327 77.4343 216.311 77.4104 216.3 77.384C216.289 77.3576 216.283 77.3293 216.283 77.3006C216.283 77.272 216.289 77.2437 216.3 77.2173C216.311 77.1909 216.327 77.167 216.348 77.147C216.583 76.8827 216.877 76.6765 217.205 76.5443C217.534 76.4121 217.888 76.3575 218.241 76.3848C218.269 76.3891 218.296 76.3993 218.321 76.4145C218.345 76.4298 218.366 76.4498 218.382 76.4735C218.398 76.4971 218.409 76.5238 218.414 76.5519C218.42 76.58 218.419 76.6089 218.413 76.6368C218.4 76.6937 218.366 76.7439 218.319 76.7778C218.271 76.8118 218.213 76.8272 218.155 76.8212C217.876 76.8036 217.596 76.8498 217.337 76.9563C217.078 77.0628 216.847 77.2268 216.661 77.4359C216.633 77.467 216.597 77.4898 216.557 77.5017C216.517 77.5136 216.474 77.5142 216.434 77.5035Z" fill="#263238"/>
<path d="M239.557 102.626L233.165 100.923C233.165 100.923 226.895 116.357 224.676 117.359C221.664 118.736 214.036 123.506 210.791 125.762C210.612 126.53 210.754 128.565 211.159 129.124C216.692 128.116 227.282 124.041 229.495 121.969C234.542 117.242 239.557 102.626 239.557 102.626Z" fill="#E58A7B"/>
<path d="M235.095 254.807C234.783 254.831 234.473 254.747 234.216 254.567C234.137 254.496 234.078 254.405 234.045 254.303C234.011 254.202 234.005 254.094 234.026 253.989C234.03 253.924 234.051 253.861 234.088 253.807C234.125 253.753 234.175 253.71 234.235 253.682C234.751 253.418 236.196 254.334 236.362 254.438C236.38 254.449 236.394 254.466 236.402 254.486C236.409 254.506 236.41 254.528 236.405 254.549C236.399 254.57 236.389 254.59 236.374 254.606C236.359 254.622 236.34 254.634 236.319 254.641C235.918 254.739 235.508 254.795 235.095 254.807ZM234.481 253.848C234.434 253.838 234.386 253.838 234.339 253.848C234.316 253.86 234.296 253.878 234.283 253.901C234.27 253.924 234.264 253.951 234.266 253.977C234.249 254.049 234.252 254.123 234.273 254.193C234.295 254.263 234.335 254.327 234.388 254.377C234.628 254.592 235.231 254.616 236.024 254.463C235.551 254.152 235.02 253.942 234.462 253.848H234.481Z" fill="black"/>
<path d="M236.287 254.641C236.271 254.646 236.254 254.646 236.238 254.641C235.777 254.383 234.91 253.368 235.039 252.852C235.059 252.77 235.105 252.697 235.171 252.645C235.236 252.592 235.318 252.564 235.402 252.563C235.484 252.552 235.568 252.559 235.648 252.583C235.728 252.608 235.801 252.649 235.863 252.705C236.373 253.141 236.404 254.481 236.404 254.549C236.407 254.569 236.403 254.589 236.393 254.607C236.383 254.625 236.367 254.639 236.349 254.647C236.328 254.651 236.307 254.649 236.287 254.641ZM235.463 252.766H235.42C235.279 252.766 235.261 252.846 235.254 252.877C235.181 253.178 235.728 253.946 236.183 254.309C236.181 253.79 236.02 253.283 235.722 252.858C235.65 252.796 235.558 252.763 235.463 252.766Z" fill="black"/>
<path d="M218.775 254.038C218.399 254.17 217.99 254.17 217.614 254.038C217.528 253.992 217.456 253.925 217.403 253.843C217.351 253.762 217.319 253.668 217.312 253.571C217.305 253.51 217.313 253.449 217.335 253.392C217.358 253.335 217.394 253.284 217.442 253.245C217.933 252.803 219.943 253.245 220.171 253.331C220.192 253.337 220.211 253.35 220.225 253.368C220.238 253.386 220.245 253.407 220.244 253.43C220.245 253.453 220.239 253.476 220.227 253.495C220.215 253.515 220.198 253.531 220.177 253.54C219.724 253.745 219.256 253.911 218.775 254.038ZM217.773 253.307C217.703 253.321 217.638 253.353 217.583 253.399C217.563 253.414 217.548 253.434 217.54 253.456C217.531 253.479 217.529 253.504 217.534 253.528C217.538 253.593 217.558 253.655 217.592 253.71C217.627 253.765 217.674 253.81 217.73 253.842C218.056 254.014 218.812 253.879 219.79 253.467C219.131 253.301 218.45 253.247 217.773 253.307Z" fill="black"/>
<path d="M220.159 253.541H220.109C219.495 253.43 218.265 252.723 218.229 252.194C218.229 252.071 218.284 251.899 218.579 251.801C218.679 251.765 218.784 251.75 218.89 251.757C218.996 251.763 219.099 251.791 219.194 251.838C219.857 252.164 220.208 253.344 220.226 253.399C220.231 253.418 220.23 253.437 220.225 253.455C220.219 253.474 220.209 253.49 220.195 253.504C220.186 253.519 220.174 253.531 220.159 253.541ZM218.702 251.985H218.64C218.45 252.053 218.45 252.133 218.45 252.157C218.45 252.477 219.341 253.061 219.962 253.258C219.819 252.764 219.516 252.332 219.101 252.028C218.978 251.966 218.836 251.95 218.702 251.985Z" fill="black"/>
<path d="M211.313 125.399L204.902 128.35L204.158 130.194L206.525 131.786C206.525 131.786 210.95 131.306 212.21 128.461L211.313 125.399Z" fill="#E58A7B"/>
<path d="M211.584 129.229C211.441 127.997 211.034 126.81 210.392 125.75L211.406 124.987C212.169 126.209 212.655 127.584 212.832 129.013L211.584 129.229Z" fill="#263238"/>
<path d="M212.678 126.272C212.813 126.485 212.88 126.735 212.869 126.987C212.857 127.239 212.768 127.482 212.614 127.682C212.46 127.882 212.248 128.03 212.006 128.105C211.765 128.18 211.507 128.179 211.266 128.102C211.026 128.025 210.814 127.876 210.662 127.675C210.509 127.474 210.422 127.231 210.412 126.978C210.402 126.726 210.471 126.477 210.608 126.264C210.745 126.052 210.944 125.887 211.178 125.792C211.441 125.658 211.746 125.634 212.027 125.724C212.307 125.813 212.542 126.01 212.678 126.272Z" fill="#263238"/>
<path d="M200.568 130.735L201.423 131.595L207.176 129.136L204.902 128.35L200.568 130.735Z" fill="#E58A7B"/>
<path opacity="0.2" d="M225.273 243.085C225.31 243.085 226.146 245.433 226.146 245.433L217.639 249.01L216.299 246.515L225.273 243.085Z" fill="black"/>
<path opacity="0.2" d="M242.661 246.066C242.698 246.066 242.944 248.433 242.944 248.433H233.626L232.962 245.716L242.661 246.066Z" fill="black"/>
<path d="M241.223 100.855C242.913 106.307 236.306 113.763 236.306 113.763L227.178 110.038C228.26 106.887 229.507 103.795 230.915 100.775C233.718 94.733 239.514 95.3539 241.223 100.855Z" fill="black"/>
<path opacity="0.2" d="M241.223 100.855C242.913 106.307 236.306 113.763 236.306 113.763L227.178 110.038C228.26 106.887 229.507 103.795 230.915 100.775C233.718 94.733 239.514 95.3539 241.223 100.855Z" fill="black"/>
<path d="M150.522 46.229H146.594V46.8621H150.522V46.229Z" fill="black"/>
<path d="M201.367 71.287L200.892 81.8364L201.524 81.8649L201.999 71.3155L201.367 71.287Z" fill="black"/>
<path d="M200.144 49.0688H127.612L120.863 200.107H193.395L200.144 49.0688Z" fill="black"/>
<path opacity="0.56" d="M197.981 51.1465H125.449L118.7 202.184H191.232L197.981 51.1465Z" fill="#FAFAFA"/>
<path opacity="0.07" d="M195.817 53.2178H123.286L116.53 204.256H189.062L195.817 53.2178Z" fill="black"/>
<path d="M187.562 119.093H125.652L125.136 130.649H187.046L187.562 119.093Z" fill="white"/>
<path d="M159.699 110.659H126.027L125.8 115.829H159.472L159.699 110.659Z" fill="black"/>
<path d="M186.167 150.281H124.257L123.74 161.837H185.65L186.167 150.281Z" fill="white"/>
<path opacity="0.47" d="M174.813 177.444H133.181L132.561 191.292H174.192L174.813 177.444Z" fill="black"/>
<path d="M172.03 193.443H130.398C130.38 193.448 130.361 193.448 130.342 193.443C130.336 193.426 130.336 193.406 130.342 193.388L130.957 179.533C130.957 179.524 130.959 179.515 130.963 179.506C130.967 179.497 130.972 179.49 130.979 179.483C130.986 179.477 130.994 179.472 131.003 179.469C131.012 179.466 131.022 179.465 131.031 179.466H172.663C172.67 179.462 172.679 179.46 172.687 179.46C172.696 179.46 172.704 179.462 172.712 179.466C172.716 179.473 172.719 179.482 172.719 179.49C172.719 179.499 172.716 179.507 172.712 179.515L172.11 193.4C172.102 193.415 172.091 193.427 172.076 193.434C172.062 193.442 172.046 193.445 172.03 193.443ZM130.472 193.296H171.956L172.571 179.589H131.086L130.472 193.296Z" fill="white"/>
<path d="M152.427 141.848H124.632L124.404 147.023H152.194L152.427 141.848Z" fill="black"/>
<path d="M174.021 81.7633C173.862 85.1264 172.666 88.3579 170.598 91.0141C169.066 93.0205 167.095 94.6493 164.836 95.7756C162.577 96.9019 160.091 97.4956 157.566 97.5112C155.527 97.5268 153.505 97.1246 151.627 96.3294C149.749 95.5342 148.053 94.3629 146.645 92.8875C145.236 91.4122 144.144 89.6641 143.437 87.751C142.73 85.8378 142.422 83.8001 142.532 81.7633C142.748 77.5368 144.57 73.5525 147.627 70.6253C150.683 67.698 154.742 66.049 158.974 66.0153C161.015 65.9963 163.039 66.396 164.919 67.1898C166.8 67.9836 168.498 69.1547 169.908 70.6306C171.318 72.1065 172.411 73.8559 173.118 75.7707C173.826 77.6855 174.133 79.725 174.021 81.7633Z" fill="white"/>
<path d="M175.502 69.3098C175.462 70.2041 175.144 71.0636 174.593 71.7685C174.184 72.3014 173.66 72.7341 173.059 73.0334C172.458 73.3327 171.797 73.4909 171.126 73.4958C170.475 73.4997 169.834 73.3444 169.258 73.0433C168.681 72.7422 168.187 72.3045 167.819 71.7685C167.331 71.0442 167.09 70.1821 167.13 69.3098C167.19 68.1877 167.675 67.1305 168.487 66.3538C169.299 65.5771 170.377 65.1394 171.501 65.13C172.043 65.1251 172.58 65.2312 173.08 65.4418C173.579 65.6525 174.03 65.9631 174.405 66.3547C174.78 66.7463 175.071 67.2105 175.26 67.7188C175.448 68.227 175.531 68.7685 175.502 69.3098Z" fill="black"/>
<path d="M132.321 124.87C132.292 125.366 132.075 125.831 131.716 126.174C131.357 126.516 130.881 126.709 130.385 126.714C130.145 126.717 129.908 126.671 129.687 126.578C129.466 126.486 129.266 126.349 129.1 126.176C128.934 126.003 128.806 125.798 128.722 125.574C128.639 125.349 128.602 125.11 128.615 124.87C128.641 124.374 128.857 123.907 129.217 123.564C129.577 123.221 130.054 123.029 130.551 123.026C130.79 123.024 131.027 123.071 131.248 123.164C131.469 123.257 131.668 123.394 131.834 123.567C131.999 123.74 132.128 123.944 132.212 124.168C132.296 124.393 132.333 124.631 132.321 124.87Z" fill="black"/>
<path d="M140.607 124.871C140.579 125.366 140.363 125.833 140.004 126.175C139.644 126.518 139.167 126.711 138.671 126.715C138.432 126.717 138.195 126.67 137.975 126.577C137.754 126.484 137.556 126.347 137.39 126.174C137.225 126.001 137.097 125.796 137.014 125.572C136.931 125.348 136.894 125.109 136.907 124.871C136.933 124.375 137.148 123.909 137.506 123.566C137.865 123.223 138.341 123.03 138.837 123.026C139.076 123.024 139.314 123.07 139.535 123.163C139.756 123.255 139.956 123.392 140.121 123.565C140.287 123.738 140.416 123.943 140.5 124.167C140.583 124.392 140.62 124.631 140.607 124.871Z" fill="black"/>
<path d="M148.899 124.871C148.871 125.366 148.655 125.833 148.296 126.175C147.936 126.518 147.459 126.711 146.963 126.715C146.723 126.717 146.486 126.67 146.266 126.577C146.045 126.484 145.846 126.347 145.68 126.174C145.514 126.001 145.386 125.797 145.302 125.573C145.218 125.348 145.181 125.11 145.193 124.871C145.221 124.375 145.436 123.908 145.796 123.566C146.156 123.223 146.632 123.03 147.129 123.026C147.368 123.024 147.606 123.07 147.827 123.163C148.048 123.255 148.247 123.392 148.413 123.565C148.579 123.738 148.708 123.943 148.792 124.167C148.875 124.392 148.912 124.631 148.899 124.871Z" fill="black"/>
<path d="M130.926 156.059C130.897 156.554 130.681 157.02 130.321 157.362C129.962 157.704 129.486 157.898 128.99 157.903C128.751 157.905 128.514 157.858 128.293 157.765C128.073 157.672 127.873 157.535 127.708 157.362C127.542 157.19 127.413 156.985 127.329 156.761C127.245 156.537 127.208 156.298 127.22 156.059C127.248 155.563 127.464 155.097 127.823 154.754C128.183 154.412 128.66 154.219 129.156 154.215C129.395 154.213 129.633 154.26 129.853 154.353C130.074 154.446 130.273 154.583 130.439 154.755C130.604 154.928 130.733 155.133 130.817 155.357C130.901 155.581 130.938 155.82 130.926 156.059Z" fill="black"/>
<path d="M139.212 156.059C139.184 156.554 138.969 157.019 138.61 157.362C138.252 157.704 137.777 157.898 137.281 157.903C137.042 157.906 136.804 157.859 136.583 157.767C136.362 157.674 136.163 157.537 135.997 157.364C135.831 157.192 135.702 156.987 135.619 156.762C135.535 156.537 135.499 156.298 135.511 156.059C135.539 155.563 135.755 155.097 136.115 154.754C136.474 154.412 136.951 154.219 137.447 154.215C137.687 154.213 137.923 154.26 138.144 154.353C138.364 154.446 138.563 154.583 138.728 154.756C138.893 154.928 139.021 155.133 139.105 155.357C139.188 155.581 139.224 155.82 139.212 156.059Z" fill="black"/>
<path d="M147.522 156.059C147.494 156.555 147.278 157.021 146.918 157.364C146.559 157.706 146.082 157.899 145.586 157.903C145.346 157.904 145.11 157.857 144.89 157.763C144.669 157.67 144.471 157.533 144.305 157.361C144.139 157.188 144.011 156.984 143.926 156.76C143.842 156.536 143.804 156.298 143.815 156.059C143.845 155.564 144.061 155.098 144.42 154.756C144.78 154.414 145.255 154.22 145.752 154.215C145.991 154.212 146.229 154.258 146.45 154.351C146.671 154.444 146.87 154.581 147.036 154.753C147.202 154.926 147.331 155.131 147.414 155.356C147.498 155.58 147.534 155.82 147.522 156.059Z" fill="black"/>
<path d="M155.796 156.059C155.767 156.554 155.55 157.02 155.191 157.362C154.832 157.704 154.356 157.898 153.86 157.903C153.621 157.904 153.384 157.857 153.164 157.763C152.944 157.67 152.745 157.533 152.579 157.361C152.414 157.188 152.285 156.984 152.201 156.76C152.117 156.536 152.079 156.298 152.09 156.059C152.119 155.564 152.335 155.098 152.695 154.756C153.054 154.414 153.53 154.22 154.026 154.215C154.265 154.213 154.502 154.26 154.723 154.353C154.944 154.446 155.143 154.583 155.309 154.755C155.474 154.928 155.603 155.133 155.687 155.357C155.771 155.581 155.808 155.82 155.796 156.059Z" fill="black"/>
<path d="M164.118 156.059C164.089 156.554 163.872 157.02 163.513 157.362C163.154 157.704 162.678 157.898 162.182 157.903C161.942 157.906 161.705 157.859 161.484 157.767C161.263 157.674 161.063 157.537 160.897 157.364C160.731 157.192 160.603 156.987 160.519 156.762C160.436 156.537 160.399 156.298 160.412 156.059C160.44 155.563 160.655 155.097 161.015 154.754C161.375 154.412 161.851 154.219 162.348 154.215C162.587 154.213 162.824 154.26 163.045 154.353C163.265 154.446 163.465 154.583 163.63 154.755C163.796 154.928 163.925 155.133 164.009 155.357C164.093 155.581 164.13 155.82 164.118 156.059Z" fill="black"/>
<path d="M162.86 80.9434C165.433 78.4275 165.57 74.3948 163.165 71.9361C160.761 69.4775 156.726 69.5239 154.153 72.0398C151.581 74.5557 151.444 78.5884 153.849 81.047C156.253 83.5057 160.288 83.4593 162.86 80.9434Z" fill="black"/>
<path d="M170.597 91.0141C169.066 93.0205 167.095 94.6493 164.836 95.7756C162.577 96.9018 160.09 97.4955 157.566 97.5112C155.118 97.532 152.703 96.9502 150.534 95.8171C148.364 94.6841 146.507 93.0346 145.125 91.0141C148.112 88.0391 152.839 86.0967 158.076 86.0967C163.313 86.0967 167.874 88.0391 170.597 91.0141Z" fill="black"/>
<path opacity="0.1" d="M162.86 80.9434C165.433 78.4275 165.57 74.3948 163.165 71.9361C160.761 69.4775 156.726 69.5239 154.153 72.0398C151.581 74.5557 151.444 78.5884 153.849 81.047C156.253 83.5057 160.288 83.4593 162.86 80.9434Z" fill="white"/>
<path opacity="0.1" d="M170.597 91.0141C169.066 93.0205 167.095 94.6493 164.836 95.7756C162.577 96.9018 160.09 97.4955 157.566 97.5112C155.118 97.532 152.703 96.9502 150.534 95.8171C148.364 94.6841 146.507 93.0346 145.125 91.0141C148.112 88.0391 152.839 86.0967 158.076 86.0967C163.313 86.0967 167.874 88.0391 170.597 91.0141Z" fill="white"/>
<path d="M80.1593 133.433C79.5753 134.712 78.9606 136.119 78.4259 137.484C77.8911 138.849 77.344 140.256 76.8707 141.658C75.9044 144.42 75.1683 147.257 74.6702 150.14L74.535 151.044C74.5221 151.199 74.5366 151.355 74.578 151.505C74.7231 152.014 74.9515 152.496 75.2541 152.931C76.0435 154.056 76.9592 155.087 77.9833 156.004C79.063 157.008 80.1957 157.954 81.3763 158.838C82.5565 159.747 83.7981 160.633 85.0213 161.469L83.8719 163.626C80.9511 162.353 78.1787 160.764 75.6045 158.887C74.2312 157.885 72.9917 156.712 71.9165 155.396C71.2791 154.612 70.7821 153.724 70.4474 152.771C70.2528 152.176 70.1532 151.553 70.1523 150.927C70.1523 150.779 70.1523 150.564 70.1523 150.46V150.159L70.2138 149.544C70.5662 146.341 71.2396 143.183 72.2238 140.115C72.7032 138.603 73.2134 137.097 73.7974 135.628C74.3813 134.159 74.9837 132.72 75.7274 131.227L80.1593 133.433Z" fill="#E58A7B"/>
<path d="M84.155 161.087L88.5008 158.887L87.3759 163.657C87.3759 163.657 84.3947 164.493 83.0117 163.042L84.155 161.087Z" fill="#E58A7B"/>
<path d="M92.4778 159.667L91.3222 163.614L87.376 163.657L88.5008 158.887L92.4778 159.667Z" fill="#E58A7B"/>
<path d="M98.6119 110.42C98.8443 111.272 99.1679 112.096 99.5769 112.879C99.4574 113.014 99.3035 113.115 99.1315 113.17C98.9594 113.225 98.7756 113.233 98.5996 113.192L98.6119 110.42Z" fill="#DF5753"/>
<path d="M98.4825 110.457C98.7371 110.457 98.9435 110.14 98.9435 109.75C98.9435 109.359 98.7371 109.043 98.4825 109.043C98.2279 109.043 98.0215 109.359 98.0215 109.75C98.0215 110.14 98.2279 110.457 98.4825 110.457Z" fill="#263238"/>
<path d="M98.3477 109.068L99.282 108.803C99.282 108.803 98.8271 109.529 98.3477 109.068Z" fill="#263238"/>
<path d="M86.6068 114.932C87.1662 117.79 87.7255 123.033 85.7217 124.945C85.7217 124.945 86.5085 127.846 91.8254 127.846C97.671 127.846 94.616 124.945 94.616 124.945C91.4259 124.183 91.5058 121.816 92.0651 119.591L86.6068 114.932Z" fill="#E58A7B"/>
<path d="M85.0526 108.416C85.3476 113.192 85.3722 115.22 87.7817 117.673C91.4145 121.361 97.217 119.959 98.3541 115.214C99.3807 110.911 98.7291 103.83 94.0514 101.931C93.0246 101.508 91.9069 101.354 90.804 101.483C89.7011 101.613 88.6495 102.022 87.7485 102.671C86.8476 103.32 86.1272 104.188 85.6554 105.194C85.1837 106.199 84.9762 107.308 85.0526 108.416Z" fill="#E58A7B"/>
<path d="M85.5253 103.044C83.1281 103.916 79.9317 103.265 81.1857 110.659C82.5134 118.49 80.4727 121.066 80.4727 121.066C80.4727 121.066 89.5637 123.002 98.8453 120.949C98.8453 120.949 96.0116 115.995 96.8046 112.344C97.8188 107.733 97.0197 106.031 97.0197 106.031C97.0197 106.031 88.8937 101.814 85.5253 103.044Z" fill="#263238"/>
<path d="M95.668 110.906C95.6705 111.814 95.9305 112.703 96.4179 113.469C97.0694 114.465 97.8378 114.083 98.0283 113.026C98.2004 112.098 98.0713 110.457 97.2415 109.818C96.4117 109.178 95.6803 109.805 95.668 110.906Z" fill="#E58A7B"/>
<path d="M83.4413 103.849C82.7528 101.913 86.0352 98.9315 92.981 100.161C99.9269 101.39 100.228 107.174 100.228 107.174L98.8266 105.502L98.8881 107.26L91.7517 108.631L83.4413 103.849Z" fill="#263238"/>
<path d="M84.0319 125.27C83.9909 124.99 84.0612 124.704 84.2276 124.474C84.3941 124.245 84.6437 124.089 84.9232 124.041C87.0869 123.684 92.0043 122.959 94.4753 123.303C96.3193 123.561 96.7987 124.631 96.8786 125.51C96.8912 125.664 96.8706 125.819 96.8183 125.964C96.766 126.109 96.6832 126.242 96.5755 126.352C96.4677 126.463 96.3376 126.549 96.1937 126.605C96.0499 126.661 95.8957 126.686 95.7415 126.678L85.0584 126.198C84.8066 126.186 84.5669 126.086 84.3798 125.917C84.1928 125.748 84.0699 125.519 84.0319 125.27Z" fill="black"/>
<path opacity="0.6" d="M84.0319 125.27C83.9909 124.99 84.0612 124.704 84.2276 124.474C84.3941 124.245 84.6437 124.089 84.9232 124.041C87.0869 123.684 92.0043 122.959 94.4753 123.303C96.3193 123.561 96.7987 124.631 96.8786 125.51C96.8912 125.664 96.8706 125.819 96.8183 125.964C96.766 126.109 96.6832 126.242 96.5755 126.352C96.4677 126.463 96.3376 126.549 96.1937 126.605C96.0499 126.661 95.8957 126.686 95.7415 126.678L85.0584 126.198C84.8066 126.186 84.5669 126.086 84.3798 125.917C84.1928 125.748 84.0699 125.519 84.0319 125.27Z" fill="black"/>
<path d="M90.209 232.654L94.1736 235.408L100.806 226.415L96.8413 223.667L90.209 232.654Z" fill="#E58A7B"/>
<path d="M80.9648 232.476L85.1508 234.861L91.0209 225.352L86.835 222.967L80.9648 232.476Z" fill="#E58A7B"/>
<path d="M100.8 226.415L97.3826 231.05L93.418 228.302L96.8356 223.667L100.8 226.415Z" fill="#CF6F64"/>
<path d="M86.8289 222.967L91.021 225.358L87.9968 230.257L83.8047 227.866L86.8289 222.967Z" fill="#CF6F64"/>
<path d="M93.5531 155.291C93.5531 155.291 109.031 174.795 106.123 193.45C103.781 208.516 90.197 228.917 90.197 228.917L83.8105 225.745C88.3121 216.725 92.1536 207.39 95.3049 197.814C96.2767 194.841 96.5604 191.686 96.1344 188.588C95.7085 185.489 94.5841 182.528 92.8462 179.927C85.003 168.476 72.439 175.293 80.8908 155.291H93.5531Z" fill="black"/>
<path opacity="0.6" d="M93.5531 155.291C93.5531 155.291 109.031 174.795 106.123 193.45C103.781 208.516 90.197 228.917 90.197 228.917L83.8105 225.745C88.3121 216.725 92.1536 207.39 95.3049 197.814C96.2767 194.841 96.5604 191.686 96.1344 188.588C95.7085 185.489 94.5841 182.528 92.8462 179.927C85.003 168.476 72.439 175.293 80.8908 155.291H93.5531Z" fill="black"/>
<path opacity="0.4" d="M101.144 167.818L98.8945 165.581C98.8945 165.759 103.253 192.663 104.476 200.224C105.198 198.015 105.75 195.755 106.129 193.462C107.568 184.31 104.562 174.961 101.144 167.818Z" fill="black"/>
<path d="M100.462 155.291C100.462 155.291 119.099 179.804 119.628 194.501C120.064 206.795 99.3435 230.613 99.3435 230.613L93.3197 226.716C93.3197 226.716 105.447 209.8 108.502 195.983C107.322 182.288 82.3662 155.291 82.3662 155.291H100.462Z" fill="black"/>
<path opacity="0.6" d="M100.462 155.291C100.462 155.291 119.099 179.804 119.628 194.501C120.064 206.795 99.3435 230.613 99.3435 230.613L93.3197 226.716C93.3197 226.716 105.447 209.8 108.502 195.983C107.322 182.288 82.3662 155.291 82.3662 155.291H100.462Z" fill="black"/>
<path d="M77.4051 126.039C75.4136 126.512 73.502 133.753 73.502 133.753L81.2899 138.953C81.2899 138.953 83.8838 133.224 82.9741 130.716C82.0336 128.104 79.9069 125.442 77.4051 126.039Z" fill="black"/>
<path opacity="0.2" d="M78.9296 130.704L78.3887 137.017L81.2838 138.959C82.0832 137.16 82.675 135.275 83.0479 133.341L78.9296 130.704Z" fill="black"/>
<path d="M102.767 126.18C102.767 126.18 105.066 126.985 100.462 155.285H80.8782C81.2101 147.294 81.2163 142.377 77.4053 126.039C80.1474 125.473 82.9269 125.108 85.7218 124.944C88.6828 124.732 91.6552 124.732 94.6162 124.944C98.4395 125.295 102.767 126.18 102.767 126.18Z" fill="black"/>
<path d="M104.759 130.704C105.201 131.933 105.669 133.255 106.16 134.527C106.652 135.8 107.119 137.109 107.617 138.4L109.123 142.26L109.504 143.225L109.701 143.705L109.793 143.944C109.793 143.987 109.793 143.987 109.793 143.981C109.681 143.823 109.533 143.692 109.363 143.6C109.12 143.457 108.845 143.375 108.564 143.36C108.33 143.353 108.097 143.397 107.881 143.489C107.599 143.618 107.599 143.674 107.605 143.668C107.656 143.627 107.701 143.579 107.74 143.526C108.08 143.08 108.375 142.6 108.619 142.094C108.908 141.529 109.185 140.926 109.461 140.318C110.002 139.088 110.5 137.816 110.998 136.531C111.496 135.247 111.969 133.95 112.43 132.64L113.831 128.719L116.198 129.333C115.731 132.136 115.128 134.865 114.403 137.644C114.053 139.027 113.641 140.398 113.174 141.781C112.94 142.475 112.682 143.164 112.387 143.87C112.079 144.638 111.701 145.374 111.256 146.071C111.092 146.305 110.912 146.527 110.715 146.735C110.401 147.074 110.02 147.344 109.596 147.528C109.22 147.689 108.813 147.765 108.404 147.749C107.946 147.732 107.499 147.599 107.107 147.362C106.644 147.073 106.259 146.674 105.988 146.2C105.896 146.04 105.816 145.88 105.761 145.764L105.644 145.53L105.41 145.051L104.943 144.098C104.329 142.819 103.714 141.529 103.179 140.232C102.644 138.935 102.079 137.619 101.55 136.298C101.022 134.976 100.548 133.655 100.1 132.229L104.759 130.704Z" fill="#E58A7B"/>
<path d="M102.767 126.18C105.122 126.74 107.771 133.698 107.771 133.698L100.77 139.654C100.77 139.654 96.2396 132.069 97.1555 129.567C98.1082 126.961 99.6941 125.449 102.767 126.18Z" fill="black"/>
<path d="M114.944 126.518L117.403 124.465L119.111 127.127L117.851 129.346C117.851 129.346 115.847 131.19 114.077 130.249C113.796 129.618 113.729 128.912 113.885 128.239C114.042 127.565 114.413 126.961 114.944 126.518Z" fill="#E58A7B"/>
<path d="M121.84 124.471L121.656 125.141L117.765 125.793L117.384 124.465L121.84 124.471Z" fill="#E58A7B"/>
<path d="M99.8223 230.927L92.8027 226.39L94.0628 224.202L101.949 229.052L99.8223 230.927Z" fill="black"/>
<path d="M87.8985 234.541C87.2826 234.466 86.6908 234.256 86.1651 233.927C86.1434 233.919 86.1246 233.905 86.1113 233.886C86.098 233.867 86.0908 233.845 86.0908 233.822C86.0908 233.799 86.098 233.777 86.1113 233.758C86.1246 233.739 86.1434 233.725 86.1651 233.718C86.3556 233.656 88.0091 233.146 88.4886 233.539C88.5425 233.584 88.5834 233.642 88.6072 233.708C88.631 233.774 88.6367 233.845 88.6238 233.914C88.6153 234.025 88.5786 234.132 88.5173 234.224C88.456 234.317 88.372 234.392 88.2734 234.443C88.1583 234.506 88.0296 234.539 87.8985 234.541ZM86.5155 233.865C87.2838 234.258 87.8985 234.4 88.1935 234.252C88.2578 234.217 88.3118 234.165 88.3506 234.103C88.3893 234.04 88.4114 233.969 88.4148 233.896C88.4148 233.797 88.4148 233.754 88.3595 233.73C88.1013 233.521 87.1793 233.681 86.5032 233.865H86.5155Z" fill="#263238"/>
<path d="M86.2074 233.969C86.175 233.969 86.1441 233.956 86.1214 233.933C86.1122 233.916 86.1074 233.897 86.1074 233.877C86.1074 233.858 86.1122 233.839 86.1214 233.822C86.1214 233.767 86.5209 232.433 87.1479 232.132C87.2279 232.095 87.3149 232.076 87.403 232.076C87.491 232.076 87.578 232.095 87.658 232.132C87.7444 232.159 87.8191 232.214 87.8703 232.289C87.9216 232.363 87.9464 232.453 87.9408 232.543C87.8978 233.097 86.7729 233.859 86.2566 233.988L86.2074 233.969ZM87.3999 232.291C87.3401 232.293 87.2814 232.308 87.2278 232.334C86.8467 232.519 86.5332 233.238 86.3795 233.674C86.9204 233.447 87.6642 232.845 87.6888 232.507C87.6888 232.451 87.6888 232.384 87.5474 232.322C87.5014 232.297 87.4515 232.281 87.3999 232.273V232.291Z" fill="#263238"/>
<path d="M96.669 237.196C95.9744 237.196 95.0094 236.305 94.4807 235.758C94.4672 235.739 94.46 235.717 94.46 235.694C94.46 235.67 94.4672 235.648 94.4807 235.629C94.4929 235.609 94.5101 235.593 94.5307 235.582C94.5512 235.571 94.5743 235.566 94.5975 235.568C94.8434 235.568 96.9763 235.887 97.2775 236.49C97.3094 236.544 97.3262 236.605 97.3262 236.668C97.3262 236.731 97.3094 236.792 97.2775 236.846C97.2323 236.94 97.1641 237.021 97.0791 237.081C96.9942 237.141 96.8954 237.179 96.7919 237.19L96.669 237.196ZM94.8864 235.844C95.6609 236.594 96.3432 237.012 96.7304 236.963C96.7983 236.954 96.8629 236.929 96.9186 236.889C96.9743 236.849 97.0195 236.797 97.0501 236.735C97.0638 236.714 97.0711 236.69 97.0711 236.665C97.0711 236.64 97.0638 236.615 97.0501 236.594C96.8903 236.262 95.7531 235.979 94.8864 235.844Z" fill="#263238"/>
<path d="M94.9542 235.814C94.8163 235.818 94.6783 235.807 94.5424 235.783C94.5234 235.78 94.5055 235.772 94.4904 235.761C94.4753 235.749 94.4636 235.733 94.4563 235.715C94.4472 235.697 94.4424 235.677 94.4424 235.657C94.4424 235.637 94.4472 235.617 94.4563 235.599C94.4932 235.556 95.323 234.554 96.1098 234.486C96.3326 234.469 96.5532 234.539 96.7245 234.683C96.9642 234.892 96.9519 235.076 96.8905 235.193C96.7368 235.611 95.6734 235.814 94.9542 235.814ZM94.7944 235.586C95.4829 235.623 96.5831 235.396 96.7245 235.094C96.7245 235.094 96.7737 234.996 96.6139 234.861C96.5503 234.806 96.476 234.764 96.3956 234.739C96.3152 234.713 96.2305 234.705 96.1467 234.713C95.6167 234.861 95.1448 235.168 94.7944 235.592V235.586Z" fill="#263238"/>
<path d="M86.3735 233.306L81.1611 231.83C81.0712 231.803 80.9745 231.81 80.8894 231.85C80.8044 231.889 80.7369 231.959 80.7001 232.045L78.9421 235.998C78.9008 236.099 78.8814 236.208 78.8852 236.317C78.889 236.426 78.9159 236.534 78.9641 236.632C79.0123 236.73 79.0807 236.817 79.1648 236.886C79.249 236.956 79.3469 237.007 79.4523 237.037C81.2963 237.516 82.1814 237.651 84.4742 238.309C85.8879 238.702 87.9041 239.434 89.8526 239.987C91.8011 240.54 92.4527 238.641 91.6966 238.235C88.279 236.428 88.0086 235.162 87.0743 233.81C86.9069 233.565 86.6589 233.386 86.3735 233.306Z" fill="black"/>
<path d="M94.6228 235.039L90.1725 231.966C90.0971 231.911 90.0041 231.885 89.9111 231.894C89.8182 231.903 89.7319 231.946 89.6685 232.015L86.718 235.187C86.6461 235.269 86.5925 235.365 86.5607 235.469C86.5289 235.573 86.5197 235.683 86.5337 235.791C86.5476 235.9 86.5844 236.004 86.6417 236.096C86.6989 236.189 86.7752 236.269 86.8656 236.33C88.433 237.381 89.2444 237.805 91.2052 239.163C92.4345 239.999 94.8133 241.856 96.4729 243.011C98.1326 244.167 99.368 242.581 98.778 241.954C96.1349 239.133 95.5571 237.362 95.1206 235.758C95.0449 235.467 94.8685 235.212 94.6228 235.039Z" fill="black"/>
<path d="M91.0147 229.322L82.9932 225.333L83.823 223.157L92.3915 227.362L91.0147 229.322Z" fill="black"/>
<path d="M80.5834 154.136L79.9072 155.906C79.8396 156.041 79.9995 156.182 80.2269 156.182H100.56C100.739 156.182 100.886 156.096 100.898 155.986L101.071 154.228C101.071 154.111 100.929 154.007 100.739 154.007H80.903C80.8433 154.001 80.7831 154.01 80.7275 154.032C80.6719 154.055 80.6225 154.09 80.5834 154.136Z" fill="black"/>
<path opacity="0.4" d="M80.5834 154.136L79.9072 155.906C79.8396 156.041 79.9995 156.182 80.2269 156.182H100.56C100.739 156.182 100.886 156.096 100.898 155.986L101.071 154.228C101.071 154.111 100.929 154.007 100.739 154.007H80.903C80.8433 154.001 80.7831 154.01 80.7275 154.032C80.6719 154.055 80.6225 154.09 80.5834 154.136Z" fill="white"/>
<path d="M83.7856 156.355H83.2509C83.1464 156.355 83.0665 156.299 83.0726 156.232L83.3246 153.951C83.3246 153.89 83.423 153.834 83.5275 153.834H84.0622C84.1667 153.834 84.2466 153.89 84.2405 153.951L83.9885 156.232C83.9823 156.299 83.8901 156.355 83.7856 156.355Z" fill="black"/>
<path d="M96.3254 156.355H95.7968C95.6923 156.355 95.6123 156.299 95.6185 156.232L95.8644 153.951C95.8644 153.89 95.9689 153.834 96.0734 153.834H96.602C96.7065 153.834 96.7925 153.89 96.7802 153.951L96.5344 156.232C96.5036 156.299 96.436 156.355 96.3254 156.355Z" fill="black"/>
<g style="mix-blend-mode:multiply">
<path d="M83.3187 260.45C92.4133 260.45 99.7859 259.916 99.7859 259.257C99.7859 258.599 92.4133 258.065 83.3187 258.065C74.2242 258.065 66.8516 258.599 66.8516 259.257C66.8516 259.916 74.2242 260.45 83.3187 260.45Z" fill="#F5F5F5"/>
</g>
<path d="M93.35 257.573C90.4364 256.725 87.2032 255.637 85.2486 254.5C85.1932 254.463 85.1318 254.444 85.0764 254.414V241.223H90.9712C91.4187 241.196 91.8391 241 92.1466 240.674C92.454 240.347 92.6252 239.916 92.6252 239.468C92.6252 239.02 92.454 238.588 92.1466 238.262C91.8391 237.936 91.4187 237.739 90.9712 237.713H85.1072V177.585H81.5667V237.713H75.7088C75.4696 237.699 75.23 237.734 75.0048 237.815C74.7796 237.897 74.5735 238.024 74.3991 238.189C74.2247 238.353 74.0858 238.551 73.9909 238.771C73.8959 238.991 73.8469 239.228 73.8469 239.468C73.8469 239.707 73.8959 239.945 73.9909 240.165C74.0858 240.385 74.2247 240.583 74.3991 240.747C74.5735 240.912 74.7796 241.038 75.0048 241.12C75.23 241.202 75.4696 241.237 75.7088 241.223H81.5667V254.395C81.5113 254.395 81.456 254.444 81.4007 254.481C79.4153 255.637 76.2067 256.725 73.2931 257.555C73.0963 257.614 72.9273 257.742 72.8167 257.916C72.7061 258.089 72.6613 258.296 72.6902 258.5C72.7192 258.703 72.8201 258.89 72.9747 259.025C73.1292 259.161 73.3272 259.237 73.5328 259.239H93.1102C93.3067 259.226 93.4927 259.145 93.637 259.011C93.7814 258.877 93.8755 258.698 93.9035 258.503C93.9316 258.308 93.8919 258.109 93.7912 257.94C93.6904 257.771 93.5347 257.641 93.35 257.573Z" fill="#E0E0E0"/>
<path d="M94.2538 171.463H72.3959C70.6374 171.463 69.2119 172.889 69.2119 174.647V181.145C69.2119 182.903 70.6374 184.329 72.3959 184.329H94.2538C96.0123 184.329 97.4378 182.903 97.4378 181.145V174.647C97.4378 172.889 96.0123 171.463 94.2538 171.463Z" fill="black"/>
<path d="M72.1934 184.334V185.453C72.1934 186.375 73.1953 187.125 74.4246 187.125H92.2502C93.4796 187.125 94.4815 186.375 94.4815 185.453V184.334H72.1934Z" fill="black"/>
<path opacity="0.3" d="M72.1934 184.334V185.453C72.1934 186.375 73.1953 187.125 74.4246 187.125H92.2502C93.4796 187.125 94.4815 186.375 94.4815 185.453V184.334H72.1934Z" fill="white"/>
</svg>
