<svg width="23" height="23" viewBox="0 0 23 23" fill="none" xmlns="http://www.w3.org/2000/svg">
<path opacity="0.1" fill-rule="evenodd" clip-rule="evenodd" d="M0.0854492 11.3578C0.0854492 5.20696 5.0717 0.220703 11.2226 0.220703C17.3734 0.220703 22.3597 5.20696 22.3597 11.3578C22.3597 17.5087 17.3734 22.4949 11.2226 22.4949C5.0717 22.4949 0.0854492 17.5087 0.0854492 11.3578Z" fill="white"/>
<path fill-rule="evenodd" clip-rule="evenodd" d="M15.8638 7.52835C16.375 7.66862 16.7776 8.0819 16.9142 8.60674C17.1624 9.55796 17.1624 11.5427 17.1624 11.5427C17.1624 11.5427 17.1624 13.5273 16.9142 14.4786C16.7776 15.0034 16.375 15.4167 15.8638 15.557C14.9375 15.8119 11.2226 15.8119 11.2226 15.8119C11.2226 15.8119 7.50776 15.8119 6.58136 15.557C6.0702 15.4167 5.66764 15.0034 5.53103 14.4786C5.28284 13.5273 5.28284 11.5427 5.28284 11.5427C5.28284 11.5427 5.28284 9.55796 5.53103 8.60674C5.66764 8.0819 6.0702 7.66862 6.58136 7.52835C7.50776 7.27344 11.2226 7.27344 11.2226 7.27344C11.2226 7.27344 14.9375 7.27344 15.8638 7.52835ZM10.1089 9.87206V13.5844L13.0788 11.7283L10.1089 9.87206Z" fill="white"/>
</svg>
