<svg version="1.1" id="Layer_1" xmlns="http://www.w3.org/2000/svg" xmlns:xlink="http://www.w3.org/1999/xlink" x="0px" y="0px"
	 width="100%" viewBox="0 0 832 848" enable-background="new 0 0 832 848" xml:space="preserve">
<path fill="#000000" opacity="1.000000" stroke="none" 
	d="
M833.000000,467.531342 
	C831.273987,477.142609 831.046509,486.459900 829.532776,495.651123 
	C823.463928,532.499390 813.025879,567.981384 797.710754,602.062317 
	C775.927734,650.536255 745.726196,693.073120 707.580811,729.953308 
	C663.563171,772.510925 612.666504,804.080627 554.683105,823.885071 
	C524.990540,834.026672 494.623871,841.437256 463.254791,844.366455 
	C413.238129,849.036682 363.813690,846.255981 315.107452,833.389404 
	C271.263763,821.807251 230.342361,803.797302 192.349152,778.914368 
	C149.319305,750.732727 112.851616,715.755188 82.831841,674.141602 
	C55.122890,635.731384 34.788254,593.711975 21.241547,548.171753 
	C7.732409,502.757782 2.737082,456.509674 4.958355,409.466309 
	C7.728796,350.792358 22.977055,295.320679 49.624886,242.902954 
	C69.512413,203.783142 94.857338,168.664673 125.879044,137.750946 
	C174.057281,89.740379 230.548904,55.279163 295.593658,34.945911 
	C330.283051,24.101862 365.687714,18.006964 402.024628,16.580658 
	C499.936340,12.737395 588.387939,40.126991 666.955994,98.121170 
	C727.193848,142.585083 771.860229,199.897934 801.345459,268.924927 
	C816.092041,303.447784 825.409363,339.410706 831.102478,376.398926 
	C831.910034,381.645935 832.158386,386.979004 832.832764,392.636108 
	C833.000000,417.687561 833.000000,442.375122 833.000000,467.531342 
M523.511719,801.859985 
	C577.404907,786.645813 625.598145,760.748230 668.206909,724.464233 
	C716.693909,683.174744 753.014893,632.993713 776.659668,573.892944 
	C799.962341,515.647156 808.474731,455.165558 801.943726,392.687897 
	C798.326721,358.086700 790.772644,324.445038 777.951721,291.982239 
	C748.281738,216.857544 699.714905,156.840317 633.040466,111.701218 
	C575.187744,72.534485 510.897644,51.381954 441.171967,47.406937 
	C393.661774,44.698402 346.974670,50.229012 301.736603,65.246902 
	C206.946518,96.714821 133.951096,155.615891 84.760216,242.499512 
	C38.072704,324.961548 24.497913,413.425171 42.435581,506.560852 
	C52.568722,559.174011 73.474121,607.296082 104.035439,651.184570 
	C134.521255,694.964661 172.590088,730.818970 217.990662,758.922791 
	C272.790131,792.844666 332.475067,811.523071 396.619263,815.607117 
	C439.333405,818.326782 481.442505,813.615906 523.511719,801.859985 
z"/>
<path fill="#000000" opacity="1.000000" stroke="none" 
	d="
M669.251343,172.730453 
	C712.877258,215.187820 743.746460,265.184784 762.176941,322.766571 
	C771.502991,351.903534 776.406067,381.911774 778.151978,412.464172 
	C780.562500,454.645813 775.468018,495.981018 763.219727,536.285767 
	C749.208069,582.393433 726.851746,624.195435 695.778137,661.206787 
	C658.934021,705.091370 614.463318,738.738403 561.847046,761.601379 
	C527.316956,776.605469 491.276031,785.525146 453.880066,789.316589 
	C396.581940,795.125854 341.038177,787.207764 287.715546,766.039246 
	C207.263458,734.100647 146.238403,679.497620 104.052101,604.005798 
	C82.185448,564.875732 69.170311,522.662231 63.013836,478.379425 
	C59.567127,453.587677 58.770775,428.587677 60.924099,403.620972 
	C65.121758,354.951324 77.784622,308.644562 100.652847,265.312927 
	C139.074814,192.509430 195.606033,138.776520 270.297089,104.100647 
	C306.170929,87.445946 343.902557,77.874763 383.121277,73.687950 
	C440.190521,67.595505 495.470154,75.328606 548.941467,95.749512 
	C594.186951,113.028938 634.149902,138.814285 669.251343,172.730453 
M573.403442,553.267334 
	C569.703003,554.893616 568.118835,551.376160 565.681946,550.018738 
	C562.462585,548.225586 562.427490,545.857666 564.661865,543.053833 
	C574.406555,530.825623 581.529175,517.093811 587.300537,502.649933 
	C588.722473,499.091248 590.732788,499.041077 593.491699,500.512787 
	C596.255859,501.987274 601.194397,501.825439 599.014893,507.288330 
	C597.472351,511.154510 595.888611,515.011780 594.119629,518.777405 
	C592.975342,521.213257 593.401001,522.851624 595.726501,524.182373 
	C599.773926,526.498413 603.821594,528.822205 607.769287,531.301819 
	C611.278198,533.505859 613.508301,532.651489 615.312256,529.019531 
	C618.649780,522.299805 621.781250,515.494873 624.371277,508.457520 
	C631.602661,488.809052 635.917542,468.503387 637.720215,447.665039 
	C638.291260,441.064148 636.904297,439.619781 630.328613,439.443207 
	C626.498413,439.340363 622.662781,439.456055 618.830933,439.390869 
	C615.820007,439.339661 614.253479,440.539734 614.007568,443.729706 
	C613.688293,447.871246 613.049316,451.991486 612.456665,456.107788 
	C611.589050,462.134155 607.211609,459.085388 604.235168,459.026245 
	C601.199951,458.965912 599.382080,457.506012 600.000977,453.838348 
	C601.303040,446.121063 601.832214,438.325775 601.767822,430.481476 
	C601.703613,422.656250 601.729675,414.838379 600.709106,407.056641 
	C600.026672,401.852814 603.974792,402.225830 607.205505,401.821960 
	C610.540466,401.405060 612.999756,401.807037 613.306702,406.169403 
	C613.668518,411.311218 614.470337,416.430450 614.300110,421.600342 
	C614.171875,425.497101 615.962219,426.978668 619.756409,426.803101 
	C623.580933,426.626068 627.420471,426.796021 631.253113,426.769196 
	C637.544250,426.725159 638.171143,426.226227 637.859375,419.861908 
	C636.975403,401.818298 633.740356,384.164703 628.570190,366.867462 
	C625.416931,356.318268 621.586609,346.020599 616.495422,336.235809 
	C613.179993,329.863831 612.787109,329.788879 606.797180,333.325592 
	C603.067688,335.527649 599.384583,337.810852 595.616272,339.943787 
	C593.443115,341.173828 593.041382,342.692169 594.055908,344.918365 
	C595.643311,348.401733 596.831055,352.086395 598.630310,355.449188 
	C600.855713,359.608704 599.260803,361.361694 595.321777,362.735382 
	C591.704102,363.996979 588.906189,365.757538 586.813416,360.271667 
	C581.810852,347.157776 575.141235,334.829803 566.784363,323.514191 
	C561.583191,316.471527 561.531921,316.720764 568.404175,311.705933 
	C571.532959,309.422760 573.218445,309.973633 575.118774,313.102448 
	C577.969421,317.795959 581.224121,322.242188 584.217896,326.851410 
	C585.773071,329.245636 587.518982,329.790558 590.053894,328.273438 
	C593.911438,325.964752 597.823975,323.735138 601.808899,321.655487 
	C605.885254,319.528168 606.057312,317.159424 603.603210,313.325287 
	C588.680603,290.011627 569.959167,270.287140 547.496155,254.243164 
	C537.314697,246.971146 539.055237,244.985748 531.698669,258.081146 
	C525.594971,268.946259 525.766052,269.042328 535.809021,276.324402 
	C542.327148,281.050629 542.357727,282.701599 536.420898,288.453003 
	C534.629578,290.188385 533.229919,290.321625 531.288574,288.729218 
	C519.090576,278.723663 505.575714,270.854645 491.059204,264.782410 
	C485.364380,262.400269 488.370514,259.205566 489.457947,255.939606 
	C490.732452,252.111786 492.729248,251.062256 496.576447,253.075821 
	C502.414032,256.131134 508.482117,258.745972 514.797607,261.710022 
	C518.081116,256.254425 520.987671,251.022568 524.298950,246.060822 
	C526.617615,242.586517 525.986572,240.600098 522.412048,238.615631 
	C511.590118,232.607513 500.286652,227.796402 488.499084,224.054993 
	C468.073029,217.571671 447.209839,213.678253 425.754028,213.009476 
	C421.747284,212.884583 419.893311,214.133698 420.157745,218.374039 
	C420.427032,222.691864 420.420258,227.041382 420.262634,231.367111 
	C420.118103,235.334167 421.506714,236.948242 425.729675,236.982391 
	C431.198456,237.026596 436.678589,237.777374 442.120453,238.482025 
	C448.486572,239.306366 445.010803,243.965424 445.171509,247.094528 
	C445.334656,250.270584 443.623810,251.541473 440.427429,251.138306 
	C424.805542,249.167786 409.158752,249.436752 393.610352,251.590302 
	C387.398285,252.450729 388.924591,247.916031 388.048676,245.077133 
	C387.062042,241.879395 387.988647,239.461853 391.784180,239.009506 
	C395.254700,238.595886 398.714935,238.010315 402.197571,237.807755 
	C406.023712,237.585220 407.998047,236.168381 407.746918,231.971817 
	C407.478668,227.488907 407.453949,222.958771 407.778046,218.482208 
	C408.105743,213.956177 406.057159,213.168213 402.111145,213.566177 
	C390.333923,214.753967 378.644958,216.408264 367.137146,219.218002 
	C350.569031,223.263306 334.636505,228.990479 319.470459,236.866913 
	C315.437103,238.961639 314.565155,241.133728 317.188873,245.033417 
	C320.065826,249.309555 322.593353,253.836029 325.049438,258.374481 
	C326.577942,261.198914 328.269714,261.629639 331.087341,260.139618 
	C335.940552,257.573090 341.028107,255.450195 345.885895,252.891632 
	C350.143738,250.649033 351.501648,253.267807 352.773010,256.476044 
	C353.984955,259.534271 356.092651,262.444824 351.162872,264.567688 
	C336.721558,270.786346 323.118378,278.485687 310.979645,288.583710 
	C306.571564,292.250702 305.292175,287.669281 303.246094,285.596222 
	C301.153809,283.476379 299.553375,281.034149 303.066467,278.562988 
	C306.472382,276.167206 309.761627,273.603546 313.198212,271.254181 
	C315.569244,269.633209 316.055267,267.885437 314.515594,265.382874 
	C311.810974,260.986725 309.319092,256.459930 306.627777,252.055328 
	C303.107208,246.293488 302.795929,246.241119 297.115845,250.097839 
	C277.240051,263.593323 259.976044,279.887360 245.302673,298.890991 
	C240.949692,304.528595 236.784302,310.341766 233.212646,317.533203 
	C239.601379,321.204285 245.799622,324.671936 251.895325,328.311279 
	C254.635880,329.947540 256.328491,329.413788 258.004608,326.729767 
	C260.914642,322.069855 264.270172,317.687653 267.168121,313.020874 
	C269.188354,309.767487 271.216858,309.535004 273.926056,312.029236 
	C275.024384,313.040405 276.301697,313.854858 277.472534,314.790131 
	C279.165253,316.142273 279.587189,317.662537 278.152863,319.516296 
	C268.185516,332.398407 260.678284,346.658234 254.654938,361.733093 
	C253.634644,364.286591 252.090363,365.009888 249.582642,363.901398 
	C248.214005,363.296417 246.802673,362.772339 245.377899,362.313263 
	C242.338806,361.334076 241.541367,359.529144 242.900223,356.584930 
	C244.504913,353.108154 245.789276,349.479645 247.471542,346.043732 
	C248.975510,342.971924 248.813538,340.938934 245.397308,339.233368 
	C240.935242,337.005615 236.750153,334.228027 232.409927,331.750061 
	C226.458160,328.352051 226.220566,328.388184 223.179138,334.588745 
	C209.575562,362.322510 202.175583,391.666016 200.449081,422.480042 
	C200.284485,425.417938 201.353317,426.818451 204.410522,426.778625 
	C210.575272,426.698303 216.745743,426.628296 222.906265,426.810638 
	C226.686722,426.922516 227.921051,425.245514 227.746628,421.699036 
	C227.484222,416.363464 228.324142,411.075378 228.668732,405.766479 
	C228.969650,401.130341 231.617096,401.196869 234.801361,401.777771 
	C237.756760,402.316956 242.060944,401.043793 241.456665,406.695618 
	C240.908676,411.820892 240.529419,416.976562 240.365265,422.128052 
	C240.030777,432.625793 240.401276,443.106232 242.129257,453.489471 
	C242.801224,457.527252 240.771988,458.916809 237.203049,459.169373 
	C233.897461,459.403290 229.950974,461.252686 229.431717,455.459167 
	C229.075592,451.485657 228.164474,447.552551 227.958588,443.577698 
	C227.787338,440.271820 226.321976,439.297058 223.252792,439.376160 
	C217.923874,439.513489 212.588455,439.384094 207.255859,439.397339 
	C201.076492,439.412689 200.870255,439.566528 201.179047,445.970215 
	C201.871765,460.335419 204.406067,474.411835 208.205948,488.258362 
	C212.269745,503.066559 217.533112,517.421265 224.555923,531.118164 
	C226.203217,534.330933 227.759827,535.210083 231.058685,533.058533 
	C235.935226,529.878052 241.083710,527.107666 246.171387,524.260864 
	C248.494232,522.961121 249.073517,521.383850 247.932327,518.922180 
	C246.182098,515.146851 244.577301,511.300476 243.030212,507.436432 
	C242.496338,506.102966 241.440918,504.394135 242.783218,503.227051 
	C245.341141,501.003021 248.631866,499.765045 251.892426,499.592926 
	C254.430008,499.458954 254.785965,502.484253 255.552109,504.398987 
	C260.778259,517.459778 267.493958,529.678223 275.765839,541.062012 
	C280.279388,547.273560 280.099030,547.195923 274.001465,551.838623 
	C270.861084,554.229675 268.924988,553.952637 266.877258,550.563049 
	C264.123627,546.004761 260.886261,541.740295 258.088470,537.206604 
	C256.287109,534.287598 254.415176,533.910706 251.535400,535.699524 
	C247.151337,538.422791 242.638718,540.951355 238.089386,543.392395 
	C234.522583,545.306274 233.984848,547.418884 236.260941,550.950012 
	C244.882401,564.325439 255.006760,576.435181 266.338501,587.557922 
	C276.353363,597.388123 287.166779,606.230530 298.974213,613.859009 
	C302.340607,616.034058 304.682648,615.794678 306.675568,612.151978 
	C309.153625,607.622620 311.728821,603.137634 314.471649,598.765015 
	C316.220581,595.976807 315.396179,594.215942 312.957306,592.519531 
	C309.539062,590.141907 306.308716,587.489441 302.847717,585.179688 
	C300.448334,583.578491 300.272552,581.948547 302.013245,579.862244 
	C303.186707,578.455872 304.400116,577.081909 305.544159,575.652222 
	C307.094360,573.714905 308.681091,573.540344 310.642822,575.159851 
	C323.075073,585.423279 337.042511,593.147583 351.706146,599.662659 
	C357.006042,602.017395 353.398468,605.097168 352.559052,607.866333 
	C351.664093,610.818726 350.212433,613.098267 346.434052,611.184998 
	C341.383057,608.627197 336.183899,606.357300 331.174530,603.723816 
	C328.407593,602.269226 326.620270,602.525818 325.083008,605.388000 
	C322.798553,609.641418 320.325806,613.796204 317.853607,617.945557 
	C314.897308,622.907471 315.029419,623.699097 320.036957,626.236572 
	C344.377258,638.570984 370.174561,645.999329 397.283295,648.820740 
	C407.519318,649.886169 407.714386,649.534424 407.689270,639.427002 
	C407.657867,626.784424 407.657867,626.784424 395.233917,624.695496 
	C387.013336,623.313293 387.238037,623.350830 388.581024,615.312073 
	C389.645447,608.940430 394.173767,611.695923 397.113800,612.073608 
	C411.406982,613.909302 425.665222,614.206177 439.929169,612.169983 
	C443.397797,611.674805 445.147125,612.826233 445.133789,616.233643 
	C445.120728,619.568237 448.217224,624.351379 441.562744,624.966003 
	C436.589996,625.425171 431.596436,626.162659 426.629852,626.042786 
	C421.665985,625.922974 420.083252,628.142517 420.205261,632.624451 
	C420.295929,635.954041 420.160126,639.289307 420.148743,642.622131 
	C420.124725,649.649231 420.507263,650.100403 427.422211,649.921326 
	C447.382477,649.404541 466.778351,645.568237 485.802856,639.711914 
	C498.407227,635.831909 510.590729,630.936707 522.166931,624.537476 
	C525.601746,622.638794 526.185120,620.710632 524.040771,617.442749 
	C521.484863,613.547607 519.192627,609.473083 516.912598,605.405457 
	C515.403931,602.713806 513.739624,602.119690 510.851837,603.676636 
	C506.021545,606.280884 500.885223,608.314270 496.029663,610.875977 
	C492.561859,612.705444 490.752869,611.599304 489.717224,608.206116 
	C488.766510,605.091064 485.120026,601.987549 490.981079,599.374817 
	C505.316864,592.984009 519.040466,585.447449 531.165222,575.319275 
	C533.305481,573.531433 534.988831,573.724609 536.610352,575.923401 
	C537.598083,577.262878 538.594238,578.616394 539.745117,579.810913 
	C542.004211,582.155701 541.245850,583.749756 538.824707,585.389587 
	C535.516479,587.630188 532.390991,590.138672 529.140259,592.466675 
	C526.753357,594.176086 525.954773,596.071472 527.627380,598.816589 
	C530.226746,603.082458 532.703247,607.426453 535.116394,611.801086 
	C536.722412,614.712585 538.586731,614.777954 541.197876,613.038818 
	C566.524231,596.170044 587.282410,574.862366 603.695190,549.249939 
	C605.745239,546.050781 605.131531,544.167480 602.031372,542.458191 
	C597.948059,540.206787 593.917175,537.858459 589.899475,535.491150 
	C587.674072,534.179871 585.812256,534.267761 584.351379,536.581726 
	C580.889465,542.065186 577.433838,547.552551 574.002014,553.006714 
	C574.002014,553.006714 574.032349,552.978882 573.403442,553.267334 
M122.778679,508.032654 
	C123.952415,506.459106 124.721512,504.343262 127.041451,504.139648 
	C132.292786,503.678680 137.009308,501.868256 141.487045,499.124054 
	C143.961868,497.607269 146.886139,497.635315 149.754532,497.720703 
	C154.570755,497.864075 159.684982,498.981873 164.146637,497.761810 
	C173.420410,495.225769 182.479553,491.762482 190.797546,486.674866 
	C193.351578,485.112732 194.087860,483.130310 193.475433,480.385864 
	C190.896927,468.831055 189.170792,457.152344 188.563156,445.325317 
	C188.355286,441.279724 186.603775,439.363251 182.355331,439.371735 
	C151.027557,439.434265 119.699471,439.407684 88.371674,439.329102 
	C85.099388,439.320923 83.820992,440.652710 84.060417,443.825043 
	C84.436333,448.805847 84.653435,453.799103 85.061378,458.776947 
	C88.809311,504.511108 101.250565,547.702087 122.703072,588.315979 
	C124.990509,592.646545 126.940887,593.219177 131.103622,590.784241 
	C157.849365,575.139954 184.672501,559.626099 211.591873,544.282898 
	C215.350266,542.140747 215.514999,540.126282 213.643295,536.768982 
	C208.357941,527.288757 204.267563,517.267761 200.590759,507.070557 
	C200.265823,506.169373 199.997406,505.118469 198.800949,504.876648 
	C196.960938,505.255066 196.425613,508.680725 194.499908,507.615356 
	C189.520462,504.860504 184.563110,508.165100 179.816132,507.174042 
	C172.236298,505.591583 165.882141,507.964935 159.665146,511.768921 
	C158.118820,512.715088 156.312088,513.229492 154.643753,513.983704 
	C151.596848,515.361145 148.467636,517.142944 145.093597,515.971130 
	C140.262970,514.293579 136.919067,516.448059 133.249100,519.115967 
	C127.298264,523.441956 123.749413,529.787781 118.992195,535.100952 
	C116.013252,538.427917 113.881226,537.989624 111.463989,534.748352 
	C110.100731,532.920410 109.158104,530.793091 106.748016,529.773010 
	C101.753632,527.659058 100.008362,523.899170 102.267265,519.265198 
	C103.502060,516.732117 103.803009,514.279663 104.039612,511.632019 
	C104.900490,501.998291 106.004456,501.525604 114.443649,506.082916 
	C116.834816,507.374237 118.849335,510.593048 122.778679,508.032654 
M463.971710,98.585144 
	C451.580048,97.002243 439.156097,95.917709 426.648438,95.872314 
	C420.163788,95.848785 420.168060,95.745781 420.178558,102.479721 
	C420.195435,113.304840 420.208862,124.129959 420.219574,134.955078 
	C420.238495,154.107239 420.252502,173.259384 420.272461,192.411545 
	C420.280365,200.026962 420.788422,200.492157 428.549622,200.649048 
	C432.708557,200.733109 436.885254,200.747986 441.018707,201.153473 
	C471.846649,204.177704 501.136536,212.405289 528.307678,227.507523 
	C532.108337,229.619995 533.997620,228.879105 536.125244,225.159241 
	C551.334106,198.568497 566.773926,172.109894 582.077637,145.573181 
	C585.505798,139.628723 585.472656,139.413330 579.506409,136.186401 
	C543.565918,116.747414 505.404694,104.070045 463.971710,98.585144 
M124.005768,372.107544 
	C122.994843,366.861633 118.911537,362.591278 119.168045,356.921326 
	C119.182213,356.608154 118.533943,356.074097 118.109535,355.961670 
	C114.024117,354.879150 110.685440,351.513000 106.003067,352.185303 
	C103.296562,352.573914 100.961662,351.558716 99.869377,348.925568 
	C98.961823,346.737762 99.426407,344.604706 101.460922,343.139923 
	C103.828377,341.435364 106.374260,341.665161 108.322609,343.589661 
	C111.103935,346.336914 114.916985,345.577515 118.017105,346.999390 
	C123.123627,349.341553 124.063438,344.469391 126.587196,342.309540 
	C127.217003,341.770569 127.862511,341.001343 128.595795,340.870605 
	C135.353760,339.665405 136.436249,334.139740 138.056458,328.880585 
	C138.939621,326.013824 139.160995,323.985992 135.782318,322.433502 
	C132.541626,320.944336 131.855896,317.999878 133.884857,314.896515 
	C135.399628,312.579651 147.782608,311.258423 149.062775,313.547058 
	C151.076538,317.147125 153.753540,317.232086 157.016403,316.420929 
	C160.168625,315.637299 164.168365,316.797333 166.293427,313.671844 
	C169.205444,309.388885 171.602173,309.340424 174.580933,313.419281 
	C175.438782,314.593933 176.923172,315.288757 177.956299,316.361481 
	C183.065552,321.666656 183.599747,329.182220 179.523254,335.144592 
	C175.169525,341.512390 168.314209,341.648285 161.744324,342.361389 
	C160.037216,342.546661 159.126099,340.843842 159.043793,339.279877 
	C158.675812,332.287872 152.567596,330.369110 148.303345,326.046356 
	C145.100906,332.003571 144.190796,337.967590 142.254883,343.560364 
	C141.454849,345.871613 140.720703,347.989868 137.547165,347.611664 
	C135.785629,347.401733 133.973679,348.019684 133.783203,350.016754 
	C133.607651,351.857452 135.439819,352.273224 136.857559,352.727753 
	C145.739746,355.575623 154.519592,358.838135 163.549927,361.097748 
	C170.516907,362.841095 178.744720,364.064636 183.743439,357.947418 
	C188.410202,352.236389 193.610794,351.058289 199.977219,351.208466 
	C202.005890,351.256317 202.414566,349.863739 203.037369,348.506775 
	C206.511032,340.938507 209.921066,333.339661 213.511627,325.827148 
	C214.804749,323.121521 214.710602,321.376862 211.828598,319.724976 
	C184.510559,304.066864 157.216278,288.366180 130.020309,272.497589 
	C126.077332,270.196899 124.338203,271.121857 122.426247,274.920685 
	C113.201477,293.249207 104.813675,311.901672 98.938293,331.614594 
	C90.241074,360.795319 84.826378,390.514801 84.016624,421.010498 
	C83.930374,424.258911 83.970047,426.882782 88.537651,426.864716 
	C120.201134,426.739410 151.865326,426.754761 183.529129,426.812622 
	C186.707306,426.818420 187.977417,425.603180 188.163528,422.464691 
	C188.528030,416.318176 189.087891,410.179626 189.728195,404.054596 
	C190.059448,400.885864 188.868423,399.406891 185.852249,398.165924 
	C180.504105,395.965515 177.069092,391.996368 175.597839,385.988678 
	C173.972046,379.349884 170.158081,373.542480 163.810410,370.615784 
	C153.816696,366.008087 142.990097,363.686798 132.470749,360.543488 
	C131.933853,360.383057 131.237030,360.757812 130.781433,360.849731 
	C130.085785,362.131775 130.287445,363.216461 131.190186,363.758667 
	C135.242203,366.192535 134.176514,369.448975 132.964691,372.903198 
	C131.643234,376.669952 130.428955,380.483154 129.388733,384.335693 
	C128.917847,386.079681 128.731003,388.806244 131.208618,388.613647 
	C135.908783,388.248260 141.408569,389.906372 144.776489,384.663727 
	C145.737762,383.167389 147.379883,381.740143 148.894852,383.112091 
	C153.870880,387.618378 159.766556,391.598755 159.321350,399.676849 
	C158.800659,409.124481 147.758942,417.163727 138.721146,414.482208 
	C137.478485,414.113525 136.391830,413.233337 136.433685,412.102539 
	C136.681625,405.403503 130.689575,403.324615 127.224472,399.398285 
	C126.204170,398.242218 124.897797,398.144073 123.218079,398.194763 
	C118.436256,398.338989 114.598373,395.414612 111.366310,392.486816 
	C108.710976,390.081390 111.556030,384.852356 115.545609,385.226746 
	C120.067795,385.651123 120.865402,383.192291 121.708138,379.994293 
	C122.343719,377.582397 123.114395,375.206116 124.005768,372.107544 
M172.087158,204.587143 
	C159.656372,218.526123 147.936981,233.000916 137.896255,248.803497 
	C131.813354,258.377075 131.604477,258.350189 141.130981,264.216034 
	C148.695389,268.873779 156.198090,273.674713 164.563583,277.077850 
	C162.156754,274.386353 163.458939,270.608795 161.127548,267.808655 
	C157.626373,263.603516 157.790146,258.317474 159.787445,253.596909 
	C161.005127,250.718964 161.467606,248.098587 161.481094,245.058472 
	C161.506958,239.227890 164.334534,235.304626 168.499176,234.379425 
	C169.359985,232.600143 167.389343,230.879242 168.396286,229.094131 
	C171.973633,229.781052 172.874268,230.632080 173.265305,233.965927 
	C173.827469,238.758698 172.783707,243.225189 170.390945,247.408737 
	C169.586945,248.814484 168.404266,250.185318 169.546906,251.999405 
	C171.671097,255.371796 171.963959,259.145325 172.138702,263.018372 
	C172.319443,267.024658 175.744659,268.830475 178.530304,270.682281 
	C181.369781,272.569916 183.711777,270.775208 185.944992,268.657196 
	C189.834503,264.968323 191.476181,260.087341 193.162003,255.334549 
	C193.973129,253.047821 195.260178,250.411713 194.070908,247.523834 
	C186.045395,247.498505 184.993942,257.669495 176.580338,259.265900 
	C182.153183,248.090286 190.952621,241.320496 198.664810,233.605255 
	C190.166260,233.973572 187.558380,242.341690 181.635773,246.238464 
	C179.841812,243.020584 180.414841,241.131256 182.317978,239.209656 
	C188.563263,232.903763 195.187073,227.156219 203.598801,223.903656 
	C205.917892,223.006927 206.205566,221.691071 204.867538,219.507751 
	C196.801178,220.626251 192.560562,230.601395 182.247314,229.550034 
	C184.512146,227.729172 183.155014,225.196808 185.063736,224.745529 
	C193.538025,222.741943 199.165054,215.227539 207.667999,213.286194 
	C209.779465,212.804108 212.324554,212.117020 211.865295,208.824966 
	C209.811279,208.183228 207.670456,206.917847 206.026093,208.411072 
	C202.134384,211.945038 196.917099,213.293198 193.025528,216.726395 
	C191.733887,217.865921 190.501144,219.330978 188.935242,217.338638 
	C187.126755,215.037643 189.320740,213.977127 190.746445,213.118317 
	C193.874313,211.234177 197.336243,209.928802 200.150192,207.488205 
	C204.435501,203.771561 209.874146,203.489761 215.098801,202.795654 
	C219.025482,202.273972 219.399292,206.959152 222.034866,208.340561 
	C224.214264,207.497772 225.542267,206.154327 226.264343,204.134567 
	C225.359161,202.216217 223.886368,201.133408 222.010605,200.176544 
	C217.959091,198.109833 213.782104,191.508209 215.074768,188.701080 
	C216.473709,185.663147 215.871078,182.986038 215.379669,180.042572 
	C214.055588,172.111771 221.026428,165.217590 228.502640,167.147339 
	C227.755753,169.723724 230.276718,172.721634 227.672440,175.012375 
	C225.089920,177.283981 224.741943,180.320358 223.750870,183.300323 
	C222.216766,187.913132 223.803131,191.350571 226.686386,194.509445 
	C229.861298,197.987854 233.623840,198.872345 238.242523,195.665375 
	C238.276596,199.687027 240.243668,200.201004 242.623627,198.856583 
	C245.315155,200.850830 242.042328,204.025757 244.520844,205.487686 
	C247.754883,207.395279 251.500153,209.995819 255.057388,207.388504 
	C257.833984,205.353378 258.659302,200.895828 257.466858,198.040482 
	C255.589600,193.545181 256.931000,190.469101 259.366699,187.173859 
	C267.130280,189.508911 270.343994,197.849426 266.094116,204.607269 
	C265.212738,206.008743 264.012878,207.243454 263.318207,208.723282 
	C259.402008,217.065811 256.071503,219.117554 247.868164,215.551147 
	C241.824570,212.923691 240.224670,215.994156 238.120590,220.459152 
	C242.394043,221.597900 245.621613,222.890610 247.972382,227.569534 
	C251.581558,234.753174 250.255295,242.283051 251.990616,249.476639 
	C252.339401,250.922485 252.698898,253.203766 250.232941,253.361923 
	C247.571289,253.532639 247.808762,251.439285 247.717957,249.514481 
	C247.483368,244.541183 247.264282,239.546387 246.587189,234.622299 
	C246.166412,231.562286 244.033112,228.667999 240.859543,229.106949 
	C237.087067,229.628723 238.863052,233.001068 239.360153,235.228256 
	C239.939865,237.825653 240.943680,240.388000 240.613785,243.058792 
	C239.824341,249.450226 240.089951,255.669708 242.925064,261.289520 
	C242.403488,262.768311 241.279022,261.737183 240.714737,262.316284 
	C240.160233,262.885315 240.642242,264.620941 238.452164,263.691498 
	C234.704025,256.047211 239.719925,246.548172 234.950302,238.766724 
	C232.746841,239.175888 231.302750,239.891663 229.845261,241.337814 
	C232.313446,244.918411 231.351166,248.808060 230.631470,252.731766 
	C229.542648,258.667755 227.487061,264.244995 225.094574,269.769684 
	C223.780609,272.803925 221.911453,273.453583 218.443130,272.919861 
	C220.151642,265.794769 226.848358,260.198822 224.227188,252.167526 
	C222.414932,252.832062 221.595154,254.011673 221.505981,255.328903 
	C221.089172,261.486786 218.799835,266.900574 215.434586,271.974274 
	C214.813828,272.910156 214.255249,274.192383 214.356949,275.248413 
	C214.751892,279.349487 211.965240,279.989990 208.155746,281.013489 
	C208.389679,272.864685 216.623764,267.170105 213.671127,258.225983 
	C210.021301,263.010559 203.911102,263.616150 200.587646,269.265503 
	C198.274811,273.196930 192.840134,275.423828 189.470001,279.240112 
	C188.622971,280.199249 186.988937,279.946625 185.699173,280.217743 
	C180.544830,281.301147 175.467926,282.261322 170.548050,279.356323 
	C170.356750,279.243347 169.810425,279.731598 169.322418,279.998199 
	C169.781281,280.525055 170.029449,281.008057 170.424698,281.235229 
	C186.448883,290.444824 202.502075,299.604126 218.508377,308.844666 
	C221.590271,310.623810 223.034729,308.912109 224.512512,306.613983 
	C242.246201,279.035614 264.883240,256.280304 292.180939,238.172852 
	C295.671906,235.857193 296.261047,233.764664 294.070190,230.022827 
	C279.596283,205.302689 265.345581,180.451965 250.959946,155.679932 
	C248.985840,152.280548 247.599396,148.453308 244.174194,145.377350 
	C217.199738,161.261993 193.869049,181.414902 172.087158,204.587143 
M557.734924,213.193176 
	C554.196045,219.412415 550.762634,225.695053 547.076172,231.825516 
	C545.075562,235.152313 545.363098,237.259705 548.791565,239.581482 
	C575.318542,257.545685 597.299377,280.036804 614.631714,306.974701 
	C617.276855,311.085785 619.691162,311.330719 623.579285,309.023193 
	C634.169739,302.737946 644.908813,296.703644 655.569885,290.536713 
	C671.417236,281.369751 687.204102,272.096863 703.119812,263.050293 
	C706.696228,261.017456 707.464905,258.839081 705.210999,255.476578 
	C704.377808,254.233627 703.675659,252.903778 702.872131,251.639954 
	C677.789307,212.186325 645.868286,179.359924 607.163574,153.161819 
	C603.809143,150.891281 600.696228,148.002716 596.039795,146.827423 
	C583.369934,168.794022 570.745605,190.681671 557.734924,213.193176 
M740.702576,529.316162 
	C748.620361,502.393707 753.402039,474.927185 754.776001,446.896027 
	C755.128845,439.696198 754.659241,439.402405 747.220581,439.374756 
	C738.060608,439.340729 728.900269,439.385010 719.740112,439.386200 
	C699.587708,439.388855 679.435364,439.367859 659.282959,439.393982 
	C651.606445,439.403931 650.754639,440.425232 650.234192,447.857117 
	C649.362122,460.308350 647.461609,472.622894 644.703735,484.802490 
	C640.672363,502.605988 634.138489,519.496521 625.861694,535.711548 
	C624.106201,539.150635 624.428589,541.236267 627.955811,542.824768 
	C629.160400,543.367310 630.223145,544.217590 631.375916,544.883606 
	C657.034790,559.708191 682.697632,574.526123 708.358704,589.346924 
	C713.684998,592.423157 714.074280,592.348267 716.993591,586.763733 
	C726.504578,568.569824 734.253784,549.640686 740.702576,529.316162 
M554.735779,645.802612 
	C568.371582,669.362549 582.007385,692.922546 595.852295,716.843750 
	C610.052551,708.100037 623.038818,699.382263 635.204834,687.789612 
	C629.383301,686.161865 624.560791,685.051147 619.906067,683.452148 
	C613.980225,681.416443 608.196899,678.994629 607.620117,671.380066 
	C607.467712,669.367981 606.059692,669.059387 604.386963,669.233887 
	C602.032715,669.479492 600.489319,670.963318 599.117249,672.694458 
	C595.217957,677.613892 593.562439,677.485962 589.960266,672.203674 
	C587.338196,668.358582 587.239868,664.382812 589.235413,660.377197 
	C590.481812,657.875183 590.491516,656.084412 587.777344,654.631165 
	C586.517334,653.956482 584.803345,652.981934 585.305420,651.263184 
	C586.631348,646.723999 584.934204,643.066956 582.529419,639.468323 
	C580.414307,636.303162 580.697144,633.263611 583.071777,630.273376 
	C585.822266,626.809814 589.320374,624.174377 593.076111,622.105103 
	C597.242859,619.809387 597.225525,617.474915 594.427795,614.263977 
	C593.558167,613.265869 592.824768,612.129150 592.148926,610.985046 
	C586.407837,601.266418 590.755249,585.763245 600.676697,580.492981 
	C610.063965,575.506470 621.958130,577.443420 628.964355,585.476868 
	C631.569458,588.463928 634.005310,590.720947 638.281921,591.227600 
	C642.500183,591.727356 646.480591,594.084106 647.770630,598.428345 
	C649.213196,603.285767 651.153809,606.375793 656.904053,605.773987 
	C659.123657,605.541687 660.832153,607.483398 661.809937,609.529480 
	C663.031311,612.085144 660.676025,613.023376 659.353271,614.353516 
	C657.799377,615.916138 656.729919,617.753967 655.735962,619.699036 
	C653.760193,623.565430 654.243347,626.275574 658.812317,627.628113 
	C662.263916,628.649841 665.061218,630.754150 667.191223,633.655823 
	C670.509644,638.176270 671.010254,643.855591 668.252014,647.372009 
	C663.945068,642.121460 658.942566,638.359131 651.346069,639.760864 
	C652.793030,642.932617 652.793030,642.932617 654.035645,643.652405 
	C658.872681,646.453857 659.172913,647.673706 656.396118,652.739624 
	C655.794006,653.838135 654.274231,654.888062 655.315430,656.285522 
	C657.920654,659.782288 655.366882,661.496338 652.993408,663.057312 
	C650.224792,664.878174 647.539185,666.774719 644.892273,668.774780 
	C640.819580,671.852173 636.106689,673.402771 630.896423,673.323425 
	C629.339844,673.299622 627.568359,672.687866 626.050171,674.296631 
	C626.831238,680.452576 631.972656,682.094177 636.523071,684.371887 
	C640.239990,686.232361 641.662903,682.762268 643.509583,681.110840 
	C667.496948,659.660339 687.984741,635.256836 704.917297,607.866150 
	C707.031982,604.445435 706.102234,602.565857 702.910889,600.731262 
	C675.914429,585.210999 648.937073,569.656921 622.022278,553.995605 
	C618.470642,551.929016 616.559387,552.723083 614.362793,556.013428 
	C607.060547,566.951416 599.418823,577.641296 590.391541,587.290100 
	C577.475098,601.095764 563.226562,613.329895 547.624695,623.965393 
	C544.557556,626.056152 544.269958,627.860352 546.157837,630.873413 
	C549.072815,635.525879 551.641907,640.395020 554.735779,645.802612 
M257.646698,141.220673 
	C273.498291,168.786636 289.386475,196.331726 305.154205,223.945557 
	C307.082550,227.322647 308.936523,228.425461 312.671906,226.385712 
	C340.281799,211.308899 370.042389,203.494873 401.236298,200.937943 
	C406.488281,200.507462 407.819061,198.516449 407.786011,193.501740 
	C407.588440,163.520920 407.701752,133.538055 407.714172,103.555885 
	C407.717346,95.940155 407.723022,95.939667 399.882721,96.179230 
	C399.216797,96.199577 398.549683,96.211288 397.885834,96.262329 
	C366.883240,98.645767 336.525299,104.226723 307.245056,114.914627 
	C291.437012,120.684891 275.961914,127.272118 261.174011,135.350433 
	C259.261963,136.394958 255.925705,136.930588 257.646698,141.220673 
M384.954956,765.605896 
	C390.100433,766.009460 395.240204,766.522888 400.392761,766.790161 
	C407.624573,767.165344 407.740509,766.978882 407.737274,759.911865 
	C407.723846,730.415527 407.709412,700.919250 407.702423,671.422913 
	C407.700378,662.780457 407.199066,662.177124 398.584137,661.479736 
	C368.823944,659.070374 340.637268,651.127930 314.238129,637.166382 
	C309.882751,634.863037 307.679901,635.364319 305.194336,639.725708 
	C292.823242,661.432617 280.116364,682.947815 267.611755,704.579163 
	C263.810272,711.155273 260.277100,717.886536 256.380585,724.984741 
	C272.412933,733.662598 288.241028,740.998596 305.363922,746.379822 
	C298.937042,735.914185 294.080109,725.522217 299.717621,713.044495 
	C294.890747,714.152588 293.539001,712.658447 294.201874,708.195862 
	C294.854218,703.803772 295.222168,699.578979 294.554718,694.987427 
	C293.858307,690.196838 295.821503,685.476929 300.166077,681.960815 
	C303.002655,679.665161 306.975037,680.725464 309.480408,678.190674 
	C302.729584,663.694702 303.527618,656.103882 312.390808,651.132141 
	C314.247070,654.695374 311.320770,657.401672 310.813690,660.453918 
	C310.200378,664.145386 311.458923,667.044128 314.255859,669.945557 
	C316.172638,652.852417 321.159821,645.591736 327.801483,649.737061 
	C327.801971,651.173767 326.510590,651.493347 325.681549,652.253296 
	C321.905975,655.714233 319.390320,662.117981 321.585907,663.932373 
	C326.410919,667.919800 331.723694,671.887695 338.281586,671.787292 
	C342.719696,671.719421 346.481903,672.373901 349.914948,675.094360 
	C353.806366,678.177979 358.016876,680.274719 363.218292,679.702576 
	C365.782837,679.420471 367.410126,681.066711 369.154297,682.778625 
	C376.382690,689.872986 388.496979,688.063049 392.526642,679.355652 
	C393.159912,677.987122 393.278229,676.067078 395.355194,676.861633 
	C397.511597,677.686646 398.333771,679.702881 397.475342,681.802307 
	C395.500549,686.631897 394.092499,692.049133 387.640625,693.072876 
	C386.388306,693.271606 384.962677,693.651001 384.764130,695.772827 
	C386.194153,697.047852 387.760986,698.508362 389.398590,699.884644 
	C390.692413,700.972107 391.415253,703.380310 393.778717,702.250671 
	C395.749329,701.308777 396.395691,699.384949 396.776672,697.336792 
	C397.122498,695.477600 396.195465,693.249695 398.569977,691.595459 
	C401.224213,692.497314 401.913757,694.720093 402.162048,697.301941 
	C402.823578,704.180725 398.457306,707.803528 393.088470,710.752014 
	C398.595184,716.095154 399.319550,722.219177 397.111816,728.850159 
	C396.488861,730.721191 395.783691,733.131653 391.995453,732.034912 
	C394.387451,724.540161 393.541992,718.067200 385.868561,713.577759 
	C384.944580,716.124451 386.260345,717.340088 386.437164,718.771118 
	C387.391632,726.493958 389.070038,734.317444 384.439240,741.519897 
	C383.030304,743.711243 381.345398,745.827026 377.702881,743.926331 
	C382.411713,738.592285 382.622925,732.322998 382.307983,726.039062 
	C382.196869,723.822205 381.615784,720.751160 378.374451,721.484619 
	C375.669525,722.096802 373.870728,724.120178 374.671082,727.500610 
	C375.278870,730.067688 376.011902,732.803345 374.919830,735.359436 
	C370.537231,745.617249 366.827698,756.491699 352.845734,760.026978 
	C364.034149,763.113525 374.072418,764.134521 384.954956,765.605896 
M684.992065,380.451813 
	C690.432129,382.088196 694.607483,385.535217 698.522034,389.517334 
	C704.205566,395.298950 708.281067,394.712677 712.225769,387.835175 
	C716.178528,380.943848 724.190002,376.924805 730.935364,378.501953 
	C730.978943,378.964050 731.224426,379.546844 731.041077,379.917358 
	C725.852600,390.400696 728.538330,399.575165 735.500793,408.169586 
	C738.307251,411.633972 735.521606,412.763763 732.824829,412.787109 
	C727.582092,412.832550 722.643372,411.428650 718.389038,408.118073 
	C714.177246,404.840637 709.473999,403.338745 704.366760,405.488586 
	C694.453796,409.661346 684.626099,409.577179 674.737305,405.584137 
	C672.168640,404.546875 670.142151,404.823486 669.440002,407.915161 
	C668.420349,412.404877 666.043823,411.900848 662.891357,409.987854 
	C658.988159,407.619293 655.293884,404.763184 651.018677,403.486298 
	C649.024109,405.350128 649.458496,407.207123 649.600281,409.016998 
	C649.859863,412.331451 650.211731,415.644135 650.315613,418.964142 
	C650.532654,425.903015 651.276550,426.763947 658.162048,426.774506 
	C688.320862,426.820770 718.480225,426.749573 748.638062,426.935974 
	C753.315369,426.964844 755.116272,425.714539 754.946533,420.763489 
	C754.237183,400.076324 751.580261,379.658356 747.232056,359.445374 
	C745.213074,350.059937 743.102356,340.692078 739.801697,331.127838 
	C736.758362,337.646423 736.659546,339.076965 738.532166,345.979553 
	C741.830017,358.135468 734.636230,373.273682 723.746399,377.093842 
	C718.190125,379.042969 711.527893,376.966492 707.612000,372.065155 
	C705.208618,369.056976 705.309998,362.520508 707.824463,358.367371 
	C709.818970,355.072998 708.851685,351.808838 704.852234,350.483765 
	C698.237671,348.292358 692.475281,345.016754 687.434326,340.134888 
	C684.086487,336.892792 678.716675,337.014832 676.819153,340.301208 
	C674.681885,344.002899 672.002747,347.298523 669.249573,351.012939 
	C672.161560,352.479645 674.770630,353.528168 677.096130,355.019073 
	C682.349548,358.387177 684.192871,365.887573 681.112305,370.539764 
	C677.701965,375.689880 678.348022,377.651978 684.992065,380.451813 
M259.905945,621.469421 
	C256.226746,628.217773 252.544281,634.894409 245.433823,638.882385 
	C243.574066,639.925476 241.947678,642.300842 244.942581,643.990845 
	C249.072922,646.321533 247.082718,648.234314 244.703079,649.842346 
	C240.597992,652.616333 237.126755,655.327759 242.126221,660.314026 
	C241.083099,661.131897 240.506210,661.756042 239.795212,662.113403 
	C235.779724,664.131287 229.327637,661.458679 227.829010,668.348206 
	C227.811768,668.427551 227.530258,668.459656 227.368103,668.495911 
	C223.863464,669.279175 220.474701,670.072388 217.440979,672.381531 
	C214.907181,674.310059 211.754303,674.793457 209.348694,671.972168 
	C207.636230,672.846985 208.941986,675.360474 206.747086,675.503601 
	C204.339951,675.079407 203.702942,672.572937 201.821350,671.284790 
	C199.341843,673.075439 196.176193,673.607666 193.627289,676.147766 
	C190.370682,671.901001 188.142365,666.642761 181.734940,666.776611 
	C181.885956,669.242554 183.669174,670.158752 184.912048,671.377075 
	C201.622406,687.757324 219.808090,702.289917 239.565002,714.843323 
	C245.223557,718.438721 245.228409,718.443420 248.543686,712.701721 
	C258.288757,695.824341 268.029785,678.944580 277.770599,662.064697 
	C283.514709,652.110596 289.282166,642.169739 294.974915,632.186279 
	C296.109283,630.196960 297.491455,628.138733 294.603180,626.165100 
	C286.925690,620.918945 279.928833,613.579590 269.203094,619.298096 
	C267.746429,620.074829 265.612671,619.747681 263.807373,619.651489 
	C262.389832,619.575989 261.148956,619.528015 259.905945,621.469421 
M686.564636,323.803284 
	C695.129517,320.696594 703.621643,321.762726 711.976501,324.533905 
	C714.861816,325.490906 716.780945,325.504059 717.624512,322.164703 
	C718.604675,318.285095 720.712036,318.080292 723.884583,320.002106 
	C728.503113,322.799896 733.287537,325.323761 739.177734,328.623505 
	C732.559509,309.211151 725.284973,291.620636 716.347168,274.721130 
	C714.515259,271.257446 712.142517,272.445618 709.673523,273.873413 
	C682.735779,289.451599 655.799072,305.031494 628.837402,320.568268 
	C625.510376,322.485504 624.725830,324.522034 626.576538,328.274811 
	C635.878723,347.137665 643.228516,366.689240 646.684570,387.573700 
	C647.033203,389.680603 646.522705,392.617767 649.231323,394.071991 
	C651.632019,391.404022 650.445801,388.847443 649.693298,386.330872 
	C647.894714,380.315979 647.180359,374.387024 649.734497,368.306183 
	C651.961426,363.004517 655.467224,358.676483 660.094604,354.184845 
	C655.744202,353.689148 656.035278,351.512451 657.046265,349.049744 
	C660.745483,340.038269 658.326233,332.148956 652.676575,324.804596 
	C651.617676,323.428131 649.912354,322.276764 650.498108,319.534424 
	C656.835999,317.301514 662.841309,319.097229 668.095642,322.669678 
	C673.958374,326.655731 679.589355,327.493439 686.564636,323.803284 
M492.446930,670.678589 
	C491.385132,673.016174 491.203247,675.193726 493.660400,676.821106 
	C495.863190,678.279968 497.475769,682.139587 500.675781,680.052673 
	C504.125763,677.802795 501.057556,675.005249 500.064331,672.596497 
	C497.786774,667.073120 498.746277,664.391357 504.272125,661.819458 
	C505.774811,661.119995 507.351135,660.521851 508.952423,660.100586 
	C518.738220,657.526428 518.757629,657.539307 513.320618,648.828186 
	C512.745422,647.906555 512.326843,647.052979 512.992920,646.101257 
	C513.517151,645.352173 514.505127,645.037048 515.226929,645.397766 
	C518.757751,647.162231 521.243835,644.710938 523.984619,643.357727 
	C526.852234,641.941895 529.967163,640.875000 532.013062,644.059021 
	C533.866211,646.943054 531.621216,649.428040 529.657959,651.458435 
	C526.256042,654.976624 526.196899,657.799927 530.159729,660.796692 
	C533.601501,663.399292 535.721924,666.830383 536.008484,670.874084 
	C536.665955,680.153259 539.378235,688.771301 542.987366,697.238525 
	C544.531982,700.862427 544.947998,704.931519 542.829956,708.376587 
	C539.722595,713.431030 540.046204,717.276917 544.458984,721.576782 
	C549.754761,726.737000 549.273193,735.208374 544.185608,740.575928 
	C539.274292,745.757446 529.143860,745.581543 525.864685,739.854126 
	C523.163086,735.135498 520.828796,730.093018 520.992249,724.347717 
	C521.080933,721.231262 512.905579,714.904114 509.977783,715.692017 
	C509.047028,715.942505 508.516815,716.609619 508.431213,717.445068 
	C507.967377,721.973511 506.623444,726.510620 508.095184,731.624146 
	C511.419434,729.696899 513.584839,732.623840 516.388672,732.631531 
	C517.763245,732.635315 518.047363,733.989807 517.689880,735.320190 
	C516.701111,739.000061 510.896057,741.474854 507.743164,739.244446 
	C504.400116,736.879333 502.725616,737.476868 501.013824,741.212585 
	C498.644684,746.382751 493.288605,746.409607 489.633789,741.418091 
	C491.868134,739.390320 492.252289,735.811951 496.021301,734.683838 
	C493.298523,729.646790 490.729614,725.173340 486.195404,722.447388 
	C484.282562,723.547119 483.913300,725.074951 483.162994,726.351135 
	C480.610901,730.691956 480.328400,734.321777 483.023254,739.395325 
	C486.460449,745.866455 490.213257,753.584534 482.428741,760.688904 
	C483.930054,760.688904 484.782196,760.826416 485.575867,760.669067 
	C518.990417,754.045166 550.587341,742.431824 580.494812,726.145142 
	C583.907471,724.286621 584.417725,722.128723 582.492676,718.845032 
	C576.932007,709.359985 571.519226,699.788391 566.027283,690.262878 
	C556.125427,673.088623 546.192505,655.932190 536.310425,638.746582 
	C534.245605,635.155762 532.500244,632.629639 527.556641,635.653198 
	C521.623535,639.281982 515.014282,641.807068 508.688538,644.790344 
	C507.181732,645.500977 505.559875,646.045105 504.676910,647.607117 
	C500.512665,654.973633 495.433777,661.852966 492.446930,670.678589 
M154.311783,591.861389 
	C147.071106,596.141479 139.830414,600.421509 132.323624,604.858887 
	C141.409637,620.008362 151.190292,633.808044 162.132645,646.831055 
	C164.996201,650.239075 168.568024,652.113159 171.921967,650.032104 
	C175.309204,647.930420 173.173370,644.291626 171.563980,641.173950 
	C169.747559,637.655212 168.680557,634.248718 174.405380,632.331848 
	C175.905502,631.829529 177.903275,632.430420 179.471054,630.615417 
	C179.682144,626.930420 179.718948,622.794983 180.243622,618.722351 
	C180.477539,616.906677 180.489990,614.464966 182.822205,613.692810 
	C185.239426,612.892456 184.924484,616.422302 186.319443,616.539978 
	C192.293686,614.613892 195.779068,610.575867 198.736313,605.893555 
	C199.517319,604.657043 200.557495,603.299438 202.326050,603.672485 
	C204.147705,604.056641 204.222717,605.692627 204.514771,607.190308 
	C204.786743,608.585083 204.619095,610.239258 206.284164,611.183533 
	C209.444733,609.795654 208.777222,608.101440 207.058975,605.833557 
	C203.854309,601.603516 204.319550,598.429810 208.573456,595.211914 
	C211.490631,593.005188 214.653961,591.248352 218.377121,590.490051 
	C220.541626,590.049316 223.053192,590.098999 224.740219,588.166931 
	C216.227463,576.575317 194.881500,578.057922 188.475006,590.612854 
	C188.018738,591.507019 187.780609,592.330933 188.251953,593.424438 
	C191.683502,601.385803 191.653580,601.398682 184.854370,606.953491 
	C182.667114,604.452820 179.561127,605.816284 176.263016,605.586121 
	C176.905472,595.105713 182.975098,587.737122 190.055634,582.157288 
	C204.949585,570.420166 219.915253,572.925171 233.207626,585.540039 
	C238.108566,578.916870 238.336731,573.526672 232.936111,568.007629 
	C230.067215,565.075806 227.798676,561.424255 225.814392,557.794128 
	C223.567093,553.682800 221.384979,553.093384 217.209518,555.546875 
	C196.547043,567.688232 175.706787,579.526978 154.311783,591.861389 
M445.807587,716.767395 
	C445.079895,712.579468 443.001709,709.007629 440.943787,705.356079 
	C438.424957,700.886597 435.850769,696.331543 437.584351,690.751953 
	C439.574066,684.347961 438.540863,682.875854 432.008423,681.259705 
	C429.802765,680.713989 427.209656,679.896790 426.966858,677.117493 
	C426.786896,675.057800 427.904083,673.212891 430.079803,672.481018 
	C434.767273,670.904419 440.202026,671.499084 443.551575,666.589417 
	C446.092194,670.286133 444.033478,673.041443 444.296173,675.757080 
	C444.707214,680.006287 446.221863,681.031799 450.087799,679.298645 
	C450.847137,678.958252 451.550446,678.484619 452.322754,678.183044 
	C456.647003,676.493958 461.012634,674.037415 465.745270,675.935425 
	C470.080231,677.674011 469.318115,682.272766 470.237762,685.862244 
	C470.320282,686.184326 470.321594,686.553467 470.486450,686.824036 
	C471.855927,689.071594 473.576172,689.287903 475.315247,687.357544 
	C478.345337,683.994202 477.570374,678.261292 473.798615,675.723267 
	C467.557739,671.523926 460.482513,668.932739 453.901123,665.421875 
	C449.283997,662.958801 445.139130,660.383179 439.543732,661.428894 
	C435.642517,662.157959 431.590454,662.114990 427.601044,662.329163 
	C421.386169,662.662781 420.275665,663.613892 420.255859,669.763000 
	C420.157104,700.424377 420.170105,731.086182 420.038513,761.747314 
	C420.022186,765.549927 421.321442,767.067810 425.264038,767.074707 
	C434.941406,767.091797 444.600128,766.718750 454.190063,765.581055 
	C458.825195,765.031250 463.745605,765.206909 468.855682,762.374573 
	C461.324585,757.313171 459.762665,750.493042 461.231720,742.503296 
	C461.828217,739.259155 459.164825,737.831665 456.702179,736.789856 
	C453.597229,735.476318 451.602753,733.168579 449.968018,730.376526 
	C447.646332,726.411133 446.754913,722.008118 445.807587,716.767395 
M333.440002,724.873291 
	C331.785095,725.073425 330.100403,726.745850 328.583466,724.998779 
	C327.761414,722.558167 331.339417,723.045837 330.817047,720.694031 
	C323.661652,714.699219 323.820526,724.671692 319.913818,725.463196 
	C322.665100,734.625305 320.608002,742.800659 316.665588,751.295288 
	C322.021820,752.783569 327.104767,754.243164 332.215332,755.598450 
	C335.375824,756.436646 337.072205,753.605042 337.007416,751.847229 
	C336.807251,746.418030 340.698608,746.607849 343.951630,746.042664 
	C347.364594,745.449646 350.576813,746.605896 353.448822,748.424255 
	C356.316498,750.239807 358.239258,749.722961 359.985291,746.775940 
	C362.972778,741.733459 362.994781,735.565491 366.465576,730.657959 
	C367.532928,729.148804 366.364685,726.794250 364.178802,726.516479 
	C361.629425,726.192383 359.140411,724.744446 356.099335,725.795776 
	C356.738922,727.091675 357.259094,728.277832 357.893951,729.398987 
	C358.715790,730.850525 359.867157,732.274719 358.552643,733.947327 
	C357.746887,734.972473 356.558990,735.054077 355.364014,734.569336 
	C353.523041,733.822632 352.285553,732.574585 352.233124,730.486816 
	C352.212494,729.665222 352.614288,728.796448 352.460205,728.021423 
	C351.981476,725.613403 350.572510,723.758362 348.381042,722.679199 
	C347.221588,722.108215 345.927277,722.766724 345.174652,723.565491 
	C343.051544,725.818848 346.158234,726.954773 346.473358,728.719055 
	C346.528473,729.027588 346.437500,729.362122 346.398315,729.900024 
	C343.547058,731.077576 342.010132,728.993469 340.882324,727.149475 
	C339.191681,724.385132 337.078644,723.658142 333.440002,724.873291 
M622.324036,587.005371 
	C620.143250,585.423279 617.700928,584.394470 615.108704,583.750366 
	C609.047363,582.244202 602.331787,584.508545 599.094360,589.089539 
	C594.727539,595.268372 594.094055,602.302673 597.746277,608.059082 
	C598.939941,605.630005 600.042358,603.474792 601.067444,601.283447 
	C604.046814,594.914734 609.104675,591.811829 616.061707,591.681702 
	C617.719788,591.650635 619.381531,591.763245 621.038025,591.707031 
	C624.592529,591.586243 625.216736,590.142578 622.324036,587.005371 
M492.949188,698.463989 
	C491.964844,696.482910 490.980499,694.501770 489.996124,692.520691 
	C490.011658,698.922180 489.176392,705.355042 490.647430,711.012390 
	C492.095581,716.581665 496.711700,721.327148 500.539490,727.386536 
	C500.310089,724.311157 499.936462,722.486206 500.081635,720.703552 
	C500.744873,712.559509 499.139832,705.180237 492.949188,698.463989 
M319.871826,716.187988 
	C321.487976,715.186401 323.794128,715.637756 325.222809,713.648804 
	C322.217560,709.675659 317.551636,708.655396 313.481781,706.686218 
	C312.442688,706.183472 311.578278,706.785828 310.906555,707.607300 
	C308.754089,710.239685 306.624207,712.966309 309.324738,716.376526 
	C312.062592,719.833801 315.484436,719.815491 319.871826,716.187988 
M196.959518,497.911499 
	C197.093597,495.085541 196.723770,492.442780 194.303116,490.234833 
	C190.690598,492.793610 187.145615,495.089355 184.562241,499.028870 
	C188.920273,501.588898 192.792496,501.695099 196.959518,497.911499 
M467.959503,657.514404 
	C466.856567,657.926880 465.264557,658.819702 466.185730,659.787537 
	C468.144379,661.845459 469.259979,665.252625 474.002808,665.361938 
	C471.969757,662.282532 471.386108,659.248230 467.959503,657.514404 
M486.373016,656.345459 
	C486.571228,657.694885 486.065063,659.358337 488.219269,660.074524 
	C490.481232,657.803345 489.778259,655.356873 489.011444,652.867371 
	C486.512573,652.649963 486.313293,654.041809 486.373016,656.345459 
z"/>
<path fill="#000000" opacity="1.000000" stroke="none" 
	d="
M573.988892,553.022583 
	C576.694397,552.814575 583.826477,556.885132 584.538330,559.050964 
	C585.044556,560.591248 584.010864,561.564148 583.234436,562.610596 
	C573.250305,576.066223 561.597839,587.886047 548.573608,598.422729 
	C543.933411,602.176758 542.591064,597.884521 540.382324,595.604004 
	C537.973083,593.116394 537.153198,590.940002 540.815796,588.384277 
	C544.750793,585.638550 548.110291,582.079041 551.810547,578.981750 
	C554.173035,577.004272 554.016296,575.087952 552.033508,573.061218 
	C549.003967,569.964661 545.771179,567.048157 542.938354,563.783020 
	C539.906311,560.288391 537.271484,560.067383 533.774536,563.263855 
	C522.886108,573.216919 510.675537,581.247559 497.412964,587.731262 
	C490.516785,591.102600 483.499908,594.179871 476.268463,596.697632 
	C472.754242,597.921265 472.030426,599.692505 473.123322,603.061707 
	C474.508453,607.331787 475.529663,611.721558 476.659729,616.072205 
	C477.502777,619.317810 479.385956,620.466797 482.596252,619.234131 
	C486.482819,617.741882 490.408691,616.347351 494.260773,614.771729 
	C496.782196,613.740479 498.157623,614.423096 499.369476,616.884705 
	C503.193939,624.653442 503.069275,625.199219 495.036041,628.329346 
	C481.178345,633.729065 466.824432,637.290161 452.267487,640.228699 
	C446.806213,641.331177 445.841309,638.675232 445.086243,634.283875 
	C444.278900,629.588501 446.043671,627.990356 450.438751,627.548462 
	C454.059052,627.184387 457.601532,626.065552 461.185303,625.313538 
	C464.325134,624.654663 465.202423,622.802551 464.356750,619.800903 
	C463.138184,615.475647 461.878662,611.150879 460.942017,606.760681 
	C460.085663,602.746826 458.000580,601.753601 454.108307,602.633179 
	C443.195709,605.098938 432.093475,606.117981 420.915466,606.265930 
	C408.548798,606.429626 396.293274,605.228699 384.231689,602.553650 
	C379.481781,601.500183 376.982880,602.792908 376.042542,607.612061 
	C375.278381,611.528259 374.166962,615.381714 373.097076,619.231750 
	C372.134399,622.696106 373.498322,624.777161 376.811432,625.561096 
	C380.535187,626.442078 384.289276,627.272339 388.075897,627.789368 
	C392.316010,628.368286 392.549957,630.880798 391.857300,634.252686 
	C391.190552,637.498169 391.362549,641.055969 386.137329,640.231201 
	C369.771912,637.647949 353.966370,633.165039 338.626709,626.950256 
	C335.598053,625.723267 334.172516,623.806030 336.140259,620.818970 
	C337.928345,618.104614 337.522278,612.340698 343.694336,615.122498 
	C347.330109,616.761169 351.150970,617.998657 354.917755,619.334412 
	C358.019684,620.434326 360.009583,619.585876 360.757477,616.095337 
	C361.558258,612.357971 362.707031,608.696533 363.640106,604.985840 
	C365.354523,598.168152 365.259918,597.902832 358.819183,595.410828 
	C345.717194,590.341553 333.278839,584.005859 321.549683,576.264771 
	C315.133942,572.030396 309.125702,567.261353 303.458038,562.106628 
	C300.597046,559.504639 298.316010,559.596130 295.813660,562.206848 
	C292.240265,565.934998 288.733673,569.728455 285.108582,573.405334 
	C283.123260,575.418945 283.365173,577.143555 285.353210,578.894836 
	C288.851746,581.976746 292.153473,585.324341 295.893402,588.077332 
	C299.223724,590.528809 299.502045,592.555908 296.905060,595.766174 
	C292.382111,601.357239 292.485382,601.531738 287.052490,597.149170 
	C274.538147,587.054199 263.580048,575.460144 253.805542,562.700500 
	C251.819183,560.107544 252.014801,558.629761 254.620056,556.646606 
	C261.341766,551.529968 261.290283,551.420410 266.147980,558.006409 
	C272.934296,567.207214 273.079651,567.218933 281.191376,559.147461 
	C281.900116,558.442261 282.588715,557.716919 283.289246,557.003479 
	C290.334747,549.828003 290.500458,549.689697 283.961945,541.869812 
	C271.635437,527.127747 262.612305,510.491974 255.676071,492.714203 
	C253.813019,487.939178 251.628754,486.530334 246.828522,488.318176 
	C243.106186,489.704559 239.172318,490.647705 235.254013,491.350403 
	C230.774933,492.153687 229.873810,494.354431 231.482681,498.345825 
	C232.913269,501.894867 233.833633,505.659393 235.389038,509.145966 
	C237.640671,514.193237 233.677383,514.618652 230.759216,515.895752 
	C227.891739,517.150696 225.275970,518.339661 223.579132,513.999512 
	C217.419250,498.243988 213.683746,481.911804 211.336136,465.210541 
	C210.777939,461.239563 213.343750,460.683014 216.187286,460.671234 
	C218.917496,460.659912 222.747818,457.998444 223.544525,463.480011 
	C224.190689,467.925751 225.206940,472.317078 225.879288,476.759766 
	C226.291504,479.483551 227.459641,480.602051 230.250259,479.800415 
	C236.472137,478.013092 242.714752,476.297882 249.391357,474.429474 
	C248.119888,465.772552 246.198822,457.549133 245.436203,449.135651 
	C243.785767,430.927307 244.420517,412.893372 248.282425,395.009521 
	C249.727448,388.317932 249.810303,388.310577 243.341751,386.527710 
	C239.169266,385.377625 234.951599,384.387329 230.796326,383.180389 
	C227.601822,382.252502 226.148605,383.469849 225.687271,386.603699 
	C225.057053,390.884766 224.228867,395.136292 223.546127,399.410156 
	C222.739578,404.458984 219.055527,402.212708 216.484482,401.998718 
	C214.068146,401.797638 210.848999,402.032043 211.421936,397.685516 
	C213.649368,380.787354 217.492661,364.312408 223.706635,348.411469 
	C225.813278,343.020752 229.089645,346.593506 231.903946,347.293213 
	C234.943512,348.048950 237.103836,349.343414 235.487366,353.271881 
	C233.781052,357.418640 232.621796,361.788147 231.154221,366.036377 
	C230.259903,368.625214 230.934906,370.076294 233.735977,370.745758 
	C239.076248,372.022125 244.395401,373.413055 249.658707,374.974304 
	C252.332672,375.767456 253.661728,374.913452 254.603912,372.437531 
	C262.494110,351.703796 273.152588,332.599152 288.098755,316.056396 
	C289.686798,314.298706 290.081909,312.745239 288.258118,310.884369 
	C283.607086,306.138763 279.027130,301.323547 274.348999,296.463776 
	C269.431824,299.374603 266.906250,303.534088 264.208557,307.413300 
	C260.767212,312.361908 258.320068,308.355103 255.624054,306.749329 
	C252.666321,304.987701 251.348953,303.092010 254.037018,299.624603 
	C264.195129,286.521362 275.667969,274.764893 288.448425,264.209747 
	C294.047546,259.585510 294.899628,265.552765 297.440125,267.785278 
	C300.726196,270.672974 298.643402,272.464600 296.160980,274.432190 
	C292.510590,277.325562 289.053253,280.463684 285.534393,283.521393 
	C283.194611,285.554565 283.050262,287.579376 285.391632,289.835602 
	C288.870361,293.187897 292.330536,296.574402 295.579224,300.145935 
	C298.509338,303.367249 300.955688,302.961792 304.024597,300.220428 
	C318.960205,286.878937 335.899658,276.762390 354.429718,269.208832 
	C365.331787,264.764740 365.437439,264.611908 362.496918,253.437241 
	C358.994965,240.129089 361.459351,240.943878 347.949585,245.833221 
	C347.479797,246.003250 347.018250,246.196365 346.554565,246.382919 
	C339.557831,249.198013 336.631439,247.381561 335.415344,239.761505 
	C335.045929,237.446518 336.409241,236.775375 337.953125,236.131882 
	C353.701904,229.567810 369.988373,224.970337 386.897552,222.525650 
	C392.326080,221.740784 391.156769,225.914825 391.870422,228.595047 
	C392.649811,231.522186 392.769257,234.259476 388.607147,234.884537 
	C384.492218,235.502502 380.437134,236.511490 376.328400,237.180573 
	C372.983429,237.725266 371.725433,239.236450 372.747375,242.689896 
	C374.531067,248.717667 376.076904,254.815826 377.802673,261.180481 
	C386.145203,259.998108 393.930603,258.320526 401.861328,257.519867 
	C419.579803,255.731033 437.129700,256.610382 454.528534,260.123718 
	C458.346497,260.894653 460.067688,260.216400 460.870056,256.355774 
	C461.816833,251.800308 463.206879,247.335327 464.450684,242.843826 
	C465.282501,239.840057 464.302765,237.990311 461.181702,237.386887 
	C456.930023,236.564865 452.696350,235.630707 448.422546,234.947281 
	C443.840515,234.214569 444.648773,230.994125 445.192139,228.077148 
	C445.705536,225.320892 445.384125,221.761581 450.231689,222.480713 
	C467.125549,224.986847 483.418396,229.566528 499.192932,236.076843 
	C501.947937,237.213867 502.659943,238.897781 501.293549,241.552383 
	C500.608704,242.882904 499.951752,244.253662 499.506439,245.676422 
	C498.470276,248.986511 496.424164,249.027969 493.671509,247.864410 
	C489.688904,246.180969 485.621063,244.700043 481.600525,243.105164 
	C478.969757,242.061600 477.629761,242.888870 476.988007,245.691757 
	C475.911377,250.394073 474.715240,255.085373 473.237183,259.674316 
	C472.047760,263.367126 473.327301,265.051605 476.797546,266.311829 
	C489.506531,270.927124 501.743744,276.556793 513.203430,283.818604 
	C520.829407,288.651093 527.863708,294.252472 534.744629,300.046234 
	C537.470398,302.341400 539.534546,302.315582 541.948486,299.695404 
	C545.107788,296.266174 548.443359,292.993164 551.804138,289.757843 
	C554.135315,287.513641 554.041504,285.502167 551.645630,283.466003 
	C547.965576,280.338440 544.435730,277.007507 540.562439,274.140869 
	C535.723389,270.559570 539.783936,268.236633 541.450500,265.557709 
	C543.303772,262.578613 545.297119,261.308777 548.621155,264.148438 
	C561.326721,275.002350 573.343079,286.479523 583.266968,300.021698 
	C585.202026,302.662262 584.807373,304.194916 582.265686,306.133667 
	C575.909302,310.982208 576.119324,310.995697 571.265259,305.039581 
	C562.287903,294.024078 564.830566,295.099457 555.574402,304.083557 
	C547.400940,312.016754 547.497803,312.193085 554.649292,320.636963 
	C567.062927,335.293793 576.353455,351.773438 582.993713,369.724182 
	C584.702332,374.343170 586.994202,375.658112 591.583923,373.957458 
	C595.001404,372.691223 598.598389,371.793823 602.189819,371.142303 
	C606.526917,370.355499 607.189209,368.086456 605.761108,364.366547 
	C604.329346,360.636902 603.194763,356.791840 601.723633,353.079041 
	C600.646057,350.359467 601.272095,348.900024 604.025391,347.684967 
	C611.676880,344.308411 612.099243,344.367371 615.041992,352.241486 
	C620.485474,366.806824 623.991211,381.824524 625.754639,397.280579 
	C626.102905,400.333252 625.219849,401.718781 622.283142,401.927094 
	C615.666382,402.396423 613.260376,404.544647 612.585449,394.815399 
	C611.699158,382.037933 611.215393,382.071533 598.711304,385.195526 
	C589.355774,387.532898 589.403992,387.523804 591.142456,396.748840 
	C595.698853,420.927368 595.712891,445.082428 590.275635,469.122101 
	C589.309387,473.394226 590.060059,475.711273 594.613831,476.547729 
	C598.372681,477.238190 602.072693,478.306427 605.746704,479.384644 
	C609.157898,480.385773 610.871155,478.934662 611.412231,475.751251 
	C612.053467,471.978271 612.659973,468.190765 613.050476,464.385803 
	C613.691040,458.144684 618.049927,460.698669 621.360657,460.722046 
	C624.987305,460.747620 626.269714,462.339905 625.779114,466.103210 
	C623.682922,482.184235 619.881775,497.798676 614.102112,512.966492 
	C612.504761,517.158325 610.362610,517.782532 606.507019,516.023499 
	C603.055542,514.448792 599.446045,513.635498 602.105652,508.398865 
	C603.823669,505.015930 604.581909,501.159149 605.996277,497.604645 
	C607.440186,493.975616 605.921936,492.339996 602.541687,491.530640 
	C598.496094,490.561920 594.403076,489.704102 590.466431,488.391052 
	C586.309814,487.004578 584.520020,488.618866 583.157776,492.433990 
	C578.373596,505.833282 571.958191,518.454590 563.727173,530.066650 
	C559.592041,535.900391 555.049744,541.460999 550.452881,546.945068 
	C548.284851,549.531555 548.294617,551.500305 550.677734,553.780823 
	C554.167725,557.120483 557.541870,560.580872 560.975159,563.979980 
	C562.904419,565.889954 564.705994,565.838867 566.442444,563.662903 
	C569.033386,560.416077 572.043274,557.482117 573.934082,553.312805 
	C574.032349,552.978882 574.002014,553.006714 573.988892,553.022583 
M455.089813,589.596680 
	C459.592499,588.403320 464.161682,587.415710 468.588013,585.985962 
	C542.502319,562.111145 590.785095,489.777771 580.441284,410.141022 
	C575.137695,369.309052 556.428101,335.115326 525.115479,308.498871 
	C487.970459,276.924774 444.753448,264.580078 396.342529,271.115448 
	C355.549438,276.622406 322.007751,295.791870 295.499420,326.811035 
	C273.031067,353.102692 260.449646,383.782349 257.905548,418.571960 
	C255.438309,452.310272 262.053284,483.890961 279.311981,512.946106 
	C315.925232,574.584778 383.997437,604.300476 455.089813,589.596680 
z"/>
<path fill="#000000" opacity="1.000000" stroke="none" 
	d="
M452.481567,199.364899 
	C444.923553,197.182953 445.141296,197.109802 446.530914,189.821411 
	C447.491547,184.783081 447.708130,179.573959 446.968384,174.403976 
	C446.604309,171.859497 446.566742,169.382904 449.194519,167.783951 
	C450.671478,166.885269 450.860565,165.455948 450.679108,163.844742 
	C450.550903,162.706345 450.483704,161.500275 450.714264,160.392029 
	C452.365051,152.456879 452.471832,144.799408 447.612396,137.717270 
	C446.715637,136.410309 446.155334,134.518280 446.784637,132.913940 
	C447.579224,130.888214 447.391052,127.752380 450.447693,127.596420 
	C453.272339,127.452301 452.796753,130.195358 453.411407,131.990555 
	C454.937653,136.448395 459.452148,138.546982 462.854218,138.233154 
	C477.052460,136.923416 488.993622,145.401352 502.559174,146.432434 
	C507.586243,146.814514 512.523499,147.395981 517.274231,145.213089 
	C519.895996,144.008438 521.808105,142.704453 519.844727,139.187653 
	C518.083008,136.032089 519.727539,134.215927 523.184387,133.813034 
	C528.034851,133.247726 532.351501,134.817093 536.422302,137.110992 
	C540.022705,132.720306 539.542114,129.582809 534.775330,127.103676 
	C530.164062,124.705399 525.044067,123.739311 520.078796,122.351112 
	C518.431824,121.890656 516.361877,122.026741 515.485535,119.207634 
	C519.163757,118.792831 522.758545,117.676208 526.127319,118.153923 
	C533.392273,119.184113 540.448425,121.392212 546.769714,125.280396 
	C553.810608,129.611221 555.756104,136.257629 549.979919,141.967453 
	C542.686890,149.176666 539.572449,157.456375 537.839966,167.090088 
	C536.805725,172.841125 532.857544,176.842911 526.453674,177.291977 
	C524.641663,177.419037 523.326599,178.273926 522.132690,179.497726 
	C520.798767,180.865036 519.332703,181.151642 517.646057,180.096542 
	C515.709473,178.885086 515.848450,177.269150 516.304871,175.301727 
	C516.841064,172.990585 519.740356,170.952896 517.529785,168.036133 
	C514.743958,169.035553 514.486450,171.258957 514.378662,173.379486 
	C514.061829,179.609711 511.555298,184.824677 507.925995,189.834869 
	C504.343658,194.780212 500.878418,199.947357 503.334167,206.823257 
	C504.344177,209.651215 502.295776,211.174850 499.452698,211.125702 
	C494.820404,211.045624 488.964417,205.369919 488.073792,200.875504 
	C487.500671,197.983368 488.521393,196.226318 490.348938,194.256134 
	C495.610474,188.583954 494.585541,182.906342 487.893707,179.462311 
	C485.195404,178.073608 482.998260,176.267944 481.376282,173.531097 
	C478.555664,168.771576 476.760712,168.708206 472.870605,172.538651 
	C470.461029,174.911209 467.697632,176.706345 464.360046,177.538971 
	C462.510773,178.000290 460.794678,178.790985 460.533447,180.958908 
	C460.095917,184.590103 459.429932,188.246872 459.517609,191.876999 
	C459.690643,199.043350 459.876587,199.038864 452.481567,199.364899 
z"/>
<path fill="#000000" opacity="1.000000" stroke="none" 
	d="
M575.759155,197.817596 
	C577.647522,195.849319 578.381348,193.134018 581.165649,192.517715 
	C582.807983,194.745880 580.932922,196.160706 580.203857,197.585754 
	C577.247498,203.364594 575.897217,209.390442 576.267639,215.896469 
	C576.977539,228.364609 587.172424,235.488449 598.952026,231.381165 
	C609.327271,227.763535 619.578796,223.792435 629.919983,220.074814 
	C638.406738,217.023849 646.937439,215.707275 655.688965,219.360168 
	C659.997986,221.158752 662.925842,224.573669 666.203064,227.554489 
	C670.689575,231.635254 675.693787,236.962570 676.122253,242.129333 
	C676.639160,248.361984 680.719543,253.338654 680.244141,259.445801 
	C679.882385,264.093475 677.108337,267.088959 673.062744,268.898468 
	C663.485535,273.182159 654.283630,278.154053 645.262878,283.496796 
	C638.035828,287.777222 630.003479,290.070251 622.045837,292.515594 
	C621.728699,292.613037 621.413635,292.754883 621.089172,292.785004 
	C612.163696,293.613373 599.434753,276.095032 602.824463,267.766693 
	C605.835449,260.368927 607.975342,252.633896 611.524780,245.438324 
	C618.167542,231.972153 628.914307,226.255722 643.712219,228.400696 
	C647.725769,228.982468 648.556458,228.367050 650.356689,223.123505 
	C646.341003,221.393768 642.270935,222.017395 638.289185,222.916122 
	C628.051758,225.226868 619.217163,230.632889 610.270447,235.809738 
	C604.655884,239.058472 598.976074,241.824768 592.172546,242.387985 
	C577.708740,243.585358 560.240723,226.137085 569.642029,207.940933 
	C571.393860,204.550262 573.566650,201.377151 575.759155,197.817596 
M671.857178,253.672821 
	C670.729187,252.113037 669.455322,250.784363 667.296753,251.625900 
	C665.116882,252.475708 665.291565,254.437637 665.278870,256.273651 
	C665.271912,257.271881 665.224487,258.274384 665.296997,259.267548 
	C665.412292,260.845306 664.768311,262.873749 666.903198,263.531219 
	C669.025757,264.184937 670.852844,263.180176 672.245056,261.619385 
	C674.371155,259.235870 673.825745,256.733673 671.857178,253.672821 
z"/>
<path fill="#000000" opacity="1.000000" stroke="none" 
	d="
M648.597900,545.188721 
	C645.500305,540.635681 644.707703,536.060181 647.956543,531.887512 
	C650.992310,527.988647 655.598267,528.417480 659.973938,529.171204 
	C662.638489,529.630188 665.019348,530.834717 667.288025,532.273926 
	C670.568176,534.354675 674.139465,535.833862 677.975952,536.236450 
	C681.187073,536.573486 684.153748,536.150024 683.307617,531.453613 
	C682.496216,526.950439 685.549683,525.869995 689.606506,525.136963 
	C678.895386,525.525574 671.889954,520.339417 666.755676,512.322144 
	C667.393555,510.765839 668.258484,510.859528 669.078918,510.855072 
	C669.725220,510.851532 670.371521,510.854370 671.106384,510.854370 
	C670.983398,510.410797 670.952637,509.960114 670.838745,509.938019 
	C666.803528,509.155090 663.775513,506.327942 660.242065,504.555634 
	C656.651550,502.754639 656.221924,499.000671 657.398315,495.386047 
	C658.644714,491.556366 660.862244,487.867340 665.405334,488.606506 
	C669.404785,489.257172 673.652344,488.280304 677.511597,490.829254 
	C677.461304,488.707916 674.769287,488.856537 675.283936,486.932159 
	C681.971619,482.266937 693.187622,483.227264 698.925171,488.987762 
	C699.155518,489.218994 699.299072,489.741028 699.510864,489.756897 
	C707.503418,490.356476 705.366272,495.178070 702.959412,500.810730 
	C706.995300,498.203400 708.829285,494.271179 713.187439,494.216370 
	C709.092773,492.085876 705.629089,489.345764 701.359863,487.957977 
	C698.806152,487.127869 698.483154,484.935486 699.910156,482.662567 
	C700.864319,481.142609 702.719727,480.291351 703.281128,478.224731 
	C699.657593,472.565735 693.736145,471.405823 687.803223,470.510559 
	C684.252563,469.974731 680.995850,468.949158 678.151550,466.778076 
	C674.718567,464.157623 672.618469,460.809692 673.973816,456.392975 
	C675.370605,451.841217 678.646667,449.122040 683.469666,448.784729 
	C685.659668,448.631561 688.122620,447.968109 689.956726,449.928589 
	C689.860840,451.656494 688.441956,451.639709 687.468872,452.094727 
	C685.722595,452.911285 684.015991,453.860474 684.542725,456.117340 
	C685.032288,458.214874 686.874146,458.829315 688.809448,458.886139 
	C694.297424,459.047363 699.776794,458.959717 705.179382,460.375183 
	C713.112671,462.453705 720.521301,465.277893 724.456421,473.177734 
	C725.503906,475.280579 727.590454,474.242126 728.996765,475.593811 
	C736.352417,482.663605 737.100891,493.702911 730.322876,501.309235 
	C726.694336,505.381073 722.195190,508.625916 716.947693,509.624268 
	C712.874878,510.399139 711.352173,512.525513 710.384827,515.972961 
	C716.865662,522.549927 720.252258,530.371704 718.210327,539.747986 
	C716.308655,548.480103 707.282288,554.072815 698.409119,552.479309 
	C697.953186,552.397461 697.414246,552.412048 696.989258,552.576355 
	C684.916809,557.244202 674.930542,552.606567 665.494995,545.533264 
	C663.496887,544.035400 661.624390,542.359314 659.558289,540.966614 
	C658.074097,539.966064 656.323792,538.756042 654.541992,540.265991 
	C652.666565,541.855225 653.143921,543.786682 654.237000,545.682922 
	C654.791443,546.644897 655.830444,547.452576 655.300903,549.144714 
	C652.364319,549.367737 650.604980,547.401062 648.597900,545.188721 
M696.161133,516.725952 
	C696.009155,516.737427 695.808960,516.694397 695.718018,516.774841 
	C695.615601,516.865479 695.529724,517.101135 695.576965,517.215942 
	C696.793335,520.170227 696.110840,522.683960 693.922363,524.926758 
	C691.894043,527.005493 693.927124,529.196899 695.107178,528.759033 
	C697.828003,527.749451 699.350342,529.782532 701.833435,530.710083 
	C697.268250,523.145081 697.229126,522.900940 699.522095,517.916565 
	C698.478943,517.726807 697.158447,518.436340 696.161133,516.725952 
M675.695312,499.106506 
	C675.181030,495.792175 672.959534,498.086609 672.437683,498.555878 
	C670.296692,500.480957 672.098816,501.725281 673.734619,503.398560 
	C674.455750,501.897491 674.994202,500.776703 675.695312,499.106506 
z"/>
<path fill="#000000" opacity="1.000000" stroke="none" 
	d="
M302.911804,171.064117 
	C307.767914,159.512161 315.930420,150.459763 322.859039,140.894623 
	C320.220703,138.331421 318.750824,141.158875 316.092194,140.222733 
	C313.924622,134.555389 311.531891,128.299408 308.590332,120.608513 
	C316.561737,122.912971 322.720184,125.620628 328.366852,128.720734 
	C328.717987,130.184692 328.279205,130.877060 327.716919,131.509460 
	C326.853455,132.480652 326.339264,133.458832 327.592468,134.498779 
	C328.711029,135.427002 329.801270,135.003876 330.785919,134.288620 
	C332.807220,132.820328 334.791168,131.300110 336.776154,129.782516 
	C350.369904,119.389565 365.120453,111.785980 382.529236,110.237297 
	C387.266663,109.815849 391.855469,110.398178 396.389252,111.348587 
	C402.153381,112.556892 403.127808,114.365364 401.041992,119.812614 
	C394.967285,135.677322 389.242493,151.706284 382.369507,167.223038 
	C378.614136,175.701340 378.556396,182.118439 386.554993,187.599014 
	C387.307526,188.114655 387.725464,189.118698 389.096771,190.977921 
	C380.534821,190.236389 374.685974,192.114120 377.596863,202.398331 
	C372.612854,200.984833 370.947205,197.195511 368.310608,194.771896 
	C366.067078,192.709579 364.179443,191.653778 361.288513,192.626587 
	C343.002075,198.779877 324.105499,203.057709 306.227325,210.449173 
	C302.672974,211.918655 301.258087,210.049957 300.185822,207.346222 
	C296.721985,198.612442 297.144135,189.734604 299.543182,180.866913 
	C300.410675,177.660324 301.671600,174.560165 302.911804,171.064117 
M362.568817,170.950775 
	C369.240967,177.805710 370.278320,177.614151 373.763855,168.739670 
	C379.364838,154.479034 384.953979,140.213623 390.491272,125.928207 
	C391.248260,123.975342 392.455688,122.054245 391.846069,119.736992 
	C389.208374,118.173637 386.443420,118.295441 383.587341,118.677818 
	C366.754364,120.931450 352.968475,129.385727 340.228912,139.949524 
	C337.496521,142.215240 336.930725,144.594070 339.802155,147.477951 
	C347.325653,155.034042 354.672699,162.765869 362.568817,170.950775 
M309.698914,181.220490 
	C308.908752,185.116119 307.750641,188.979813 307.409180,192.914383 
	C306.800232,199.931213 308.370026,201.081772 314.995422,199.009995 
	C329.104187,194.598267 343.198242,190.139236 357.283447,185.652771 
	C362.874512,183.871872 363.381348,182.039627 359.317017,177.752640 
	C351.315247,169.312576 343.085541,161.085526 335.201416,152.538574 
	C332.112000,149.189438 329.882904,149.673935 327.077820,152.661789 
	C319.461731,160.774124 313.742310,170.013901 309.698914,181.220490 
z"/>
</svg>