<svg width="23" height="23" viewBox="0 0 23 23" fill="none" xmlns="http://www.w3.org/2000/svg">
<path opacity="0.1" fill-rule="evenodd" clip-rule="evenodd" d="M0.262817 11.3578C0.262817 5.20696 5.24907 0.220703 11.3999 0.220703C17.5508 0.220703 22.537 5.20696 22.537 11.3578C22.537 17.5087 17.5508 22.4949 11.3999 22.4949C5.24907 22.4949 0.262817 17.5087 0.262817 11.3578Z" fill="white"/>
<path fill-rule="evenodd" clip-rule="evenodd" d="M17.3397 11.3495C17.3397 11.7512 17.2988 12.1524 17.2184 12.5434C17.1401 12.9251 17.0241 13.2999 16.8721 13.6581C16.7236 14.0101 16.5395 14.3492 16.3242 14.6655C16.1122 14.9797 15.868 15.2746 15.5997 15.5433C15.3308 15.8109 15.035 16.0545 14.7209 16.2674C14.4036 16.4811 14.064 16.665 13.7118 16.8142C13.3531 16.9654 12.9774 17.0812 12.596 17.1594C12.2045 17.2399 11.8019 17.2811 11.3996 17.2811C10.997 17.2811 10.5945 17.2399 10.2035 17.1594C9.82149 17.0812 9.44588 16.9654 9.08738 16.8142C8.73528 16.665 8.39533 16.4811 8.07803 16.2674C7.76391 16.0545 7.46807 15.8109 7.19978 15.5433C6.93121 15.2746 6.68698 14.9797 6.47467 14.6655C6.26061 14.3492 6.07613 14.01 5.92706 13.6581C5.77506 13.2999 5.65877 12.9251 5.58016 12.5434C5.5007 12.1524 5.46008 11.7512 5.46008 11.3495C5.46008 10.9475 5.50068 10.5455 5.58019 10.1554C5.65879 9.77364 5.77508 9.3983 5.92708 9.04062C6.07616 8.68844 6.26064 8.34901 6.47469 8.03272C6.687 7.7182 6.93123 7.42392 7.1998 7.15485C7.46809 6.88722 7.76394 6.64425 8.07805 6.43167C8.39536 6.21704 8.7353 6.03315 9.08741 5.88369C9.44591 5.73219 9.82149 5.61607 10.2035 5.53846C10.5945 5.45853 10.9971 5.41797 11.3996 5.41797C11.8019 5.41797 12.2045 5.45853 12.596 5.53846C12.9774 5.61609 13.3531 5.73221 13.7119 5.88369C14.064 6.03313 14.4036 6.21704 14.7209 6.43167C15.035 6.64425 15.3309 6.88722 15.5997 7.15485C15.868 7.42392 16.1123 7.7182 16.3243 8.03272C16.5395 8.34901 16.7236 8.68846 16.8721 9.04062C17.0241 9.3983 17.1401 9.77364 17.2184 10.1554C17.2988 10.5455 17.3397 10.9475 17.3397 11.3495ZM9.23527 6.76791C7.82072 7.43494 6.76496 8.73651 6.43575 10.3051C6.56948 10.3063 8.68332 10.3329 11.1188 9.68676C10.2409 8.12915 9.30286 6.85801 9.23527 6.76791ZM11.5391 10.4668C8.92725 11.2476 6.42096 11.1914 6.33106 11.1879C6.3296 11.2424 6.32699 11.2951 6.32699 11.3495C6.32699 12.6508 6.81861 13.8371 7.62668 14.7341C7.62493 14.7315 9.01311 12.2723 11.7505 11.3883C11.8166 11.3663 11.884 11.3466 11.9507 11.3275C11.8233 11.0396 11.6844 10.7512 11.5391 10.4668ZM14.7496 7.54789C13.8565 6.76153 12.6839 6.28455 11.3996 6.28455C10.9874 6.28455 10.5875 6.33437 10.2043 6.42646C10.2803 6.52843 11.2331 7.7906 12.1006 9.38121C14.0146 8.66469 14.7371 7.56641 14.7496 7.54789ZM12.2964 12.1668C12.2851 12.1706 12.2738 12.1738 12.2628 12.1779C9.26987 13.2197 8.2925 15.3194 8.28192 15.3423C9.14308 16.011 10.2232 16.4145 11.3996 16.4145C12.1021 16.4145 12.7712 16.2717 13.38 16.0131C13.3049 15.5705 13.0102 14.0193 12.2964 12.1668ZM14.2342 15.5503C15.3732 14.7828 16.1821 13.564 16.4078 12.1523C16.3033 12.1187 14.8842 11.6701 13.2469 11.9322C13.9122 13.7581 14.1826 15.245 14.2342 15.5503ZM12.4911 10.136C12.6088 10.3775 12.7228 10.6234 12.8281 10.8705C12.8655 10.9591 12.9021 11.046 12.9377 11.1329C14.6803 10.9139 16.3971 11.2823 16.4705 11.2974C16.4589 10.0966 16.0287 8.99455 15.317 8.13177C15.3074 8.14535 14.4938 9.31922 12.4911 10.136Z" fill="white"/>
</svg>
