<?xml version="1.0" encoding="UTF-8"?>
<svg version="1.1" xmlns="http://www.w3.org/2000/svg" width="500" height="500">
<path d="M0 0 C1.69934731 2.30619284 1.66685788 3.69286016 1.66307372 6.54485863 C1.66904686 7.53663273 1.67502001 8.52840682 1.68117416 9.55023468 C1.67243563 10.64263452 1.66369711 11.73503436 1.65469378 12.86053723 C1.65725706 14.01874582 1.65982033 15.17695442 1.66246128 16.37026024 C1.66655665 19.59026175 1.65714964 22.80990331 1.6421271 26.02986223 C1.62919637 29.5001896 1.63355409 32.97049956 1.63583392 36.44084424 C1.63740854 42.45514869 1.62797971 48.46935567 1.6111204 54.4836356 C1.58676042 63.17930565 1.57892822 71.87492845 1.57515643 80.57062892 C1.56858722 94.67810007 1.54861335 108.78551924 1.52024859 122.89296216 C1.49272015 136.59868867 1.47148063 150.30440108 1.45872515 164.01014966 C1.45793698 164.85468124 1.45714881 165.69921281 1.45633676 166.56933626 C1.4524217 170.80601643 1.44863057 175.0426967 1.44490105 179.27937704 C1.41379053 214.43828818 1.36094199 249.59713893 1.29393023 284.75599927 C2.32800006 284.72981519 3.36206988 284.7036311 4.42747515 284.67665356 C8.27572382 284.58593504 12.12387863 284.52867268 15.97288531 284.48134106 C17.63645862 284.4562458 19.29992219 284.42216131 20.96311969 284.378802 C23.35882176 284.31792467 25.75306274 284.28974158 28.14939898 284.26771802 C29.25906276 284.22900838 29.25906276 284.22900838 30.39114398 284.18951672 C34.40792523 284.18735072 36.10495766 284.60440708 39.27952594 287.1510188 C41.29393023 289.75599927 41.29393023 289.75599927 41.66893023 291.92396802 C41.30428953 293.88771013 40.80067304 295.82404231 40.29393023 297.75599927 C36.61406684 300.20924153 34.83067139 300.00926401 30.43913382 300.01606148 C29.73450722 300.01986716 29.02988062 300.02367283 28.3039017 300.02759382 C25.92489936 300.03796233 23.54613329 300.03399384 21.16711444 300.03015393 C19.45145671 300.03460348 17.73580103 300.03991658 16.0201484 300.04602265 C11.29157846 300.06024687 6.5630741 300.06186511 1.83448583 300.06142575 C-3.25966899 300.06307004 -8.35379647 300.07612916 -13.44793683 300.08761853 C-24.59230004 300.11049643 -35.73664425 300.11839191 -46.88102776 300.12344497 C-53.83490882 300.12669829 -60.78878433 300.13321848 -67.74266225 300.14044636 C-86.98317615 300.16001472 -106.22368488 300.17641795 -125.46420938 300.1793229 C-126.69612405 300.17951047 -127.92803872 300.17969804 -129.19728414 300.17989129 C-131.69483489 300.18025755 -134.19238564 300.18062125 -136.68993639 300.1809824 C-137.92977945 300.18116521 -139.16962251 300.18134803 -140.44703656 300.18153638 C-142.30906156 300.1818072 -142.30906156 300.1818072 -144.20870323 300.18208349 C-164.33615507 300.18562734 -184.46350007 300.21266184 -204.59091484 300.25003427 C-225.23862146 300.28806712 -245.88627499 300.30748 -266.53401744 300.30778241 C-278.1338455 300.30836806 -289.73354607 300.3169293 -301.33334142 300.34578007 C-311.20802393 300.37022671 -321.08253245 300.37762236 -330.957237 300.36253255 C-335.9987691 300.35533643 -341.03995716 300.35633683 -346.08145124 300.37894315 C-350.69238403 300.39942146 -355.30270585 300.39703812 -359.91363121 300.3760683 C-361.58588071 300.37255193 -363.2581733 300.37757339 -364.93036621 300.39177274 C-367.19613961 300.40977969 -369.45972782 300.39726032 -371.72543222 300.37682503 C-372.98599638 300.37763949 -374.24656054 300.37845395 -375.54532361 300.37929308 C-378.70606977 299.75599927 -378.70606977 299.75599927 -381.14235961 297.44376016 C-382.70606977 294.75599927 -382.70606977 294.75599927 -382.70606977 291.13099927 C-381.70606977 287.75599927 -381.70606977 287.75599927 -380.14649945 286.06337231 C-376.70009837 284.21708602 -373.46788944 284.38386507 -369.65919477 284.46303052 C-368.88799299 284.46727536 -368.1167912 284.4715202 -367.32221967 284.47589368 C-364.86647662 284.49264544 -362.41156348 284.53028988 -359.95606977 284.56849927 C-358.2881129 284.58355069 -356.62014312 284.5972383 -354.95216352 284.60951489 C-350.86981399 284.64253732 -346.78808244 284.69429442 -342.70606977 284.75599927 C-342.73636274 284.17334302 -342.7666557 283.59068677 -342.79786664 282.99037427 C-342.93811719 280.24577898 -343.07208349 277.50090724 -343.20606977 274.75599927 C-343.25376508 273.84076489 -343.30146039 272.92553052 -343.35060102 271.98256177 C-343.753865 263.57162722 -343.76360803 255.17371994 -343.70606977 246.75599927 C-343.70123578 245.85653577 -343.6964018 244.95707227 -343.69142133 244.03035229 C-343.65638103 237.89739793 -343.59058074 231.765559 -343.49855024 225.63319653 C-343.4699211 223.48354346 -343.44892153 221.33377689 -343.43507367 219.18397778 C-343.41377425 216.04467924 -343.36729779 212.90664165 -343.31544477 209.76771802 C-343.31421613 208.80532712 -343.31298749 207.84293622 -343.31172162 206.85138196 C-343.292003 205.96227628 -343.27228437 205.07317059 -343.2519682 204.15712231 C-343.23864454 202.98707906 -343.23864454 202.98707906 -343.2250517 201.79339856 C-342.70606977 199.75599927 -342.70606977 199.75599927 -341.15060407 198.00519055 C-337.80214479 196.29408094 -334.72187745 196.3368093 -331.0476225 196.36781567 C-330.2813252 196.36255872 -329.5150279 196.35730176 -328.72550946 196.3518855 C-326.19668584 196.33869898 -323.66849336 196.34741767 -321.13966352 196.35756177 C-319.38136659 196.35554085 -317.62307049 196.35262926 -315.86477643 196.34886426 C-312.1819915 196.34444292 -308.499425 196.35086658 -304.81666547 196.36488599 C-300.09299315 196.38199041 -295.36983171 196.37212766 -290.64617807 196.35416859 C-287.01652141 196.34333632 -283.38698623 196.3467743 -279.75732595 196.35455197 C-278.01537562 196.35655487 -276.2734143 196.35409155 -274.5314768 196.34711331 C-272.09906072 196.33950649 -269.66747651 196.35109098 -267.2351225 196.36781567 C-266.51348417 196.36174298 -265.79184583 196.35567029 -265.04833966 196.34941357 C-262.23084221 196.38535977 -260.18087086 196.45685 -257.76351911 197.97990674 C-256.38791048 200.29037978 -256.30199361 201.8742139 -256.25782758 204.56166333 C-256.22336278 206.03438199 -256.22336278 206.03438199 -256.18820173 207.53685254 C-256.17862943 208.60432721 -256.16905713 209.67180188 -256.15919477 210.77162427 C-256.13846402 211.88365216 -256.11773328 212.99568005 -256.09637433 214.14140576 C-256.03402834 217.76288521 -255.99418874 221.38419004 -255.95606977 225.00599927 C-255.9201087 227.47361604 -255.88373149 229.94122678 -255.84693891 232.4088313 C-255.61564454 249.9035298 -255.89524002 267.27811356 -256.70606977 284.75599927 C-242.51606977 284.75599927 -228.32606977 284.75599927 -213.70606977 284.75599927 C-213.72963544 277.55469189 -213.72963544 277.55469189 -213.75367719 270.20790356 C-213.80329935 254.37807538 -213.83664181 238.54824422 -213.86150628 222.7183587 C-213.87698763 213.11701437 -213.89810131 203.51574363 -213.93238813 193.91444653 C-213.96225174 185.54779874 -213.98163554 177.18120423 -213.98833525 168.81450462 C-213.99225268 164.3827164 -214.00148535 159.95108062 -214.02325994 155.51934117 C-214.04357718 151.35055443 -214.04991328 147.18198337 -214.04539281 143.01315182 C-214.04622016 141.48085804 -214.0522142 139.94855726 -214.06368619 138.4163062 C-214.07855637 136.32827596 -214.07504419 134.2410659 -214.06683332 132.1530177 C-214.0695987 130.9832624 -214.07236408 129.81350711 -214.07521325 128.60830468 C-213.70606977 125.75599927 -213.70606977 125.75599927 -212.39462739 123.87999505 C-209.55017323 121.98657168 -206.37160654 122.34044101 -203.06935102 122.36781567 C-201.90549375 122.35993024 -201.90549375 122.35993024 -200.71812421 122.3518855 C-198.15140174 122.33867342 -195.58529863 122.34742761 -193.01856977 122.35756177 C-191.23642337 122.35554137 -189.45427778 122.35263022 -187.67213422 122.34886426 C-183.93629572 122.34443928 -180.20067234 122.35087751 -176.46485883 122.36488599 C-171.67277893 122.38197803 -166.88120307 122.37213777 -162.08914167 122.35416859 C-158.4088712 122.34333542 -154.72872052 122.34677494 -151.04844648 122.35455197 C-149.28137637 122.35655527 -147.51429545 122.35409015 -145.74723798 122.34711331 C-143.27879452 122.33950641 -140.81117081 122.35109174 -138.34278852 122.36781567 C-137.6102284 122.36174298 -136.87766828 122.35567029 -136.12290937 122.34941357 C-131.22436386 122.41099453 -131.22436386 122.41099453 -129.01751214 123.87999505 C-127.08727425 126.6411796 -127.33739087 128.8048237 -127.34530622 132.1530177 C-127.34274294 132.8048658 -127.34017967 133.4567139 -127.33753872 134.12831497 C-127.33259003 136.31655302 -127.34911069 138.50410389 -127.3654936 140.69227856 C-127.36633964 142.25920345 -127.36586517 143.82612952 -127.36416608 145.39305371 C-127.36330381 149.65110849 -127.38096703 153.90891078 -127.40188795 158.16690677 C-127.42061613 162.61519585 -127.42240214 167.06349044 -127.42596418 171.51181287 C-127.43529601 179.93722753 -127.45992516 188.36252569 -127.49001265 196.787889 C-127.52352127 206.3790535 -127.54003376 215.9702235 -127.55509895 225.56143194 C-127.58647377 245.29303389 -127.64150001 265.0244761 -127.70606977 284.75599927 C-113.51606977 284.75599927 -99.32606977 284.75599927 -84.70606977 284.75599927 C-84.86760541 280.49347241 -85.02914106 276.23094556 -85.19557172 271.83925122 C-85.99442536 247.38843523 -85.87090055 222.92426339 -85.87332684 198.46331066 C-85.87382724 194.3887616 -85.87613079 190.31421477 -85.87882406 186.23966664 C-85.88756944 172.73118952 -85.89225076 159.22272019 -85.89149358 145.71424022 C-85.89143365 144.63264166 -85.89143365 144.63264166 -85.8913725 143.52919263 C-85.89133162 142.80723096 -85.89129074 142.08526928 -85.89124862 141.34142999 C-85.89083933 129.55773893 -85.90049524 117.77407938 -85.91451087 105.99039748 C-85.92885869 93.83039775 -85.93578258 81.67041347 -85.93491709 69.51040506 C-85.93458556 62.70654124 -85.93731631 55.90271086 -85.94809514 49.09885472 C-85.9577374 42.72998239 -85.95788216 36.36118117 -85.95057851 29.99230641 C-85.94952917 27.6541369 -85.95191611 25.31596302 -85.95793897 22.97780102 C-85.96560972 19.79511421 -85.96104754 16.61267635 -85.95330793 13.42999524 C-85.95845149 12.49920138 -85.96359505 11.56840752 -85.96889448 10.60940778 C-85.96429569 9.75791255 -85.95969689 8.90641731 -85.95495874 8.02911919 C-85.95528479 6.92818241 -85.95528479 6.92818241 -85.95561743 5.80500448 C-85.66309655 3.40315143 -84.97453192 1.80876994 -83.70606977 -0.24400073 C-80.83089037 -1.68159043 -78.31753479 -1.4166934 -75.10426313 -1.46519214 C-74.08675473 -1.48245097 -74.08675473 -1.48245097 -73.04869062 -1.50005847 C-70.79781131 -1.53684206 -68.54690417 -1.56644761 -66.29591352 -1.59556323 C-64.72849121 -1.61868787 -63.16107281 -1.64207828 -61.59365827 -1.66572315 C-58.30084268 -1.71423624 -55.00800179 -1.75914224 -51.71510297 -1.80161792 C-47.51440027 -1.85613966 -43.31390331 -1.92004378 -39.1133793 -1.98679286 C-35.87130877 -2.03715627 -32.62917997 -2.08216033 -29.3870104 -2.12563449 C-27.83978886 -2.14706652 -26.29258975 -2.1701914 -24.74542028 -2.19510013 C-3.47010081 -2.5302646 -3.47010081 -2.5302646 0 0 Z M-70.70606977 12.75599927 C-70.70606977 102.51599927 -70.70606977 192.27599927 -70.70606977 284.75599927 C-51.56606977 284.75599927 -32.42606977 284.75599927 -12.70606977 284.75599927 C-12.70606977 194.99599927 -12.70606977 105.23599927 -12.70606977 12.75599927 C-31.84606977 12.75599927 -50.98606977 12.75599927 -70.70606977 12.75599927 Z M-198.70606977 137.75599927 C-198.70606977 186.26599927 -198.70606977 234.77599927 -198.70606977 284.75599927 C-180.22606977 284.75599927 -161.74606977 284.75599927 -142.70606977 284.75599927 C-142.70606977 236.24599927 -142.70606977 187.73599927 -142.70606977 137.75599927 C-161.18606977 137.75599927 -179.66606977 137.75599927 -198.70606977 137.75599927 Z M-328.70606977 211.75599927 C-328.70606977 235.84599927 -328.70606977 259.93599927 -328.70606977 284.75599927 C-309.56606977 284.75599927 -290.42606977 284.75599927 -270.70606977 284.75599927 C-270.70606977 260.66599927 -270.70606977 236.57599927 -270.70606977 211.75599927 C-289.84606977 211.75599927 -308.98606977 211.75599927 -328.70606977 211.75599927 Z " fill="#0A0A0A" transform="translate(420.7060697674751,164.2440007328987)"/>
<path d="M0 0 C1.69934731 2.30619284 1.66685788 3.69286016 1.66307372 6.54485863 C1.66904686 7.53663273 1.67502001 8.52840682 1.68117416 9.55023468 C1.67243563 10.64263452 1.66369711 11.73503436 1.65469378 12.86053723 C1.65725706 14.01874582 1.65982033 15.17695442 1.66246128 16.37026024 C1.66655665 19.59026175 1.65714964 22.80990331 1.6421271 26.02986223 C1.62919637 29.5001896 1.63355409 32.97049956 1.63583392 36.44084424 C1.63740854 42.45514869 1.62797971 48.46935567 1.6111204 54.4836356 C1.58676042 63.17930565 1.57892822 71.87492845 1.57515643 80.57062892 C1.56858722 94.67810007 1.54861335 108.78551924 1.52024859 122.89296216 C1.49272015 136.59868867 1.47148063 150.30440108 1.45872515 164.01014966 C1.4575429 165.27694702 1.4575429 165.27694702 1.45633676 166.56933626 C1.4524217 170.80601643 1.44863057 175.0426967 1.44490105 179.27937704 C1.41379053 214.43828818 1.36094199 249.59713893 1.29393023 284.75599927 C2.32800006 284.72981519 3.36206988 284.7036311 4.42747515 284.67665356 C8.27572382 284.58593504 12.12387863 284.52867268 15.97288531 284.48134106 C17.63645862 284.4562458 19.29992219 284.42216131 20.96311969 284.378802 C23.35882176 284.31792467 25.75306274 284.28974158 28.14939898 284.26771802 C29.25906276 284.22900838 29.25906276 284.22900838 30.39114398 284.18951672 C34.4068675 284.18735129 36.10608123 284.60555736 39.2817232 287.14882153 C41.29393023 289.75599927 41.29393023 289.75599927 41.63377398 291.95912427 C41.2512596 293.90511975 40.77493504 295.83198003 40.29393023 297.75599927 C37.31283638 299.24654619 34.62268233 298.87859333 31.29585284 298.87625378 C30.56727167 298.87710821 29.8386905 298.87796263 29.08803111 298.87884295 C26.63434136 298.8804967 24.18071921 298.87497809 21.7270357 298.86952466 C19.97306843 298.86924274 18.21910105 298.86940061 16.46513385 298.86996716 C11.69266694 298.87025495 6.92022499 298.86436126 2.14776391 298.85739321 C-2.8357291 298.85115653 -7.81922263 298.85055562 -12.80271894 298.8493678 C-22.24455475 298.84625541 -31.68637904 298.83804326 -41.12820977 298.82801831 C-51.87532943 298.8168543 -62.62244964 298.81134599 -73.36957365 298.80632287 C-95.48174547 298.79586058 -117.59390689 298.77826292 -139.70606977 298.75599927 C-140.26661664 296.86244458 -140.26661664 296.86244458 -140.70606977 294.75599927 C-139.23120094 292.16308472 -137.19441951 290.37607378 -134.70606977 288.75599927 C-130.83106977 288.38099927 -130.83106977 288.38099927 -127.70606977 288.75599927 C-127.70606977 287.43599927 -127.70606977 286.11599927 -127.70606977 284.75599927 C-113.51606977 284.75599927 -99.32606977 284.75599927 -84.70606977 284.75599927 C-84.94837323 278.36220898 -84.94837323 278.36220898 -85.19557172 271.83925122 C-85.99442536 247.38843523 -85.87090055 222.92426339 -85.87332684 198.46331066 C-85.87382724 194.3887616 -85.87613079 190.31421477 -85.87882406 186.23966664 C-85.88756944 172.73118952 -85.89225076 159.22272019 -85.89149358 145.71424022 C-85.89145363 144.99317451 -85.89141367 144.27210881 -85.8913725 143.52919263 C-85.89133162 142.80723096 -85.89129074 142.08526928 -85.89124862 141.34142999 C-85.89083933 129.55773893 -85.90049524 117.77407938 -85.91451087 105.99039748 C-85.92885869 93.83039775 -85.93578258 81.67041347 -85.93491709 69.51040506 C-85.93458556 62.70654124 -85.93731631 55.90271086 -85.94809514 49.09885472 C-85.9577374 42.72998239 -85.95788216 36.36118117 -85.95057851 29.99230641 C-85.94952917 27.6541369 -85.95191611 25.31596302 -85.95793897 22.97780102 C-85.96560972 19.79511421 -85.96104754 16.61267635 -85.95330793 13.42999524 C-85.95845149 12.49920138 -85.96359505 11.56840752 -85.96889448 10.60940778 C-85.96429569 9.75791255 -85.95969689 8.90641731 -85.95495874 8.02911919 C-85.9551761 7.29516134 -85.95539347 6.56120348 -85.95561743 5.80500448 C-85.66309655 3.40315143 -84.97453192 1.80876994 -83.70606977 -0.24400073 C-80.83089037 -1.68159043 -78.31753479 -1.4166934 -75.10426313 -1.46519214 C-74.4259242 -1.47669803 -73.74758527 -1.48820392 -73.04869062 -1.50005847 C-70.79781131 -1.53684206 -68.54690417 -1.56644761 -66.29591352 -1.59556323 C-64.72849121 -1.61868787 -63.16107281 -1.64207828 -61.59365827 -1.66572315 C-58.30084268 -1.71423624 -55.00800179 -1.75914224 -51.71510297 -1.80161792 C-47.51440027 -1.85613966 -43.31390331 -1.92004378 -39.1133793 -1.98679286 C-35.87130877 -2.03715627 -32.62917997 -2.08216033 -29.3870104 -2.12563449 C-27.83978886 -2.14706652 -26.29258975 -2.1701914 -24.74542028 -2.19510013 C-3.47010081 -2.5302646 -3.47010081 -2.5302646 0 0 Z M-70.70606977 12.75599927 C-70.70606977 102.51599927 -70.70606977 192.27599927 -70.70606977 284.75599927 C-51.56606977 284.75599927 -32.42606977 284.75599927 -12.70606977 284.75599927 C-12.70606977 194.99599927 -12.70606977 105.23599927 -12.70606977 12.75599927 C-31.84606977 12.75599927 -50.98606977 12.75599927 -70.70606977 12.75599927 Z " fill="#020202" transform="translate(420.7060697674751,164.2440007328987)"/>
<path d="M0 0 C4.5907825 0.31626089 7.62329736 1.58274133 11.69262695 3.59448242 C12.41367111 3.93776077 13.13471527 4.28103912 13.87760925 4.63471985 C16.16989556 5.72982264 18.45260084 6.84344187 20.7355957 7.95776367 C22.25649357 8.68750295 23.77797382 9.41602973 25.30004883 10.14331055 C29.51829056 12.16424448 33.72344054 14.21102265 37.9230957 16.27026367 C39.54030518 17.06231201 39.54030518 17.06231201 41.19018555 17.87036133 C47.78231676 21.12948473 47.78231676 21.12948473 48.9230957 22.27026367 C49.7646819 32.89158898 48.21395222 43.30544782 46.5793457 53.76928711 C46.1687617 56.42327841 45.78753679 59.08050015 45.4074707 61.73901367 C45.14880677 63.43980199 44.88845272 65.14033433 44.6262207 66.84057617 C44.51562317 67.62908966 44.40502563 68.41760315 44.29107666 69.23001099 C43.73552794 72.63927219 43.13450841 74.98975003 41.03930664 77.76977539 C37.91793297 79.98296904 35.64555478 79.74403119 31.9230957 79.27026367 C30.0480957 78.20776367 30.0480957 78.20776367 28.9230957 76.27026367 C27.1458616 69.20149075 28.71203466 62.42113232 29.8605957 55.33276367 C30.05588867 54.07657227 30.25118164 52.82038086 30.45239258 51.52612305 C30.93360831 48.43930019 31.42409811 45.35425324 31.9230957 42.27026367 C22.43275168 46.05031595 13.14486724 49.99070166 4.0715332 54.69213867 C0.73403487 56.36502866 -2.63352767 57.83046387 -6.0769043 59.27026367 C-6.11557617 60.30473633 -6.11557617 60.30473633 -6.1550293 61.36010742 C-6.73383591 70.94988055 -8.9521783 78.15402557 -16.1628418 84.76635742 C-22.08941184 89.42294817 -27.64361496 90.83926278 -35.0769043 91.27026367 C-35.21189331 92.16225464 -35.21189331 92.16225464 -35.34960938 93.07226562 C-36.83652957 102.05480148 -39.29058529 110.70985695 -41.7644043 119.45776367 C-42.2132943 121.05964279 -42.66185901 122.6616131 -43.11010742 124.26367188 C-45.96864984 134.45604742 -48.88431988 144.63157098 -51.91943359 154.77294922 C-53.54250043 160.23668341 -54.9013959 165.69225029 -56.0769043 171.27026367 C-55.54581055 171.65956055 -55.0147168 172.04885742 -54.4675293 172.44995117 C-48.78617342 176.94941914 -45.68728294 181.15016186 -44.0769043 188.27026367 C-42.92443205 198.53653944 -44.88343034 206.35356225 -51.26831055 214.44213867 C-56.72926642 219.96206815 -63.22827196 222.07783205 -70.8269043 222.45776367 C-80.1481267 222.21338705 -85.04507941 220.07737612 -92.01049805 213.65698242 C-94.11233104 211.22934545 -94.97387293 209.24786081 -96.0769043 206.27026367 C-96.85179199 206.41125488 -97.62667969 206.55224609 -98.42504883 206.69750977 C-102.016852 207.34944847 -105.60936939 207.99736984 -109.2019043 208.64526367 C-110.42006836 208.86698242 -111.63823242 209.08870117 -112.89331055 209.31713867 C-135.86492998 213.44959931 -135.86492998 213.44959931 -143.0769043 213.27026367 C-143.1181543 214.40463867 -143.1594043 215.53901367 -143.2019043 216.70776367 C-144.03708808 223.08450473 -147.40175994 227.79073264 -152.0534668 232.10229492 C-158.54564295 236.9537211 -165.76447616 238.64864174 -173.8190918 238.07495117 C-179.346368 237.15093843 -183.29597881 235.12367839 -188.0769043 232.27026367 C-188.59897461 232.63676025 -189.12104492 233.00325684 -189.65893555 233.38085938 C-194.89439428 237.05473481 -200.13446192 240.72194709 -205.37817383 244.3840332 C-207.09120656 245.58132748 -208.8032408 246.78005264 -210.51391602 247.98071289 C-212.67745828 249.49867084 -214.845285 251.0102904 -217.0144043 252.52026367 C-217.65700195 252.97312744 -218.29959961 253.42599121 -218.96166992 253.89257812 C-222.22271798 256.15260276 -225.3147807 257.98528787 -229.0769043 259.27026367 C-229.0769043 259.93026367 -229.0769043 260.59026367 -229.0769043 261.27026367 C-233.02198988 263.90032073 -236.49376215 263.7067534 -241.0769043 263.27026367 C-243.73346461 261.11180841 -244.00595019 259.68711904 -244.5769043 256.33276367 C-243.81831235 251.68638801 -240.74274048 249.53954239 -237.14575195 246.79882812 C-234.83012838 245.13399901 -232.49048722 243.50962498 -230.1394043 241.89526367 C-229.27927734 241.29891113 -228.41915039 240.70255859 -227.53295898 240.08813477 C-217.42047487 233.09151667 -207.25295978 226.17398462 -197.0769043 219.27026367 C-197.15561768 218.5298584 -197.23433105 217.78945312 -197.31542969 217.02661133 C-197.41331787 216.04740723 -197.51120605 215.06820312 -197.61206055 214.05932617 C-197.71139893 213.0920459 -197.8107373 212.12476563 -197.91308594 211.12817383 C-198.37862626 203.00654197 -195.41202314 196.35202764 -190.0769043 190.27026367 C-189.0869043 189.94026367 -188.0969043 189.61026367 -187.0769043 189.27026367 C-187.0769043 188.61026367 -187.0769043 187.95026367 -187.0769043 187.27026367 C-178.91239183 183.34231953 -171.69804824 180.22293627 -162.7019043 183.00463867 C-154.84931996 186.24117681 -149.6397752 190.08448434 -145.0769043 197.27026367 C-140.07857222 196.77369735 -135.09202432 196.2090867 -130.10473633 195.61206055 C-127.95166725 195.3690113 -125.79597403 195.14873812 -123.63891602 194.9440918 C-119.98731787 194.59618014 -116.34623925 194.1868706 -112.7019043 193.77026367 C-111.51943115 193.67132813 -110.33695801 193.57239258 -109.11865234 193.47045898 C-105.809668 193.0600349 -103.11940641 192.64089581 -100.0769043 191.27026367 C-97.83999157 188.11553888 -97.0019845 184.98408929 -96.0769043 181.27026367 C-92.69992061 174.99872254 -87.72488876 171.27665513 -81.5769043 167.89526367 C-78.01086342 167.00375345 -74.7485418 167.14580138 -71.0769043 167.27026367 C-70.9649321 166.59266998 -70.8529599 165.91507629 -70.7375946 165.21694946 C-69.62239776 158.74951484 -68.15077492 152.51925273 -66.28393555 146.23120117 C-66.01676727 145.3142598 -65.749599 144.39731842 -65.47433472 143.45259094 C-64.61757743 140.5153614 -63.75347654 137.58034859 -62.8894043 134.64526367 C-62.00489703 131.61816307 -61.12241648 128.5904767 -60.24012756 125.56272888 C-59.65994721 123.5719636 -59.07917252 121.58137144 -58.49778748 119.59095764 C-56.20245716 111.72708135 -53.96076034 103.84985597 -51.7644043 95.95776367 C-51.48121338 94.94053223 -51.19802246 93.92330078 -50.90625 92.87524414 C-50.29476309 90.67404943 -49.68468323 88.47248449 -49.0769043 86.27026367 C-49.6956543 85.9737793 -50.3144043 85.67729492 -50.9519043 85.37182617 C-57.25040444 82.10679485 -59.92880077 75.71457426 -62.0769043 69.27026367 C-62.89933935 59.48012327 -61.1771372 52.06500571 -55.0769043 44.27026367 C-48.98461243 38.05909782 -43.57253432 35.9867292 -34.7644043 35.89526367 C-26.92804416 36.00303287 -21.42604148 37.32955785 -15.5144043 42.52026367 C-15.0400293 43.09776367 -14.5656543 43.67526367 -14.0769043 44.27026367 C-6.2974275 41.889976 0.93488998 38.65024787 8.2980957 35.20776367 C9.47243164 34.66571289 10.64676758 34.12366211 11.85668945 33.56518555 C18.06013006 30.72658908 18.06013006 30.72658908 23.9230957 27.27026367 C23.15642578 26.9224585 22.38975586 26.57465332 21.59985352 26.21630859 C18.74292504 24.91744903 15.88803115 23.6142436 13.03442383 22.30810547 C11.80149214 21.74484457 10.56777597 21.18329744 9.33325195 20.62353516 C7.55382833 19.81633694 5.77748717 19.00235455 4.0012207 18.18823242 C2.93291016 17.7012085 1.86459961 17.21418457 0.76391602 16.71240234 C-1.80019233 15.41073613 -3.9341266 14.18149922 -6.0769043 12.27026367 C-7.28053014 8.57914442 -7.4210872 6.97427416 -5.7019043 3.45776367 C-3.35199688 0.29442677 -3.35199688 0.29442677 0 0 Z M-44.9519043 54.89526367 C-47.2854693 59.82167867 -47.69646971 64.50939355 -45.8894043 69.64526367 C-42.96431064 73.8816062 -41.29298034 74.99566586 -36.2019043 76.14526367 C-31.27923672 76.60361261 -28.03247905 74.88867036 -24.2644043 71.77026367 C-21.63646807 68.45076528 -21.67231269 64.60951339 -21.74487305 60.55932617 C-22.32608805 56.55236155 -24.03086327 54.81899188 -27.0769043 52.27026367 C-33.9235323 49.27566376 -39.24861308 49.95241128 -44.9519043 54.89526367 Z M-80.0769043 184.27026367 C-80.0769043 184.93026367 -80.0769043 185.59026367 -80.0769043 186.27026367 C-80.7369043 186.27026367 -81.3969043 186.27026367 -82.0769043 186.27026367 C-84.08540004 190.41278614 -84.55953421 193.68527947 -84.0769043 198.27026367 C-82.04059884 202.0519738 -79.99214559 205.36555169 -76.0769043 207.27026367 C-71.81133541 207.84755871 -68.22435704 207.71926692 -64.2019043 206.14526367 C-61.01492962 203.33322719 -59.44817152 200.53861583 -58.7565918 196.31323242 C-58.54123572 192.55885818 -59.00796713 190.41641046 -60.6394043 186.95776367 C-63.68802887 183.59645965 -65.78960841 182.67337869 -70.0769043 181.27026367 C-73.94386108 181.27026367 -76.58574949 182.68936338 -80.0769043 184.27026367 Z M-179.2644043 201.14526367 C-181.83018277 204.15341774 -182.92609825 206.13921833 -183.4519043 210.08276367 C-182.94445375 214.39609332 -181.5046605 216.6633116 -179.0769043 220.27026367 C-174.6126356 223.2464428 -170.30965687 223.01032439 -165.0769043 222.27026367 C-161.82352689 220.66278783 -159.88451175 218.28855134 -157.6394043 215.45776367 C-156.57204402 211.30691814 -157.37075896 207.12132427 -158.8815918 203.16088867 C-160.32261002 200.8816311 -161.53246762 200.17063734 -163.9519043 199.02026367 C-164.62995117 198.68510742 -165.30799805 198.34995117 -166.0065918 198.00463867 C-171.16426957 196.17512278 -175.30368039 197.75035747 -179.2644043 201.14526367 Z " fill="#0B0B0B" transform="translate(338.076904296875,35.729736328125)"/>
<path d="M0 0 C3.57874219 2.83925719 6.41577569 6.0252454 9.15625 9.65234375 C9.15625 10.31234375 9.15625 10.97234375 9.15625 11.65234375 C9.81625 11.65234375 10.47625 11.65234375 11.15625 11.65234375 C24.21734257 27.16478507 27.49916364 48.15968565 25.90625 67.72265625 C23.57476907 85.93735102 13.41267081 103.61796965 -0.8515625 115.06640625 C-18.42504512 127.72778288 -37.58551315 133.12557622 -59.125 130.359375 C-73.91632846 127.93755537 -86.68269098 121.72941503 -97.84375 111.65234375 C-98.47796875 111.08773437 -99.1121875 110.523125 -99.765625 109.94140625 C-113.60368261 96.8993431 -120.69641796 78.64284918 -121.31884766 59.85131836 C-121.49021038 41.27862299 -116.46801196 24.79041832 -105.10546875 9.91015625 C-103.84375 8.65234375 -103.84375 8.65234375 -101.84375 8.65234375 C-101.60914062 8.08 -101.37453125 7.50765625 -101.1328125 6.91796875 C-94.89100836 -4.05247488 -78.56688789 -10.81950892 -66.984375 -14.32275391 C-43.09432707 -20.74320429 -19.65732633 -14.36817285 0 0 Z M-90.13427734 16.10449219 C-95.14165412 22.06539555 -100.09424006 28.30576956 -102.84375 35.65234375 C-103.13894531 36.37550781 -103.43414062 37.09867188 -103.73828125 37.84375 C-108.74218996 52.44419597 -107.11075015 69.73960341 -100.84375 83.65234375 C-98.77128281 87.24215299 -96.47249099 90.45404221 -93.84375 93.65234375 C-93.080625 94.68359375 -92.3175 95.71484375 -91.53125 96.77734375 C-90.974375 97.39609375 -90.4175 98.01484375 -89.84375 98.65234375 C-89.18375 98.65234375 -88.52375 98.65234375 -87.84375 98.65234375 C-87.84375 99.31234375 -87.84375 99.97234375 -87.84375 100.65234375 C-85.98119728 102.20396295 -84.14608289 103.5924675 -82.15625 104.96484375 C-81.57552734 105.36638672 -80.99480469 105.76792969 -80.39648438 106.18164062 C-66.60425342 115.37151249 -51.59237373 117.25326539 -35.453125 115.2265625 C-20.04607714 111.86914432 -6.52974125 102.15579229 2.15625 89.08984375 C10.12477484 75.47937066 13.95981414 59.93136753 10.24609375 44.34375 C5.71770511 27.97409456 -3.94402067 14.17890418 -18.84375 5.65234375 C-28.03551932 1.18131495 -36.8461101 -1.74307554 -47.09375 -1.66015625 C-48.20399536 -1.65169678 -48.20399536 -1.65169678 -49.33666992 -1.64306641 C-64.32463746 -1.31501684 -80.00592418 4.70769978 -90.13427734 16.10449219 Z " fill="#0C0C0C" transform="translate(199.84375,69.34765625)"/>
<path d="M0 0 C3.29379699 0.10605028 4.08758312 0.49588875 7 2.4375 C7.44921875 4.390625 7.44921875 4.390625 7.6875 6.6875 C8.44288696 10.66756406 9.41650111 12.20387079 12.75 14.5 C13.45640625 14.96921875 14.1628125 15.4384375 14.890625 15.921875 C19.08155341 18.93313468 22.40909395 22.67842329 23.5078125 27.80859375 C23.69377372 31.5836066 23.41826902 33.77792194 21.375 37 C18.27451464 38.87660956 16.56716403 39.03202734 13 38.4375 C10.13479518 36.30906213 9.07398529 34.61365546 7.6875 31.3125 C6.19042539 28.13635004 6.19042539 28.13635004 2.625 26.875 C-0.92052831 26.17401926 -0.92052831 26.17401926 -3.8125 27.4375 C-6.59224442 29.97898061 -7.33473408 31.74157822 -8 35.4375 C-7.0333544 39.3040824 -6.38264302 40.18240465 -3 42.4375 C-1.28164554 42.78727813 0.45042286 43.07239625 2.1875 43.3125 C9.01584581 44.46862204 15.74515781 46.66307132 20 52.4375 C24.06987809 59.99786382 25.57197987 67.52164678 23.33984375 75.921875 C21.20465512 81.43084653 18.03409748 85.31366273 13 88.4375 C10.0625 89.3125 10.0625 89.3125 8 89.4375 C7.95101562 90.05238281 7.90203125 90.66726562 7.8515625 91.30078125 C7.77679688 92.10902344 7.70203125 92.91726562 7.625 93.75 C7.55539063 94.55050781 7.48578125 95.35101563 7.4140625 96.17578125 C7 98.4375 7 98.4375 5 101.4375 C1.96153726 102.07747982 -0.94274375 101.93114872 -4 101.4375 C-6 99.875 -6 99.875 -7 97.4375 C-7.061875 96.303125 -7.12375 95.16875 -7.1875 94 C-7.60705998 90.47412836 -7.60705998 90.47412836 -9.66015625 89.0859375 C-11.07254237 88.26754554 -12.49625316 87.46843914 -13.9296875 86.6875 C-18.03181561 84.21074341 -21.52100443 80.00894085 -23 75.4375 C-23.42474381 72.67092546 -23.54755811 70.19222533 -23 67.4375 C-20.43421091 64.4189246 -18.8190279 63.5879337 -14.9375 62.875 C-12 63.4375 -12 63.4375 -9.8125 65.5625 C-7.99455453 68.44613764 -6.43719524 71.34753024 -5 74.4375 C-3.39667209 74.51871924 -1.79215974 74.57679134 -0.1875 74.625 C0.70582031 74.65980469 1.59914062 74.69460937 2.51953125 74.73046875 C5.02316069 74.63466078 5.02316069 74.63466078 6.79296875 73.171875 C8.51474101 70.69787213 8.54218995 68.3211973 8.390625 65.37109375 C8.0976664 63.22023507 8.0976664 63.22023507 6.25 61.0625 C3.00375329 59.43937665 0.8062917 59.03425298 -2.75 58.5625 C-8.99907883 57.65549963 -13.47362623 55.92684822 -18 51.4375 C-22.61030006 44.92558936 -24.8698055 37.82201024 -23.58984375 29.8984375 C-21.76186375 22.65219342 -18.34518781 17.84914702 -12.3125 13.5 C-10 12.4375 -10 12.4375 -7 12.4375 C-7.061875 11.385625 -7.12375 10.33375 -7.1875 9.25 C-6.91220891 3.65241445 -6.01902964 0.17703028 0 0 Z " fill="#0D0D0D" transform="translate(152,75.5625)"/>
<path d="M0 0 C3.53635507 1.83779082 4.7454434 4.23633021 6 8 C6.66 8 7.32 8 8 8 C8 9.65 8 11.3 8 13 C11.3 13 14.6 13 18 13 C18 13.33 18 13.66 18 14 C-0.81 14 -19.62 14 -39 14 C-39 13.67 -39 13.34 -39 13 C-26.46 13 -13.92 13 -1 13 C-1.495 8.545 -1.495 8.545 -2 4 C-5.35517111 3.35329717 -8.57771016 2.87105972 -12 3 C-15.04579911 5.60007241 -16.4137471 8.04279293 -17 12 C-18.32 12 -19.64 12 -21 12 C-20.77729438 7.32318196 -19.61183801 4.28829051 -16.2109375 1.14453125 C-11.21619897 -1.44108428 -5.40589555 -0.88792487 0 0 Z " fill="#3F3F3F" transform="translate(132,362)"/>
<path d="M0 0 C1.3921875 0.3403125 1.3921875 0.3403125 2.8125 0.6875 C1.9375 5.4375 1.9375 5.4375 0.8125 7.6875 C-1.1675 8.0175 -3.1475 8.3475 -5.1875 8.6875 C-5.1875 56.2075 -5.1875 103.7275 -5.1875 152.6875 C-5.5175 152.6875 -5.8475 152.6875 -6.1875 152.6875 C-6.25752614 133.18176546 -6.31045676 113.67605637 -6.34293652 94.17022228 C-6.35841708 85.11368296 -6.37952926 76.05722167 -6.41381836 67.00073242 C-6.44368438 59.10872402 -6.46306634 51.2167721 -6.46976548 43.32470876 C-6.47368251 39.14442759 -6.48291259 34.96430805 -6.50469017 30.7840786 C-6.52501123 26.85167188 -6.53134275 22.91949381 -6.52682304 18.98703957 C-6.52765022 17.54182316 -6.53364204 16.09659932 -6.54511642 14.65142822 C-6.55999018 12.68195591 -6.554678 10.71236166 -6.54826355 8.74284363 C-6.55102893 7.63945743 -6.55379431 6.53607122 -6.55664349 5.39924908 C-6.1875 2.6875 -6.1875 2.6875 -4.86417103 0.78950977 C-3.1875 -0.3125 -3.1875 -0.3125 0 0 Z " fill="#080808" transform="translate(213.1875,287.3125)"/>
<path d="M0 0 C0.80050781 0.12761719 1.60101563 0.25523437 2.42578125 0.38671875 C3.23402344 0.50660156 4.04226563 0.62648438 4.875 0.75 C5.48988281 0.85699219 6.10476563 0.96398437 6.73828125 1.07421875 C6.73828125 2.06421875 6.73828125 3.05421875 6.73828125 4.07421875 C7.39828125 4.07421875 8.05828125 4.07421875 8.73828125 4.07421875 C7.98828125 9.82421875 7.98828125 9.82421875 5.73828125 12.07421875 C3.57421875 12.26953125 3.57421875 12.26953125 1.11328125 12.19921875 C0.29601562 12.18117188 -0.52125 12.163125 -1.36328125 12.14453125 C-1.98976563 12.12132812 -2.61625 12.098125 -3.26171875 12.07421875 C-2.89046875 13.68296875 -2.89046875 13.68296875 -2.51171875 15.32421875 C-2.26171875 19.07421875 -2.26171875 19.07421875 -4.19921875 21.51171875 C-4.87984375 22.02734375 -5.56046875 22.54296875 -6.26171875 23.07421875 C-7.13405995 20.07940958 -7.37001641 17.43845964 -7.32421875 14.32421875 C-7.31519531 13.525 -7.30617188 12.72578125 -7.296875 11.90234375 C-7.28527344 11.2990625 -7.27367187 10.69578125 -7.26171875 10.07421875 C-6.27171875 10.40421875 -5.28171875 10.73421875 -4.26171875 11.07421875 C-4.59171875 10.41421875 -4.92171875 9.75421875 -5.26171875 9.07421875 C-5.71801469 3.7127415 -5.71801469 3.7127415 -4.0390625 1.36328125 C-2.26171875 0.07421875 -2.26171875 0.07421875 0 0 Z " fill="#202020" transform="translate(342.26171875,398.92578125)"/>
<path d="M0 0 C2 3 2 3 3 6.5625 C3.70977006 10.03073325 3.70977006 10.03073325 6 12 C5.01 12 4.02 12 3 12 C3.061875 12.9075 3.12375 13.815 3.1875 14.75 C2.98313144 18.29238832 2.47346304 19.52653696 0 22 C-0.66 22 -1.32 22 -2 22 C-2 22.66 -2 23.32 -2 24 C-4.3125 23.8125 -4.3125 23.8125 -7 23 C-9.3777936 19.94283679 -11 16.91000096 -11 13 C-8.9375 10.1875 -8.9375 10.1875 -6 8 C-2.6875 7.6875 -2.6875 7.6875 0 8 C0 5.36 0 2.72 0 0 Z " fill="#1F1F1F" transform="translate(158,78)"/>
<path d="M0 0 C4.84134615 1.55288462 4.84134615 1.55288462 6.3125 4.0625 C6.3125 6.0425 6.3125 8.0225 6.3125 10.0625 C1.3625 10.0625 -3.5875 10.0625 -8.6875 10.0625 C-9.6875 6.0625 -9.6875 6.0625 -8.71875 4.32421875 C-5.67507459 1.19513408 -4.5434573 0.07700775 0 0 Z " fill="#1F1F1F" transform="translate(289.6875,452.9375)"/>
<path d="M0 0 C0.99 0.66 1.98 1.32 3 2 C3 2.99 3 3.98 3 5 C0.36 4.67 -2.28 4.34 -5 4 C-5.41890218 6.78938212 -5.41890218 6.78938212 -5 10 C-2.62499209 12.87640616 -2.62499209 12.87640616 0 15 C-1.32 15.33 -2.64 15.66 -4 16 C-4.66 15.01 -5.32 14.02 -6 13 C-6.33 15.97 -6.66 18.94 -7 22 C-7.99 22 -8.98 22 -10 22 C-11.4557412 8.15926058 -11.4557412 8.15926058 -10 4 C-6.84296853 0.66757789 -4.60845206 -0.72765032 0 0 Z " fill="#1D1D1D" transform="translate(418,326)"/>
<path d="M0 0 C2.6465335 2.6465335 3.59941997 5.56221264 5 9 C-0.4021102 13.65181712 -0.4021102 13.65181712 -4 14 C-5.33783393 13.68521554 -6.67203709 13.35412344 -8 13 C-8.99 13.495 -8.99 13.495 -10 14 C-10.66 12.02 -11.32 10.04 -12 8 C-10.88625 7.731875 -9.7725 7.46375 -8.625 7.1875 C-4.78159049 6.34190981 -4.78159049 6.34190981 -3 3 C-3.33 2.34 -3.66 1.68 -4 1 C-2.125 0.375 -2.125 0.375 0 0 Z " fill="#1E1E1E" transform="translate(97,148)"/>
<path d="M0 0 C0.33 0.99 0.66 1.98 1 3 C1.5775 3.12375 2.155 3.2475 2.75 3.375 C6.12042337 4.31122871 7.72766766 6.42059573 10 9 C11.28317892 12.84953676 11.06643637 15.94738135 11 20 C9.68 20 8.36 20 7 20 C2.70714452 14.92662534 0.21893571 8.57595001 -0.1875 1.9375 C-0.125625 1.298125 -0.06375 0.65875 0 0 Z " fill="#373737" transform="translate(128,108)"/>
<path d="M0 0 C3.375 0.3125 3.375 0.3125 7 1 C9.78637633 5.1795645 8.79562512 7.14668677 8 12 C5.36 12 2.72 12 0 12 C0 11.67 0 11.34 0 11 C0.969375 10.731875 1.93875 10.46375 2.9375 10.1875 C3.948125 9.795625 4.95875 9.40375 6 9 C6.33 8.01 6.66 7.02 7 6 C6.01 6.66 5.02 7.32 4 8 C3.01 8 2.02 8 1 8 C1.66 6.35 2.32 4.7 3 3 C1.68 3.33 0.36 3.66 -1 4 C-0.67 2.68 -0.34 1.36 0 0 Z " fill="#1F1F1F" transform="translate(80,409)"/>
<path d="M0 0 C0.93619813 3.15506142 1.1057123 5.96586502 1.0625 9.25 C1.05347656 10.14203125 1.04445313 11.0340625 1.03515625 11.953125 C1.02355469 12.62859375 1.01195313 13.3040625 1 14 C-3.875 12.25 -3.875 12.25 -5 10 C-5.25860135 5.94857881 -5.30441554 4.45662331 -3 1 C-2.01 0.67 -1.02 0.34 0 0 Z " fill="#222222" transform="translate(92,398)"/>
<path d="M0 0 C2.4375 0.4375 2.4375 0.4375 4.4375 2.4375 C4.21006695 5.39412966 3.82514062 6.98783688 1.875 9.25 C1.400625 9.641875 0.92625 10.03375 0.4375 10.4375 C-1.5425 8.7875 -3.5225 7.1375 -5.5625 5.4375 C-3.24265926 0.55362475 -3.24265926 0.55362475 0 0 Z " fill="#030303" transform="translate(154.5625,88.5625)"/>
<path d="M0 0 C0.66 0.33 1.32 0.66 2 1 C1.67 2.32 1.34 3.64 1 5 C1.66 5 2.32 5 3 5 C4.125 7.3125 4.125 7.3125 5 10 C4.01 11.485 4.01 11.485 3 13 C1.125 12.6875 1.125 12.6875 -1 12 C-3 9 -3 9 -2.75 5.4375 C-2 2 -2 2 0 0 Z " fill="#202020" transform="translate(41,450)"/>
<path d="M0 0 C2.3125 0.8125 2.3125 0.8125 4 2 C4.042721 3.66611905 4.04063832 5.33382885 4 7 C3 8 3 8 -0.5625 8.0625 C-1.696875 8.041875 -2.83125 8.02125 -4 8 C-4.33 6.35 -4.66 4.7 -5 3 C-2.75 1.375 -2.75 1.375 0 0 Z " fill="#020202" transform="translate(289,455)"/>
<path d="M0 0 C0.33 0 0.66 0 1 0 C1 1.98 1 3.96 1 6 C1.99 6.33 2.98 6.66 4 7 C4.125 14.625 4.125 14.625 3 18 C2.01 18 1.02 18 0 18 C-1.33257403 5.33029613 -1.33257403 5.33029613 0 0 Z " fill="#0B0B0B" transform="translate(408,330)"/>
<path d="M0 0 C-0.33 1.32 -0.66 2.64 -1 4 C0.32 3.34 1.64 2.68 3 2 C2.125 6.875 2.125 6.875 1 8 C-1.4375 8.1875 -1.4375 8.1875 -4 8 C-4.66 7.34 -5.32 6.68 -6 6 C-6 4.68 -6 3.36 -6 2 C-3 0 -3 0 0 0 Z " fill="#0F0F0F" transform="translate(345,401)"/>
<path d="M0 0 C3.82352106 1.5577308 6.29205593 3.91595258 9 7 C9 7.99 9 8.98 9 10 C8.01 10.33 7.02 10.66 6 11 C4.62437146 9.71034824 3.29233607 8.37310707 2 7 C2 6.34 2 5.68 2 5 C1.34 5 0.68 5 0 5 C0 3.35 0 1.7 0 0 Z " fill="#3C3C3C" transform="translate(282,208)"/>
<path d="M0 0 C0.66 0.33 1.32 0.66 2 1 C1.731875 1.515625 1.46375 2.03125 1.1875 2.5625 C-0.32349407 5.66401415 -1.65572726 8.82262806 -3 12 C-4.32 12 -5.64 12 -7 12 C-6.79692286 7.73538008 -5.91504038 5.56751049 -2.9375 2.625 C-1.968125 1.75875 -0.99875 0.8925 0 0 Z " fill="#232323" transform="translate(118,362)"/>
<path d="M0 0 C2.625 0.375 2.625 0.375 5 1 C5 4 5 4 3.8125 5.6875 C1.44258278 7.40364695 -0.14025666 7.23187108 -3 7 C-2.25 2.25 -2.25 2.25 0 0 Z " fill="#1E1E1E" transform="translate(89,149)"/>
<path d="M0 0 C-1 3 -1 3 -3 4 C-9.53333333 4.23333333 -9.53333333 4.23333333 -12 3 C-12 2.34 -12 1.68 -12 1 C-10.37681021 0.63762737 -8.7513642 0.28534843 -7.125 -0.0625 C-6.22007812 -0.25972656 -5.31515625 -0.45695312 -4.3828125 -0.66015625 C-2 -1 -2 -1 0 0 Z " fill="#353535" transform="translate(380,111)"/>
<path d="M0 0 C3.125 0.375 3.125 0.375 6 1 C5.125 5.75 5.125 5.75 4 8 C2.02 8 0.04 8 -2 8 C-2 7.34 -2 6.68 -2 6 C-0.35 5.67 1.3 5.34 3 5 C3 3.68 3 2.36 3 1 C1.35 2.32 -0.3 3.64 -2 5 C-2 2 -2 2 0 0 Z " fill="#2E2E2E" transform="translate(210,287)"/>
<path d="M0 0 C-0.165 0.598125 -0.33 1.19625 -0.5 1.8125 C-1.1114124 4.11344336 -1.1114124 4.11344336 -1 7 C-3.64 7 -6.28 7 -9 7 C-9 5.68 -9 4.36 -9 3 C-8.34 3 -7.68 3 -7 3 C-6.67 2.34 -6.34 1.68 -6 1 C-3.911361 0.32624548 -2.19636905 0 0 0 Z " fill="#101010" transform="translate(87,415)"/>
<path d="M0 0 C0.66 0.99 1.32 1.98 2 3 C1.21625 3.721875 0.4325 4.44375 -0.375 5.1875 C-2.87386963 7.86486032 -3.78573009 9.6374064 -5 13 C-5.99 13.495 -5.99 13.495 -7 14 C-7.99 13.34 -8.98 12.68 -10 12 C-9.04882866 10.8274869 -8.08882991 9.66212985 -7.125 8.5 C-6.32449219 7.52546875 -6.32449219 7.52546875 -5.5078125 6.53125 C-5.01023438 6.0259375 -4.51265625 5.520625 -4 5 C-3.34 5 -2.68 5 -2 5 C-1.34 3.35 -0.68 1.7 0 0 Z " fill="#2B2B2B" transform="translate(179,58)"/>
<path d="M0 0 C0.66 0 1.32 0 2 0 C2 0.66 2 1.32 2 2 C2.598125 2.165 3.19625 2.33 3.8125 2.5 C7.18527798 4.81276204 7.8331548 8.19891337 9 12 C6.5625 11.25 6.5625 11.25 4 10 C3.375 8.0625 3.375 8.0625 3 6 C2.484375 5.484375 1.96875 4.96875 1.4375 4.4375 C0.963125 3.963125 0.48875 3.48875 0 3 C0 2.01 0 1.02 0 0 Z " fill="#2B2B2B" transform="translate(177,66)"/>
<path d="M0 0 C1.98 0.66 3.96 1.32 6 2 C5.814375 2.598125 5.62875 3.19625 5.4375 3.8125 C4.77906313 6.16408762 4.77906313 6.16408762 6 9 C3.15616877 7.7251791 0.86245982 6.54862922 -1 4 C-0.6875 1.8125 -0.6875 1.8125 0 0 Z " fill="#242424" transform="translate(183,60)"/>
<path d="M0 0 C2.86697492 1.28519565 4.97607712 2.57129254 7 5 C7 5.66 7 6.32 7 7 C2.68607774 6.5206753 0.83430453 5.2542015 -2 2 C-1.34 1.34 -0.68 0.68 0 0 Z " fill="#161616" transform="translate(175,68)"/>
<path d="M0 0 C2 2 2 2 2 5 C-0.62596061 6.84526962 -2.95127546 7.98375849 -6 9 C-5.67 8.401875 -5.34 7.80375 -5 7.1875 C-3.79212012 4.94613529 -3.79212012 4.94613529 -4 2 C-2.68 1.34 -1.36 0.68 0 0 Z " fill="#262626" transform="translate(97,148)"/>
<path d="M0 0 C2 3 2 3 3 6.5625 C3.70977006 10.03073325 3.70977006 10.03073325 6 12 C3.3125 12.75 3.3125 12.75 0 13 C-2.875 11.0625 -2.875 11.0625 -5 9 C-3.35 9 -1.7 9 0 9 C0 6.03 0 3.06 0 0 Z " fill="#424242" transform="translate(158,78)"/>
<path d="M0 0 C-2 3 -2 3 -3.9375 3.4375 C-6.71287688 4.19442097 -7.37578572 5.71133443 -9 8 C-9.66 8 -10.32 8 -11 8 C-10.67842796 5.02545866 -10.37860258 3.40664722 -8.3125 1.1875 C-5.39975854 -0.3082321 -3.23000416 -0.22022756 0 0 Z " fill="#1A1A1A" transform="translate(158,86)"/>
<path d="M0 0 C0.33 0.99 0.66 1.98 1 3 C1.66 3 2.32 3 3 3 C2.6875 5.875 2.6875 5.875 2 9 C1.01 9.66 0.02 10.32 -1 11 C-2.41687119 6.74938644 -1.19320039 4.28148375 0 0 Z " fill="#313131" transform="translate(348,400)"/>
<path d="M0 0 C3.35620271 1.38877354 5.07298728 2.91677965 7 6 C7 6.66 7 7.32 7 8 C4.24542282 7.62005832 3.17979426 7.1926367 1.25 5.125 C0 3 0 3 0 0 Z " fill="#1E1E1E" transform="translate(294,450)"/>
<path d="M0 0 C4.24846075 0.47205119 6.26819288 2.88877522 9 6 C9 6.66 9 7.32 9 8 C6.6875 7.8125 6.6875 7.8125 4 7 C2.25 4.5625 2.25 4.5625 1 2 C0.67 1.34 0.34 0.68 0 0 Z " fill="#282828" transform="translate(147,94)"/>
<path d="M0 0 C0.66 0 1.32 0 2 0 C3.125 5.625 3.125 5.625 2 9 C1.01 9 0.02 9 -1 9 C-0.67 6.03 -0.34 3.06 0 0 Z " fill="#1E1E1E" transform="translate(409,339)"/>
<path d="M0 0 C0.93423645 3.01031744 1.04449911 3.86650268 0 7 C-0.99 7 -1.98 7 -3 7 C-3.33 7.66 -3.66 8.32 -4 9 C-3.38461538 3.46153846 -3.38461538 3.46153846 -1.4375 1.125 C-0.963125 0.75375 -0.48875 0.3825 0 0 Z " fill="#4F4F4F" transform="translate(339,163)"/>
<path d="M0 0 C3.16115776 1.36983503 3.9927092 1.9890638 6 5 C2.25 6.125 2.25 6.125 0 5 C0 3.35 0 1.7 0 0 Z " fill="#323232" transform="translate(282,208)"/>
<path d="M0 0 C2.86697492 1.28519565 4.97607712 2.57129254 7 5 C7 5.66 7 6.32 7 7 C4.13302508 5.71480435 2.02392288 4.42870746 0 2 C0 1.34 0 0.68 0 0 Z " fill="#222222" transform="translate(43,451)"/>
<path d="M0 0 C0.33 0 0.66 0 1 0 C1 2.97 1 5.94 1 9 C-0.37562854 7.71034824 -1.70766393 6.37310707 -3 5 C-3 4.34 -3 3.68 -3 3 C-2.01 3 -1.02 3 0 3 C0 2.01 0 1.02 0 0 Z " fill="#555555" transform="translate(92,403)"/>
<path d="M0 0 C1.65 0 3.3 0 5 0 C3.71937515 1.7074998 2.38232443 3.37373596 1 5 C0.34 5 -0.32 5 -1 5 C-0.67 3.35 -0.34 1.7 0 0 Z " fill="#070707" transform="translate(90,151)"/>
<path d="M0 0 C0.99 0.33 1.98 0.66 3 1 C3.6875 3.0625 3.6875 3.0625 4 5 C2.35 4.67 0.7 4.34 -1 4 C-0.67 2.68 -0.34 1.36 0 0 Z " fill="#171717" transform="translate(281,458)"/>
<path d="M0 0 C0.33 0 0.66 0 1 0 C1 1.98 1 3.96 1 6 C-0.98 6.99 -0.98 6.99 -3 8 C-2.67 6.35 -2.34 4.7 -2 3 C-1.34 3 -0.68 3 0 3 C0 2.01 0 1.02 0 0 Z " fill="#252525" transform="translate(338,414)"/>
<path d="M0 0 C0.33 0.99 0.66 1.98 1 3 C0.01 4.485 0.01 4.485 -1 6 C-3.625 6.1875 -3.625 6.1875 -6 6 C-4 4 -2 2 0 0 Z " fill="#060606" transform="translate(347,403)"/>
<path d="M0 0 C0.66 0.66 1.32 1.32 2 2 C-0.31 4.31 -2.62 6.62 -5 9 C-5.66 8.67 -6.32 8.34 -7 8 C-4.69 5.36 -2.38 2.72 0 0 Z " fill="#494949" transform="translate(199,161)"/>
<path d="M0 0 C0.99 0.33 1.98 0.66 3 1 C1.35 2.65 -0.3 4.3 -2 6 C-2.99 5.67 -3.98 5.34 -5 5 C-3.625 3.5 -3.625 3.5 -2 2 C-1.34 2 -0.68 2 0 2 C0 1.34 0 0.68 0 0 Z " fill="#454545" transform="translate(151,223)"/>
</svg>
