<svg width="46" height="40" viewBox="0 0 46 40" fill="none" xmlns="http://www.w3.org/2000/svg">
<path d="M42.8037 22.5782C42.8037 29.4979 37.1942 35.1074 30.2745 35.1074L11.4806 35.1074C9.55844 35.1074 8.00024 33.5492 8.00024 31.6271L8.00024 7.96071C8.00024 4.11642 11.1166 1.00002 14.9609 1.00002L39.3234 1.00002C41.2455 1.00002 42.8037 2.55822 42.8037 4.48037L42.8037 22.5782Z" fill="black" fill-opacity="0.08"/>
<path d="M19.1135 13.2765C18.8963 13.2765 18.7197 13.1002 18.7197 12.8827V12.2136C18.7197 11.9964 18.896 11.8198 19.1135 11.8198C19.3307 11.8198 19.5072 11.9961 19.5072 12.2136V12.8827C19.5072 13.1002 19.3307 13.2765 19.1135 13.2765Z" fill="black"/>
<path d="M17.4582 13.2765C17.241 13.2765 17.0645 13.1002 17.0645 12.8827V12.2136C17.0645 11.9964 17.2407 11.8198 17.4582 11.8198C17.6754 11.8198 17.8519 11.9961 17.8519 12.2136V12.8827C17.8517 13.1002 17.6757 13.2765 17.4582 13.2765Z" fill="black"/>
<path d="M15.8029 13.2765C15.5857 13.2765 15.4092 13.1002 15.4092 12.8827V12.2136C15.4092 11.9964 15.5855 11.8198 15.8029 11.8198C16.0201 11.8198 16.1967 11.9961 16.1967 12.2136V12.8827C16.1967 13.1002 16.0204 13.2765 15.8029 13.2765Z" fill="black"/>
<path d="M19.1135 16.0125C18.8963 16.0125 18.7197 15.8362 18.7197 15.6188V14.9499C18.7197 14.7327 18.896 14.5562 19.1135 14.5562C19.3307 14.5562 19.5072 14.7324 19.5072 14.9499V15.6188C19.5072 15.8362 19.3307 16.0125 19.1135 16.0125Z" fill="black"/>
<path d="M17.4582 16.0125C17.241 16.0125 17.0645 15.8362 17.0645 15.6188V14.9499C17.0645 14.7327 17.2407 14.5562 17.4582 14.5562C17.6754 14.5562 17.8519 14.7324 17.8519 14.9499V15.6188C17.8517 15.8362 17.6757 16.0125 17.4582 16.0125Z" fill="black"/>
<path d="M15.8029 16.0125C15.5857 16.0125 15.4092 15.8362 15.4092 15.6188V14.9499C15.4092 14.7327 15.5855 14.5562 15.8029 14.5562C16.0201 14.5562 16.1967 14.7324 16.1967 14.9499V15.6188C16.1967 15.8362 16.0204 16.0125 15.8029 16.0125Z" fill="black"/>
<path d="M19.1135 18.7491C18.8963 18.7491 18.7197 18.5728 18.7197 18.3554V17.6862C18.7197 17.469 18.896 17.2925 19.1135 17.2925C19.3307 17.2925 19.5072 17.4688 19.5072 17.6862V18.3554C19.5072 18.5728 19.3307 18.7491 19.1135 18.7491Z" fill="black"/>
<path d="M17.4582 18.7491C17.241 18.7491 17.0645 18.5728 17.0645 18.3554V17.6862C17.0645 17.469 17.2407 17.2925 17.4582 17.2925C17.6754 17.2925 17.8519 17.4688 17.8519 17.6862V18.3554C17.8517 18.5728 17.6757 18.7491 17.4582 18.7491Z" fill="black"/>
<path d="M15.8029 18.7491C15.5857 18.7491 15.4092 18.5728 15.4092 18.3554V17.6862C15.4092 17.469 15.5855 17.2925 15.8029 17.2925C16.0201 17.2925 16.1967 17.4688 16.1967 17.6862V18.3554C16.1967 18.5728 16.0204 18.7491 15.8029 18.7491Z" fill="black"/>
<path d="M19.1135 21.485C18.8963 21.485 18.7197 21.3087 18.7197 21.0912V20.4221C18.7197 20.2049 18.896 20.0283 19.1135 20.0283C19.3307 20.0283 19.5072 20.2046 19.5072 20.4221V21.0912C19.5072 21.3087 19.3307 21.485 19.1135 21.485Z" fill="black"/>
<path d="M17.4582 21.485C17.241 21.485 17.0645 21.3087 17.0645 21.0912V20.4221C17.0645 20.2049 17.2407 20.0283 17.4582 20.0283C17.6754 20.0283 17.8519 20.2046 17.8519 20.4221V21.0912C17.8517 21.3087 17.6757 21.485 17.4582 21.485Z" fill="black"/>
<path d="M15.8029 21.485C15.5857 21.485 15.4092 21.3087 15.4092 21.0912V20.4221C15.4092 20.2049 15.5855 20.0283 15.8029 20.0283C16.0201 20.0283 16.1967 20.2046 16.1967 20.4221V21.0912C16.1967 21.3087 16.0204 21.485 15.8029 21.485Z" fill="black"/>
<path d="M19.1135 24.2215C18.8963 24.2215 18.7197 24.0452 18.7197 23.8278V23.1589C18.7197 22.9417 18.896 22.7651 19.1135 22.7651C19.3307 22.7651 19.5072 22.9414 19.5072 23.1589V23.8278C19.5072 24.0449 19.3307 24.2215 19.1135 24.2215Z" fill="black"/>
<path d="M17.4582 24.2215C17.241 24.2215 17.0645 24.0452 17.0645 23.8278V23.1589C17.0645 22.9417 17.2407 22.7651 17.4582 22.7651C17.6754 22.7651 17.8519 22.9414 17.8519 23.1589V23.8278C17.8517 24.0449 17.6757 24.2215 17.4582 24.2215Z" fill="black"/>
<path d="M15.8029 24.2215C15.5857 24.2215 15.4092 24.0452 15.4092 23.8278L15.4095 23.1589C15.4095 22.9417 15.5857 22.7651 15.8032 22.7651C16.0204 22.7651 16.197 22.9414 16.197 23.1589V23.8278C16.1967 24.0449 16.0204 24.2215 15.8029 24.2215V24.2215Z" fill="black"/>
<path d="M4.55502 26.9446C4.55502 27.1618 4.7313 27.3383 4.94877 27.3383H28.9268C29.144 27.3383 29.3205 27.162 29.3205 26.9446C29.3205 26.7274 29.1443 26.5508 28.9268 26.5508H28.1989V15.2458C28.1989 15.0286 28.0226 14.852 27.8052 14.852L21.3765 14.8523V6.70192C21.3765 6.56408 21.3045 6.43668 21.187 6.36528C21.0698 6.29362 20.9231 6.28922 20.8012 6.35265L13.4923 10.1581C13.3618 10.2259 13.2806 10.3604 13.2806 10.5073V17.6265H6.20707C5.98988 17.6265 5.81332 17.8028 5.81332 18.0202V26.5509H4.94789C4.7307 26.5506 4.55469 26.7269 4.55469 26.9444L4.55502 26.9446ZM21.3766 20.8157H27.4118V26.5511L21.3766 26.5509V20.8157ZM21.3766 18.0795H27.4118V20.0285L21.3766 20.0283V18.0795ZM21.3766 15.6394H27.4118V17.2926H21.3766V15.6394ZM14.0676 10.7464L20.5888 7.35094V26.5505H14.0676V10.7464ZM8.54726 23.406C8.54726 22.5889 9.19471 21.9238 9.9907 21.9238C10.7867 21.9238 11.4344 22.5886 11.4344 23.406V26.551H8.54726V23.406ZM6.6008 18.4139H13.2804V26.5509H12.2219V23.4059C12.2219 22.1546 11.2214 21.1365 9.9907 21.1365C8.76059 21.1365 7.76006 22.1543 7.76006 23.4059V26.5509H6.6008V18.4139Z" fill="black"/>
</svg>
