<svg width="46" height="40" viewBox="0 0 46 40" fill="none" xmlns="http://www.w3.org/2000/svg">
<path d="M45.6223 27.2266C45.6223 34.1463 40.0127 39.7559 33.093 39.7559L14.2991 39.7559C12.377 39.7559 10.8188 38.1977 10.8188 36.2755L10.8188 12.6091C10.8188 8.76486 13.9352 5.64845 17.7795 5.64845L42.1419 5.64846C44.0641 5.64846 45.6223 7.20666 45.6223 9.1288L45.6223 27.2266Z" fill="#E8F5E9"/>
<path d="M19.1134 14.0074C18.8962 14.0074 18.7196 13.8311 18.7196 13.6137V12.9445C18.7196 12.7273 18.8959 12.5508 19.1134 12.5508C19.3305 12.5508 19.5071 12.7271 19.5071 12.9445V13.6137C19.5071 13.8311 19.3305 14.0074 19.1134 14.0074Z" fill="#103E13"/>
<path d="M17.458 14.0074C17.2408 14.0074 17.0642 13.8311 17.0642 13.6137V12.9445C17.0642 12.7273 17.2405 12.5508 17.458 12.5508C17.6751 12.5508 17.8517 12.7271 17.8517 12.9445V13.6137C17.8514 13.8311 17.6754 14.0074 17.458 14.0074Z" fill="#103E13"/>
<path d="M15.8027 14.0074C15.5855 14.0074 15.4089 13.8311 15.4089 13.6137V12.9445C15.4089 12.7273 15.5852 12.5508 15.8027 12.5508C16.0199 12.5508 16.1964 12.7271 16.1964 12.9445V13.6137C16.1964 13.8311 16.0202 14.0074 15.8027 14.0074Z" fill="#103E13"/>
<path d="M19.1134 16.7435C18.8962 16.7435 18.7196 16.5672 18.7196 16.3497V15.6809C18.7196 15.4637 18.8959 15.2871 19.1134 15.2871C19.3305 15.2871 19.5071 15.4634 19.5071 15.6809V16.3497C19.5071 16.5672 19.3305 16.7435 19.1134 16.7435Z" fill="#103E13"/>
<path d="M17.458 16.7435C17.2408 16.7435 17.0642 16.5672 17.0642 16.3497V15.6809C17.0642 15.4637 17.2405 15.2871 17.458 15.2871C17.6751 15.2871 17.8517 15.4634 17.8517 15.6809V16.3497C17.8514 16.5672 17.6754 16.7435 17.458 16.7435Z" fill="#103E13"/>
<path d="M15.8027 16.7435C15.5855 16.7435 15.4089 16.5672 15.4089 16.3497V15.6809C15.4089 15.4637 15.5852 15.2871 15.8027 15.2871C16.0199 15.2871 16.1964 15.4634 16.1964 15.6809V16.3497C16.1964 16.5672 16.0202 16.7435 15.8027 16.7435Z" fill="#103E13"/>
<path d="M19.1134 19.4801C18.8962 19.4801 18.7196 19.3038 18.7196 19.0863V18.4172C18.7196 18.2 18.8959 18.0234 19.1134 18.0234C19.3305 18.0234 19.5071 18.1997 19.5071 18.4172V19.0863C19.5071 19.3038 19.3305 19.4801 19.1134 19.4801Z" fill="#103E13"/>
<path d="M17.458 19.4801C17.2408 19.4801 17.0642 19.3038 17.0642 19.0863V18.4172C17.0642 18.2 17.2405 18.0234 17.458 18.0234C17.6751 18.0234 17.8517 18.1997 17.8517 18.4172V19.0863C17.8514 19.3038 17.6754 19.4801 17.458 19.4801Z" fill="#103E13"/>
<path d="M15.8027 19.4801C15.5855 19.4801 15.4089 19.3038 15.4089 19.0863V18.4172C15.4089 18.2 15.5852 18.0234 15.8027 18.0234C16.0199 18.0234 16.1964 18.1997 16.1964 18.4172V19.0863C16.1964 19.3038 16.0202 19.4801 15.8027 19.4801Z" fill="#103E13"/>
<path d="M19.1134 22.2164C18.8962 22.2164 18.7196 22.0401 18.7196 21.8227V21.1535C18.7196 20.9363 18.8959 20.7598 19.1134 20.7598C19.3305 20.7598 19.5071 20.936 19.5071 21.1535V21.8227C19.5071 22.0401 19.3305 22.2164 19.1134 22.2164Z" fill="#103E13"/>
<path d="M17.458 22.2164C17.2408 22.2164 17.0642 22.0401 17.0642 21.8227V21.1535C17.0642 20.9363 17.2405 20.7598 17.458 20.7598C17.6751 20.7598 17.8517 20.936 17.8517 21.1535V21.8227C17.8514 22.0401 17.6754 22.2164 17.458 22.2164Z" fill="#103E13"/>
<path d="M15.8027 22.2164C15.5855 22.2164 15.4089 22.0401 15.4089 21.8227V21.1535C15.4089 20.9363 15.5852 20.7598 15.8027 20.7598C16.0199 20.7598 16.1964 20.936 16.1964 21.1535V21.8227C16.1964 22.0401 16.0202 22.2164 15.8027 22.2164Z" fill="#103E13"/>
<path d="M19.1134 24.9525C18.8962 24.9525 18.7196 24.7762 18.7196 24.5587V23.8898C18.7196 23.6727 18.8959 23.4961 19.1134 23.4961C19.3305 23.4961 19.5071 23.6724 19.5071 23.8898V24.5587C19.5071 24.7759 19.3305 24.9525 19.1134 24.9525Z" fill="#103E13"/>
<path d="M17.458 24.9525C17.2408 24.9525 17.0642 24.7762 17.0642 24.5587V23.8898C17.0642 23.6727 17.2405 23.4961 17.458 23.4961C17.6751 23.4961 17.8517 23.6724 17.8517 23.8898V24.5587C17.8514 24.7759 17.6754 24.9525 17.458 24.9525Z" fill="#103E13"/>
<path d="M15.8027 24.9525C15.5855 24.9525 15.4089 24.7762 15.4089 24.5587L15.4092 23.8898C15.4092 23.6727 15.5855 23.4961 15.803 23.4961C16.0201 23.4961 16.1967 23.6724 16.1967 23.8898V24.5587C16.1964 24.7759 16.0202 24.9525 15.8027 24.9525Z" fill="#103E13"/>
<path d="M4.55447 27.6755C4.55447 27.8927 4.73075 28.0693 4.94822 28.0693H28.9262C29.1434 28.0693 29.32 27.893 29.32 27.6755C29.32 27.4583 29.1437 27.2818 28.9262 27.2818H28.1984V15.9767C28.1984 15.7595 28.0221 15.583 27.8046 15.583L21.3759 15.5832V7.43287C21.3759 7.29504 21.304 7.16763 21.1865 7.09624C21.0692 7.02457 20.9226 7.02018 20.8007 7.08361L13.4917 10.889C13.3613 10.9568 13.28 11.0914 13.28 11.2383V18.3575H6.20652C5.98933 18.3575 5.81277 18.5337 5.81277 18.7512V27.2818H4.94734C4.73015 27.2816 4.55414 27.4578 4.55414 27.6753L4.55447 27.6755ZM21.3761 21.5467H27.4113V27.2821L21.3761 27.2818V21.5467ZM21.3761 18.8105H27.4113V20.7595L21.3761 20.7592V18.8105ZM21.3761 16.3703H27.4113V18.0236H21.3761V16.3703ZM14.0671 11.4774L20.5883 8.0819V27.2815H14.0671V11.4774ZM8.54671 24.137C8.54671 23.3198 9.19416 22.6548 9.99015 22.6548C10.7861 22.6548 11.4339 23.3195 11.4339 24.137V27.282H8.54671V24.137ZM6.60025 19.1448H13.2799V27.2818H12.2214V24.1368C12.2214 22.8855 11.2208 21.8674 9.99015 21.8674C8.76004 21.8674 7.75951 22.8853 7.75951 24.1368V27.2818H6.60025V19.1448Z" fill="#103E13"/>
</svg>
