<?xml version="1.0" standalone="no"?>
<!DOCTYPE svg PUBLIC "-//W3C//DTD SVG 20010904//EN"
 "http://www.w3.org/TR/2001/REC-SVG-20010904/DTD/svg10.dtd">
<svg version="1.0" xmlns="http://www.w3.org/2000/svg"
 width="1300.000000pt" height="1300.000000pt" viewBox="0 0 1300.000000 1300.000000"
 preserveAspectRatio="xMidYMid meet">

<g transform="translate(0.000000,1300.000000) scale(0.100000,-0.100000)"
fill="#000000" stroke="none">
<path d="M4495 10443 c-161 -23 -290 -122 -350 -270 l-24 -58 -113 4 c-62 1
-162 -3 -223 -9 -357 -38 -616 -157 -828 -380 -175 -184 -276 -404 -334 -720
-27 -148 -24 -423 6 -560 90 -409 363 -872 788 -1335 56 -61 65 -66 80 -54 17
13 17 12 4 -4 -14 -17 0 -33 170 -201 224 -221 330 -318 564 -512 335 -278
605 -482 948 -712 119 -80 156 -109 151 -121 -13 -33 -17 -359 -5 -476 49
-491 245 -921 565 -1241 341 -339 749 -493 1209 -456 243 20 429 69 636 168
217 103 391 245 495 403 100 153 140 282 140 451 -1 206 -56 361 -259 735 -21
39 -41 75 -45 80 -4 6 -39 73 -78 150 -123 245 -162 387 -162 583 0 152 24
251 95 397 118 241 312 431 560 551 162 78 278 106 440 107 72 0 159 -5 194
-12 88 -17 232 -66 314 -107 194 -98 411 -293 523 -470 24 -38 47 -73 51 -79
22 -27 95 -201 117 -277 40 -139 49 -205 49 -353 -1 -215 -48 -405 -150 -610
-50 -100 -128 -225 -140 -225 -5 0 -30 26 -57 57 -142 161 -361 217 -575 148
-89 -28 -125 -57 -136 -104 -4 -20 23 -114 100 -342 59 -173 138 -408 177
-524 38 -115 77 -221 85 -233 8 -13 31 -30 50 -39 34 -14 41 -13 117 13 108
36 180 81 247 151 134 140 175 332 114 532 l-28 89 41 49 c158 190 297 485
354 747 31 144 32 437 1 576 -76 340 -256 643 -520 875 -83 73 -202 158 -215
153 -3 -2 -17 7 -30 19 -29 28 -168 93 -271 127 -144 48 -230 61 -397 61 -110
0 -179 -5 -237 -18 -576 -123 -1035 -608 -1095 -1155 -19 -173 14 -392 88
-580 36 -92 121 -261 247 -492 195 -359 241 -533 191 -725 -21 -82 -92 -203
-163 -279 -108 -115 -327 -244 -521 -306 -58 -19 -109 -35 -115 -36 -181 -31
-225 -35 -354 -35 -277 0 -491 63 -705 205 -418 279 -679 762 -728 1346 -15
186 -1 397 28 418 11 7 109 74 219 149 271 184 811 591 865 651 8 9 33 30 55
47 22 16 99 81 170 144 699 615 1172 1222 1333 1712 71 215 84 279 90 445 17
533 -181 978 -542 1218 -230 153 -543 235 -856 224 l-118 -4 -11 35 c-14 49
-69 133 -81 126 -5 -3 -7 0 -4 8 3 9 -11 28 -35 49 -102 87 -233 127 -355 108
-146 -22 -266 -111 -332 -245 -31 -63 -37 -86 -41 -162 -4 -73 -1 -99 17 -153
38 -114 95 -187 189 -245 223 -135 511 -48 622 188 l30 64 81 6 c104 8 297 -8
409 -34 381 -89 632 -322 742 -689 48 -157 61 -252 61 -435 0 -150 -3 -182
-26 -270 -146 -567 -616 -1178 -1463 -1900 -77 -65 -143 -123 -146 -128 -4 -5
-15 -14 -27 -20 -11 -7 -80 -59 -153 -117 -191 -150 -453 -341 -646 -471
l-165 -111 -192 128 c-208 140 -565 406 -771 573 -753 612 -1261 1181 -1505
1686 -164 340 -200 593 -134 930 89 448 357 730 785 825 180 40 471 46 490 10
4 -8 18 -37 31 -65 30 -63 120 -154 183 -184 182 -86 362 -60 501 71 181 171
186 442 12 620 -63 65 -135 104 -227 124 -66 14 -81 15 -136 7z m1974 -247
c94 -50 137 -174 92 -271 -66 -145 -243 -176 -349 -61 -163 177 43 443 257
332z m-1841 8 c116 -48 164 -181 107 -295 -67 -132 -246 -154 -343 -43 -68 76
-77 162 -26 251 51 89 166 127 262 87z m5423 -3641 c13 -16 12 -17 -3 -4 -10
7 -18 15 -18 17 0 8 8 3 21 -13z m-484 -1751 c53 -28 107 -81 133 -132 11 -22
41 -103 66 -181 42 -127 46 -148 42 -209 -7 -87 -46 -160 -114 -212 -27 -21
-51 -38 -54 -38 -4 0 -259 748 -268 788 -6 24 141 12 195 -16z"/>
<path d="M5203 9236 c-62 -28 -63 -37 -63 -426 l0 -350 -351 0 -351 0 -29 -31
-29 -31 0 -270 c0 -299 3 -317 63 -338 18 -6 161 -10 363 -10 l334 0 0 -345
c0 -287 3 -351 15 -375 31 -60 31 -60 356 -60 284 0 297 1 322 21 44 34 47 71
42 427 l-5 332 339 0 c197 0 351 4 365 10 14 5 35 24 46 42 19 31 20 47 18
301 l-3 269 -33 29 -32 29 -345 0 -345 0 -1 338 c0 364 -3 390 -52 426 -27 20
-42 21 -310 23 -225 2 -288 0 -314 -11z m447 -555 c0 -218 4 -349 11 -369 6
-17 26 -41 44 -52 31 -19 48 -20 371 -20 l339 0 3 -90 c2 -50 1 -104 -3 -120
l-7 -30 -339 0 c-299 0 -343 -2 -365 -16 -52 -35 -55 -52 -54 -347 0 -149 0
-305 0 -344 l0 -73 -145 0 -145 0 0 350 c0 249 -3 357 -12 375 -24 53 -38 55
-408 55 l-340 0 0 120 0 119 351 3 351 3 29 33 29 32 0 355 0 354 43 3 c23 2
88 2 145 0 l102 -3 0 -338z"/>
</g>
</svg>
