<svg width="24" height="24" viewBox="0 0 24 24" fill="none" xmlns="http://www.w3.org/2000/svg">
<g clip-path="url(#clip0_34_937)">
<path d="M17.4863 -0.000586885C16.125 0.091288 14.6682 0.901288 13.7663 1.99441C12.9769 2.95629 12.315 4.36816 12.5663 5.83441C12.3413 5.76504 12.1369 5.75754 11.8913 5.66941C11.2219 5.43129 10.4569 5.17441 9.50628 5.17441C7.61816 5.17441 5.68503 6.29754 4.46628 8.17441C2.69253 10.9007 3.04878 15.6988 5.74128 19.7994C6.21566 20.5194 6.76878 21.305 7.45128 21.9294C8.13378 22.5538 8.95878 23.03 9.92628 23.0394C10.7532 23.0488 11.3288 22.7732 11.8463 22.5444C12.3638 22.3157 12.8457 22.1132 13.7513 22.1094C13.7569 22.1094 13.7607 22.1094 13.7663 22.1094C14.6682 22.1019 15.135 22.3007 15.6413 22.5294C16.1475 22.7582 16.7175 23.0469 17.5463 23.0394C18.5325 23.0319 19.3707 22.4919 20.0663 21.8244C20.7619 21.1569 21.3338 20.3375 21.8063 19.6194C22.4832 18.5882 22.755 18.0257 23.2763 16.8744C23.3307 16.7544 23.3325 16.6157 23.28 16.4938C23.2294 16.3719 23.13 16.2763 23.0063 16.2294C21.3 15.5844 20.3269 14.075 20.1863 12.4794C20.0457 10.8838 20.7207 9.24129 22.4213 8.30941C22.5469 8.24191 22.635 8.12379 22.665 7.98504C22.6932 7.84629 22.6594 7.70004 22.5713 7.58941C21.3507 6.07254 19.6332 5.17441 17.9513 5.17441C16.8788 5.17441 16.0913 5.42754 15.4463 5.66941C15.3394 5.71066 15.2607 5.70691 15.1613 5.74441C15.8157 5.39941 16.3932 4.92129 16.8263 4.36441C17.6138 3.35379 18.2213 1.91566 17.9963 0.404413C17.9588 0.156913 17.7357 -0.0193369 17.4863 -0.000586885ZM16.9763 1.13941C16.9444 2.10879 16.6125 3.05754 16.0613 3.76441C15.4838 4.50691 14.5125 5.02066 13.5713 5.17441C13.5882 4.24254 13.9557 3.27691 14.5163 2.59441C15.105 1.88191 16.08 1.36816 16.9763 1.13941ZM9.50628 6.13441C9.92628 6.13441 10.9013 6.33504 11.5613 6.56941C12.2213 6.80379 12.9169 7.07941 13.7363 7.07941C14.5369 7.07941 15.1707 6.80191 15.7913 6.56941C16.4119 6.33691 17.0307 6.13441 17.9513 6.13441C19.1532 6.13441 20.4525 6.75879 21.4763 7.84441C19.8375 9.00129 19.0707 10.805 19.2263 12.5544C19.3819 14.3225 20.4469 16.0007 22.1963 16.8744C22.1938 16.8799 22.1913 16.8853 22.1888 16.8907C21.8142 17.7066 21.5645 18.2507 21.0113 19.0944C20.5519 19.7938 20.0063 20.5588 19.4063 21.1344C18.8063 21.71 18.1707 22.0738 17.5313 22.0794C16.9144 22.085 16.5638 21.9013 16.0313 21.6594C15.4988 21.4175 14.8107 21.14 13.7513 21.1494C12.6938 21.155 11.9963 21.4213 11.4563 21.6594C10.9163 21.8975 10.5619 22.085 9.94128 22.0794C9.28503 22.0738 8.67566 21.755 8.09628 21.2244C7.51691 20.6938 6.99378 19.97 6.53628 19.2744C4.01628 15.4344 3.81378 10.9232 5.26128 8.69941C6.32253 7.06629 9.08628 6.13441 9.50628 6.13441Z" fill="black"/>
<path d="M9.50628 6.13441C9.92628 6.13441 10.9013 6.33504 11.5613 6.56941C12.2213 6.80379 12.9169 7.07941 13.7363 7.07941C14.5369 7.07941 15.1707 6.80191 15.7913 6.56941C16.4119 6.33691 17.0307 6.13441 17.9513 6.13441C19.1532 6.13441 20.4525 6.75879 21.4763 7.84441C19.8375 9.00129 19.0707 10.805 19.2263 12.5544C19.3819 14.3225 20.4469 16.0007 22.1963 16.8744L22.1888 16.8907C21.8142 17.7066 21.5645 18.2507 21.0113 19.0944C20.5519 19.7938 20.0063 20.5588 19.4063 21.1344C18.8063 21.71 18.1707 22.0738 17.5313 22.0794C16.9144 22.085 16.5638 21.9013 16.0313 21.6594C15.4988 21.4175 14.8107 21.14 13.7513 21.1494C12.6938 21.155 11.9963 21.4213 11.4563 21.6594C10.9163 21.8975 10.5619 22.085 9.94128 22.0794C9.28503 22.0738 8.67566 21.755 8.09628 21.2244C7.51691 20.6938 6.99378 19.97 6.53628 19.2744C4.01628 15.4344 3.81378 10.9232 5.26128 8.69941C6.32253 7.06629 9.08628 6.13441 9.50628 6.13441Z" fill="black"/>
<path d="M16.9763 1.13941C16.9444 2.10879 16.6125 3.05754 16.0613 3.76441C15.4838 4.50691 14.5125 5.02066 13.5713 5.17441C13.5882 4.24254 13.9557 3.27691 14.5163 2.59441C15.105 1.88191 16.08 1.36816 16.9763 1.13941Z" fill="black"/>
</g>
<defs>
<clipPath id="clip0_34_937">
<rect width="24" height="24" fill="white"/>
</clipPath>
</defs>
</svg>
