<svg width="24" height="23" viewBox="0 0 24 23" fill="none" xmlns="http://www.w3.org/2000/svg">
<path opacity="0.1" fill-rule="evenodd" clip-rule="evenodd" d="M0.85144 11.3578C0.85144 5.20696 5.8377 0.220703 11.9886 0.220703C18.1394 0.220703 23.1257 5.20696 23.1257 11.3578C23.1257 17.5087 18.1394 22.4949 11.9886 22.4949C5.8377 22.4949 0.85144 17.5087 0.85144 11.3578Z" fill="white"/>
<path fill-rule="evenodd" clip-rule="evenodd" d="M11.9892 5.41797C10.376 5.41797 10.1736 5.42502 9.53998 5.45386C8.90763 5.48281 8.476 5.58292 8.09833 5.72981C7.70766 5.88152 7.37626 6.08447 7.04611 6.41475C6.7157 6.74491 6.51276 7.0763 6.36055 7.46685C6.21329 7.84465 6.11305 8.2764 6.08459 8.9085C6.05625 9.54208 6.04883 9.74466 6.04883 11.3578C6.04883 12.971 6.05601 13.1728 6.08471 13.8064C6.1138 14.4388 6.21391 14.8704 6.36067 15.2481C6.51251 15.6387 6.71545 15.9701 7.04573 16.3003C7.37577 16.6307 7.70716 16.8341 8.09758 16.9858C8.47551 17.1327 8.90726 17.2328 9.53948 17.2618C10.1731 17.2906 10.3754 17.2977 11.9884 17.2977C13.6017 17.2977 13.8036 17.2906 14.4371 17.2618C15.0695 17.2328 15.5016 17.1327 15.8795 16.9858C16.2701 16.8341 16.601 16.6307 16.931 16.3003C17.2614 15.9701 17.4644 15.6387 17.6166 15.2482C17.7626 14.8704 17.8628 14.4386 17.8925 13.8065C17.921 13.1729 17.9284 12.971 17.9284 11.3578C17.9284 9.74466 17.921 9.54221 17.8925 8.90862C17.8628 8.27628 17.7626 7.84465 17.6166 7.46697C17.4644 7.0763 17.2614 6.74491 16.931 6.41475C16.6006 6.08435 16.2702 5.8814 15.8792 5.72981C15.5005 5.58292 15.0686 5.48281 14.4363 5.45386C13.8027 5.42502 13.601 5.41797 11.9873 5.41797H11.9892ZM11.4563 6.48836C11.6144 6.48812 11.7909 6.48836 11.9892 6.48836C13.5751 6.48836 13.7631 6.49406 14.3893 6.52252C14.9685 6.549 15.2828 6.64577 15.4922 6.72707C15.7694 6.83473 15.967 6.96343 16.1748 7.17132C16.3827 7.37922 16.5114 7.57721 16.6193 7.85441C16.7006 8.06354 16.7975 8.37786 16.8238 8.95699C16.8523 9.58315 16.8585 9.77125 16.8585 11.3564C16.8585 12.9416 16.8523 13.1297 16.8238 13.7559C16.7973 14.335 16.7006 14.6494 16.6193 14.8585C16.5116 15.1357 16.3827 15.3331 16.1748 15.5408C15.9669 15.7487 15.7695 15.8774 15.4922 15.9851C15.283 16.0668 14.9685 16.1633 14.3893 16.1898C13.7632 16.2182 13.5751 16.2244 11.9892 16.2244C10.4031 16.2244 10.2151 16.2182 9.58896 16.1898C9.00982 16.163 8.6955 16.0663 8.486 15.985C8.20881 15.8773 8.01081 15.7486 7.80292 15.5407C7.59502 15.3328 7.46632 15.1353 7.35842 14.858C7.27712 14.6489 7.18022 14.3345 7.15386 13.7554C7.1254 13.1292 7.11971 12.9411 7.11971 11.355C7.11971 9.76877 7.1254 9.58167 7.15386 8.95551C7.18035 8.37637 7.27712 8.06205 7.35842 7.85267C7.46608 7.57548 7.59502 7.37749 7.80292 7.16959C8.01081 6.9617 8.20881 6.833 8.486 6.72509C8.69538 6.64342 9.00982 6.5469 9.58896 6.52029C10.1369 6.49554 10.3493 6.48812 11.4563 6.48688V6.48836ZM15.1598 7.47463C14.7663 7.47463 14.447 7.79353 14.447 8.18716C14.447 8.58068 14.7663 8.89995 15.1598 8.89995C15.5533 8.89995 15.8726 8.58068 15.8726 8.18716C15.8726 7.79365 15.5533 7.47463 15.1598 7.47463ZM11.9892 8.30744C10.3046 8.30744 8.93882 9.67324 8.93882 11.3578C8.93882 13.0424 10.3046 14.4076 11.9892 14.4076C13.6738 14.4076 15.0391 13.0424 15.0391 11.3578C15.0391 9.67324 13.6738 8.30744 11.9892 8.30744ZM11.9892 9.37786C13.0826 9.37786 13.9691 10.2643 13.9691 11.3578C13.9691 12.4512 13.0826 13.3378 11.9892 13.3378C10.8956 13.3378 10.0092 12.4512 10.0092 11.3578C10.0092 10.2643 10.8956 9.37786 11.9892 9.37786Z" fill="white"/>
</svg>
