<?xml version="1.0" standalone="no"?>
<!DOCTYPE svg PUBLIC "-//W3C//DTD SVG 20010904//EN"
 "http://www.w3.org/TR/2001/REC-SVG-20010904/DTD/svg10.dtd">
<svg version="1.0" xmlns="http://www.w3.org/2000/svg"
 width="290.000000pt" height="290.000000pt" viewBox="0 0 290.000000 290.000000"
 preserveAspectRatio="xMidYMid meet">

<g transform="translate(0.000000,290.000000) scale(0.100000,-0.100000)"
fill="#000000" stroke="none">
<path d="M715 2763 c-3 -27 -7 -59 -9 -72 -7 -47 14 -161 38 -209 14 -27 45
-69 69 -94 41 -41 150 -108 176 -108 6 0 0 17 -13 38 -62 98 -152 308 -122
283 25 -21 109 -139 156 -219 24 -39 45 -70 47 -68 3 2 5 46 5 98 0 128 -25
193 -103 271 -55 55 -181 127 -223 127 -10 0 -17 -15 -21 -47z"/>
<path d="M2075 2776 c-176 -84 -256 -226 -236 -415 l6 -54 44 74 c48 81 132
199 157 220 30 25 -60 -185 -122 -283 -13 -21 -19 -38 -13 -38 26 0 136 68
179 111 75 75 104 157 102 284 -2 95 -11 135 -31 135 -9 0 -48 -15 -86 -34z"/>
<path d="M1401 2579 c-80 -120 -83 -226 -9 -342 l33 -52 7 129 c3 70 9 130 12
134 14 13 19 -15 25 -135 l6 -128 31 50 c18 28 37 68 44 89 16 50 8 151 -15
196 -21 42 -77 119 -87 120 -3 0 -25 -27 -47 -61z"/>
<path d="M577 2109 c-32 -4 -60 -8 -62 -11 -9 -9 55 -128 89 -166 54 -59 119
-84 214 -80 l77 3 -60 34 c-67 38 -168 112 -161 118 6 6 137 -51 185 -82 24
-14 45 -24 48 -22 8 9 -38 91 -71 125 -62 66 -149 93 -259 81z"/>
<path d="M1122 2063 c4 -51 9 -60 43 -90 21 -18 40 -31 42 -29 3 2 -5 23 -17
46 -29 56 -18 62 17 9 l28 -43 3 31 c4 42 -20 86 -61 112 -54 33 -60 29 -55
-36z"/>
<path d="M1730 2102 c-40 -21 -73 -78 -68 -119 3 -28 3 -28 32 15 36 53 45 48
16 -8 -12 -23 -19 -44 -16 -47 3 -3 24 12 46 34 36 37 40 45 40 92 0 28 -3 51
-8 51 -4 0 -23 -8 -42 -18z"/>
<path d="M2150 2089 c-25 -11 -60 -35 -78 -52 -33 -31 -88 -125 -79 -133 3 -3
28 9 57 26 59 35 170 83 176 77 7 -6 -94 -80 -161 -118 l-60 -34 77 -3 c133
-5 216 49 279 181 21 46 25 63 16 69 -6 4 -50 8 -97 8 -64 0 -96 -5 -130 -21z"/>
<path d="M1797 1815 c-6 -193 -30 -292 -112 -460 -50 -103 -165 -275 -183
-275 -4 0 -15 13 -24 28 -37 62 -180 232 -259 307 -103 99 -178 157 -289 223
-81 48 -237 118 -246 109 -2 -2 17 -18 42 -36 83 -61 226 -204 301 -306 250
-335 306 -725 163 -1130 -18 -50 -43 -111 -56 -136 l-23 -46 67 -7 c83 -7 180
-8 208 0 37 10 245 458 327 704 137 412 181 751 131 1026 -8 45 -20 99 -28
120 -12 37 -14 29 -19 -121z"/>
<path d="M1373 1749 c-139 -29 -166 -233 -47 -353 96 -95 216 -85 272 24 51
98 -2 255 -103 308 -43 22 -85 29 -122 21z"/>
<path d="M206 1689 c-65 -22 -149 -73 -184 -112 l-24 -25 66 -46 c36 -26 93
-58 128 -73 54 -22 74 -25 145 -21 66 4 93 10 145 36 34 17 77 43 93 56 l30
25 -100 1 c-113 0 -274 20 -253 30 25 14 93 22 222 29 l130 6 -55 38 c-108 74
-232 94 -343 56z"/>
<path d="M2465 1689 c-32 -11 -84 -37 -114 -57 l-56 -37 125 -6 c129 -6 205
-16 228 -28 21 -12 -140 -31 -252 -31 -97 0 -99 0 -82 -19 9 -10 51 -36 93
-57 73 -37 81 -39 172 -39 110 0 165 20 267 96 l57 43 -44 40 c-112 100 -271
139 -394 95z"/>
<path d="M1930 1590 l-35 -19 47 -1 c66 0 70 -18 6 -22 l-53 -3 32 -17 c18
-10 47 -18 65 -18 35 0 98 32 98 50 0 17 -63 50 -95 50 -16 -1 -46 -9 -65 -20z"/>
<path d="M704 1254 c-63 -22 -119 -77 -155 -149 -17 -35 -29 -71 -26 -78 13
-33 177 -29 244 7 49 25 143 140 143 173 0 6 -48 -14 -107 -44 -58 -29 -113
-53 -121 -53 -20 0 83 80 154 121 30 17 54 32 54 35 0 10 -149 1 -186 -12z"/>
<path d="M2024 1258 c11 -7 51 -34 90 -60 156 -104 149 -118 -18 -34 -93 46
-106 50 -100 32 15 -52 85 -136 136 -162 70 -36 232 -40 245 -7 7 19 -29 95
-69 145 -16 21 -51 50 -76 65 -39 23 -59 27 -136 30 -76 3 -88 1 -72 -9z"/>
<path d="M941 820 c-77 -35 -156 -105 -190 -170 -40 -74 -54 -194 -36 -301 7
-39 9 -41 36 -35 102 20 240 128 279 218 27 63 39 145 33 216 -6 54 -17 67
-28 31 -10 -31 -139 -220 -169 -248 l-26 -25 11 35 c17 49 103 228 129 267 25
37 21 39 -39 12z"/>
<path d="M1920 808 c26 -39 112 -218 129 -268 l12 -35 -25 25 c-36 38 -135
178 -163 233 -13 27 -26 47 -29 44 -3 -2 -5 -47 -5 -99 0 -132 23 -193 105
-273 60 -59 174 -125 215 -125 21 0 24 10 35 109 7 63 -11 158 -40 218 -30 63
-114 142 -188 177 -30 14 -58 26 -61 26 -4 0 3 -15 15 -32z"/>
</g>
</svg>
