<svg width="46" height="40" viewBox="0 0 46 40" fill="none" xmlns="http://www.w3.org/2000/svg">
<path d="M45.8562 26.7266C45.8562 33.6463 40.2467 39.2559 33.3269 39.2559L14.5331 39.2559C12.6109 39.2559 11.0527 37.6977 11.0527 35.7755L11.0527 12.1091C11.0527 8.26486 14.1691 5.14845 18.0134 5.14845L42.3759 5.14846C44.298 5.14846 45.8562 6.70666 45.8562 8.6288L45.8562 26.7266Z" fill="#E8F5E9"/>
<path d="M17.3104 7.23633C14.8246 7.23633 12.8009 9.27852 12.8009 11.7749C12.8009 13.3542 13.6118 14.7486 14.8364 15.5614C13.3574 16.056 12.0776 16.9803 11.1389 18.1895C10.6199 17.7903 10.04 17.4692 9.41492 17.2392C10.3629 16.5354 10.9823 15.4049 10.9823 14.1344C10.9823 12.0171 9.26995 10.2838 7.16551 10.2838C5.06108 10.2838 3.34869 12.0171 3.34869 14.1344C3.34869 15.4057 3.96868 16.5367 4.91743 17.2404C2.40561 18.1673 0.611694 20.5941 0.611694 23.4501V25.4562C0.611951 25.6092 0.673127 25.7557 0.781597 25.8634C0.890066 25.9714 1.03684 26.0315 1.18978 26.031H9.99155C10.0129 26.0333 10.0342 26.0346 10.0556 26.0343H24.5657C24.587 26.0346 24.6086 26.0333 24.6297 26.031H33.4322C33.7486 26.0297 34.0048 25.7729 34.0056 25.4562V23.4501C34.0056 20.5941 32.2148 18.1673 29.7043 17.2402C30.653 16.5367 31.273 15.4054 31.273 14.1341C31.273 12.0168 29.5606 10.2836 27.4562 10.2836C25.3518 10.2836 23.6394 12.0168 23.6394 14.1341C23.6394 15.4047 24.2591 16.5354 25.2071 17.2389C24.5807 17.4695 24.0005 17.7916 23.4808 18.1918C22.5426 16.9818 21.2646 16.0563 19.7856 15.5614C21.0098 14.7486 21.8211 13.3542 21.8211 11.7749C21.8211 9.27852 19.7964 7.23633 17.3105 7.23633H17.3104ZM17.3104 8.38788C19.1696 8.38788 20.6684 9.89673 20.6684 11.7749C20.6684 13.6385 19.1929 15.1327 17.3543 15.1566C17.3397 15.1566 17.3253 15.1545 17.3104 15.1545C17.2955 15.1545 17.2813 15.1566 17.2664 15.1566C15.4278 15.133 13.9534 13.6385 13.9534 11.7749C13.9534 9.89647 15.4509 8.38788 17.3101 8.38788H17.3104ZM7.16558 11.4353C8.64075 11.4353 9.83085 12.6326 9.83085 14.1343C9.83085 15.6259 8.65614 16.8181 7.19486 16.8342C7.18509 16.8342 7.17558 16.8332 7.16556 16.8332C7.15579 16.8332 7.14628 16.8342 7.13626 16.8342C5.67498 16.8181 4.50027 15.6256 4.50027 14.1343C4.50027 12.6327 5.69037 11.4353 7.16554 11.4353H7.16558ZM27.4559 11.4353C28.931 11.4353 30.1211 12.6326 30.1211 14.1343C30.1211 15.6259 28.9464 16.8181 27.4851 16.8342C27.4754 16.8342 27.4659 16.8332 27.4558 16.8332C27.4461 16.8332 27.4366 16.8342 27.4265 16.8342C25.9652 16.8181 24.7905 15.6256 24.7905 14.1343C24.7905 12.6327 25.9806 11.4353 27.4558 11.4353H27.4559ZM17.2663 16.3081C17.281 16.3083 17.2953 16.3101 17.3103 16.3101C17.3249 16.3101 17.3393 16.3081 17.3542 16.3081C21.0415 16.3317 23.9924 19.308 23.9924 23.0338L23.9921 24.8824H10.6289V23.0338C10.6289 19.3077 13.579 16.3318 17.2658 16.3081H17.2663ZM7.12149 17.9871C7.13614 17.9874 7.15054 17.9892 7.16545 17.9892C7.18036 17.9892 7.19449 17.9871 7.2094 17.9871C8.45656 17.9971 9.59475 18.4272 10.5011 19.1466C9.85253 20.2941 9.47749 21.6186 9.47749 23.0341V24.8784H1.76278V23.45C1.76278 20.422 4.14352 18.0107 7.12136 17.9868L7.12149 17.9871ZM27.4118 17.9871C27.4267 17.9874 27.4408 17.9892 27.4557 17.9892C27.4706 17.9892 27.4848 17.9871 27.4997 17.9871C30.4775 18.0108 32.8583 20.4223 32.8583 23.4503V24.8784H25.1396L25.1393 23.0341C25.1393 21.6194 24.7653 20.2959 24.1181 19.1487C25.0246 18.4282 26.1636 17.9971 27.4118 17.9871H27.4118Z" fill="#103E13"/>
</svg>
