<?xml version="1.0" standalone="no"?>
<!DOCTYPE svg PUBLIC "-//W3C//DTD SVG 20010904//EN"
 "http://www.w3.org/TR/2001/REC-SVG-20010904/DTD/svg10.dtd">
<svg version="1.0" xmlns="http://www.w3.org/2000/svg"
 width="830.000000pt" height="512.000000pt" viewBox="0 0 830.000000 512.000000"
 preserveAspectRatio="xMidYMid meet">

<g transform="translate(0.000000,512.000000) scale(0.100000,-0.100000)"
fill="#000000" stroke="none">
<path d="M4126 5105 c-3 -9 -6 -104 -6 -211 l0 -194 -95 0 -95 0 0 -74 c0 -47
-4 -77 -12 -83 -7 -5 -40 -16 -73 -23 -237 -50 -462 -176 -645 -360 -120 -119
-196 -227 -270 -383 -53 -109 -103 -281 -116 -395 -6 -56 -9 -62 -30 -62 -38
0 -84 -49 -90 -95 -6 -48 22 -100 62 -115 16 -6 530 -10 1397 -10 1325 0 1373
1 1403 19 63 38 70 128 13 175 -17 14 -40 26 -52 26 -20 0 -23 9 -39 103 -71
439 -341 801 -743 998 -77 38 -160 69 -234 88 -62 17 -116 32 -118 35 -3 3 -6
38 -7 78 l-1 73 -97 3 -98 3 -2 207 c-3 202 -3 207 -24 210 -13 2 -24 -4 -28
-13z"/>
<path d="M2563 2880 c-68 -41 -87 -124 -44 -193 29 -47 81 -67 176 -67 l75 0
0 -305 0 -305 144 0 145 0 0 303 1 302 65 3 65 3 0 -306 0 -305 140 0 140 0 0
305 0 305 65 0 65 0 0 -305 0 -305 140 0 140 0 0 305 0 305 65 0 65 0 0 -305
0 -305 140 0 140 0 0 305 0 305 65 0 65 0 0 -305 0 -305 140 0 140 0 0 305 0
305 65 0 65 0 0 -305 0 -305 143 0 142 0 0 288 c0 158 1 295 4 305 3 15 13 17
65 15 l61 -3 0 -302 0 -303 143 0 142 0 0 305 0 305 80 0 c46 0 95 6 114 14
49 20 80 70 80 127 0 54 -21 91 -67 119 -31 20 -63 20 -1587 20 -1524 0 -1556
0 -1587 -20z"/>
<path d="M2184 1840 c-31 -12 -72 -66 -80 -105 -12 -65 26 -130 89 -154 16 -6
64 -11 108 -11 l79 0 0 -645 0 -645 -87 0 c-70 0 -95 -4 -121 -20 -97 -59 -93
-192 8 -242 33 -17 148 -18 1976 -18 l1941 0 34 23 c65 43 86 124 49 185 -34
56 -73 72 -172 72 l-88 0 0 645 0 645 80 0 c91 0 137 15 168 55 25 31 37 84
28 120 -4 14 -22 43 -41 63 l-33 37 -1959 2 c-1077 1 -1967 -2 -1979 -7z m826
-915 l0 -645 -115 0 c-102 0 -115 2 -117 18 -1 9 -2 299 -2 644 l-1 628 118 0
117 0 0 -645z m630 0 l0 -645 -120 0 -120 0 0 645 0 645 120 0 120 0 0 -645z
m630 0 l0 -645 -120 0 -120 0 0 645 0 645 120 0 120 0 0 -645z m630 0 l0 -645
-120 0 -120 0 0 645 0 645 120 0 120 0 0 -645z m625 -2 l0 -643 -117 0 -118 0
0 645 0 646 118 -3 117 -3 0 -642z"/>
</g>
</svg>
