<svg width="48" height="40" viewBox="0 0 48 40" fill="none" xmlns="http://www.w3.org/2000/svg">
<path d="M23.004 16.7482C22.8084 16.7482 22.6267 16.7013 22.4654 16.6259V16.6279C22.4654 16.8962 22.3457 17.1482 22.1286 17.337C21.9116 17.5262 21.6227 17.6305 21.3153 17.6305C21.1168 17.6305 20.9328 17.5824 20.7697 17.505C20.7532 17.7505 20.6407 17.9799 20.4399 18.1552C20.2228 18.3444 19.934 18.4487 19.6263 18.4487C19.0151 18.4487 18.5187 18.0299 18.4829 17.5048C18.2938 17.594 18.08 17.6407 17.8595 17.6283C17.2582 17.594 16.7873 17.141 16.7873 16.597V12.0873L16.1983 12.9769C15.9739 13.3172 15.5539 13.5284 15.1018 13.5284C14.8815 13.5284 14.6638 13.4781 14.471 13.3818C14.231 13.2604 14.0593 13.0657 13.9879 12.8327C13.9161 12.5996 13.9532 12.3558 14.092 12.1468C14.0922 12.1468 16.0193 9.23754 16.1368 9.05883C16.1508 9.03196 16.1906 8.95403 16.2245 8.88761C16.2569 8.8242 16.2846 8.75911 16.3112 8.69369C16.8924 7.26337 18.3313 6.37488 20.0668 6.37488C22.3204 6.37488 24.1538 8.10811 24.1538 10.2386L24.154 15.7454C24.154 16.0134 24.0346 16.2652 23.8177 16.4547C23.6006 16.6439 23.3118 16.7482 23.004 16.7482L23.004 16.7482ZM20.0668 6.90765C18.5756 6.90765 17.387 7.64195 16.8872 8.87187C16.8553 8.94997 16.822 9.02807 16.7831 9.10417C16.6704 9.32462 16.6704 9.32462 16.6386 9.35633L16.6344 9.35316C16.477 9.61199 16.0096 10.3177 14.6212 12.4134C14.5641 12.4994 14.549 12.5992 14.5781 12.6946C14.6076 12.7901 14.6782 12.8705 14.776 12.9198C15.0796 13.0718 15.4954 12.9737 15.6685 12.7108L16.8283 10.9602C16.8976 10.8559 17.0377 10.8047 17.1721 10.8364C17.3057 10.8676 17.3985 10.9732 17.3985 11.0937V16.5971C17.3985 16.8568 17.6233 17.0809 17.8995 17.0968C18.0588 17.1041 18.2073 17.0576 18.3189 16.9604C18.4204 16.872 18.4763 16.7542 18.4763 16.6282V13.0289C18.4763 12.8817 18.6131 12.7623 18.782 12.7623C18.9508 12.7623 19.0877 12.8815 19.0877 13.0289L19.0875 17.4463C19.0875 17.7053 19.3292 17.9161 19.6263 17.9161C19.7707 17.9161 19.9062 17.8673 20.0078 17.7789C20.1093 17.6903 20.1652 17.5721 20.1652 17.4463V13.0289C20.1652 12.8817 20.3019 12.7623 20.4709 12.7623C20.6397 12.7623 20.7766 12.8815 20.7766 13.0289L20.7764 16.5868V16.6282C20.7764 16.887 21.0182 17.0977 21.3155 17.0977C21.4596 17.0977 21.5947 17.0489 21.697 16.9601C21.7984 16.8718 21.8543 16.754 21.8543 16.628V13.0287C21.8543 12.8815 21.991 12.7622 22.16 12.7622C22.3289 12.7622 22.4657 12.8813 22.4657 13.0287L22.4653 15.7455C22.4653 16.0047 22.7071 16.2155 23.004 16.2155C23.1485 16.2155 23.2837 16.1666 23.3851 16.0783C23.487 15.9895 23.5427 15.8713 23.5427 15.7455L23.5428 10.2387C23.5428 8.40216 21.9835 6.90771 20.0668 6.90771L20.0668 6.90765Z" fill="#103E13"/>
<path d="M10.9929 20.5757L15.4289 18.2557C15.9637 17.9756 16.6519 18.0946 16.9949 18.5267C17.1201 18.6841 17.1841 18.8675 17.194 19.0542C17.3594 18.979 17.5394 18.9381 17.7225 18.9381C17.8163 18.9381 17.9105 18.9482 18.0035 18.9684C18.3016 19.0334 18.5527 19.1957 18.7107 19.4253C18.8688 19.6553 18.9149 19.9248 18.8405 20.1843C18.7717 20.4245 18.6042 20.6266 18.3713 20.7653C18.5342 20.849 18.6747 20.9634 18.7746 21.1089C18.9327 21.3388 18.9789 21.6082 18.9046 21.868C18.8301 22.1275 18.6439 22.3465 18.3801 22.4845L18.3786 22.4854C18.5386 22.569 18.6766 22.6821 18.7754 22.8255C18.9337 23.0554 18.9798 23.3249 18.9054 23.5848C18.8307 23.8444 18.6445 24.0634 18.3811 24.2012L12.9646 27.0341C11.9537 27.5626 10.785 27.745 9.67441 27.5472C8.55383 27.3476 7.62578 26.7861 7.0615 25.966C6.16849 24.6685 6.30232 23.1355 7.41008 21.9655C7.46081 21.9121 7.51077 21.8577 7.55614 21.8013C7.60419 21.7417 7.66027 21.6716 7.67941 21.6476C7.79407 21.469 9.66507 18.5302 9.66487 18.5306C9.85381 18.2334 10.2079 18.0651 10.5732 18.0653C10.7435 18.0653 10.9164 18.1018 11.0759 18.1789C11.2684 18.2727 11.4302 18.4094 11.5433 18.5741C11.7759 18.9121 11.7841 19.335 11.5651 19.6772L10.9929 20.5757ZM11.0195 18.8481C10.9602 18.7618 10.8786 18.6931 10.7789 18.6443C10.5727 18.5449 10.3131 18.6096 10.1996 18.7887C8.86085 20.8914 8.40447 21.608 8.22835 21.863L8.23237 21.8638C8.21763 21.9065 8.21763 21.9065 8.05645 22.1073C8.0017 22.1752 7.94217 22.2405 7.88149 22.3047C6.92894 23.3109 6.81834 24.577 7.58536 25.6919C8.06047 26.3825 8.8457 26.8559 9.79648 27.0251C10.7576 27.1955 11.7706 27.037 12.6499 26.5771L18.0668 23.7441C18.1905 23.6795 18.2777 23.5769 18.3126 23.4552C18.3474 23.3337 18.3258 23.2074 18.2515 23.0996C18.0988 22.8777 17.767 22.8047 17.5124 22.9384L14.8402 24.336C14.6955 24.4118 14.5075 24.3711 14.4208 24.2448C14.3339 24.1186 14.3808 23.9549 14.5255 23.8791L17.1979 22.4815L18.0658 22.0276C18.1895 21.9628 18.277 21.8602 18.3118 21.7389C18.3467 21.6172 18.325 21.4907 18.2508 21.3831C18.0978 21.1609 17.7661 21.0887 17.5117 21.2219L13.9713 23.0734C13.8262 23.1493 13.6388 23.1083 13.5519 22.9821C13.465 22.856 13.5121 22.6923 13.6566 22.6165L18.0017 20.3441C18.1254 20.2793 18.2127 20.1769 18.2475 20.0552C18.2824 19.9337 18.2607 19.8074 18.1866 19.6996C18.1126 19.5919 17.9948 19.5158 17.8553 19.4855C17.715 19.4551 17.5706 19.474 17.4474 19.5384L16.643 19.9591C16.6428 19.9591 16.6428 19.9593 16.6426 19.9593H16.6424L13.1023 21.8108C12.9572 21.8869 12.7696 21.8459 12.6829 21.7195C12.5959 21.5934 12.643 21.4297 12.7876 21.3539L16.3279 19.5023C16.4516 19.4376 16.5391 19.335 16.5739 19.2136C16.6122 19.0805 16.5831 18.9443 16.4924 18.8301C16.335 18.6317 15.9985 18.579 15.7433 18.7126L10.3303 21.5436C10.2118 21.6054 10.06 21.5904 9.96067 21.5068C9.86113 21.423 9.83873 21.2913 9.90573 21.186L11.0313 19.4181C11.1442 19.2413 11.1398 19.0231 11.0194 18.8482L11.0195 18.8481Z" fill="#103E13"/>
<path d="M32.1905 25.9657C31.6264 26.7859 30.6986 27.3473 29.5778 27.5469C28.467 27.7443 27.2987 27.5622 26.2876 27.0337L20.8707 24.2008C20.6071 24.0629 20.4206 23.844 20.346 23.5839C20.2719 23.3244 20.3182 23.0549 20.4761 22.8253C20.5747 22.6818 20.7129 22.5686 20.8731 22.485L20.8716 22.4842C20.608 22.3463 20.4216 22.1274 20.3473 21.8677C20.2727 21.608 20.319 21.3383 20.4771 21.1084C20.5789 20.9607 20.7185 20.8452 20.8778 20.7633C20.6465 20.6246 20.48 20.4232 20.4114 20.1842C20.3368 19.9244 20.3831 19.6548 20.5412 19.4252C20.6992 19.1954 20.9505 19.033 21.2484 18.9681C21.3414 18.9478 21.4358 18.9378 21.5292 18.9378C21.7126 18.9379 21.8925 18.9785 22.0579 19.0539C22.068 18.8672 22.1318 18.6838 22.257 18.5264C22.6002 18.0947 23.2878 17.9752 23.8234 18.2554L28.2593 20.575L27.6875 19.6772C27.4681 19.3344 27.4762 18.9115 27.7087 18.5734C27.8221 18.4089 27.984 18.2722 28.1775 18.1776C28.3366 18.1008 28.5089 18.0644 28.6788 18.0644C29.0439 18.0646 29.3984 18.2325 29.5871 18.5297C30.2449 19.5629 31.4861 21.5114 31.5733 21.6474C31.5919 21.671 31.648 21.741 31.696 21.8006C31.7418 21.8572 31.7912 21.9113 31.8423 21.965C32.9499 23.1355 33.0835 24.6683 32.1905 25.9657L32.1905 25.9657ZM31.3707 22.3046C31.3098 22.2404 31.2501 22.1748 31.1957 22.1072C31.0303 21.9026 31.0261 21.8973 31.0137 21.8437C30.8203 21.5648 30.3487 20.8246 29.0522 18.7882C28.9385 18.6095 28.68 18.5443 28.4743 18.6434C28.373 18.6928 28.2916 18.7617 28.2323 18.848C28.1121 19.0227 28.1075 19.241 28.221 19.4182L29.3462 21.1857C29.4134 21.2912 29.391 21.4227 29.2916 21.5064C29.1925 21.5904 29.0409 21.6051 28.9218 21.5433L23.5088 18.7123C23.2536 18.579 22.9173 18.6312 22.7596 18.8298C22.6688 18.9439 22.6399 19.0801 22.6778 19.2131C22.7127 19.3346 22.8001 19.4371 22.924 19.5018C22.9244 19.502 22.9246 19.5023 22.925 19.5025L26.4642 21.3535C26.6089 21.4293 26.6558 21.5929 26.5689 21.7192C26.482 21.8452 26.2946 21.8864 26.1495 21.8105L21.8044 19.5381C21.6811 19.4736 21.536 19.4546 21.3966 19.4852C21.2569 19.5155 21.1394 19.5916 21.0653 19.6996C20.991 19.8072 20.9696 19.9336 21.004 20.0551C21.0389 20.1765 21.1264 20.2792 21.25 20.3439L22.0955 20.786L25.5949 22.6164C25.7396 22.6921 25.7866 22.8557 25.6996 22.982C25.6127 23.108 25.4253 23.1491 25.2802 23.0733L21.7403 21.2217C21.4857 21.0882 21.1541 21.1607 21.001 21.3829C20.9267 21.4908 20.9053 21.6171 20.9397 21.7386C20.9746 21.8601 21.062 21.9625 21.1859 22.0274L22.0538 22.4814L24.7259 23.879C24.8706 23.9548 24.9175 24.1183 24.8306 24.2446C24.7437 24.3706 24.5563 24.412 24.4112 24.3359L21.7391 22.9383C21.6158 22.8739 21.4713 22.8548 21.3312 22.8854C21.1918 22.9158 21.0739 22.9919 20.9998 23.0995C20.9258 23.2073 20.9041 23.3338 20.9386 23.4551C20.9734 23.5766 21.0609 23.6791 21.1847 23.744L26.6017 26.577C27.4807 27.0367 28.4945 27.1959 29.4551 27.025C30.4056 26.8558 31.1909 26.3824 31.666 25.6918C32.4338 24.5767 32.3233 23.3104 31.371 22.3046L31.3707 22.3046Z" fill="#103E13"/>
<path d="M47.8037 22.5782C47.8037 29.4979 42.1942 35.1074 35.2745 35.1074L16.4806 35.1074C14.5584 35.1074 13.0002 33.5492 13.0002 31.6271L13.0002 7.96071C13.0002 4.11642 16.1166 1.00002 19.9609 1.00002L44.3234 1.00002C46.2455 1.00002 47.8037 2.55822 47.8037 4.48037L47.8037 22.5782Z" fill="black" fill-opacity="0.08"/>
</svg>
