<svg width="46" height="40" viewBox="0 0 46 40" fill="none" xmlns="http://www.w3.org/2000/svg">
<path d="M45.3882 26.7266C45.3882 33.6463 39.7787 39.2559 32.859 39.2559L14.0651 39.2559C12.143 39.2559 10.5848 37.6977 10.5848 35.7755L10.5848 12.1091C10.5848 8.26486 13.7012 5.14845 17.5455 5.14845L41.9079 5.14846C43.83 5.14846 45.3882 6.70666 45.3882 8.6288L45.3882 26.7266Z" fill="#E8F5E9"/>
<path d="M19.8506 16.7332C19.683 16.7332 19.5274 16.6871 19.3892 16.613V16.6149C19.3892 16.8786 19.2867 17.1263 19.1007 17.3118C18.9147 17.4977 18.6673 17.6002 18.4039 17.6002C18.2338 17.6002 18.0762 17.553 17.9365 17.4769C17.9224 17.7181 17.826 17.9436 17.6539 18.1158C17.468 18.3018 17.2205 18.4043 16.9569 18.4043C16.4333 18.4043 16.0081 17.9927 15.9774 17.4767C15.8154 17.5643 15.6322 17.6102 15.4433 17.5981C14.9282 17.5643 14.5248 17.1193 14.5248 16.5846V12.153L14.0201 13.0272C13.8279 13.3616 13.4681 13.5692 13.0808 13.5692C12.892 13.5692 12.7056 13.5197 12.5404 13.4251C12.3348 13.3058 12.1877 13.1145 12.1265 12.8855C12.065 12.6564 12.0968 12.4168 12.2157 12.2115C12.2159 12.2115 13.8668 9.35258 13.9675 9.17697C13.9795 9.15057 14.0136 9.07399 14.0426 9.00872C14.0703 8.9464 14.0941 8.88244 14.1169 8.81816C14.6148 7.4126 15.8475 6.53949 17.3343 6.53949C19.265 6.53949 20.8357 8.24271 20.8357 10.3363L20.8358 15.7478C20.8358 16.0111 20.7335 16.2586 20.5477 16.4447C20.3617 16.6307 20.1143 16.7332 19.8506 16.7332L19.8506 16.7332ZM17.3343 7.06304C16.0568 7.06304 15.0386 7.78463 14.6104 8.99325C14.583 9.06999 14.5545 9.14674 14.5212 9.22152C14.4246 9.43816 14.4246 9.43816 14.3974 9.46931L14.3937 9.4662C14.2589 9.72055 13.8585 10.4141 12.669 12.4735C12.6202 12.558 12.6072 12.656 12.6321 12.7498C12.6574 12.8436 12.7179 12.9227 12.8017 12.9711C13.0618 13.1204 13.418 13.024 13.5662 12.7657L14.5599 11.0454C14.6192 10.9429 14.7393 10.8926 14.8544 10.9238C14.9689 10.9544 15.0484 11.0582 15.0484 11.1766V16.5848C15.0484 16.8399 15.2409 17.0602 15.4776 17.0757C15.614 17.083 15.7413 17.0372 15.8369 16.9418C15.9238 16.8548 15.9717 16.7391 15.9717 16.6153V13.0783C15.9717 12.9336 16.089 12.8164 16.2336 12.8164C16.3782 12.8164 16.4955 12.9335 16.4955 13.0783L16.4953 17.4192C16.4953 17.6737 16.7025 17.8808 16.957 17.8808C17.0806 17.8808 17.1967 17.833 17.2838 17.746C17.3707 17.659 17.4186 17.5429 17.4186 17.4192V13.0783C17.4186 12.9336 17.5357 12.8164 17.6805 12.8164C17.8251 12.8164 17.9424 12.9335 17.9424 13.0783L17.9422 16.5746V16.6152C17.9422 16.8696 18.1494 17.0767 18.404 17.0767C18.5275 17.0767 18.6433 17.0287 18.7309 16.9414C18.8178 16.8547 18.8657 16.7389 18.8657 16.6151V13.0781C18.8657 12.9334 18.9828 12.8162 19.1276 12.8162C19.2722 12.8162 19.3895 12.9333 19.3895 13.0781L19.3891 15.7479C19.3891 16.0026 19.5963 16.2097 19.8506 16.2097C19.9744 16.2097 20.0902 16.1616 20.1771 16.0749C20.2644 15.9876 20.3121 15.8715 20.3121 15.7479L20.3122 10.3364C20.3122 8.53167 18.9764 7.06309 17.3343 7.06309L17.3343 7.06304Z" fill="#103E13"/>
<path d="M9.56094 20.4946L13.3613 18.2148C13.8195 17.9396 14.409 18.0565 14.7029 18.4811C14.8102 18.6357 14.8649 18.816 14.8735 18.9995C15.0151 18.9255 15.1693 18.8853 15.3262 18.8853C15.4066 18.8853 15.4873 18.8953 15.567 18.9152C15.8223 18.979 16.0375 19.1385 16.1728 19.3642C16.3082 19.5902 16.3478 19.855 16.284 20.11C16.2251 20.346 16.0816 20.5446 15.882 20.6809C16.0216 20.7632 16.1419 20.8756 16.2275 21.0186C16.363 21.2446 16.4025 21.5093 16.3389 21.7646C16.2751 22.0196 16.1155 22.2348 15.8896 22.3704L15.8883 22.3712C16.0253 22.4534 16.1436 22.5646 16.2282 22.7054C16.3638 22.9314 16.4034 23.1962 16.3396 23.4516C16.2756 23.7068 16.116 23.9219 15.8904 24.0574L11.2501 26.8412C10.3841 27.3605 9.38288 27.5398 8.4314 27.3455C7.47139 27.1493 6.67634 26.5975 6.19291 25.7916C5.42787 24.5166 5.54253 23.0101 6.49154 21.8604C6.535 21.8079 6.5778 21.7544 6.61667 21.699C6.65783 21.6405 6.70588 21.5716 6.72228 21.548C6.82051 21.3725 8.4234 18.4846 8.42323 18.4849C8.58509 18.1928 8.88847 18.0275 9.20136 18.0277C9.34732 18.0277 9.4954 18.0636 9.63202 18.1394C9.79699 18.2315 9.93557 18.3658 10.0325 18.5277C10.2317 18.8598 10.2388 19.2754 10.0512 19.6117L9.56094 20.4946ZM9.58373 18.7969C9.5329 18.7121 9.46304 18.6446 9.37759 18.5967C9.20097 18.499 8.9786 18.5626 8.88137 18.7385C7.73442 20.8049 7.34344 21.509 7.19255 21.7596L7.196 21.7604C7.18337 21.8024 7.18337 21.8024 7.04529 21.9997C6.99839 22.0664 6.94739 22.1306 6.8954 22.1937C6.07935 23.1824 5.9846 24.4266 6.6417 25.5223C7.04873 26.2009 7.72144 26.6661 8.53598 26.8324C9.35937 26.9998 10.2272 26.844 10.9805 26.3921L15.6212 23.6082C15.7271 23.5447 15.8019 23.4438 15.8317 23.3243C15.8616 23.2049 15.843 23.0808 15.7794 22.9748C15.6486 22.7567 15.3644 22.6851 15.1462 22.8164L12.8569 24.1899C12.7329 24.2643 12.5719 24.2243 12.4976 24.1002C12.4232 23.9762 12.4633 23.8153 12.5873 23.7408L14.8768 22.3674L15.6203 21.9213C15.7263 21.8577 15.8012 21.7569 15.8311 21.6376C15.8609 21.5181 15.8424 21.3938 15.7788 21.288C15.6477 21.0697 15.3635 20.9987 15.1456 21.1296L12.1126 22.9491C11.9882 23.0237 11.8277 22.9834 11.7532 22.8594C11.6788 22.7354 11.7191 22.5745 11.8429 22.5001L15.5654 20.267C15.6714 20.2034 15.7461 20.1027 15.776 19.9831C15.8058 19.8638 15.7873 19.7396 15.7238 19.6337C15.6604 19.5279 15.5595 19.4531 15.44 19.4233C15.3198 19.3934 15.1961 19.412 15.0905 19.4753L14.4014 19.8887C14.4012 19.8887 14.4012 19.8889 14.4011 19.8889H14.4009L11.368 21.7084C11.2437 21.7831 11.083 21.7428 11.0087 21.6187C10.9343 21.4947 10.9746 21.3338 11.0984 21.2593L14.1315 19.4398C14.2374 19.3762 14.3124 19.2754 14.3422 19.1561C14.375 19.0253 14.3501 18.8915 14.2723 18.7793C14.1375 18.5843 13.8492 18.5325 13.6306 18.6638L8.9933 21.4458C8.89179 21.5065 8.76175 21.4917 8.67663 21.4096C8.59136 21.3272 8.57217 21.1979 8.62957 21.0944L9.59385 19.357C9.69061 19.1834 9.68683 18.9689 9.58368 18.797L9.58373 18.7969Z" fill="#103E13"/>
<path d="M27.7207 25.7898C27.2374 26.5958 26.4426 27.1475 25.4824 27.3436C24.5307 27.5376 23.5299 27.3587 22.6637 26.8394L18.023 24.0554C17.7972 23.92 17.6374 23.7048 17.5735 23.4493C17.51 23.1943 17.5497 22.9294 17.685 22.7038C17.7694 22.5628 17.8878 22.4516 18.0251 22.3694L18.0238 22.3686C17.798 22.2331 17.6382 22.018 17.5746 21.7628C17.5107 21.5076 17.5504 21.2426 17.6858 21.0166C17.7731 20.8715 17.8926 20.758 18.029 20.6775C17.8309 20.5412 17.6883 20.3433 17.6296 20.1084C17.5656 19.8531 17.6053 19.5882 17.7407 19.3626C17.876 19.1368 18.0914 18.9772 18.3466 18.9134C18.4262 18.8934 18.5071 18.8836 18.5871 18.8836C18.7442 18.8837 18.8984 18.9236 19.0401 18.9977C19.0488 18.8142 19.1034 18.634 19.2106 18.4793C19.5047 18.0551 20.0937 17.9377 20.5526 18.213L24.3528 20.4925L23.863 19.6102C23.675 19.2734 23.6819 18.8578 23.8812 18.5255C23.9782 18.3638 24.117 18.2295 24.2828 18.1366C24.4191 18.0611 24.5666 18.0254 24.7123 18.0254C25.025 18.0255 25.3287 18.1905 25.4904 18.4826C26.0539 19.4979 27.1172 21.4127 27.192 21.5463C27.2079 21.5694 27.2559 21.6383 27.2971 21.6969C27.3363 21.7525 27.3786 21.8056 27.4224 21.8584C28.3713 23.0086 28.4857 24.5149 27.7207 25.7898L27.7207 25.7898ZM27.0183 22.1922C26.9662 22.129 26.915 22.0646 26.8685 21.9981C26.7268 21.7971 26.7232 21.7918 26.7125 21.7392C26.5469 21.4652 26.1428 20.7377 25.0321 18.7366C24.9347 18.561 24.7133 18.4969 24.537 18.5943C24.4502 18.6428 24.3805 18.7106 24.3297 18.7954C24.2267 18.9671 24.2228 19.1816 24.32 19.3557L25.284 21.0926C25.3415 21.1962 25.3224 21.3254 25.2372 21.4078C25.1523 21.4903 25.0224 21.5047 24.9204 21.444L20.2831 18.662C20.0645 18.531 19.7763 18.5823 19.6412 18.7775C19.5635 18.8896 19.5387 19.0235 19.5712 19.1542C19.601 19.2736 19.676 19.3742 19.7821 19.4379C19.7824 19.438 19.7826 19.4384 19.7829 19.4385L22.815 21.2575C22.9389 21.332 22.9791 21.4927 22.9047 21.6168C22.8302 21.7407 22.6697 21.7812 22.5454 21.7065L18.8229 19.4735C18.7173 19.4102 18.593 19.3915 18.4736 19.4215C18.3539 19.4513 18.2532 19.5261 18.1897 19.6322C18.1261 19.738 18.1077 19.8621 18.1372 19.9815C18.1671 20.1009 18.242 20.2018 18.348 20.2654L19.0723 20.6998L22.0703 22.4985C22.1942 22.5729 22.2344 22.7337 22.16 22.8578C22.0855 22.9816 21.925 23.022 21.8007 22.9475L18.768 21.128C18.5498 20.9968 18.2658 21.068 18.1346 21.2864C18.071 21.3924 18.0526 21.5165 18.0821 21.6359C18.112 21.7553 18.1869 21.856 18.293 21.9198L19.0366 22.3658L21.3257 23.7393C21.4497 23.8137 21.4899 23.9744 21.4154 24.0986C21.341 24.2224 21.1804 24.2631 21.0561 24.1883L18.767 22.8148C18.6614 22.7515 18.5375 22.7328 18.4175 22.7628C18.2981 22.7927 18.1971 22.8675 18.1336 22.9732C18.0702 23.0792 18.0516 23.2035 18.0812 23.3227C18.111 23.4421 18.1859 23.5428 18.2921 23.6066L22.9327 26.3905C23.6858 26.8423 24.5543 26.9987 25.3772 26.8308C26.1916 26.6645 26.8643 26.1993 27.2713 25.5207C27.9291 24.4249 27.8345 23.1805 27.0186 22.1921L27.0183 22.1922Z" fill="#103E13"/>
</svg>
