<svg width="308" height="303" viewBox="0 0 308 303" fill="none" xmlns="http://www.w3.org/2000/svg">
<path d="M261.979 302.396C261.979 302.497 212.023 302.583 150.421 302.583C88.818 302.583 38.8408 302.497 38.8408 302.396C38.8408 302.295 88.7892 302.209 150.421 302.209C212.052 302.209 261.979 302.303 261.979 302.396Z" fill="#263238"/>
<path d="M213.304 214.326C202.189 206.564 199.671 192.154 200.11 179.198C200.182 177.04 199.945 174.752 200.974 172.86C202.002 170.968 204.405 169.666 206.34 170.572C207.945 171.328 208.642 173.198 209.542 174.745C210.742 176.805 212.5 178.483 214.613 179.586C215.988 180.306 217.693 180.737 219.052 179.989C220.923 178.96 221.138 176.392 221.124 174.234C221.124 170.22 221.1 166.21 221.052 162.205C220.923 160.055 221.142 157.898 221.7 155.817C222.369 153.774 223.858 151.882 225.894 151.306C227.93 150.731 230.469 151.918 230.93 154.019C231.009 154.908 231.03 155.802 230.994 156.695C231.052 157.594 231.469 158.58 232.311 158.853C233.153 159.126 234.03 158.5 234.678 157.867C236.893 155.709 238.404 152.896 239.807 150.119C241.21 147.343 242.584 144.486 244.598 142.12C246.613 139.753 249.397 137.875 252.512 137.695C255.627 137.515 258.871 139.429 259.648 142.451C260.425 145.472 258.663 148.558 256.771 151.011C253.916 154.653 250.55 157.863 246.778 160.544C246.042 160.946 245.454 161.574 245.102 162.335C244.634 163.774 245.994 165.213 247.411 165.666C249.015 166.198 250.756 166.033 252.447 166.234C254.138 166.436 255.936 167.169 256.576 168.752C257.454 170.953 255.612 173.256 253.807 174.766C250.181 177.788 246.064 180.165 241.634 181.795C240.052 182.37 238.39 182.881 237.109 183.989C235.829 185.097 235.066 187.032 235.836 188.55C236.606 190.068 238.584 190.55 240.246 190.241C241.908 189.931 243.383 189.039 244.965 188.442C247.922 187.327 251.735 187.529 253.598 190.082C254.175 190.962 254.541 191.964 254.666 193.009C254.79 194.053 254.671 195.113 254.317 196.104C253.597 198.076 252.489 199.884 251.059 201.42C246.347 207.05 240.225 211.327 233.318 213.816C226.462 216.19 220.11 216.837 213.297 214.341" fill="black"/>
<path d="M256.483 139.472C256.483 139.472 256.418 139.544 256.274 139.674L255.634 140.242C255.073 140.746 254.246 141.479 253.202 142.451C250.245 145.197 247.499 148.162 244.987 151.321C243.383 153.314 241.721 155.572 239.951 158.026C238.181 160.479 236.354 163.126 234.541 165.939C232.608 168.905 230.838 171.975 229.239 175.133C228.405 176.781 227.671 178.5 226.915 180.255L224.685 185.615C221.746 192.366 219.185 199.276 217.016 206.312C215.269 212.069 214.065 217.978 213.419 223.959C213.001 227.996 212.934 232.062 213.218 236.11C213.333 237.549 213.441 238.649 213.542 239.398C213.585 239.757 213.614 240.045 213.642 240.254V240.549C213.611 240.455 213.59 240.359 213.578 240.261C213.542 240.052 213.498 239.772 213.441 239.412C213.311 238.693 213.175 237.556 213.045 236.117C212.698 232.061 212.722 227.982 213.117 223.93C213.723 217.923 214.901 211.988 216.635 206.204C218.786 199.148 221.339 192.221 224.282 185.457L226.57 180.119C227.325 178.37 228.066 176.637 228.908 174.982C230.519 171.814 232.303 168.737 234.253 165.766C236.095 162.889 237.951 160.285 239.699 157.853C241.447 155.421 243.138 153.148 244.735 151.163C247.272 148.012 250.056 145.067 253.059 142.357C254.123 141.4 254.972 140.681 255.548 140.199L256.217 139.659C256.299 139.588 256.388 139.525 256.483 139.472Z" fill="#263238"/>
<path d="M229.002 174.968C228.9 174.672 228.83 174.365 228.793 174.054C228.678 173.457 228.549 172.615 228.398 171.522C228.088 169.364 227.772 166.407 227.434 163.134C227.095 159.86 226.714 156.896 226.398 154.76C226.232 153.695 226.088 152.839 225.988 152.242C225.909 151.936 225.868 151.622 225.865 151.307C225.989 151.595 226.078 151.897 226.131 152.206C226.29 152.796 226.47 153.645 226.671 154.717C227.081 156.875 227.484 159.81 227.822 163.091C228.16 166.371 228.448 169.249 228.671 171.486C228.779 172.493 228.872 173.349 228.944 174.033C229 174.341 229.019 174.655 229.002 174.968Z" fill="#263238"/>
<path d="M256.685 169.802C256.334 169.878 255.978 169.922 255.62 169.932C254.9 169.996 253.879 170.083 252.613 170.227C250.08 170.5 246.598 171.004 242.778 171.723C238.958 172.442 235.527 173.255 233.059 173.881C231.829 174.198 230.836 174.485 230.182 174.68C229.832 174.804 229.47 174.891 229.103 174.939C229.435 174.772 229.782 174.634 230.138 174.529C230.815 174.291 231.793 173.96 233.016 173.608C235.469 172.888 238.901 172.032 242.735 171.298C245.983 170.677 249.261 170.221 252.555 169.932C253.829 169.824 254.857 169.781 255.577 169.766C255.946 169.741 256.317 169.753 256.685 169.802Z" fill="#263238"/>
<path d="M216.988 205.701C216.911 205.597 216.848 205.483 216.801 205.363L216.326 204.363C215.916 203.492 215.362 202.204 214.7 200.629C213.362 197.464 211.657 193.032 209.844 188.111C208.031 183.191 206.362 178.759 205.096 175.558C204.477 174.004 203.967 172.73 203.585 171.781L203.182 170.752C203.127 170.633 203.088 170.507 203.067 170.378C203.144 170.482 203.207 170.596 203.254 170.716L203.729 171.716C204.132 172.587 204.693 173.874 205.355 175.45C206.693 178.615 208.398 183.047 210.211 187.967C212.024 192.888 213.693 197.32 214.959 200.521C215.578 202.075 216.089 203.348 216.463 204.298C216.628 204.708 216.765 205.017 216.873 205.327C216.929 205.445 216.967 205.571 216.988 205.701Z" fill="#263238"/>
<path d="M253.735 193.852C253.62 193.918 253.496 193.969 253.368 194.003L252.303 194.363L248.368 195.636C245.045 196.715 240.455 198.255 235.419 199.953C230.383 201.65 225.772 203.161 222.426 204.168C220.757 204.679 219.398 205.068 218.455 205.327L217.369 205.607C217.243 205.647 217.112 205.674 216.98 205.686C217.096 205.62 217.219 205.569 217.347 205.535L218.412 205.175L222.347 203.902C225.671 202.823 230.261 201.284 235.297 199.586C240.332 197.888 244.937 196.377 248.282 195.37C249.958 194.859 251.311 194.471 252.26 194.212L253.346 193.931C253.473 193.891 253.603 193.865 253.735 193.852Z" fill="#263238"/>
<path d="M238.742 19.3457L235.037 20.6694L233.447 15.8278C230.526 6.90001 221.217 2.15912 212.664 5.17343C204.11 8.18775 199.556 17.9789 202.477 26.9067L204.067 31.7483L200.347 33.0792C198.929 33.6293 197.777 34.7048 197.132 36.0821C196.486 37.4594 196.396 39.0326 196.88 40.4747L207.189 71.9775C207.403 72.6914 207.758 73.355 208.234 73.9288C208.709 74.5027 209.295 74.9751 209.957 75.318C210.619 75.6609 211.342 75.8674 212.085 75.925C212.829 75.9827 213.576 75.8904 214.282 75.6537L252.677 61.9202C254.114 61.3711 255.282 60.286 255.935 58.8934C256.589 57.5007 256.677 55.9089 256.18 54.4528L245.864 22.95C245.645 22.2381 245.284 21.5777 244.804 21.0083C244.323 20.4388 243.733 19.972 243.068 19.6356C242.404 19.2992 241.678 19.1002 240.935 19.0504C240.191 19.0006 239.446 19.101 238.742 19.3457ZM209.477 24.3816C208.689 22.0602 208.83 19.5241 209.871 17.3047C210.912 15.0852 212.771 13.3546 215.059 12.4754C216.189 12.0888 217.385 11.9338 218.576 12.0196C219.768 12.1054 220.929 12.4302 221.992 12.9747C223.055 13.5192 223.997 14.2723 224.763 15.1889C225.528 16.1055 226.101 17.1669 226.447 18.3098L228.03 23.1514L211.059 29.2232L209.477 24.3816ZM231.059 52.3377L233.692 60.3807C233.74 60.5419 233.725 60.7156 233.648 60.8657C233.572 61.0157 233.441 61.1306 233.282 61.1864L229.591 62.5029C229.444 62.5436 229.287 62.5259 229.153 62.4535C229.019 62.3811 228.918 62.2596 228.872 62.1144L226.217 54.1074C224.753 54.0277 223.349 53.5027 222.192 52.6027C221.035 51.7027 220.18 50.4707 219.743 49.0716C219.117 47.222 219.231 45.202 220.061 43.4346C220.891 41.6672 222.373 40.2895 224.196 39.5898C225.096 39.2823 226.048 39.1591 226.997 39.2277C227.946 39.2962 228.871 39.555 229.718 39.9887C230.564 40.4223 231.315 41.022 231.925 41.7519C232.534 42.4818 232.991 43.327 233.267 44.2372C233.73 45.6584 233.769 47.1838 233.377 48.6264C232.986 50.0691 232.183 51.3663 231.066 52.3593L231.059 52.3377Z" fill="black"/>
<path d="M234.872 20.5831C234.872 20.6838 228.002 23.2665 219.455 26.3384C210.909 29.4102 203.937 31.8778 203.902 31.8059C203.866 31.7339 210.772 29.1297 219.326 26.0506C227.879 22.9716 234.836 20.4896 234.872 20.5831Z" fill="#263238"/>
<path d="M243.03 21.9067C243.061 21.9692 243.088 22.0341 243.109 22.101C243.166 22.2449 243.231 22.4319 243.317 22.6621C243.504 23.1873 243.763 23.9139 244.087 24.8203L246.85 32.8633C248.001 36.2733 249.375 40.3163 250.9 44.8054C251.619 47.0572 252.468 49.4024 253.26 51.87C253.683 53.1416 253.866 54.4809 253.799 55.8195C253.738 56.5157 253.54 57.1929 253.216 57.8123C252.871 58.4296 252.409 58.9743 251.857 59.4166C250.745 60.2279 249.512 60.8569 248.202 61.2798L244.497 62.6107L237.483 65.1215L225.606 69.3516L217.584 72.1716L215.426 72.8911L214.85 73.0781C214.789 73.1055 214.723 73.1225 214.656 73.1285C214.656 73.1285 214.714 73.1285 214.836 73.0421L215.397 72.8191L217.555 72.0062L225.534 69.071L237.389 64.7546L244.389 62.2223L248.094 60.8842C249.367 60.4784 250.564 59.8685 251.641 59.0785C252.155 58.6681 252.585 58.1625 252.907 57.5893C253.212 57.0165 253.395 56.3872 253.447 55.7404C253.513 54.4507 253.337 53.1599 252.929 51.9348C252.152 49.4888 251.332 47.1219 250.591 44.8702C249.094 40.3739 247.713 36.3164 246.619 32.9065C245.526 29.4965 244.605 26.7555 243.972 24.8275C243.67 23.8851 243.44 23.1513 243.253 22.619L243.08 22.0434C243.058 21.9998 243.041 21.954 243.03 21.9067Z" fill="#263238"/>
<path d="M222.771 11.986C222.771 11.986 222.39 11.799 221.685 11.5112C220.68 11.1251 219.617 10.9111 218.541 10.8782C216.946 10.8235 215.359 11.1232 213.894 11.7558C212.112 12.5436 210.588 13.8177 209.498 15.432C208.4 17.0417 207.811 18.9439 207.807 20.8923C207.822 22.4892 208.065 24.0758 208.527 25.6044C208.901 26.9137 209.289 27.9569 209.548 28.6835C209.701 29.0525 209.826 29.4325 209.922 29.8201C209.718 29.4751 209.547 29.1113 209.412 28.7338C209.117 28.0144 208.692 26.9929 208.275 25.6763C207.763 24.1317 207.484 22.5192 207.448 20.8923C207.429 18.8703 208.031 16.8913 209.174 15.2234C210.303 13.5501 211.888 12.2366 213.743 11.4393C215.253 10.8032 216.89 10.5226 218.527 10.6192C219.626 10.6752 220.706 10.9312 221.714 11.3745C221.983 11.4988 222.243 11.6431 222.49 11.8062C222.593 11.8511 222.687 11.9118 222.771 11.986Z" fill="#263238"/>
<path d="M223.102 40.1365C223.217 40.0669 223.337 40.0068 223.462 39.9567C223.822 39.7942 224.195 39.6618 224.577 39.561C225.183 39.382 225.809 39.2758 226.44 39.2445C227.299 39.1983 228.158 39.328 228.965 39.6257C230.807 40.2732 232.498 42.1509 233.332 44.6616C233.732 46.009 233.732 47.4436 233.332 48.791C232.888 50.2534 232.093 51.5847 231.016 52.6686L231.059 52.4743C232.016 55.1002 233.059 57.949 234.138 60.9202L234.203 61.1L234.023 61.1648L232.375 61.7115L228.778 62.9129L228.598 62.9705L228.541 62.7906C227.555 59.8123 226.476 57.0354 225.663 54.3088L225.822 54.4311C224.415 54.3143 223.074 53.7864 221.966 52.9132C220.963 52.1406 220.14 51.1586 219.556 50.0355C219.028 49.0396 218.766 47.9248 218.793 46.7982C218.826 45.6468 219.114 44.5169 219.635 43.4896C220.156 42.4623 220.898 41.5629 221.807 40.8559C222.182 40.552 222.602 40.3092 223.052 40.1365C222.645 40.3776 222.252 40.6394 221.872 40.9207C220.873 41.7659 220.108 42.8533 219.649 44.0789C219.255 45.003 219.071 46.0029 219.11 47.0067C219.148 48.0104 219.409 48.9932 219.872 49.8845C220.447 50.9649 221.249 51.9075 222.225 52.647C223.282 53.477 224.561 53.9774 225.901 54.0858H226.023L226.059 54.1937C226.85 56.8699 227.937 59.6684 228.937 62.6611L228.699 62.546L232.296 61.3446L233.936 60.7907L233.821 61.0353C232.749 58.0641 231.714 55.2081 230.764 52.5822V52.4743L230.85 52.388C231.896 51.3491 232.676 50.0732 233.124 48.6687C233.505 47.3798 233.505 46.008 233.124 44.7191C232.339 42.3019 230.721 40.4674 228.965 39.82C228.188 39.5204 227.359 39.3809 226.527 39.4099C225.905 39.4242 225.287 39.5086 224.685 39.6617C223.613 39.9279 223.109 40.1725 223.102 40.1365Z" fill="#263238"/>
<path d="M200.865 247.858L129.004 247.527C124.854 247.504 120.883 245.835 117.963 242.887C115.042 239.938 113.412 235.951 113.429 231.801L114.191 51.6543C114.2 49.5983 114.613 47.5641 115.409 45.668C116.204 43.7719 117.365 42.0511 118.825 40.604C120.286 39.1568 122.017 38.0117 123.92 37.2341C125.824 36.4565 127.862 36.0616 129.918 36.072L201.772 36.4029C205.922 36.4238 209.894 38.091 212.815 41.0383C215.737 43.9856 217.37 47.972 217.354 52.1219L216.592 232.261C216.583 234.318 216.17 236.353 215.375 238.25C214.58 240.147 213.419 241.868 211.959 243.317C210.498 244.765 208.767 245.911 206.864 246.691C204.96 247.47 202.922 247.867 200.865 247.858Z" fill="black"/>
<path d="M201.664 42.5968H187.736C187.282 42.6053 186.834 42.7031 186.417 42.8849C186 43.0666 185.624 43.3286 185.308 43.656C184.993 43.9833 184.745 44.3696 184.579 44.7927C184.413 45.2158 184.332 45.6675 184.341 46.1219V48.6471C184.349 49.1011 184.268 49.5525 184.102 49.9752C183.936 50.3979 183.688 50.7837 183.373 51.1104C183.057 51.4372 182.681 51.6986 182.264 51.8795C181.848 52.0605 181.399 52.1575 180.945 52.1649L153.795 52.0426C152.876 52.0182 152.005 51.6301 151.373 50.9638C150.74 50.2975 150.398 49.4073 150.421 48.4888V45.9637C150.444 45.0464 150.103 44.1573 149.472 43.4911C148.841 42.825 147.971 42.4362 147.054 42.4098H142.155L129.961 42.3522C127.061 42.335 124.272 43.4677 122.204 45.5023C120.137 47.537 118.961 50.3078 118.932 53.2081L118.213 229.045C118.206 230.484 118.483 231.91 119.028 233.242C119.572 234.574 120.374 235.786 121.386 236.808C122.399 237.83 123.603 238.642 124.93 239.199C126.257 239.756 127.68 240.046 129.119 240.052L200.83 240.383C202.269 240.39 203.696 240.113 205.029 239.568C206.362 239.023 207.574 238.221 208.597 237.208C209.62 236.194 210.433 234.989 210.99 233.662C211.547 232.334 211.837 230.91 211.844 229.47L212.563 53.6325C212.58 50.7241 211.442 47.9278 209.398 45.8584C207.354 43.789 204.573 42.6159 201.664 42.5968Z" fill="white"/>
<path d="M192.016 216.924L138.694 216.693C138.14 216.693 137.694 216.089 137.701 215.355L137.759 201.406C137.759 200.687 138.212 200.068 138.766 200.068L192.088 200.312C192.395 200.366 192.67 200.535 192.855 200.786C193.04 201.036 193.121 201.349 193.081 201.658L193.031 215.593C193.031 216.334 192.57 216.931 192.016 216.924Z" fill="black"/>
<path d="M154.907 210.246C154.612 210.246 154.329 210.199 154.058 210.105C153.79 210.007 153.582 209.882 153.435 209.731L153.599 209.409C153.739 209.545 153.925 209.66 154.159 209.754C154.397 209.845 154.646 209.89 154.907 209.89C155.156 209.89 155.357 209.86 155.512 209.799C155.671 209.735 155.786 209.65 155.857 209.545C155.933 209.439 155.971 209.322 155.971 209.194C155.971 209.039 155.925 208.914 155.835 208.82C155.748 208.726 155.633 208.652 155.49 208.599C155.346 208.543 155.188 208.494 155.014 208.452C154.841 208.411 154.667 208.367 154.493 208.322C154.32 208.273 154.159 208.209 154.012 208.13C153.869 208.05 153.752 207.947 153.661 207.818C153.575 207.686 153.531 207.514 153.531 207.303C153.531 207.107 153.582 206.928 153.684 206.765C153.79 206.599 153.95 206.467 154.165 206.369C154.38 206.267 154.656 206.216 154.991 206.216C155.214 206.216 155.435 206.249 155.654 206.313C155.873 206.373 156.061 206.458 156.22 206.567L156.078 206.901C155.908 206.788 155.727 206.705 155.535 206.652C155.346 206.599 155.163 206.573 154.986 206.573C154.748 206.573 154.552 206.605 154.397 206.669C154.242 206.733 154.127 206.82 154.052 206.93C153.98 207.035 153.944 207.156 153.944 207.292C153.944 207.447 153.988 207.571 154.075 207.665C154.165 207.76 154.282 207.833 154.425 207.886C154.573 207.939 154.733 207.986 154.907 208.028C155.08 208.069 155.252 208.114 155.422 208.164C155.595 208.213 155.754 208.277 155.897 208.356C156.044 208.431 156.161 208.533 156.248 208.662C156.339 208.79 156.384 208.958 156.384 209.165C156.384 209.358 156.331 209.537 156.225 209.703C156.12 209.865 155.957 209.997 155.739 210.099C155.523 210.197 155.246 210.246 154.907 210.246ZM157.296 210.212V206.25H157.715V210.212H157.296ZM159.004 210.212V206.25H159.35L162.083 209.692H161.902V206.25H162.315V210.212H161.97L159.242 206.771H159.423V210.212H159.004ZM165.346 210.246C165.044 210.246 164.765 210.197 164.508 210.099C164.256 209.997 164.035 209.856 163.846 209.675C163.661 209.494 163.516 209.28 163.41 209.035C163.309 208.79 163.258 208.522 163.258 208.231C163.258 207.941 163.309 207.673 163.41 207.428C163.516 207.182 163.663 206.969 163.852 206.788C164.041 206.607 164.261 206.467 164.514 206.369C164.771 206.267 165.05 206.216 165.352 206.216C165.654 206.216 165.929 206.264 166.178 206.358C166.431 206.452 166.646 206.596 166.823 206.788L166.563 207.054C166.397 206.888 166.214 206.769 166.014 206.698C165.814 206.626 165.599 206.59 165.369 206.59C165.124 206.59 164.897 206.632 164.69 206.715C164.486 206.794 164.307 206.909 164.152 207.06C164.001 207.207 163.882 207.381 163.795 207.581C163.712 207.777 163.671 207.994 163.671 208.231C163.671 208.465 163.712 208.682 163.795 208.882C163.882 209.082 164.001 209.258 164.152 209.409C164.307 209.556 164.486 209.671 164.69 209.754C164.897 209.833 165.122 209.873 165.363 209.873C165.59 209.873 165.803 209.839 166.003 209.771C166.206 209.703 166.393 209.588 166.563 209.426L166.801 209.743C166.612 209.909 166.391 210.035 166.139 210.122C165.886 210.205 165.622 210.246 165.346 210.246ZM166.399 209.692V208.231H166.801V209.743L166.399 209.692ZM171.064 210.246C170.558 210.246 170.16 210.101 169.869 209.811C169.579 209.52 169.433 209.09 169.433 208.52V206.25H169.852V208.503C169.852 208.971 169.958 209.316 170.169 209.539C170.381 209.761 170.679 209.873 171.064 209.873C171.452 209.873 171.752 209.761 171.963 209.539C172.175 209.316 172.28 208.971 172.28 208.503V206.25H172.688V208.52C172.688 209.09 172.543 209.52 172.252 209.811C171.965 210.101 171.569 210.246 171.064 210.246ZM173.95 210.212V206.25H175.433C175.769 206.25 176.057 206.305 176.299 206.415C176.54 206.52 176.725 206.675 176.854 206.879C176.986 207.079 177.052 207.322 177.052 207.609C177.052 207.888 176.986 208.13 176.854 208.333C176.725 208.533 176.54 208.688 176.299 208.797C176.057 208.907 175.769 208.962 175.433 208.962H174.182L174.369 208.763V210.212H173.95ZM174.369 208.797L174.182 208.594H175.422C175.818 208.594 176.118 208.509 176.322 208.339C176.529 208.165 176.633 207.922 176.633 207.609C176.633 207.292 176.529 207.047 176.322 206.873C176.118 206.699 175.818 206.613 175.422 206.613H174.182L174.369 206.415V208.797Z" fill="#E8E8E3"/>
<path d="M149.33 94.2866L130.827 94.2026L130.812 97.5982L149.315 97.6822L149.33 94.2866Z" fill="black"/>
<path opacity="0.1" d="M149.33 94.2866L130.827 94.2026L130.812 97.5982L149.315 97.6822L149.33 94.2866Z" fill="black"/>
<path d="M203.57 115.135C203.716 115.12 203.858 115.086 203.995 115.034C204.194 114.956 204.367 114.824 204.494 114.652C204.621 114.48 204.698 114.276 204.714 114.063C204.714 112.919 204.714 111.25 204.714 109.106C204.714 108.034 204.714 106.833 204.714 105.509C204.714 105.185 204.714 104.847 204.714 104.509C204.761 104.181 204.69 103.847 204.513 103.566C204.414 103.432 204.285 103.323 204.136 103.246C203.988 103.17 203.823 103.13 203.657 103.128H202.534H192.139L131.968 102.905C131.814 102.902 131.661 102.937 131.524 103.005C131.386 103.074 131.267 103.176 131.176 103.3C131.003 103.582 130.936 103.916 130.989 104.243C130.989 104.962 130.989 105.682 130.989 106.401C130.989 107.84 130.989 109.279 130.989 110.717C130.989 111.437 130.989 112.156 130.989 112.876C130.959 113.211 130.959 113.548 130.989 113.883C131.027 114.026 131.097 114.159 131.195 114.272C131.292 114.384 131.414 114.472 131.55 114.53C131.692 114.587 131.844 114.614 131.997 114.609H135.658L151.636 114.696L178.686 114.861L196.923 115.005L201.88 115.063H203.167C203.462 115.063 203.606 115.063 203.606 115.063H203.167H201.88H196.923H178.686L151.636 114.976L135.658 114.912H131.997C131.795 114.92 131.594 114.885 131.407 114.811C131.217 114.73 131.049 114.607 130.914 114.451C130.779 114.295 130.682 114.111 130.63 113.912C130.588 113.723 130.573 113.529 130.586 113.336V112.804C130.586 112.084 130.586 111.365 130.586 110.645C130.586 109.207 130.586 107.768 130.586 106.329C130.586 105.61 130.586 104.89 130.586 104.171C130.573 103.979 130.573 103.787 130.586 103.595C130.613 103.384 130.695 103.183 130.824 103.013C130.948 102.839 131.112 102.698 131.303 102.601C131.493 102.505 131.704 102.456 131.917 102.459L192.089 102.79L202.484 102.861H203.606C203.804 102.862 203.999 102.909 204.174 103.001C204.349 103.092 204.5 103.225 204.613 103.387C204.816 103.699 204.898 104.075 204.844 104.444C204.844 104.782 204.844 105.12 204.844 105.444C204.844 106.753 204.844 107.955 204.844 109.041C204.844 111.199 204.793 112.854 204.779 114.005C204.761 114.226 204.681 114.438 204.547 114.615C204.413 114.792 204.232 114.928 204.023 115.005C203.887 115.089 203.73 115.134 203.57 115.135Z" fill="#E0E0E0"/>
<path d="M170.226 106.516H136.385V109.689H170.226V106.516Z" fill="black"/>
<path opacity="0.2" d="M170.226 106.516H136.385V109.689H170.226V106.516Z" fill="white"/>
<path d="M149.204 125.263L130.701 125.179L130.686 128.575L149.189 128.659L149.204 125.263Z" fill="black"/>
<path opacity="0.1" d="M149.204 125.263L130.701 125.179L130.686 128.575L149.189 128.659L149.204 125.263Z" fill="black"/>
<path d="M203.103 146.112C203.248 146.095 203.393 146.068 203.535 146.033C203.736 145.969 203.921 145.863 204.077 145.722C204.233 145.58 204.358 145.407 204.441 145.213C204.554 144.923 204.599 144.61 204.571 144.3C204.571 143.954 204.571 143.58 204.571 143.163C204.571 142.328 204.571 141.379 204.571 140.285V135.717C204.605 135.386 204.532 135.053 204.362 134.767C204.185 134.474 203.906 134.257 203.578 134.156C203.22 134.092 202.855 134.073 202.492 134.098H192.139L132.177 133.875C131.854 133.876 131.543 133.994 131.301 134.207C131.059 134.42 130.902 134.714 130.86 135.034C130.86 135.717 130.86 136.472 130.86 137.192C130.86 138.631 130.86 140.069 130.86 141.508C130.86 142.228 130.86 142.947 130.86 143.666C130.834 144.003 130.848 144.341 130.904 144.674C130.993 144.965 131.178 145.219 131.429 145.393C131.694 145.562 132.007 145.642 132.321 145.623H133.321H135.4L151.32 145.702L178.276 145.868L196.449 146.012L201.391 146.069H196.449H178.276L151.306 146.04L135.385 145.983H132.256C131.867 146.006 131.481 145.903 131.155 145.688C130.828 145.461 130.589 145.128 130.479 144.746C130.415 144.38 130.395 144.008 130.422 143.638C130.422 142.918 130.422 142.199 130.422 141.479C130.422 140.041 130.422 138.602 130.422 137.163C130.422 136.444 130.422 135.724 130.422 135.005C130.474 134.593 130.675 134.215 130.986 133.941C131.297 133.667 131.697 133.516 132.112 133.516L192.075 133.847L202.427 133.926C202.812 133.902 203.199 133.929 203.578 134.005C203.952 134.127 204.267 134.383 204.463 134.724C204.649 135.041 204.73 135.409 204.693 135.775C204.693 136.113 204.693 136.444 204.693 136.775C204.693 138.077 204.693 139.271 204.693 140.372C204.693 141.472 204.693 142.4 204.693 143.249C204.693 143.659 204.693 144.041 204.693 144.393C204.719 144.715 204.667 145.038 204.542 145.335C204.449 145.534 204.313 145.71 204.146 145.852C203.978 145.993 203.782 146.097 203.571 146.156C203.414 146.169 203.255 146.154 203.103 146.112Z" fill="#E0E0E0"/>
<path d="M149.064 157.585L130.562 157.501L130.546 160.897L149.049 160.981L149.064 157.585Z" fill="black"/>
<path opacity="0.1" d="M149.064 157.585L130.562 157.501L130.546 160.897L149.049 160.981L149.064 157.585Z" fill="black"/>
<path d="M202.959 178.421C203.105 178.404 203.249 178.377 203.391 178.342C203.591 178.278 203.775 178.173 203.931 178.033C204.088 177.892 204.212 177.721 204.297 177.529C204.41 177.238 204.454 176.926 204.427 176.615C204.427 176.263 204.427 175.896 204.427 175.471C204.427 174.644 204.427 173.687 204.427 172.594V168.025C204.461 167.695 204.388 167.362 204.218 167.076C204.037 166.788 203.759 166.574 203.434 166.471C203.076 166.405 202.711 166.383 202.348 166.407H191.996L132.033 166.184C131.71 166.184 131.399 166.302 131.157 166.515C130.915 166.728 130.758 167.022 130.717 167.342C130.717 168.061 130.717 168.781 130.717 169.5C130.717 170.939 130.717 172.378 130.717 173.817C130.717 174.536 130.717 175.255 130.717 175.975C130.69 176.309 130.704 176.645 130.76 176.975C130.846 177.268 131.032 177.523 131.285 177.694C131.549 177.867 131.862 177.948 132.177 177.924H135.306L151.227 178.011L178.183 178.176L196.355 178.32L201.297 178.378H196.355H178.183L151.227 178.298L135.306 178.234H132.177C131.787 178.26 131.4 178.156 131.076 177.939C130.749 177.712 130.51 177.379 130.4 176.996C130.335 176.631 130.316 176.259 130.342 175.888C130.342 175.169 130.342 174.45 130.342 173.73C130.342 172.291 130.342 170.853 130.342 169.414C130.342 168.694 130.342 167.975 130.342 167.22C130.393 166.809 130.592 166.431 130.902 166.157C131.212 165.882 131.612 165.731 132.026 165.73L191.988 166.061L202.341 166.141C202.726 166.117 203.113 166.143 203.492 166.22C203.865 166.342 204.181 166.598 204.376 166.939C204.563 167.256 204.643 167.624 204.607 167.989C204.607 168.328 204.607 168.666 204.607 168.989C204.607 170.292 204.607 171.486 204.607 172.586C204.607 173.687 204.607 174.615 204.607 175.464C204.607 175.874 204.607 176.255 204.607 176.608C204.634 176.93 204.582 177.253 204.456 177.55C204.362 177.749 204.227 177.925 204.06 178.066C203.892 178.208 203.696 178.312 203.484 178.37C203.316 178.428 203.136 178.445 202.959 178.421Z" fill="#E0E0E0"/>
<path d="M169.504 138.391L135.663 138.237L135.649 141.41L169.489 141.563L169.504 138.391Z" fill="black"/>
<path opacity="0.2" d="M169.504 138.391L135.663 138.237L135.649 141.41L169.489 141.563L169.504 138.391Z" fill="white"/>
<path d="M138.723 172.55C138.701 172.84 138.596 173.117 138.419 173.346C138.242 173.576 138.001 173.749 137.727 173.843C137.452 173.938 137.156 173.949 136.875 173.877C136.594 173.805 136.341 173.651 136.146 173.436C135.951 173.221 135.824 172.954 135.78 172.667C135.736 172.38 135.777 172.087 135.898 171.823C136.019 171.559 136.215 171.337 136.462 171.184C136.708 171.03 136.994 170.953 137.284 170.96C137.685 170.983 138.06 171.162 138.33 171.46C138.599 171.758 138.74 172.149 138.723 172.55Z" fill="black"/>
<path d="M143.306 172.572C143.32 172.775 143.292 172.978 143.225 173.17C143.157 173.362 143.05 173.537 142.911 173.686C142.773 173.835 142.605 173.953 142.419 174.034C142.232 174.115 142.031 174.157 141.828 174.157C141.624 174.157 141.423 174.115 141.237 174.034C141.05 173.953 140.883 173.835 140.744 173.686C140.605 173.537 140.499 173.362 140.431 173.17C140.363 172.978 140.335 172.775 140.349 172.572C140.335 172.369 140.363 172.166 140.431 171.974C140.499 171.782 140.605 171.607 140.744 171.458C140.883 171.309 141.05 171.191 141.237 171.11C141.423 171.029 141.624 170.987 141.828 170.987C142.031 170.987 142.232 171.029 142.419 171.11C142.605 171.191 142.773 171.309 142.911 171.458C143.05 171.607 143.157 171.782 143.225 171.974C143.292 172.166 143.32 172.369 143.306 172.572Z" fill="black"/>
<path d="M147.896 172.594C147.874 172.883 147.769 173.16 147.592 173.39C147.414 173.62 147.174 173.793 146.899 173.887C146.625 173.981 146.329 173.993 146.048 173.921C145.767 173.848 145.513 173.695 145.319 173.48C145.124 173.265 144.997 172.997 144.953 172.71C144.909 172.424 144.95 172.13 145.071 171.866C145.192 171.603 145.388 171.381 145.634 171.227C145.881 171.074 146.167 170.996 146.457 171.004C146.857 171.028 147.232 171.208 147.501 171.505C147.77 171.803 147.911 172.193 147.896 172.594Z" fill="black"/>
<path d="M152.479 172.615C152.457 172.905 152.352 173.181 152.175 173.411C151.997 173.641 151.757 173.814 151.482 173.908C151.208 174.003 150.912 174.014 150.631 173.942C150.35 173.87 150.096 173.716 149.902 173.501C149.707 173.286 149.58 173.019 149.536 172.732C149.492 172.445 149.533 172.152 149.654 171.888C149.775 171.624 149.971 171.402 150.217 171.249C150.464 171.095 150.75 171.018 151.04 171.025C151.44 171.05 151.815 171.23 152.084 171.527C152.353 171.824 152.494 172.215 152.479 172.615Z" fill="black"/>
<path d="M157.061 172.63C157.041 172.919 156.937 173.197 156.76 173.428C156.584 173.659 156.344 173.833 156.069 173.928C155.795 174.024 155.499 174.036 155.217 173.965C154.936 173.893 154.681 173.74 154.486 173.525C154.291 173.31 154.163 173.043 154.118 172.756C154.074 172.469 154.114 172.175 154.235 171.911C154.356 171.647 154.552 171.424 154.799 171.27C155.046 171.117 155.332 171.039 155.622 171.047C156.021 171.071 156.395 171.25 156.664 171.546C156.932 171.841 157.075 172.23 157.061 172.63Z" fill="black"/>
<path d="M161.651 172.651C161.631 172.939 161.528 173.216 161.353 173.446C161.179 173.676 160.94 173.85 160.668 173.947C160.396 174.044 160.101 174.059 159.82 173.99C159.54 173.921 159.285 173.772 159.088 173.561C158.891 173.349 158.76 173.085 158.712 172.8C158.663 172.515 158.699 172.222 158.814 171.957C158.93 171.693 159.12 171.467 159.362 171.309C159.604 171.151 159.887 171.068 160.176 171.068C160.581 171.083 160.964 171.258 161.241 171.555C161.517 171.852 161.665 172.246 161.651 172.651Z" fill="black"/>
<path d="M166.233 172.673C166.247 172.876 166.219 173.079 166.151 173.271C166.083 173.463 165.977 173.638 165.838 173.787C165.7 173.936 165.532 174.054 165.345 174.135C165.159 174.216 164.958 174.258 164.754 174.258C164.551 174.258 164.35 174.216 164.164 174.135C163.977 174.054 163.809 173.936 163.671 173.787C163.532 173.638 163.425 173.463 163.358 173.271C163.29 173.079 163.262 172.876 163.276 172.673C163.262 172.47 163.29 172.267 163.358 172.075C163.425 171.883 163.532 171.708 163.671 171.559C163.809 171.41 163.977 171.292 164.164 171.211C164.35 171.13 164.551 171.088 164.754 171.088C164.958 171.088 165.159 171.13 165.345 171.211C165.532 171.292 165.7 171.41 165.838 171.559C165.977 171.708 166.083 171.883 166.151 172.075C166.219 172.267 166.247 172.47 166.233 172.673Z" fill="black"/>
<path d="M170.816 172.695C170.796 172.983 170.693 173.259 170.518 173.489C170.344 173.72 170.105 173.894 169.833 173.99C169.561 174.087 169.266 174.102 168.985 174.033C168.705 173.965 168.45 173.815 168.253 173.604C168.056 173.393 167.925 173.128 167.877 172.843C167.828 172.559 167.864 172.266 167.979 172.001C168.095 171.736 168.285 171.511 168.527 171.353C168.769 171.195 169.052 171.111 169.341 171.112C169.746 171.127 170.129 171.302 170.406 171.598C170.682 171.895 170.83 172.289 170.816 172.695Z" fill="black"/>
<path d="M175.399 172.716C175.379 173.006 175.275 173.283 175.098 173.514C174.922 173.745 174.682 173.919 174.407 174.015C174.133 174.11 173.837 174.123 173.555 174.051C173.274 173.979 173.019 173.827 172.824 173.612C172.628 173.397 172.501 173.129 172.456 172.842C172.411 172.555 172.452 172.261 172.573 171.997C172.694 171.733 172.89 171.51 173.137 171.357C173.384 171.203 173.67 171.126 173.96 171.133C174.359 171.157 174.733 171.336 175.001 171.632C175.27 171.928 175.413 172.317 175.399 172.716Z" fill="black"/>
<g opacity="0.2">
<path d="M138.723 172.55C138.701 172.84 138.596 173.117 138.419 173.346C138.242 173.576 138.001 173.749 137.727 173.843C137.452 173.938 137.156 173.949 136.875 173.877C136.594 173.805 136.341 173.651 136.146 173.436C135.951 173.221 135.824 172.954 135.78 172.667C135.736 172.38 135.777 172.087 135.898 171.823C136.019 171.559 136.215 171.337 136.462 171.184C136.708 171.03 136.994 170.953 137.284 170.96C137.685 170.983 138.06 171.162 138.33 171.46C138.599 171.758 138.74 172.149 138.723 172.55Z" fill="white"/>
<path d="M143.305 172.572C143.319 172.775 143.292 172.978 143.224 173.17C143.156 173.362 143.049 173.537 142.91 173.686C142.772 173.835 142.604 173.953 142.418 174.034C142.231 174.115 142.03 174.157 141.827 174.157C141.623 174.157 141.422 174.115 141.236 174.034C141.049 173.953 140.882 173.835 140.743 173.686C140.604 173.537 140.498 173.362 140.43 173.17C140.362 172.978 140.334 172.775 140.348 172.572C140.334 172.369 140.362 172.166 140.43 171.974C140.498 171.782 140.604 171.607 140.743 171.458C140.882 171.309 141.049 171.191 141.236 171.11C141.422 171.029 141.623 170.987 141.827 170.987C142.03 170.987 142.231 171.029 142.418 171.11C142.604 171.191 142.772 171.309 142.91 171.458C143.049 171.607 143.156 171.782 143.224 171.974C143.292 172.166 143.319 172.369 143.305 172.572Z" fill="white"/>
<path d="M147.896 172.593C147.874 172.883 147.769 173.16 147.592 173.389C147.414 173.619 147.174 173.792 146.899 173.886C146.625 173.981 146.329 173.992 146.048 173.92C145.767 173.848 145.513 173.694 145.319 173.479C145.124 173.264 144.997 172.997 144.953 172.71C144.909 172.423 144.95 172.13 145.071 171.866C145.192 171.602 145.388 171.38 145.634 171.227C145.881 171.073 146.167 170.996 146.457 171.003C146.857 171.028 147.232 171.208 147.501 171.505C147.77 171.802 147.911 172.193 147.896 172.593Z" fill="white"/>
<path d="M152.478 172.615C152.456 172.905 152.351 173.181 152.174 173.411C151.996 173.641 151.756 173.814 151.481 173.908C151.207 174.003 150.911 174.014 150.63 173.942C150.349 173.87 150.095 173.716 149.901 173.501C149.706 173.286 149.579 173.019 149.535 172.732C149.491 172.445 149.532 172.152 149.653 171.888C149.774 171.624 149.97 171.402 150.216 171.249C150.463 171.095 150.749 171.018 151.039 171.025C151.439 171.05 151.814 171.23 152.083 171.527C152.352 171.824 152.493 172.215 152.478 172.615Z" fill="white"/>
<path d="M157.06 172.63C157.04 172.919 156.936 173.197 156.759 173.428C156.583 173.659 156.343 173.833 156.068 173.928C155.794 174.024 155.498 174.036 155.216 173.965C154.935 173.893 154.68 173.74 154.485 173.525C154.29 173.31 154.162 173.043 154.117 172.756C154.073 172.469 154.113 172.175 154.234 171.911C154.356 171.647 154.552 171.424 154.798 171.27C155.045 171.117 155.331 171.039 155.621 171.047C156.02 171.071 156.394 171.25 156.663 171.546C156.931 171.841 157.074 172.23 157.06 172.63Z" fill="white"/>
<path d="M161.65 172.651C161.63 172.939 161.527 173.216 161.352 173.446C161.178 173.676 160.939 173.85 160.667 173.947C160.395 174.044 160.1 174.059 159.819 173.99C159.539 173.921 159.284 173.772 159.087 173.561C158.89 173.349 158.759 173.085 158.711 172.8C158.662 172.515 158.698 172.222 158.813 171.957C158.929 171.693 159.119 171.467 159.361 171.309C159.603 171.151 159.886 171.068 160.175 171.068C160.58 171.083 160.963 171.258 161.24 171.555C161.516 171.852 161.664 172.246 161.65 172.651Z" fill="white"/>
<path d="M166.233 172.673C166.247 172.875 166.219 173.079 166.151 173.271C166.083 173.462 165.977 173.638 165.838 173.787C165.7 173.935 165.532 174.054 165.345 174.135C165.159 174.216 164.958 174.258 164.754 174.258C164.551 174.258 164.35 174.216 164.164 174.135C163.977 174.054 163.809 173.935 163.671 173.787C163.532 173.638 163.425 173.462 163.358 173.271C163.29 173.079 163.262 172.875 163.276 172.673C163.262 172.47 163.29 172.266 163.358 172.075C163.425 171.883 163.532 171.707 163.671 171.559C163.809 171.41 163.977 171.291 164.164 171.21C164.35 171.129 164.551 171.087 164.754 171.087C164.958 171.087 165.159 171.129 165.345 171.21C165.532 171.291 165.7 171.41 165.838 171.559C165.977 171.707 166.083 171.883 166.151 172.075C166.219 172.266 166.247 172.47 166.233 172.673Z" fill="white"/>
<path d="M170.815 172.695C170.795 172.983 170.692 173.259 170.517 173.489C170.343 173.72 170.104 173.894 169.832 173.99C169.56 174.087 169.265 174.102 168.984 174.033C168.704 173.965 168.449 173.815 168.252 173.604C168.055 173.393 167.924 173.128 167.876 172.843C167.827 172.559 167.863 172.266 167.978 172.001C168.094 171.736 168.284 171.511 168.526 171.353C168.768 171.195 169.051 171.111 169.34 171.112C169.745 171.127 170.128 171.302 170.405 171.598C170.681 171.895 170.829 172.289 170.815 172.695Z" fill="white"/>
<path d="M175.398 172.716C175.378 173.006 175.274 173.283 175.097 173.514C174.921 173.745 174.681 173.919 174.406 174.015C174.132 174.11 173.836 174.123 173.554 174.051C173.273 173.979 173.018 173.827 172.823 173.612C172.627 173.397 172.5 173.129 172.455 172.842C172.41 172.555 172.451 172.261 172.572 171.997C172.693 171.733 172.889 171.51 173.136 171.357C173.383 171.203 173.669 171.126 173.959 171.133C174.358 171.157 174.732 171.336 175 171.632C175.269 171.928 175.412 172.317 175.398 172.716Z" fill="white"/>
</g>
<path d="M168.888 68.8624C169.388 68.6424 169.812 68.2802 170.107 67.821C170.403 67.3618 170.557 66.8258 170.55 66.2798C170.568 65.9248 170.515 65.5698 170.392 65.2363C170.269 64.9028 170.079 64.5979 169.834 64.3401C169.59 64.0822 169.295 63.8769 168.968 63.7366C168.642 63.5963 168.29 63.5239 167.935 63.5239C167.579 63.5239 167.228 63.5963 166.901 63.7366C166.574 63.8769 166.28 64.0822 166.035 64.3401C165.79 64.5979 165.601 64.9028 165.478 65.2363C165.355 65.5698 165.301 65.9248 165.32 66.2798C165.309 66.8313 165.461 67.3736 165.758 67.8384C166.055 68.3032 166.484 68.6695 166.989 68.8912C162.96 69.4955 163.14 73.8695 163.14 73.8695L172.665 73.9127C172.665 73.9127 172.888 69.4595 168.888 68.8624Z" fill="black"/>
<path opacity="0.1" d="M168.888 68.8624C169.388 68.6424 169.812 68.2802 170.107 67.821C170.403 67.3618 170.557 66.8258 170.55 66.2798C170.568 65.9248 170.515 65.5698 170.392 65.2363C170.269 64.9028 170.079 64.5979 169.834 64.3401C169.59 64.0822 169.295 63.8769 168.968 63.7366C168.642 63.5963 168.29 63.5239 167.935 63.5239C167.579 63.5239 167.228 63.5963 166.901 63.7366C166.574 63.8769 166.28 64.0822 166.035 64.3401C165.79 64.5979 165.601 64.9028 165.478 65.2363C165.355 65.5698 165.301 65.9248 165.32 66.2798C165.309 66.8313 165.461 67.3736 165.758 67.8384C166.055 68.3032 166.484 68.6695 166.989 68.8912C162.96 69.4955 163.14 73.8695 163.14 73.8695L172.665 73.9127C172.665 73.9127 172.888 69.4595 168.888 68.8624Z" fill="black"/>
<path d="M184.365 76.7336L150.417 76.5796L150.399 80.637L184.347 80.7911L184.365 76.7336Z" fill="black"/>
<path opacity="0.2" d="M184.365 76.7336L150.417 76.5796L150.399 80.637L184.347 80.7911L184.365 76.7336Z" fill="white"/>
<path d="M59.5595 97.7608H59.2214L58.243 97.8327C57.7135 97.8645 57.187 97.9343 56.6675 98.0414C56.331 98.0886 55.9973 98.1534 55.6676 98.2356L54.5525 98.545C52.6546 99.1272 50.8639 100.014 49.2504 101.171C47.1188 102.718 45.3388 104.699 44.0276 106.984C43.2569 108.3 42.6436 109.703 42.2003 111.163C41.7344 112.75 41.4662 114.388 41.4017 116.041C41.3589 116.909 41.3733 117.779 41.4449 118.645C41.4449 119.084 41.5672 119.523 41.6247 119.969C41.6732 120.418 41.7573 120.864 41.8765 121.3C42.5234 124.187 43.836 126.882 45.7096 129.172C47.5832 131.461 49.9659 133.281 52.6676 134.486C54.623 135.33 56.7189 135.801 58.8473 135.875C61.0456 135.996 63.2461 135.68 65.322 134.947L65.9551 134.709H66.0414L66.1133 134.753L75.185 139.357L74.9189 139.587C73.9477 136.58 73.0124 133.666 72.106 130.868V130.76L72.1851 130.681C74.3858 128.464 76.0194 125.75 76.9476 122.767C77.7882 120.041 78.0336 117.165 77.667 114.336C77.3409 111.821 76.5324 109.393 75.2858 107.185C74.2112 105.288 72.8249 103.586 71.1851 102.149C69.8323 101.012 68.3349 100.059 66.732 99.3147C65.5192 98.7916 64.2561 98.3939 62.9623 98.1277L61.5235 97.8903L60.4804 97.8112L59.8473 97.768H59.6315C59.7032 97.76 59.7756 97.76 59.8473 97.768H60.4876L61.5307 97.8112L62.9695 98.0198C64.2794 98.2665 65.5597 98.6499 66.7896 99.1636C68.42 99.8991 69.9444 100.85 71.3218 101.991C72.9918 103.421 74.4074 105.124 75.5088 107.027C76.7908 109.259 77.6241 111.72 77.962 114.271C78.3589 117.144 78.1307 120.07 77.2929 122.846C76.3587 125.891 74.6998 128.663 72.4585 130.925L72.5017 130.738C73.4081 133.537 74.3505 136.45 75.3289 139.45L75.4656 139.889L75.0555 139.681L65.9838 135.084H66.1421L65.4946 135.321C63.3788 136.066 61.1376 136.388 58.8977 136.271C56.7234 136.188 54.5837 135.7 52.5885 134.832C48.7826 133.202 45.6162 130.369 43.5743 126.767C42.6347 125.104 41.9485 123.31 41.5384 121.444C41.4261 120.996 41.342 120.542 41.2866 120.084C41.2291 119.631 41.1355 119.185 41.114 118.739C40.9193 116.179 41.1898 113.605 41.9125 111.142C42.3669 109.662 42.9973 108.241 43.7902 106.912C45.1327 104.606 46.9497 102.613 49.121 101.063C50.7609 99.9032 52.5817 99.0232 54.5093 98.4586L55.6388 98.1709C55.9712 98.0937 56.3074 98.0337 56.6459 97.991C57.1708 97.8938 57.7023 97.8361 58.2358 97.8183L59.2214 97.7824C59.3335 97.7673 59.4465 97.7601 59.5595 97.7608Z" fill="black"/>
<path d="M63.6601 114.537H62.3292L59.4516 110.494V107.839C59.4516 107.839 57.3941 107.71 57.6387 111.185C57.8833 114.659 57.6387 113.775 57.6387 113.775C57.6387 113.775 53.2719 113.775 52.9122 114.17C52.5525 114.566 52.5309 118.782 52.4805 121.134C52.453 121.701 52.6157 122.261 52.9429 122.725C53.27 123.189 53.7429 123.531 54.2863 123.695C54.4386 123.737 54.5958 123.759 54.7539 123.76C55.8474 123.76 61.4084 122.875 61.4084 122.875H63.7033L63.6601 114.537Z" fill="black"/>
<path d="M67.4655 113.825L66.6454 122.918H64.3721V114.012L67.4655 113.825Z" fill="black"/>
<path d="M94.581 298.95V292.799L83.5525 292.72L83.459 302.022L84.1424 302.072C87.1855 302.267 99.624 302.555 101.667 301.921C103.94 301.216 94.581 298.95 94.581 298.95Z" fill="black"/>
<path d="M101.925 301.346C101.925 301.446 97.7959 301.533 92.7097 301.533C87.6235 301.533 83.4941 301.446 83.4941 301.346C83.4941 301.245 87.6235 301.159 92.7097 301.159C97.7959 301.159 101.925 301.245 101.925 301.346Z" fill="black"/>
<path d="M94.7753 300.209C94.6818 300.159 94.7753 299.835 94.9983 299.489C95.2213 299.144 95.5235 299 95.5954 299.072C95.6673 299.144 95.5163 299.418 95.3004 299.713C95.0846 300.007 94.8688 300.259 94.7753 300.209Z" fill="black"/>
<path d="M95.4795 300.612C95.3788 300.612 95.4292 300.209 95.645 299.828C95.8608 299.447 96.1486 299.216 96.2277 299.274C96.3068 299.331 96.1773 299.655 95.9759 299.993C95.7745 300.331 95.573 300.648 95.4795 300.612Z" fill="black"/>
<path d="M86.818 301.317C86.7749 301.317 86.6094 301.187 86.372 300.914C86.0822 300.563 85.7594 300.24 85.408 299.95C85.0624 299.674 84.6508 299.493 84.2138 299.425C83.8756 299.382 83.6598 299.425 83.6382 299.382C83.6167 299.339 83.8253 299.187 84.221 299.159C84.7431 299.148 85.2525 299.321 85.6598 299.648C86.0413 299.959 86.3631 300.337 86.6094 300.763C86.7749 301.079 86.8612 301.288 86.818 301.317Z" fill="black"/>
<path d="M94.8105 299.051C94.8609 299.137 94.6738 299.353 94.3573 299.468C94.0407 299.583 93.7602 299.54 93.7458 299.468C93.7314 299.396 93.9544 299.245 94.2278 299.144C94.5012 299.043 94.7529 298.964 94.8105 299.051Z" fill="black"/>
<path d="M94.6383 298.454C94.6383 298.562 94.3505 298.648 93.9764 298.655C93.6023 298.662 93.3074 298.576 93.3146 298.475C93.3218 298.375 93.6167 298.281 93.9764 298.274C94.3361 298.267 94.6239 298.353 94.6383 298.454Z" fill="black"/>
<path d="M121.738 298.95V292.799L110.71 292.72L110.616 301.929L111.3 301.979C114.343 302.173 126.788 302.555 128.824 301.921C131.098 301.216 121.738 298.95 121.738 298.95Z" fill="black"/>
<path d="M129.083 301.36C129.083 301.461 124.961 301.547 119.868 301.547C114.774 301.547 110.659 301.461 110.659 301.36C110.659 301.259 114.781 301.173 119.868 301.173C124.954 301.173 129.083 301.259 129.083 301.36Z" fill="black"/>
<path d="M121.932 300.209C121.846 300.159 121.932 299.835 122.155 299.489C122.378 299.144 122.681 299 122.752 299.072C122.824 299.144 122.673 299.418 122.458 299.713C122.242 300.007 122.026 300.259 121.932 300.209Z" fill="black"/>
<path d="M122.637 300.612C122.544 300.612 122.587 300.209 122.81 299.828C123.033 299.447 123.313 299.216 123.393 299.274C123.472 299.331 123.335 299.655 123.134 299.993C122.932 300.331 122.738 300.648 122.637 300.612Z" fill="black"/>
<path d="M113.976 301.317C113.933 301.317 113.775 301.187 113.53 300.914C113.24 300.563 112.918 300.24 112.566 299.95C112.221 299.674 111.809 299.493 111.372 299.425C111.041 299.382 110.818 299.425 110.796 299.382C110.775 299.339 110.983 299.187 111.379 299.159C111.901 299.148 112.411 299.321 112.818 299.648C113.202 299.957 113.524 300.335 113.768 300.763C113.933 301.079 114.019 301.288 113.976 301.317Z" fill="black"/>
<path d="M121.969 299.051C122.019 299.137 121.832 299.353 121.515 299.468C121.199 299.583 120.918 299.54 120.904 299.468C120.89 299.396 121.113 299.245 121.386 299.144C121.659 299.043 121.911 298.964 121.969 299.051Z" fill="black"/>
<path d="M121.81 298.454C121.81 298.562 121.522 298.648 121.148 298.655C120.774 298.662 120.486 298.576 120.493 298.475C120.5 298.375 120.788 298.281 121.148 298.274C121.508 298.267 121.81 298.353 121.81 298.454Z" fill="black"/>
<path d="M162.37 116.293C162.083 115.998 161.37 116.142 161.37 116.142C161.442 115.728 161.442 115.304 161.37 114.89C161.241 114.487 160.334 114.566 160.334 114.566C160.293 114.227 160.293 113.884 160.334 113.545C160.342 113.469 160.325 113.394 160.288 113.328C160.251 113.263 160.194 113.21 160.126 113.178C159.697 113.003 159.236 112.92 158.773 112.933C158.219 112.538 160.464 109.394 161.298 108.387C162.133 107.379 161.982 106.595 161.241 106.595C160.73 106.595 158.111 109.617 157.306 110.631C156.5 111.645 154.363 114.466 154.291 112.214C154.219 109.962 153.313 108.264 152.745 107.976C152.176 107.689 151.572 108.365 151.881 108.991C152.153 109.702 152.323 110.448 152.385 111.207C152.463 111.811 152.436 112.424 152.306 113.02C152.067 114.127 151.743 115.214 151.335 116.271H151.277C151.277 116.271 135.58 131.328 134.443 132.4C133.429 133.364 113.026 131.256 108.933 130.825C107.542 130.621 106.137 130.525 104.731 130.537C102.954 130.616 102.638 130.868 100.868 130.89C96.3989 130.939 91.9399 131.331 87.5304 132.062C85.5338 132.402 83.6688 133.283 82.1388 134.61C80.6089 135.937 79.4727 137.659 78.8544 139.587C74.7322 152.465 65.3943 182.946 63.7469 200.068C62.502 202.325 61.3781 204.647 60.38 207.024C59.2218 210.175 59.5024 210.283 59.8908 210.355C60.9412 210.549 62.1354 204.895 62.5814 206.262C63.0275 207.629 60.3153 213.003 61.416 213.161C62.8548 213.362 63.9987 207.406 64.1353 206.931C64.272 206.456 64.9842 206.607 64.8548 207.053C64.6461 207.686 62.6246 214.398 64.0346 214.614C64.8116 214.729 64.8979 213.312 64.8979 213.312C64.8979 213.312 66.3367 206.888 66.9914 207.017C67.6461 207.147 66.9482 210.938 66.6173 212.204C66.2864 213.47 66.7468 214.11 67.423 213.801C67.8834 213.585 68.9841 209.736 69.2863 208.485C69.5884 207.233 70.3438 203.765 71.3582 205.773C72.3725 207.78 73.9121 208.945 74.5452 208.974C74.6878 208.957 74.8223 208.899 74.9312 208.805C75.0402 208.712 75.1187 208.588 75.1566 208.449C75.1945 208.311 75.1902 208.164 75.144 208.028C75.0978 207.892 75.012 207.773 74.8977 207.686C74.3531 207.154 73.8858 206.549 73.5092 205.888C73.1736 205.372 72.9302 204.803 72.7898 204.204C72.4999 203.011 72.3312 201.791 72.2862 200.564L72.1711 199.845C73.7826 191.866 78.4228 168.45 85.1204 153.493L87.8686 159.148L89.0628 163.335L81.7392 181.413L112.976 181.003L108.314 163.061L113.976 144.357C120.098 144.494 135.817 144.724 138.436 143.537C141.73 142.098 158.773 120.573 158.773 120.573C159.884 119.71 160.948 118.788 161.96 117.811C161.96 117.811 162.996 116.94 162.37 116.293Z" fill="#FFBE9D"/>
<path d="M80.365 168.054C81.2715 164.961 85.9261 149.666 85.9261 149.666C85.9261 149.666 88.2138 162.133 87.6095 163.637C87.0536 164.924 86.3969 166.165 85.6455 167.349C80.365 175.385 81.0557 179.406 81.0557 179.406L112.961 178.435C113.033 173.975 110.393 163.601 109.846 161.946C109.3 160.292 111.12 154.875 111.12 154.875C111.12 154.875 114.717 151.213 114.587 149.328C114.519 147.635 114.31 145.951 113.961 144.292L133.385 145.012L132.774 131.846L104.875 129.055C103.904 131.796 95.1201 130.451 95.1201 130.451C85.6383 130.767 85.0484 132.508 81.106 135.573C77.1637 138.638 70.6387 164.939 70.6387 164.939L80.365 168.054Z" fill="black"/>
<path d="M99.2283 164.939C98.6754 165.038 98.1122 165.067 97.5521 165.026C96.5089 165.026 95.0773 164.954 93.5018 164.795C91.9263 164.637 90.5019 164.414 89.4875 164.213C88.9282 164.141 88.3798 164.001 87.8545 163.795C88.417 163.796 88.9782 163.849 89.5307 163.954C90.5523 164.083 91.9695 164.263 93.5378 164.421C95.1061 164.58 96.5305 164.687 97.5593 164.759C98.12 164.767 98.6789 164.827 99.2283 164.939Z" fill="black"/>
<path d="M101.415 162.227C100.862 162.498 100.277 162.699 99.6744 162.824C96.8043 163.578 93.8431 163.929 90.8761 163.867C90.2622 163.887 89.6482 163.829 89.0488 163.695C89.6548 163.618 90.2655 163.587 90.8761 163.601C92.0056 163.565 93.5595 163.486 95.2717 163.285C96.9839 163.083 98.509 162.795 99.5881 162.565C100.188 162.405 100.798 162.292 101.415 162.227Z" fill="black"/>
<path d="M112.148 150.126C112.134 150.675 112.059 151.22 111.925 151.752C111.738 152.752 111.45 154.119 111.083 155.616C110.717 157.112 110.364 158.493 110.047 159.428C109.92 159.964 109.732 160.483 109.486 160.975C109.526 160.428 109.628 159.888 109.788 159.364C110.062 158.241 110.371 156.946 110.717 155.529C111.062 154.112 111.393 152.817 111.666 151.695C111.764 151.155 111.925 150.628 112.148 150.126Z" fill="black"/>
<path d="M80.7033 166.22C79.039 165.963 77.3965 165.58 75.7897 165.076C74.148 164.692 72.5369 164.187 70.9697 163.565C72.6332 163.826 74.2754 164.208 75.8833 164.709C77.5254 165.091 79.1366 165.596 80.7033 166.22Z" fill="black"/>
<path d="M114.307 144.134C114.036 144.181 113.758 144.181 113.487 144.134C112.735 144.057 111.998 143.88 111.293 143.609C110.116 143.167 109.044 142.483 108.147 141.602C107.25 140.721 106.548 139.663 106.084 138.494C105.572 137.208 105.353 135.825 105.444 134.444C105.476 133.305 105.817 132.196 106.429 131.235C106.861 130.588 107.504 130.112 108.25 129.89C108.449 129.835 108.654 129.808 108.861 129.811C109.005 129.811 109.077 129.811 109.077 129.811C109.077 129.811 108.775 129.811 108.293 130.005C107.609 130.257 107.029 130.731 106.645 131.35C105.667 132.89 105.393 135.703 106.437 138.328C106.922 139.567 107.682 140.678 108.66 141.58C109.46 142.318 110.383 142.912 111.386 143.336C112.328 143.708 113.307 143.975 114.307 144.134Z" fill="black"/>
<path d="M131.076 144.753C130.896 142.547 130.839 140.332 130.904 138.12C130.847 135.909 130.915 133.697 131.105 131.494C131.285 133.698 131.343 135.91 131.278 138.12C131.338 140.333 131.271 142.548 131.076 144.753Z" fill="black"/>
<path d="M104.688 129.861C104.767 128.257 104.933 126.444 104.933 126.444C104.933 126.444 108.904 126.005 109.141 121.904C109.379 117.804 109.141 108.344 109.141 108.344L101.947 104.66L93.9619 110.941L95.1921 131.444L102.516 131.911C103.075 131.927 103.619 131.72 104.026 131.335C104.433 130.951 104.671 130.421 104.688 129.861Z" fill="#FFBE9D"/>
<path d="M105.401 118.66C105.401 118.66 105.401 118.739 105.336 118.832C105.283 118.9 105.213 118.954 105.134 118.989C105.055 119.024 104.969 119.039 104.883 119.034C104.422 119.034 103.976 118.501 103.818 117.883C103.743 117.583 103.743 117.269 103.818 116.969C103.833 116.838 103.88 116.713 103.955 116.605C104.031 116.497 104.132 116.409 104.25 116.35C104.347 116.31 104.455 116.31 104.552 116.35C104.624 116.386 104.682 116.444 104.717 116.516C104.768 116.638 104.717 116.717 104.717 116.71C104.717 116.703 104.717 116.638 104.645 116.566C104.608 116.515 104.553 116.479 104.49 116.465C104.428 116.452 104.363 116.462 104.307 116.494C104.219 116.548 104.146 116.622 104.094 116.712C104.043 116.801 104.014 116.902 104.012 117.005C103.952 117.273 103.952 117.55 104.012 117.818C104.156 118.379 104.545 118.832 104.89 118.875C104.958 118.885 105.026 118.88 105.092 118.861C105.158 118.843 105.219 118.811 105.271 118.767C105.358 118.71 105.386 118.652 105.401 118.66Z" fill="#EB996E"/>
<path d="M111.609 106.128C111.055 104.243 109.048 103.308 107.22 102.79C104.436 101.998 101.429 101.653 98.7098 102.653C95.9905 103.653 92.7244 105.408 92.7244 108.408C91.1201 108.279 90.1993 109.681 89.5662 111.422C89.1614 112.483 88.9189 113.599 88.8468 114.732C88.6453 118.66 87.5447 124.084 84.998 126.962C83.5591 128.566 81.5664 129.674 80.7463 131.674C80.0269 133.408 80.4009 135.465 79.7319 137.22C79.1348 138.767 77.8183 139.868 76.8543 141.213C75.8722 142.739 75.2942 144.49 75.1746 146.301C75.0551 148.112 75.3979 149.923 76.1708 151.565C76.9494 153.165 78.0455 154.59 79.3923 155.752C80.7392 156.915 82.3087 157.791 84.0052 158.328C87.3656 159.35 90.949 159.385 94.3287 158.428C96.8651 157.822 99.2312 156.649 101.249 154.997C103.314 153.311 104.733 150.962 105.264 148.35C105.774 145.414 104.954 142.429 104.343 139.508C102.429 130.278 102.976 129.796 105.393 121.228C105.451 121.077 105.479 120.919 105.523 120.768C105.566 120.616 105.587 120.545 105.616 120.429C105.685 120.091 105.721 119.746 105.724 119.401C105.371 119.532 104.988 119.56 104.619 119.481C104.251 119.402 103.913 119.219 103.645 118.955C103.376 118.673 103.189 118.323 103.103 117.943C103.017 117.563 103.035 117.167 103.156 116.796C103.326 116.391 103.578 116.026 103.898 115.725C104.218 115.424 104.597 115.193 105.012 115.048C105.81 114.717 106.666 114.545 107.451 114.178C109.112 113.386 110.264 111.746 111.048 110.027C111.692 108.835 111.891 107.453 111.609 106.128Z" fill="black"/>
<path d="M105.689 118.854C105.841 119.079 105.966 119.32 106.063 119.573C106.278 120.027 106.566 120.667 106.883 121.408L106.94 121.545H106.789L106.07 121.609C105.573 121.609 105.156 121.703 104.667 121.696C104.624 121.686 104.585 121.666 104.552 121.637C104.519 121.608 104.495 121.571 104.48 121.53C104.459 121.465 104.459 121.394 104.48 121.329C104.497 121.232 104.518 121.136 104.545 121.041L104.674 120.53C104.739 120.189 104.841 119.857 104.976 119.537C104.963 119.885 104.912 120.23 104.825 120.566L104.725 121.077C104.689 121.25 104.624 121.516 104.725 121.494C105.084 121.494 105.595 121.415 106.07 121.386L106.789 121.322L106.696 121.48C106.386 120.76 106.127 120.084 105.976 119.617C105.844 119.378 105.747 119.121 105.689 118.854Z" fill="black"/>
<path d="M81.0555 179.406L112.961 178.435L126.846 232.635L124.292 294.806H107.422L109.486 233.959L97.1487 196.226L99.0479 297.216L81.998 297.468L80.2066 202.542C80.1275 199.902 79.2642 193.953 79.588 191.334L81.0555 179.406Z" fill="black"/>
<path d="M101.394 196.996C100.872 197.029 100.347 196.997 99.8327 196.902C98.8687 196.787 97.5522 196.586 96.1062 196.298C94.6602 196.01 93.3653 195.679 92.43 195.413C91.9301 195.303 91.4465 195.129 90.9912 194.895C90.9912 194.787 93.3365 195.348 96.2141 195.931C99.0917 196.514 101.408 196.888 101.394 196.996Z" fill="#E0E0E0"/>
<path d="M124.119 291.397C124.119 291.497 120.299 291.584 115.587 291.584C110.875 291.584 107.048 291.497 107.048 291.397C107.048 291.296 110.868 291.209 115.587 291.209C120.307 291.209 124.119 291.289 124.119 291.397Z" fill="#E0E0E0"/>
<path d="M98.897 294.59C98.897 294.698 95.1849 294.777 90.6095 294.777C86.0341 294.777 82.3291 294.698 82.3291 294.59C82.3291 294.482 86.0412 294.403 90.6095 294.403C95.1777 294.403 98.897 294.49 98.897 294.59Z" fill="#E0E0E0"/>
<path d="M96.6953 294.331C96.5946 294.331 96.1485 272.267 95.6953 245.052C95.2421 217.837 94.9759 195.758 95.0694 195.758C95.1629 195.758 95.6234 217.815 96.0694 245.045C96.5154 272.274 96.8032 294.331 96.6953 294.331Z" fill="#E0E0E0"/>
<path d="M121.853 291.396C121.845 291.298 121.845 291.199 121.853 291.101V290.238C121.853 289.461 121.91 288.346 121.954 286.929C122.054 284.051 122.198 279.871 122.378 274.749C122.767 264.447 123.313 250.246 123.91 234.57C123.91 234.419 123.91 234.275 123.91 234.146V234.196C120.134 219.089 116.716 205.377 114.234 195.456L111.357 183.723C111.026 182.349 110.774 181.277 110.594 180.529C110.508 180.176 110.45 179.903 110.4 179.694C110.372 179.6 110.355 179.504 110.35 179.406C110.387 179.497 110.416 179.591 110.436 179.687C110.493 179.888 110.565 180.162 110.666 180.507C110.86 181.226 111.141 182.32 111.501 183.687C112.22 186.464 113.234 190.464 114.501 195.391C117.004 205.305 120.457 218.981 124.285 234.11V234.16C124.285 234.29 124.285 234.441 124.285 234.585C123.644 250.261 123.062 264.454 122.637 274.756C122.414 279.886 122.227 284.037 122.098 286.929C122.026 288.368 121.968 289.461 121.932 290.238C121.932 290.605 121.889 290.893 121.882 291.101C121.883 291.2 121.873 291.299 121.853 291.396Z" fill="#E0E0E0"/>
<path d="M116.35 232.88C115.138 233.278 113.89 233.555 112.624 233.707C111.07 233.973 109.746 234.16 109.149 234.189V234.045C109.343 234.103 109.444 234.139 109.444 234.168C109.444 234.196 109.322 234.168 109.12 234.168H108.688L109.12 234.038C109.681 233.873 111.005 233.599 112.559 233.319C113.805 233.048 115.075 232.901 116.35 232.88Z" fill="#E0E0E0"/>
<path d="M116.054 234.944C114.932 234.996 113.808 234.945 112.695 234.793C111.571 234.77 110.452 234.648 109.35 234.427C111.598 234.243 113.861 234.418 116.054 234.944Z" fill="#E0E0E0"/>
<path opacity="0.2" d="M80.9189 180.55C81.2968 181.035 81.7727 181.435 82.3157 181.724C82.8586 182.013 83.4564 182.184 84.0699 182.226C85.3549 182.379 86.6547 182.354 87.9332 182.154C96.1704 181.241 104.897 180.399 112.961 178.435C102.523 179.018 91.4942 178.824 81.0556 179.406L80.9477 180.298" fill="black"/>
<g opacity="0.2">
<path d="M91.6738 195.262L97.5586 218.096L97.1485 196.226L91.6738 195.262Z" fill="black"/>
</g>
</svg>
