<svg width="308" height="303" viewBox="0 0 308 303" fill="none" xmlns="http://www.w3.org/2000/svg">
<path d="M261.979 302.394C261.979 302.495 212.023 302.581 150.421 302.581C88.8179 302.581 38.8407 302.495 38.8407 302.394C38.8407 302.293 88.7891 302.207 150.421 302.207C212.052 302.207 261.979 302.301 261.979 302.394Z" fill="#263238"/>
<path d="M213.304 214.324C202.189 206.562 199.671 192.152 200.11 179.196C200.182 177.038 199.945 174.75 200.973 172.858C202.002 170.966 204.405 169.664 206.34 170.57C207.944 171.326 208.642 173.196 209.541 174.743C210.741 176.803 212.5 178.481 214.613 179.584C215.987 180.304 217.692 180.735 219.052 179.987C220.922 178.958 221.138 176.39 221.124 174.232C221.124 170.218 221.1 166.208 221.052 162.203C220.923 160.053 221.141 157.896 221.699 155.815C222.368 153.772 223.858 151.88 225.894 151.304C227.929 150.729 230.469 151.916 230.929 154.017C231.009 154.906 231.03 155.8 230.994 156.693C231.052 157.592 231.469 158.578 232.311 158.851C233.152 159.124 234.03 158.499 234.677 157.865C236.893 155.707 238.404 152.894 239.807 150.117C241.21 147.341 242.584 144.484 244.598 142.118C246.612 139.751 249.397 137.873 252.512 137.693C255.627 137.513 258.871 139.427 259.648 142.449C260.425 145.47 258.662 148.556 256.77 151.01C253.915 154.651 250.55 157.861 246.778 160.542C246.042 160.944 245.454 161.572 245.102 162.333C244.634 163.772 245.994 165.211 247.411 165.664C249.015 166.196 250.756 166.031 252.447 166.232C254.137 166.434 255.936 167.167 256.576 168.75C257.454 170.951 255.612 173.254 253.806 174.764C250.181 177.786 246.064 180.163 241.634 181.793C240.051 182.368 238.39 182.879 237.109 183.987C235.829 185.095 235.066 187.03 235.836 188.548C236.605 190.066 238.584 190.548 240.246 190.239C241.907 189.929 243.382 189.037 244.965 188.44C247.922 187.325 251.735 187.527 253.598 190.08C254.175 190.96 254.54 191.962 254.665 193.007C254.79 194.051 254.671 195.111 254.317 196.102C253.597 198.074 252.489 199.882 251.058 201.418C246.347 207.048 240.224 211.325 233.318 213.814C226.462 216.188 220.109 216.835 213.297 214.339" fill="#4CAF4F"/>
<path d="M256.483 139.471C256.483 139.471 256.418 139.543 256.274 139.672L255.634 140.24C255.073 140.744 254.245 141.478 253.202 142.449C250.245 145.195 247.498 148.16 244.987 151.319C243.382 153.312 241.721 155.571 239.951 158.024C238.181 160.477 236.354 163.125 234.541 165.938C232.608 168.904 230.838 171.973 229.239 175.132C228.404 176.779 227.671 178.498 226.915 180.254L224.685 185.613C221.745 192.364 219.185 199.274 217.016 206.311C215.269 212.068 214.065 217.976 213.419 223.958C213.001 227.995 212.933 232.06 213.218 236.109C213.333 237.547 213.441 238.648 213.541 239.396C213.585 239.756 213.613 240.044 213.642 240.252V240.547C213.611 240.454 213.589 240.357 213.577 240.26C213.541 240.051 213.498 239.77 213.441 239.411C213.311 238.691 213.174 237.555 213.045 236.116C212.698 232.06 212.722 227.981 213.117 223.929C213.723 217.922 214.901 211.986 216.635 206.203C218.786 199.147 221.339 192.219 224.282 185.455L226.57 180.117C227.325 178.369 228.066 176.635 228.908 174.981C230.518 171.812 232.303 168.736 234.253 165.765C236.095 162.887 237.951 160.283 239.699 157.852C241.447 155.42 243.138 153.147 244.735 151.161C247.272 148.01 250.055 145.066 253.058 142.356C254.123 141.399 254.972 140.679 255.547 140.197L256.217 139.658C256.299 139.586 256.388 139.524 256.483 139.471Z" fill="#263238"/>
<path d="M229.001 174.966C228.9 174.67 228.83 174.363 228.793 174.052C228.678 173.455 228.548 172.613 228.397 171.52C228.088 169.362 227.771 166.405 227.433 163.132C227.095 159.858 226.714 156.894 226.397 154.758C226.232 153.693 226.088 152.837 225.987 152.24C225.908 151.934 225.867 151.62 225.865 151.305C225.989 151.593 226.078 151.895 226.131 152.204C226.289 152.794 226.469 153.643 226.67 154.715C227.081 156.873 227.483 159.808 227.822 163.089C228.16 166.369 228.447 169.247 228.67 171.484C228.778 172.491 228.872 173.347 228.944 174.031C229 174.339 229.019 174.653 229.001 174.966Z" fill="#263238"/>
<path d="M256.684 169.801C256.334 169.877 255.978 169.92 255.619 169.93C254.9 169.995 253.878 170.081 252.612 170.225C250.08 170.499 246.598 171.002 242.778 171.721C238.958 172.441 235.526 173.254 233.059 173.88C231.829 174.196 230.836 174.484 230.181 174.678C229.832 174.802 229.47 174.889 229.102 174.937C229.435 174.77 229.781 174.633 230.138 174.527C230.814 174.29 231.793 173.959 233.016 173.606C235.469 172.887 238.9 172.031 242.735 171.297C245.983 170.676 249.26 170.22 252.555 169.93C253.828 169.822 254.857 169.779 255.576 169.765C255.946 169.74 256.317 169.752 256.684 169.801Z" fill="#263238"/>
<path d="M216.987 205.698C216.911 205.594 216.848 205.48 216.8 205.36L216.325 204.36C215.915 203.489 215.361 202.202 214.7 200.626C213.361 197.461 211.656 193.029 209.844 188.108C208.031 183.188 206.362 178.756 205.095 175.555C204.477 174.001 203.966 172.727 203.585 171.778L203.182 170.749C203.126 170.63 203.087 170.505 203.067 170.375C203.143 170.479 203.206 170.593 203.254 170.713L203.729 171.713C204.131 172.584 204.693 173.871 205.354 175.447C206.693 178.612 208.398 183.044 210.21 187.964C212.023 192.885 213.692 197.317 214.959 200.518C215.577 202.072 216.088 203.345 216.462 204.295C216.628 204.705 216.764 205.014 216.872 205.324C216.928 205.442 216.967 205.568 216.987 205.698Z" fill="#263238"/>
<path d="M253.735 193.85C253.619 193.916 253.496 193.967 253.368 194.001L252.303 194.36L248.368 195.634C245.044 196.713 240.454 198.252 235.418 199.95C230.383 201.648 225.771 203.159 222.426 204.166C220.757 204.677 219.397 205.065 218.455 205.324L217.369 205.605C217.242 205.645 217.112 205.671 216.98 205.684C217.095 205.618 217.219 205.567 217.347 205.533L218.412 205.173L222.347 203.9C225.671 202.821 230.26 201.281 235.296 199.583C240.332 197.885 244.936 196.375 248.281 195.368C249.958 194.857 251.31 194.468 252.26 194.209L253.346 193.929C253.472 193.889 253.603 193.862 253.735 193.85Z" fill="#263238"/>
<path d="M238.742 19.3448L235.037 20.6685L233.447 15.8269C230.527 6.89903 221.217 2.15814 212.664 5.17246C204.11 8.18677 199.556 17.9779 202.477 26.9057L204.067 31.7473L200.347 33.0782C198.929 33.6283 197.777 34.7038 197.132 36.0811C196.486 37.4584 196.396 39.0316 196.88 40.4737L207.189 71.9765C207.403 72.6904 207.758 73.354 208.234 73.9278C208.709 74.5017 209.295 74.9741 209.957 75.3171C210.619 75.66 211.343 75.8664 212.086 75.924C212.829 75.9817 213.576 75.8894 214.282 75.6527L252.677 61.9192C254.114 61.3701 255.282 60.2851 255.935 58.8924C256.589 57.4997 256.677 55.9079 256.181 54.4518L245.864 22.949C245.645 22.2371 245.284 21.5767 244.804 21.0073C244.323 20.4379 243.733 19.971 243.069 19.6346C242.404 19.2983 241.678 19.0992 240.935 19.0494C240.192 18.9996 239.446 19.1001 238.742 19.3448ZM209.477 24.3806C208.689 22.0592 208.831 19.5232 209.871 17.3037C210.912 15.0842 212.771 13.3536 215.059 12.4744C216.189 12.0878 217.385 11.9328 218.577 12.0186C219.768 12.1044 220.929 12.4292 221.992 12.9737C223.055 13.5183 223.997 14.2713 224.763 15.1879C225.528 16.1045 226.101 17.1659 226.448 18.3088L228.03 23.1504L211.059 29.2222L209.477 24.3806ZM231.059 52.3367L233.692 60.3797C233.74 60.541 233.725 60.7147 233.648 60.8647C233.572 61.0148 233.441 61.1296 233.282 61.1854L229.591 62.5019C229.444 62.5427 229.288 62.525 229.153 62.4525C229.019 62.3801 228.918 62.2586 228.872 62.1135L226.217 54.1065C224.754 54.0267 223.349 53.5017 222.192 52.6017C221.035 51.7017 220.18 50.4697 219.743 49.0706C219.117 47.221 219.231 45.201 220.061 43.4336C220.891 41.6662 222.373 40.2885 224.196 39.5889C225.096 39.2813 226.049 39.1582 226.997 39.2267C227.946 39.2952 228.871 39.554 229.718 39.9877C230.564 40.4214 231.315 41.021 231.925 41.7509C232.535 42.4808 232.991 43.3261 233.267 44.2362C233.73 45.6574 233.769 47.1828 233.378 48.6254C232.987 50.0681 232.183 51.3653 231.066 52.3583L231.059 52.3367Z" fill="#4CAF4F"/>
<path d="M234.872 20.5826C234.872 20.6834 228.002 23.266 219.455 26.3379C210.908 29.4098 203.937 31.8773 203.901 31.8054C203.865 31.7334 210.772 29.1292 219.325 26.0501C227.879 22.9711 234.836 20.4891 234.872 20.5826Z" fill="#263238"/>
<path d="M243.03 21.9062C243.062 21.9687 243.088 22.0337 243.109 22.1005C243.167 22.2444 243.231 22.4314 243.318 22.6616C243.505 23.1868 243.764 23.9134 244.087 24.8198L246.85 32.8628C248.001 36.2728 249.375 40.3159 250.9 44.8049C251.62 47.0567 252.468 49.402 253.26 51.8695C253.683 53.1411 253.866 54.4805 253.799 55.8191C253.738 56.5152 253.54 57.1925 253.217 57.8118C252.871 58.4291 252.409 58.9738 251.857 59.4161C250.746 60.2274 249.512 60.8564 248.202 61.2794L244.497 62.6103L237.483 65.121L225.606 69.3511L217.584 72.1712L215.426 72.8906L214.851 73.0776C214.789 73.105 214.724 73.122 214.656 73.128C214.656 73.128 214.714 73.128 214.836 73.0416L215.397 72.8186L217.556 72.0057L225.534 69.0705L237.39 64.7541L244.39 62.2218L248.095 60.8837C249.367 60.4779 250.565 59.8681 251.641 59.078C252.155 58.6676 252.585 58.162 252.907 57.5888C253.212 57.016 253.396 56.3867 253.447 55.7399C253.513 54.4502 253.337 53.1594 252.929 51.9343C252.152 49.4883 251.332 47.1214 250.591 44.8697C249.094 40.3734 247.713 36.316 246.62 32.906C245.526 29.496 244.605 26.755 243.972 24.827C243.67 23.8846 243.44 23.1508 243.253 22.6185L243.08 22.0429C243.059 21.9993 243.042 21.9535 243.03 21.9062Z" fill="#263238"/>
<path d="M222.771 11.9851C222.771 11.9851 222.39 11.798 221.685 11.5103C220.68 11.1241 219.617 10.9101 218.541 10.8772C216.946 10.8225 215.359 11.1222 213.894 11.7549C212.112 12.5426 210.589 13.8167 209.498 15.431C208.401 17.0407 207.812 18.943 207.808 20.8913C207.823 22.4882 208.065 24.0748 208.527 25.6034C208.901 26.9127 209.29 27.9559 209.549 28.6825C209.702 29.0515 209.827 29.4315 209.923 29.8191C209.718 29.4741 209.547 29.1103 209.412 28.7328C209.117 28.0134 208.693 26.9919 208.275 25.6754C207.763 24.1307 207.484 22.5183 207.448 20.8913C207.429 18.8694 208.032 16.8904 209.175 15.2224C210.303 13.5491 211.889 12.2356 213.743 11.4383C215.254 10.8022 216.89 10.5217 218.527 10.6182C219.626 10.6742 220.706 10.9302 221.714 11.3736C221.983 11.4978 222.243 11.6421 222.491 11.8052C222.593 11.8502 222.688 11.9109 222.771 11.9851Z" fill="#263238"/>
<path d="M223.102 40.1355C223.217 40.066 223.337 40.0058 223.462 39.9557C223.822 39.7932 224.195 39.6608 224.577 39.56C225.183 39.3811 225.809 39.2748 226.44 39.2435C227.299 39.1973 228.159 39.3271 228.966 39.6248C230.807 40.2722 232.498 42.1499 233.332 44.6606C233.732 46.008 233.732 47.4426 233.332 48.79C232.889 50.2524 232.093 51.5837 231.016 52.6676L231.059 52.4734C232.016 55.0992 233.059 57.948 234.138 60.9192L234.203 61.099L234.023 61.1638L232.375 61.7105L228.778 62.9119L228.599 62.9695L228.541 62.7896C227.555 59.8113 226.476 57.0344 225.663 54.3078L225.822 54.4301C224.415 54.3133 223.074 53.7854 221.966 52.9122C220.963 52.1397 220.14 51.1576 219.556 50.0346C219.028 49.0386 218.766 47.9239 218.793 46.7972C218.826 45.6458 219.114 44.516 219.635 43.4886C220.156 42.4613 220.898 41.562 221.807 40.855C222.182 40.5511 222.602 40.3083 223.052 40.1355C222.646 40.3767 222.252 40.6384 221.872 40.9197C220.873 41.7649 220.108 42.8523 219.649 44.0779C219.256 45.0021 219.071 46.0019 219.11 47.0057C219.149 48.0095 219.409 48.9922 219.872 49.8835C220.447 50.9639 221.25 51.9065 222.225 52.646C223.282 53.476 224.561 53.9764 225.901 54.0848H226.023L226.059 54.1927C226.85 56.8689 227.937 59.6674 228.937 62.6602L228.699 62.5451L232.296 61.3436L233.937 60.7897L233.821 61.0343C232.75 58.0631 231.714 55.2071 230.764 52.5813V52.4734L230.85 52.387C231.896 51.3481 232.676 50.0723 233.124 48.6677C233.505 47.3788 233.505 46.007 233.124 44.7182C232.34 42.301 230.721 40.4665 228.966 39.819C228.189 39.5194 227.359 39.3799 226.527 39.4089C225.905 39.4232 225.287 39.5076 224.685 39.6607C223.613 39.9269 223.11 40.1715 223.102 40.1355Z" fill="#263238"/>
<path d="M200.865 247.857L129.004 247.526C124.854 247.503 120.883 245.834 117.962 242.885C115.042 239.936 113.412 235.949 113.429 231.799L114.191 51.6528C114.2 49.5968 114.613 47.5626 115.408 45.6665C116.204 43.7705 117.365 42.0497 118.825 40.6025C120.286 39.1554 122.017 38.0102 123.92 37.2326C125.824 36.455 127.861 36.0601 129.918 36.0705L201.772 36.4014C205.922 36.4224 209.894 38.0896 212.815 41.0368C215.737 43.9841 217.369 47.9705 217.354 52.1205L216.592 232.26C216.583 234.316 216.17 236.351 215.375 238.248C214.58 240.145 213.419 241.867 211.959 243.315C210.498 244.763 208.767 245.91 206.864 246.689C204.96 247.468 202.922 247.865 200.865 247.857Z" fill="#455A64"/>
<path d="M201.664 42.5964H187.736C187.282 42.6048 186.833 42.7026 186.417 42.8844C186 43.0661 185.623 43.3281 185.308 43.6555C184.993 43.9828 184.745 44.3691 184.579 44.7922C184.413 45.2153 184.332 45.667 184.341 46.1214V48.6466C184.349 49.1007 184.268 49.552 184.102 49.9747C183.936 50.3974 183.688 50.7832 183.373 51.11C183.057 51.4367 182.68 51.6981 182.264 51.879C181.847 52.06 181.399 52.157 180.945 52.1645L153.795 52.0422C152.876 52.0177 152.005 51.6297 151.372 50.9633C150.74 50.297 150.397 49.4068 150.421 48.4883V45.9632C150.444 45.0459 150.102 44.1568 149.471 43.4906C148.84 42.8245 147.971 42.4357 147.054 42.4093H142.155L129.961 42.3518C127.06 42.3345 124.271 43.4672 122.204 45.5018C120.137 47.5365 118.961 50.3073 118.932 53.2076L118.213 229.045C118.206 230.484 118.483 231.91 119.027 233.242C119.572 234.573 120.373 235.785 121.386 236.807C122.399 237.829 123.603 238.642 124.93 239.199C126.257 239.755 127.68 240.045 129.119 240.052L200.829 240.383C202.269 240.389 203.696 240.112 205.029 239.567C206.362 239.023 207.574 238.221 208.597 237.207C209.619 236.194 210.433 234.989 210.99 233.661C211.547 232.333 211.837 230.909 211.843 229.469L212.563 53.632C212.58 50.7236 211.442 47.9273 209.398 45.8579C207.354 43.7885 204.572 42.6154 201.664 42.5964Z" fill="white"/>
<path d="M192.017 216.922L138.694 216.692C138.14 216.692 137.694 216.088 137.702 215.354L137.759 201.404C137.759 200.685 138.212 200.066 138.766 200.066L192.089 200.311C192.396 200.364 192.67 200.534 192.855 200.784C193.04 201.035 193.121 201.347 193.081 201.656L193.031 215.591C193.031 216.332 192.571 216.929 192.017 216.922Z" fill="#4CAF4F"/>
<path d="M154.906 210.245C154.612 210.245 154.329 210.198 154.057 210.103C153.789 210.005 153.582 209.881 153.435 209.73L153.599 209.407C153.738 209.543 153.925 209.658 154.159 209.752C154.397 209.843 154.646 209.888 154.906 209.888C155.155 209.888 155.357 209.858 155.512 209.798C155.67 209.734 155.785 209.649 155.857 209.543C155.933 209.437 155.97 209.32 155.97 209.192C155.97 209.037 155.925 208.913 155.835 208.819C155.748 208.724 155.633 208.651 155.489 208.598C155.346 208.541 155.187 208.492 155.014 208.451C154.84 208.409 154.667 208.366 154.493 208.321C154.32 208.271 154.159 208.207 154.012 208.128C153.869 208.049 153.752 207.945 153.661 207.817C153.574 207.685 153.531 207.513 153.531 207.302C153.531 207.106 153.582 206.926 153.684 206.764C153.789 206.598 153.95 206.466 154.165 206.368C154.38 206.266 154.655 206.215 154.991 206.215C155.214 206.215 155.435 206.247 155.653 206.311C155.872 206.372 156.061 206.457 156.219 206.566L156.078 206.9C155.908 206.787 155.727 206.704 155.535 206.651C155.346 206.598 155.163 206.572 154.986 206.572C154.748 206.572 154.552 206.604 154.397 206.668C154.242 206.732 154.127 206.819 154.052 206.928C153.98 207.034 153.944 207.155 153.944 207.29C153.944 207.445 153.988 207.57 154.074 207.664C154.165 207.758 154.282 207.832 154.425 207.885C154.572 207.938 154.733 207.985 154.906 208.026C155.08 208.068 155.252 208.113 155.421 208.162C155.595 208.211 155.753 208.275 155.897 208.354C156.044 208.43 156.161 208.532 156.248 208.66C156.338 208.788 156.384 208.956 156.384 209.164C156.384 209.356 156.331 209.536 156.225 209.702C156.119 209.864 155.957 209.996 155.738 210.098C155.523 210.196 155.246 210.245 154.906 210.245ZM157.296 210.211V206.249H157.715V210.211H157.296ZM159.004 210.211V206.249H159.349L162.083 209.69H161.902V206.249H162.315V210.211H161.97L159.242 206.77H159.423V210.211H159.004ZM165.346 210.245C165.044 210.245 164.765 210.196 164.508 210.098C164.255 209.996 164.035 209.854 163.846 209.673C163.661 209.492 163.516 209.279 163.41 209.034C163.308 208.788 163.257 208.521 163.257 208.23C163.257 207.939 163.308 207.672 163.41 207.426C163.516 207.181 163.663 206.968 163.852 206.787C164.04 206.606 164.261 206.466 164.514 206.368C164.77 206.266 165.05 206.215 165.352 206.215C165.653 206.215 165.929 206.262 166.178 206.357C166.431 206.451 166.646 206.594 166.823 206.787L166.563 207.053C166.397 206.887 166.214 206.768 166.014 206.696C165.814 206.624 165.599 206.589 165.369 206.589C165.123 206.589 164.897 206.63 164.689 206.713C164.486 206.792 164.306 206.907 164.152 207.058C164.001 207.206 163.882 207.379 163.795 207.579C163.712 207.775 163.671 207.992 163.671 208.23C163.671 208.464 163.712 208.681 163.795 208.881C163.882 209.081 164.001 209.256 164.152 209.407C164.306 209.554 164.486 209.669 164.689 209.752C164.897 209.832 165.121 209.871 165.363 209.871C165.589 209.871 165.802 209.837 166.002 209.769C166.206 209.702 166.393 209.586 166.563 209.424L166.8 209.741C166.612 209.907 166.391 210.034 166.138 210.12C165.885 210.203 165.621 210.245 165.346 210.245ZM166.399 209.69V208.23H166.8V209.741L166.399 209.69ZM171.063 210.245C170.558 210.245 170.16 210.1 169.869 209.809C169.579 209.519 169.433 209.088 169.433 208.519V206.249H169.852V208.502C169.852 208.97 169.958 209.315 170.169 209.537C170.38 209.76 170.678 209.871 171.063 209.871C171.452 209.871 171.752 209.76 171.963 209.537C172.175 209.315 172.28 208.97 172.28 208.502V206.249H172.688V208.519C172.688 209.088 172.542 209.519 172.252 209.809C171.965 210.1 171.569 210.245 171.063 210.245ZM173.95 210.211V206.249H175.433C175.769 206.249 176.057 206.304 176.299 206.413C176.54 206.519 176.725 206.673 176.853 206.877C176.985 207.077 177.051 207.321 177.051 207.607C177.051 207.887 176.985 208.128 176.853 208.332C176.725 208.532 176.54 208.687 176.299 208.796C176.057 208.905 175.769 208.96 175.433 208.96H174.182L174.369 208.762V210.211H173.95ZM174.369 208.796L174.182 208.592H175.421C175.818 208.592 176.118 208.507 176.321 208.337C176.529 208.164 176.633 207.921 176.633 207.607C176.633 207.29 176.529 207.045 176.321 206.872C176.118 206.698 175.818 206.611 175.421 206.611H174.182L174.369 206.413V208.796Z" fill="#E8E8E3"/>
<path d="M149.33 94.2851L130.827 94.2012L130.812 97.5967L149.315 97.6807L149.33 94.2851Z" fill="#4CAF4F"/>
<path opacity="0.1" d="M149.33 94.2851L130.827 94.2012L130.812 97.5967L149.315 97.6807L149.33 94.2851Z" fill="black"/>
<path d="M203.57 115.133C203.716 115.118 203.858 115.085 203.995 115.032C204.194 114.955 204.367 114.822 204.494 114.65C204.622 114.478 204.698 114.274 204.714 114.061C204.714 112.917 204.714 111.248 204.714 109.104C204.714 108.033 204.714 106.831 204.714 105.507C204.714 105.184 204.714 104.846 204.714 104.507C204.761 104.179 204.69 103.845 204.513 103.565C204.414 103.431 204.285 103.321 204.136 103.245C203.988 103.169 203.824 103.128 203.657 103.126H202.534H192.139L131.968 102.903C131.814 102.901 131.661 102.935 131.524 103.004C131.386 103.073 131.267 103.174 131.177 103.299C131.003 103.58 130.936 103.915 130.989 104.241C130.989 104.961 130.989 105.68 130.989 106.399C130.989 107.838 130.989 109.277 130.989 110.716C130.989 111.435 130.989 112.155 130.989 112.874C130.96 113.209 130.96 113.546 130.989 113.881C131.027 114.025 131.097 114.158 131.195 114.27C131.292 114.383 131.414 114.471 131.551 114.529C131.692 114.585 131.844 114.612 131.997 114.608H135.658L151.636 114.694L178.686 114.86L196.923 115.004L201.88 115.061H203.167C203.462 115.061 203.606 115.061 203.606 115.061H203.167H201.88H196.923H178.686L151.636 114.975L135.658 114.91H131.997C131.795 114.918 131.594 114.884 131.407 114.809C131.217 114.728 131.049 114.605 130.914 114.45C130.78 114.294 130.682 114.109 130.63 113.91C130.588 113.721 130.574 113.527 130.587 113.335V112.802C130.587 112.083 130.587 111.363 130.587 110.644C130.587 109.205 130.587 107.766 130.587 106.328C130.587 105.608 130.587 104.889 130.587 104.169C130.573 103.978 130.573 103.785 130.587 103.594C130.614 103.382 130.695 103.181 130.824 103.011C130.948 102.837 131.112 102.696 131.303 102.6C131.493 102.503 131.704 102.454 131.917 102.457L192.089 102.788L202.484 102.86H203.606C203.804 102.86 203.999 102.908 204.174 102.999C204.349 103.091 204.5 103.223 204.613 103.385C204.816 103.698 204.898 104.074 204.844 104.443C204.844 104.781 204.844 105.119 204.844 105.443C204.844 106.752 204.844 107.953 204.844 109.04C204.844 111.198 204.793 112.853 204.779 114.004C204.761 114.225 204.681 114.437 204.547 114.614C204.413 114.791 204.232 114.926 204.024 115.004C203.887 115.088 203.731 115.133 203.57 115.133Z" fill="#E0E0E0"/>
<path d="M170.226 106.516H136.385V109.688H170.226V106.516Z" fill="#4CAF4F"/>
<path opacity="0.2" d="M170.226 106.516H136.385V109.688H170.226V106.516Z" fill="white"/>
<path d="M149.204 125.262L130.701 125.178L130.686 128.573L149.188 128.657L149.204 125.262Z" fill="#4CAF4F"/>
<path opacity="0.1" d="M149.204 125.262L130.701 125.178L130.686 128.573L149.188 128.657L149.204 125.262Z" fill="black"/>
<path d="M203.103 146.11C203.248 146.093 203.392 146.066 203.534 146.031C203.735 145.967 203.92 145.861 204.077 145.72C204.233 145.578 204.357 145.405 204.441 145.211C204.554 144.921 204.598 144.608 204.57 144.298C204.57 143.952 204.57 143.578 204.57 143.161C204.57 142.326 204.57 141.377 204.57 140.283V135.715C204.605 135.384 204.532 135.051 204.362 134.765C204.184 134.472 203.905 134.255 203.578 134.154C203.219 134.09 202.854 134.071 202.491 134.096H192.139L132.176 133.873C131.854 133.874 131.543 133.992 131.301 134.205C131.058 134.418 130.902 134.712 130.86 135.032C130.86 135.715 130.86 136.47 130.86 137.19C130.86 138.629 130.86 140.067 130.86 141.506C130.86 142.226 130.86 142.945 130.86 143.664C130.833 144.001 130.848 144.339 130.903 144.672C130.993 144.963 131.178 145.217 131.428 145.391C131.694 145.56 132.006 145.64 132.32 145.621H133.32H135.399L151.32 145.7L178.276 145.866L196.448 146.01L201.391 146.067H196.448H178.276L151.306 146.039L135.385 145.981H132.256C131.867 146.004 131.48 145.901 131.155 145.686C130.828 145.459 130.589 145.126 130.479 144.744C130.414 144.378 130.395 144.006 130.421 143.636C130.421 142.916 130.421 142.197 130.421 141.477C130.421 140.039 130.421 138.6 130.421 137.161C130.421 136.442 130.421 135.722 130.421 135.003C130.474 134.591 130.674 134.213 130.985 133.939C131.297 133.665 131.697 133.514 132.112 133.514L192.074 133.845L202.427 133.924C202.812 133.9 203.199 133.927 203.578 134.003C203.951 134.125 204.267 134.381 204.462 134.722C204.649 135.039 204.729 135.407 204.693 135.773C204.693 136.111 204.693 136.442 204.693 136.773C204.693 138.075 204.693 139.269 204.693 140.37C204.693 141.47 204.693 142.398 204.693 143.247C204.693 143.657 204.693 144.039 204.693 144.391C204.719 144.713 204.667 145.036 204.542 145.334C204.448 145.532 204.313 145.708 204.145 145.85C203.978 145.991 203.782 146.095 203.57 146.154C203.413 146.167 203.255 146.152 203.103 146.11Z" fill="#E0E0E0"/>
<path d="M149.064 157.584L130.562 157.5L130.546 160.896L149.049 160.98L149.064 157.584Z" fill="#4CAF4F"/>
<path opacity="0.1" d="M149.064 157.584L130.562 157.5L130.546 160.896L149.049 160.98L149.064 157.584Z" fill="black"/>
<path d="M202.959 178.419C203.104 178.402 203.248 178.375 203.39 178.34C203.59 178.276 203.775 178.171 203.931 178.031C204.087 177.89 204.212 177.719 204.297 177.527C204.41 177.236 204.454 176.924 204.426 176.613C204.426 176.261 204.426 175.894 204.426 175.469C204.426 174.642 204.426 173.685 204.426 172.592V168.023C204.461 167.693 204.388 167.36 204.218 167.074C204.036 166.786 203.758 166.572 203.434 166.47C203.076 166.403 202.711 166.381 202.347 166.405H191.995L132.033 166.182C131.71 166.183 131.399 166.3 131.157 166.513C130.914 166.726 130.758 167.02 130.716 167.34C130.716 168.059 130.716 168.779 130.716 169.498C130.716 170.937 130.716 172.376 130.716 173.815C130.716 174.534 130.716 175.253 130.716 175.973C130.689 176.307 130.704 176.643 130.759 176.973C130.845 177.266 131.031 177.521 131.284 177.692C131.548 177.865 131.862 177.946 132.176 177.922H135.306L151.226 178.009L178.182 178.174L196.355 178.318L201.297 178.376H196.355H178.182L151.226 178.297L135.306 178.232H132.176C131.787 178.258 131.4 178.154 131.076 177.937C130.748 177.71 130.509 177.377 130.399 176.994C130.335 176.629 130.316 176.257 130.342 175.887C130.342 175.167 130.342 174.448 130.342 173.728C130.342 172.289 130.342 170.851 130.342 169.412C130.342 168.692 130.342 167.973 130.342 167.218C130.393 166.807 130.592 166.429 130.902 166.155C131.212 165.88 131.611 165.729 132.025 165.729L191.988 166.059L202.34 166.139C202.726 166.115 203.113 166.142 203.491 166.218C203.865 166.34 204.18 166.596 204.376 166.937C204.562 167.254 204.643 167.622 204.606 167.987C204.606 168.326 204.606 168.664 204.606 168.987C204.606 170.29 204.606 171.484 204.606 172.584C204.606 173.685 204.606 174.613 204.606 175.462C204.606 175.872 204.606 176.253 204.606 176.606C204.634 176.928 204.582 177.251 204.455 177.548C204.362 177.747 204.227 177.923 204.059 178.064C203.891 178.206 203.695 178.31 203.484 178.368C203.315 178.426 203.135 178.443 202.959 178.419Z" fill="#E0E0E0"/>
<path d="M169.503 138.39L135.663 138.236L135.648 141.409L169.489 141.562L169.503 138.39Z" fill="#4CAF4F"/>
<path opacity="0.2" d="M169.503 138.39L135.663 138.236L135.648 141.409L169.489 141.562L169.503 138.39Z" fill="white"/>
<path d="M138.723 172.549C138.702 172.839 138.596 173.116 138.419 173.345C138.242 173.575 138.001 173.748 137.727 173.842C137.453 173.937 137.156 173.948 136.875 173.876C136.594 173.804 136.341 173.651 136.146 173.435C135.952 173.22 135.824 172.953 135.78 172.666C135.736 172.379 135.777 172.086 135.898 171.822C136.02 171.558 136.216 171.336 136.462 171.183C136.708 171.029 136.994 170.952 137.284 170.96C137.685 170.982 138.061 171.161 138.33 171.459C138.6 171.757 138.741 172.148 138.723 172.549Z" fill="#4CAF4F"/>
<path d="M143.306 172.572C143.32 172.774 143.292 172.978 143.224 173.17C143.156 173.361 143.05 173.537 142.911 173.685C142.772 173.834 142.605 173.953 142.418 174.034C142.232 174.115 142.03 174.157 141.827 174.157C141.624 174.157 141.423 174.115 141.236 174.034C141.05 173.953 140.882 173.834 140.743 173.685C140.605 173.537 140.498 173.361 140.43 173.17C140.362 172.978 140.335 172.774 140.349 172.572C140.335 172.369 140.362 172.165 140.43 171.973C140.498 171.782 140.605 171.606 140.743 171.458C140.882 171.309 141.05 171.19 141.236 171.109C141.423 171.028 141.624 170.986 141.827 170.986C142.03 170.986 142.232 171.028 142.418 171.109C142.605 171.19 142.772 171.309 142.911 171.458C143.05 171.606 143.156 171.782 143.224 171.973C143.292 172.165 143.32 172.369 143.306 172.572Z" fill="#4CAF4F"/>
<path d="M147.896 172.592C147.874 172.882 147.769 173.159 147.592 173.388C147.414 173.618 147.174 173.791 146.899 173.885C146.625 173.98 146.329 173.991 146.048 173.919C145.767 173.847 145.513 173.693 145.319 173.478C145.124 173.263 144.997 172.996 144.953 172.709C144.909 172.422 144.95 172.129 145.071 171.865C145.192 171.601 145.388 171.379 145.634 171.226C145.881 171.072 146.167 170.995 146.457 171.002C146.857 171.027 147.232 171.207 147.501 171.504C147.77 171.801 147.911 172.192 147.896 172.592Z" fill="#4CAF4F"/>
<path d="M152.478 172.614C152.457 172.903 152.351 173.18 152.174 173.41C151.997 173.64 151.756 173.813 151.482 173.907C151.208 174.001 150.911 174.013 150.63 173.941C150.349 173.868 150.096 173.715 149.901 173.5C149.707 173.285 149.579 173.017 149.535 172.73C149.491 172.444 149.532 172.15 149.654 171.886C149.775 171.623 149.971 171.401 150.217 171.247C150.463 171.094 150.749 171.016 151.039 171.024C151.439 171.048 151.814 171.228 152.083 171.525C152.352 171.823 152.494 172.213 152.478 172.614Z" fill="#4CAF4F"/>
<path d="M157.061 172.628C157.041 172.918 156.936 173.196 156.76 173.426C156.584 173.657 156.343 173.831 156.069 173.927C155.795 174.022 155.498 174.035 155.217 173.963C154.935 173.892 154.681 173.739 154.486 173.524C154.29 173.309 154.162 173.041 154.118 172.754C154.073 172.467 154.114 172.173 154.235 171.909C154.356 171.645 154.552 171.423 154.799 171.269C155.045 171.115 155.332 171.038 155.622 171.045C156.021 171.07 156.394 171.249 156.663 171.544C156.932 171.84 157.075 172.229 157.061 172.628Z" fill="#4CAF4F"/>
<path d="M161.65 172.649C161.631 172.937 161.527 173.214 161.353 173.444C161.178 173.674 160.94 173.848 160.668 173.945C160.395 174.042 160.101 174.057 159.82 173.988C159.539 173.919 159.285 173.77 159.088 173.559C158.891 173.347 158.76 173.083 158.711 172.798C158.662 172.513 158.698 172.22 158.814 171.955C158.929 171.691 159.12 171.465 159.362 171.307C159.604 171.149 159.887 171.066 160.176 171.066C160.581 171.081 160.964 171.256 161.24 171.553C161.516 171.85 161.664 172.244 161.65 172.649Z" fill="#4CAF4F"/>
<path d="M166.233 172.671C166.247 172.874 166.22 173.077 166.152 173.269C166.084 173.461 165.977 173.636 165.839 173.785C165.7 173.934 165.532 174.052 165.346 174.133C165.159 174.214 164.958 174.256 164.755 174.256C164.551 174.256 164.35 174.214 164.164 174.133C163.977 174.052 163.81 173.934 163.671 173.785C163.532 173.636 163.426 173.461 163.358 173.269C163.29 173.077 163.262 172.874 163.276 172.671C163.262 172.468 163.29 172.265 163.358 172.073C163.426 171.881 163.532 171.706 163.671 171.557C163.81 171.408 163.977 171.29 164.164 171.209C164.35 171.128 164.551 171.086 164.755 171.086C164.958 171.086 165.159 171.128 165.346 171.209C165.532 171.29 165.7 171.408 165.839 171.557C165.977 171.706 166.084 171.881 166.152 172.073C166.22 172.265 166.247 172.468 166.233 172.671Z" fill="#4CAF4F"/>
<path d="M170.816 172.692C170.796 172.98 170.693 173.257 170.518 173.487C170.343 173.717 170.105 173.891 169.833 173.988C169.561 174.085 169.266 174.1 168.985 174.031C168.704 173.962 168.45 173.813 168.253 173.602C168.056 173.39 167.925 173.126 167.876 172.841C167.828 172.556 167.863 172.263 167.979 171.998C168.095 171.734 168.285 171.508 168.527 171.35C168.769 171.192 169.052 171.109 169.341 171.109C169.746 171.124 170.129 171.299 170.405 171.596C170.682 171.893 170.829 172.287 170.816 172.692Z" fill="#4CAF4F"/>
<path d="M175.398 172.714C175.379 173.004 175.274 173.281 175.098 173.512C174.921 173.743 174.681 173.917 174.407 174.013C174.132 174.108 173.836 174.121 173.554 174.049C173.273 173.977 173.019 173.825 172.823 173.61C172.628 173.395 172.5 173.127 172.455 172.84C172.411 172.553 172.452 172.259 172.573 171.995C172.694 171.731 172.89 171.508 173.136 171.355C173.383 171.201 173.669 171.124 173.96 171.131C174.358 171.156 174.732 171.335 175.001 171.63C175.27 171.926 175.412 172.315 175.398 172.714Z" fill="#4CAF4F"/>
<g opacity="0.2">
<path d="M138.723 172.549C138.702 172.839 138.596 173.116 138.419 173.345C138.242 173.575 138.001 173.748 137.727 173.842C137.453 173.937 137.156 173.948 136.875 173.876C136.594 173.804 136.341 173.651 136.146 173.435C135.952 173.22 135.824 172.953 135.78 172.666C135.736 172.379 135.777 172.086 135.898 171.822C136.02 171.558 136.216 171.336 136.462 171.183C136.708 171.029 136.994 170.952 137.284 170.96C137.685 170.982 138.061 171.161 138.33 171.459C138.6 171.757 138.741 172.148 138.723 172.549Z" fill="white"/>
<path d="M143.306 172.572C143.32 172.774 143.292 172.978 143.224 173.17C143.156 173.361 143.05 173.537 142.911 173.685C142.772 173.834 142.605 173.953 142.418 174.034C142.232 174.115 142.03 174.157 141.827 174.157C141.624 174.157 141.423 174.115 141.236 174.034C141.05 173.953 140.882 173.834 140.743 173.685C140.605 173.537 140.498 173.361 140.43 173.17C140.362 172.978 140.335 172.774 140.349 172.572C140.335 172.369 140.362 172.165 140.43 171.973C140.498 171.782 140.605 171.606 140.743 171.458C140.882 171.309 141.05 171.19 141.236 171.109C141.423 171.028 141.624 170.986 141.827 170.986C142.03 170.986 142.232 171.028 142.418 171.109C142.605 171.19 142.772 171.309 142.911 171.458C143.05 171.606 143.156 171.782 143.224 171.973C143.292 172.165 143.32 172.369 143.306 172.572Z" fill="white"/>
<path d="M147.896 172.592C147.874 172.882 147.769 173.159 147.592 173.388C147.414 173.618 147.174 173.791 146.899 173.885C146.625 173.98 146.329 173.991 146.048 173.919C145.767 173.847 145.513 173.693 145.319 173.478C145.124 173.263 144.997 172.996 144.953 172.709C144.909 172.422 144.95 172.129 145.071 171.865C145.192 171.601 145.388 171.379 145.634 171.226C145.881 171.072 146.167 170.995 146.457 171.002C146.857 171.027 147.232 171.207 147.501 171.504C147.77 171.801 147.911 172.192 147.896 172.592Z" fill="white"/>
<path d="M152.478 172.614C152.457 172.903 152.351 173.18 152.174 173.41C151.997 173.64 151.756 173.813 151.482 173.907C151.208 174.001 150.911 174.013 150.63 173.941C150.349 173.868 150.096 173.715 149.901 173.5C149.707 173.285 149.579 173.017 149.535 172.73C149.491 172.444 149.532 172.15 149.654 171.886C149.775 171.623 149.971 171.401 150.217 171.247C150.463 171.094 150.749 171.016 151.039 171.024C151.439 171.048 151.814 171.228 152.083 171.525C152.352 171.823 152.494 172.213 152.478 172.614Z" fill="white"/>
<path d="M157.061 172.628C157.041 172.918 156.936 173.196 156.76 173.426C156.584 173.657 156.343 173.831 156.069 173.927C155.795 174.022 155.498 174.035 155.217 173.963C154.935 173.892 154.681 173.739 154.486 173.524C154.29 173.309 154.162 173.041 154.118 172.754C154.073 172.467 154.114 172.173 154.235 171.909C154.356 171.645 154.552 171.423 154.799 171.269C155.045 171.115 155.332 171.038 155.622 171.045C156.021 171.07 156.394 171.249 156.663 171.544C156.932 171.84 157.075 172.229 157.061 172.628Z" fill="white"/>
<path d="M161.65 172.651C161.631 172.939 161.527 173.216 161.353 173.446C161.178 173.676 160.94 173.85 160.668 173.947C160.395 174.044 160.101 174.059 159.82 173.99C159.539 173.921 159.285 173.772 159.088 173.561C158.891 173.349 158.76 173.085 158.711 172.8C158.662 172.515 158.698 172.222 158.814 171.957C158.929 171.693 159.12 171.467 159.362 171.309C159.604 171.151 159.887 171.068 160.176 171.068C160.581 171.083 160.964 171.258 161.24 171.555C161.516 171.852 161.664 172.246 161.65 172.651Z" fill="white"/>
<path d="M166.233 172.671C166.247 172.874 166.22 173.077 166.152 173.269C166.084 173.461 165.977 173.636 165.839 173.785C165.7 173.934 165.532 174.052 165.346 174.133C165.159 174.214 164.958 174.256 164.755 174.256C164.551 174.256 164.35 174.214 164.164 174.133C163.977 174.052 163.81 173.934 163.671 173.785C163.532 173.636 163.426 173.461 163.358 173.269C163.29 173.077 163.262 172.874 163.276 172.671C163.262 172.468 163.29 172.265 163.358 172.073C163.426 171.881 163.532 171.706 163.671 171.557C163.81 171.408 163.977 171.29 164.164 171.209C164.35 171.128 164.551 171.086 164.755 171.086C164.958 171.086 165.159 171.128 165.346 171.209C165.532 171.29 165.7 171.408 165.839 171.557C165.977 171.706 166.084 171.881 166.152 172.073C166.22 172.265 166.247 172.468 166.233 172.671Z" fill="white"/>
<path d="M170.816 172.694C170.796 172.982 170.693 173.259 170.518 173.489C170.343 173.719 170.105 173.893 169.833 173.99C169.561 174.087 169.266 174.102 168.985 174.033C168.704 173.964 168.45 173.815 168.253 173.604C168.056 173.392 167.925 173.128 167.876 172.843C167.828 172.558 167.863 172.265 167.979 172C168.095 171.736 168.285 171.51 168.527 171.352C168.769 171.194 169.052 171.111 169.341 171.111C169.746 171.126 170.129 171.301 170.405 171.598C170.682 171.895 170.829 172.289 170.816 172.694Z" fill="white"/>
<path d="M175.398 172.714C175.379 173.004 175.274 173.281 175.098 173.512C174.921 173.743 174.681 173.917 174.407 174.013C174.132 174.108 173.836 174.121 173.554 174.049C173.273 173.977 173.019 173.825 172.823 173.61C172.628 173.395 172.5 173.127 172.455 172.84C172.411 172.553 172.452 172.259 172.573 171.995C172.694 171.731 172.89 171.508 173.136 171.355C173.383 171.201 173.669 171.124 173.96 171.131C174.358 171.156 174.732 171.335 175.001 171.63C175.27 171.926 175.412 172.315 175.398 172.714Z" fill="white"/>
</g>
<path d="M168.888 68.8619C169.387 68.6419 169.811 68.2797 170.107 67.8205C170.402 67.3613 170.556 66.8253 170.55 66.2793C170.568 65.9243 170.514 65.5693 170.391 65.2358C170.268 64.9024 170.079 64.5974 169.834 64.3396C169.589 64.0817 169.295 63.8764 168.968 63.7361C168.642 63.5958 168.29 63.5234 167.934 63.5234C167.579 63.5234 167.227 63.5958 166.901 63.7361C166.574 63.8764 166.28 64.0817 166.035 64.3396C165.79 64.5974 165.601 64.9024 165.478 65.2358C165.355 65.5693 165.301 65.9243 165.319 66.2793C165.308 66.8308 165.461 67.3731 165.758 67.8379C166.055 68.3027 166.483 68.6691 166.988 68.8907C162.96 69.495 163.14 73.869 163.14 73.869L172.665 73.9122C172.665 73.9122 172.888 69.4591 168.888 68.8619Z" fill="#4CAF4F"/>
<path opacity="0.1" d="M168.888 68.8619C169.387 68.6419 169.811 68.2797 170.107 67.8205C170.402 67.3613 170.556 66.8253 170.55 66.2793C170.568 65.9243 170.514 65.5693 170.391 65.2358C170.268 64.9024 170.079 64.5974 169.834 64.3396C169.589 64.0817 169.295 63.8764 168.968 63.7361C168.642 63.5958 168.29 63.5234 167.934 63.5234C167.579 63.5234 167.227 63.5958 166.901 63.7361C166.574 63.8764 166.28 64.0817 166.035 64.3396C165.79 64.5974 165.601 64.9024 165.478 65.2358C165.355 65.5693 165.301 65.9243 165.319 66.2793C165.308 66.8308 165.461 67.3731 165.758 67.8379C166.055 68.3027 166.483 68.6691 166.988 68.8907C162.96 69.495 163.14 73.869 163.14 73.869L172.665 73.9122C172.665 73.9122 172.888 69.4591 168.888 68.8619Z" fill="black"/>
<path d="M184.365 76.7322L150.417 76.5781L150.399 80.6355L184.347 80.7896L184.365 76.7322Z" fill="#4CAF4F"/>
<path opacity="0.2" d="M184.365 76.7322L150.417 76.5781L150.399 80.6355L184.347 80.7896L184.365 76.7322Z" fill="white"/>
<path d="M59.5597 97.7598H59.2215L58.2431 97.8318C57.7137 97.8636 57.1872 97.9333 56.6676 98.0404C56.3312 98.0876 55.9974 98.1525 55.6677 98.2346L54.5526 98.544C52.6547 99.1263 50.864 100.013 49.2506 101.17C47.1189 102.717 45.3389 104.698 44.0277 106.983C43.257 108.299 42.6437 109.702 42.2004 111.162C41.7346 112.749 41.4664 114.387 41.4019 116.04C41.359 116.908 41.3734 117.778 41.445 118.644C41.445 119.083 41.5673 119.522 41.6249 119.968C41.6733 120.418 41.7575 120.863 41.8767 121.299C42.5236 124.186 43.8362 126.881 45.7097 129.171C47.5833 131.46 49.966 133.28 52.6677 134.486C54.6232 135.329 56.719 135.8 58.8475 135.874C61.0458 135.995 63.2463 135.679 65.3221 134.946L65.9552 134.709H66.0415L66.1135 134.752L75.1852 139.356L74.919 139.586C73.9478 136.579 73.0126 133.665 72.1061 130.867V130.759L72.1852 130.68C74.3859 128.463 76.0196 125.749 76.9477 122.766C77.7883 120.04 78.0337 117.165 77.6671 114.335C77.3411 111.82 76.5325 109.392 75.2859 107.184C74.2113 105.287 72.8251 103.585 71.1853 102.148C69.8324 101.011 68.335 100.058 66.7321 99.3137C65.5193 98.7906 64.2562 98.3929 62.9625 98.1267L61.5236 97.8893L60.4805 97.8102L59.8474 97.767H59.6316C59.7033 97.7591 59.7757 97.7591 59.8474 97.767H60.4877L61.5308 97.8102L62.9696 98.0188C64.2795 98.2655 65.5598 98.6489 66.7897 99.1627C68.4201 99.8981 69.9445 100.849 71.322 101.99C72.9919 103.42 74.4075 105.123 75.5089 107.026C76.7909 109.258 77.6243 111.719 77.9621 114.27C78.3591 117.143 78.1308 120.069 77.293 122.846C76.3588 125.89 74.6999 128.662 72.4586 130.924L72.5018 130.737C73.4082 133.536 74.3507 136.449 75.329 139.449L75.4657 139.888L75.0557 139.68L65.984 135.083H66.1422L65.4948 135.32C63.3789 136.065 61.1377 136.387 58.8978 136.27C56.7235 136.187 54.5838 135.699 52.5886 134.831C48.7827 133.201 45.6163 130.368 43.5745 126.766C42.6348 125.103 41.9487 123.309 41.5385 121.443C41.4262 120.995 41.3421 120.541 41.2867 120.083C41.2292 119.63 41.1357 119.184 41.1141 118.738C40.9194 116.178 41.1899 113.604 41.9126 111.141C42.367 109.661 42.9974 108.24 43.7903 106.911C45.1328 104.605 46.9498 102.612 49.1211 101.062C50.7611 99.9022 52.5818 99.0222 54.5094 98.4576L55.6389 98.1699C55.9713 98.0928 56.3075 98.0327 56.6461 97.99C57.171 97.8928 57.7024 97.8351 58.236 97.8174L59.2215 97.7814C59.3336 97.7663 59.4466 97.7591 59.5597 97.7598Z" fill="#4CAF4F"/>
<path d="M63.6602 114.536H62.3293L59.4517 110.493V107.839C59.4517 107.839 57.3942 107.709 57.6388 111.184C57.8834 114.658 57.6388 113.774 57.6388 113.774C57.6388 113.774 53.272 113.774 52.9123 114.169C52.5526 114.565 52.531 118.781 52.4807 121.133C52.4531 121.7 52.6158 122.26 52.943 122.724C53.2701 123.188 53.743 123.53 54.2864 123.694C54.4387 123.736 54.5959 123.758 54.754 123.759C55.8475 123.759 61.4085 122.874 61.4085 122.874H63.7034L63.6602 114.536Z" fill="#4CAF4F"/>
<path d="M67.4659 113.824L66.6458 122.918H64.3724V114.011L67.4659 113.824Z" fill="#4CAF4F"/>
<path d="M94.5804 298.949V292.798L83.5519 292.719L83.4584 302.021L84.1418 302.071C87.1849 302.265 99.6234 302.553 101.667 301.92C103.94 301.215 94.5804 298.949 94.5804 298.949Z" fill="#4CAF4F"/>
<path d="M101.926 301.345C101.926 301.446 97.7962 301.532 92.71 301.532C87.6238 301.532 83.4944 301.446 83.4944 301.345C83.4944 301.245 87.6238 301.158 92.71 301.158C97.7962 301.158 101.926 301.245 101.926 301.345Z" fill="#263238"/>
<path d="M94.7746 300.209C94.681 300.159 94.7746 299.835 94.9976 299.49C95.2206 299.145 95.5227 299.001 95.5947 299.073C95.6666 299.145 95.5155 299.418 95.2997 299.713C95.0839 300.008 94.8681 300.26 94.7746 300.209Z" fill="#263238"/>
<path d="M95.4796 300.611C95.3789 300.611 95.4293 300.208 95.6451 299.826C95.8609 299.445 96.1487 299.215 96.2278 299.272C96.307 299.33 96.1775 299.654 95.976 299.992C95.7746 300.33 95.5732 300.647 95.4796 300.611Z" fill="#263238"/>
<path d="M86.818 301.317C86.7749 301.317 86.6094 301.187 86.372 300.914C86.0822 300.563 85.7594 300.24 85.408 299.95C85.0624 299.674 84.6508 299.493 84.2138 299.425C83.8756 299.382 83.6598 299.425 83.6382 299.382C83.6167 299.339 83.8253 299.187 84.221 299.159C84.7431 299.148 85.2525 299.321 85.6598 299.648C86.0413 299.959 86.3631 300.337 86.6094 300.763C86.7749 301.079 86.8612 301.288 86.818 301.317Z" fill="#263238"/>
<path d="M94.8106 299.051C94.861 299.137 94.6739 299.353 94.3574 299.468C94.0408 299.583 93.7603 299.54 93.7459 299.468C93.7315 299.396 93.9545 299.245 94.2279 299.144C94.5013 299.043 94.7531 298.964 94.8106 299.051Z" fill="#263238"/>
<path d="M94.6379 298.454C94.6379 298.562 94.3502 298.648 93.9761 298.655C93.602 298.662 93.307 298.576 93.3142 298.475C93.3214 298.375 93.6164 298.281 93.9761 298.274C94.3358 298.267 94.6235 298.353 94.6379 298.454Z" fill="#263238"/>
<path d="M121.738 298.949V292.798L110.709 292.719L110.616 301.927L111.299 301.978C114.342 302.172 126.788 302.553 128.824 301.92C131.097 301.215 121.738 298.949 121.738 298.949Z" fill="#4CAF4F"/>
<path d="M129.083 301.359C129.083 301.46 124.961 301.546 119.867 301.546C114.774 301.546 110.659 301.46 110.659 301.359C110.659 301.258 114.781 301.172 119.867 301.172C124.954 301.172 129.083 301.258 129.083 301.359Z" fill="#263238"/>
<path d="M121.932 300.209C121.846 300.159 121.932 299.835 122.155 299.49C122.378 299.145 122.68 299.001 122.752 299.073C122.824 299.145 122.673 299.418 122.457 299.713C122.242 300.008 122.026 300.26 121.932 300.209Z" fill="#263238"/>
<path d="M122.637 300.611C122.544 300.611 122.587 300.208 122.81 299.826C123.033 299.445 123.313 299.215 123.393 299.272C123.472 299.33 123.335 299.654 123.134 299.992C122.932 300.33 122.738 300.647 122.637 300.611Z" fill="#263238"/>
<path d="M113.976 301.317C113.932 301.317 113.774 301.187 113.53 300.914C113.24 300.563 112.917 300.24 112.566 299.95C112.22 299.674 111.808 299.493 111.371 299.425C111.04 299.382 110.817 299.425 110.796 299.382C110.774 299.339 110.983 299.187 111.379 299.159C111.901 299.148 112.41 299.321 112.817 299.648C113.201 299.957 113.523 300.335 113.767 300.763C113.932 301.079 114.019 301.288 113.976 301.317Z" fill="#263238"/>
<path d="M121.968 299.051C122.019 299.137 121.832 299.353 121.515 299.468C121.198 299.583 120.918 299.54 120.903 299.468C120.889 299.396 121.112 299.245 121.385 299.144C121.659 299.043 121.911 298.964 121.968 299.051Z" fill="#263238"/>
<path d="M121.81 298.454C121.81 298.562 121.522 298.648 121.148 298.655C120.774 298.662 120.486 298.576 120.493 298.475C120.501 298.375 120.788 298.281 121.148 298.274C121.508 298.267 121.81 298.353 121.81 298.454Z" fill="#263238"/>
<path d="M162.37 116.293C162.082 115.998 161.37 116.142 161.37 116.142C161.441 115.728 161.441 115.305 161.37 114.89C161.241 114.488 160.334 114.567 160.334 114.567C160.292 114.227 160.292 113.884 160.334 113.545C160.341 113.47 160.325 113.394 160.288 113.329C160.25 113.263 160.194 113.211 160.125 113.178C159.697 113.003 159.236 112.92 158.773 112.934C158.219 112.538 160.464 109.394 161.298 108.387C162.133 107.38 161.982 106.596 161.241 106.596C160.73 106.596 158.111 109.617 157.305 110.632C156.5 111.646 154.363 114.466 154.291 112.214C154.219 109.963 153.313 108.265 152.744 107.977C152.176 107.689 151.572 108.365 151.881 108.991C152.153 109.702 152.322 110.448 152.385 111.207C152.463 111.811 152.436 112.425 152.306 113.02C152.067 114.128 151.742 115.215 151.334 116.272H151.277C151.277 116.272 135.579 131.329 134.443 132.401C133.428 133.365 113.026 131.257 108.933 130.825C107.542 130.622 106.137 130.526 104.731 130.538C102.954 130.617 102.638 130.868 100.868 130.89C96.3986 130.94 91.9396 131.332 87.5302 132.063C85.5336 132.402 83.6685 133.283 82.1386 134.61C80.6086 135.937 79.4725 137.659 78.8541 139.588C74.7319 152.465 65.3941 182.946 63.7466 200.068C62.5017 202.326 61.3779 204.648 60.3798 207.025C59.2216 210.176 59.5021 210.284 59.8906 210.356C60.9409 210.55 62.1352 204.895 62.5812 206.262C63.0272 207.629 60.3151 213.003 61.4157 213.161C62.8546 213.363 63.9984 207.406 64.1351 206.931C64.2718 206.456 64.984 206.608 64.8545 207.054C64.6459 207.687 62.6243 214.399 64.0344 214.615C64.8113 214.73 64.8977 213.312 64.8977 213.312C64.8977 213.312 66.3365 206.888 66.9911 207.018C67.6458 207.147 66.948 210.938 66.6171 212.205C66.2861 213.471 66.7465 214.111 67.4228 213.802C67.8832 213.586 68.9839 209.737 69.2861 208.485C69.5882 207.233 70.3436 203.766 71.3579 205.773C72.3723 207.78 73.9118 208.946 74.5449 208.974C74.6876 208.958 74.822 208.899 74.931 208.806C75.04 208.712 75.1185 208.588 75.1564 208.45C75.1943 208.311 75.1899 208.164 75.1438 208.028C75.0976 207.893 75.0118 207.773 74.8974 207.687C74.3529 207.155 73.8855 206.55 73.509 205.888C73.1734 205.373 72.9299 204.803 72.7896 204.205C72.4997 203.011 72.3309 201.792 72.286 200.565L72.1709 199.845C73.7823 191.867 78.4225 168.45 85.1202 153.494L87.8683 159.148L89.0625 163.335L81.739 181.414L112.976 181.004L108.314 163.062L113.976 144.357C120.098 144.494 135.817 144.724 138.435 143.537C141.73 142.098 158.773 120.574 158.773 120.574C159.884 119.711 160.948 118.788 161.96 117.811C161.96 117.811 162.996 116.941 162.37 116.293Z" fill="#FFBE9D"/>
<path d="M80.3649 168.054C81.2714 164.96 85.9259 149.666 85.9259 149.666C85.9259 149.666 88.2137 162.133 87.6094 163.637C87.0535 164.924 86.3968 166.165 85.6454 167.349C80.3649 175.384 81.0556 179.406 81.0556 179.406L112.961 178.435C113.033 173.974 110.393 163.601 109.846 161.946C109.299 160.291 111.12 154.874 111.12 154.874C111.12 154.874 114.717 151.212 114.587 149.328C114.519 147.634 114.309 145.95 113.961 144.292L133.385 145.011L132.774 131.846L104.875 129.055C103.904 131.796 95.1199 130.45 95.1199 130.45C85.6382 130.767 85.0483 132.508 81.1059 135.573C77.1636 138.637 70.6385 164.939 70.6385 164.939L80.3649 168.054Z" fill="#4CAF4F"/>
<path d="M99.2277 164.939C98.6748 165.038 98.1116 165.067 97.5515 165.025C96.5083 165.025 95.0767 164.953 93.5012 164.795C91.9257 164.637 90.5013 164.414 89.4869 164.212C88.9276 164.14 88.3792 164 87.8539 163.795C88.4163 163.795 88.9775 163.848 89.5301 163.953C90.5517 164.083 91.9689 164.263 93.5372 164.421C95.1055 164.579 96.5299 164.687 97.5587 164.759C98.1194 164.766 98.6783 164.826 99.2277 164.939Z" fill="#263238"/>
<path d="M101.415 162.227C100.862 162.498 100.277 162.698 99.6737 162.824C96.8035 163.578 93.8424 163.929 90.8754 163.867C90.2614 163.887 89.6474 163.829 89.0481 163.694C89.654 163.618 90.2648 163.586 90.8754 163.601C92.0049 163.565 93.5588 163.486 95.271 163.284C96.9831 163.083 98.5083 162.795 99.5874 162.565C100.187 162.405 100.798 162.292 101.415 162.227Z" fill="#263238"/>
<path d="M112.148 150.127C112.134 150.675 112.059 151.221 111.925 151.753C111.738 152.753 111.45 154.12 111.084 155.616C110.717 157.112 110.364 158.494 110.048 159.429C109.92 159.964 109.732 160.483 109.486 160.976C109.527 160.429 109.628 159.888 109.789 159.364C110.062 158.242 110.371 156.947 110.717 155.53C111.062 154.112 111.393 152.818 111.666 151.695C111.764 151.155 111.925 150.629 112.148 150.127Z" fill="#263238"/>
<path d="M80.703 166.219C79.0387 165.962 77.3962 165.58 75.7895 165.075C74.1477 164.691 72.5367 164.186 70.9695 163.564C72.633 163.826 74.2752 164.208 75.883 164.708C77.5252 165.091 79.1364 165.596 80.703 166.219Z" fill="#263238"/>
<path d="M114.307 144.134C114.035 144.181 113.758 144.181 113.486 144.134C112.735 144.057 111.997 143.88 111.292 143.609C110.115 143.167 109.044 142.483 108.147 141.602C107.25 140.721 106.547 139.663 106.084 138.494C105.571 137.208 105.353 135.825 105.443 134.444C105.476 133.305 105.816 132.196 106.429 131.235C106.86 130.588 107.504 130.112 108.249 129.89C108.448 129.835 108.654 129.808 108.861 129.811C109.005 129.811 109.076 129.811 109.076 129.811C109.076 129.811 108.774 129.811 108.292 130.005C107.609 130.257 107.029 130.731 106.645 131.35C105.666 132.89 105.393 135.703 106.436 138.328C106.922 139.567 107.682 140.678 108.659 141.58C109.46 142.318 110.383 142.912 111.386 143.336C112.327 143.708 113.307 143.975 114.307 144.134Z" fill="#263238"/>
<path d="M131.076 144.753C130.896 142.547 130.838 140.332 130.903 138.12C130.847 135.909 130.914 133.697 131.105 131.494C131.285 133.698 131.342 135.91 131.277 138.12C131.338 140.333 131.271 142.548 131.076 144.753Z" fill="#263238"/>
<path d="M104.688 129.861C104.767 128.257 104.933 126.444 104.933 126.444C104.933 126.444 108.904 126.005 109.141 121.904C109.379 117.804 109.141 108.344 109.141 108.344L101.947 104.66L93.9617 110.941L95.1919 131.444L102.515 131.911C103.075 131.927 103.618 131.72 104.026 131.335C104.433 130.951 104.671 130.421 104.688 129.861Z" fill="#FFBE9D"/>
<path d="M105.4 118.66C105.4 118.66 105.4 118.739 105.335 118.832C105.282 118.9 105.213 118.954 105.134 118.989C105.055 119.024 104.968 119.039 104.882 119.034C104.422 119.034 103.976 118.501 103.818 117.883C103.742 117.583 103.742 117.269 103.818 116.969C103.832 116.838 103.879 116.713 103.955 116.605C104.03 116.497 104.131 116.409 104.249 116.35C104.346 116.31 104.455 116.31 104.551 116.35C104.623 116.386 104.681 116.444 104.717 116.516C104.767 116.638 104.717 116.717 104.717 116.71C104.717 116.703 104.717 116.638 104.645 116.566C104.607 116.515 104.552 116.479 104.49 116.465C104.427 116.452 104.362 116.462 104.307 116.494C104.218 116.548 104.145 116.622 104.094 116.712C104.042 116.801 104.014 116.902 104.012 117.005C103.951 117.273 103.951 117.55 104.012 117.818C104.156 118.379 104.544 118.832 104.889 118.875C104.957 118.885 105.026 118.88 105.091 118.861C105.157 118.843 105.218 118.811 105.271 118.767C105.357 118.71 105.386 118.652 105.4 118.66Z" fill="#EB996E"/>
<path d="M111.609 106.127C111.055 104.242 109.048 103.307 107.22 102.789C104.436 101.998 101.429 101.652 98.7098 102.652C95.9905 103.652 92.7244 105.408 92.7244 108.408C91.1201 108.278 90.1993 109.681 89.5662 111.422C89.1614 112.483 88.9189 113.598 88.8468 114.731C88.6453 118.659 87.5447 124.084 84.998 126.961C83.5591 128.565 81.5664 129.673 80.7463 131.673C80.0269 133.407 80.4009 135.465 79.7319 137.22C79.1348 138.767 77.8183 139.867 76.8543 141.213C75.8722 142.739 75.2942 144.489 75.1746 146.3C75.0551 148.111 75.3979 149.923 76.1708 151.565C76.9494 153.165 78.0455 154.589 79.3923 155.752C80.7392 156.915 82.3087 157.791 84.0052 158.327C87.3656 159.35 90.949 159.385 94.3287 158.428C96.8651 157.821 99.2312 156.648 101.249 154.996C103.314 153.31 104.733 150.962 105.264 148.349C105.774 145.414 104.954 142.428 104.343 139.508C102.429 130.278 102.976 129.796 105.393 121.227C105.451 121.076 105.479 120.918 105.523 120.767C105.566 120.616 105.587 120.544 105.616 120.429C105.685 120.09 105.721 119.746 105.724 119.4C105.371 119.531 104.988 119.559 104.619 119.48C104.251 119.401 103.913 119.219 103.645 118.954C103.376 118.672 103.189 118.323 103.103 117.943C103.017 117.563 103.035 117.166 103.156 116.796C103.326 116.391 103.578 116.026 103.898 115.725C104.218 115.424 104.597 115.193 105.012 115.048C105.81 114.717 106.666 114.544 107.451 114.177C109.112 113.386 110.264 111.746 111.048 110.026C111.692 108.835 111.891 107.452 111.609 106.127Z" fill="#263238"/>
<path d="M105.688 118.854C105.84 119.078 105.966 119.32 106.062 119.573C106.278 120.026 106.566 120.666 106.882 121.407L106.94 121.544H106.789L106.069 121.609C105.573 121.609 105.156 121.702 104.666 121.695C104.624 121.686 104.584 121.665 104.552 121.636C104.519 121.608 104.494 121.571 104.479 121.53C104.458 121.464 104.458 121.394 104.479 121.328C104.496 121.231 104.518 121.135 104.544 121.041L104.674 120.53C104.739 120.189 104.84 119.856 104.976 119.537C104.962 119.884 104.912 120.229 104.825 120.566L104.724 121.076C104.688 121.249 104.623 121.515 104.724 121.494C105.084 121.494 105.595 121.415 106.069 121.386L106.789 121.321L106.695 121.479C106.386 120.76 106.127 120.084 105.976 119.616C105.843 119.377 105.746 119.12 105.688 118.854Z" fill="#4CAF4F"/>
<path d="M81.0555 179.407L112.961 178.436L126.846 232.636L124.292 294.807H107.422L109.486 233.959L97.1487 196.226L99.0479 297.217L81.998 297.468L80.2066 202.543C80.1275 199.903 79.2642 193.953 79.588 191.334L81.0555 179.407Z" fill="#263238"/>
<path d="M101.393 196.995C100.871 197.028 100.347 196.996 99.8321 196.901C98.8681 196.786 97.5516 196.585 96.1056 196.297C94.6596 196.009 93.3646 195.678 92.4294 195.412C91.9295 195.302 91.4459 195.128 90.9906 194.894C90.9906 194.786 93.3359 195.348 96.2135 195.93C99.0911 196.513 101.408 196.887 101.393 196.995Z" fill="#455A64"/>
<path d="M124.119 291.396C124.119 291.497 120.299 291.583 115.587 291.583C110.875 291.583 107.048 291.497 107.048 291.396C107.048 291.295 110.868 291.209 115.587 291.209C120.306 291.209 124.119 291.288 124.119 291.396Z" fill="#455A64"/>
<path d="M98.8968 294.589C98.8968 294.697 95.1847 294.776 90.6092 294.776C86.0338 294.776 82.3289 294.697 82.3289 294.589C82.3289 294.481 86.041 294.402 90.6092 294.402C95.1775 294.402 98.8968 294.489 98.8968 294.589Z" fill="#455A64"/>
<path d="M96.6954 294.331C96.5947 294.331 96.1486 272.267 95.6954 245.052C95.2422 217.836 94.976 195.758 95.0695 195.758C95.1631 195.758 95.6235 217.815 96.0695 245.044C96.5155 272.274 96.8033 294.331 96.6954 294.331Z" fill="#455A64"/>
<path d="M121.853 291.396C121.845 291.298 121.845 291.199 121.853 291.101V290.238C121.853 289.461 121.911 288.346 121.954 286.929C122.054 284.051 122.198 279.871 122.378 274.749C122.767 264.447 123.313 250.246 123.911 234.57C123.911 234.419 123.911 234.275 123.911 234.146V234.196C120.134 219.089 116.716 205.377 114.235 195.456L111.357 183.723C111.026 182.349 110.774 181.277 110.594 180.529C110.508 180.176 110.45 179.903 110.4 179.694C110.372 179.6 110.355 179.504 110.35 179.406C110.387 179.497 110.416 179.591 110.436 179.687C110.494 179.888 110.566 180.162 110.666 180.507C110.861 181.226 111.141 182.32 111.501 183.687C112.22 186.464 113.235 190.464 114.501 195.391C117.004 205.305 120.457 218.981 124.285 234.11V234.16C124.285 234.29 124.285 234.441 124.285 234.585C123.644 250.261 123.062 264.454 122.637 274.756C122.414 279.886 122.227 284.037 122.098 286.929C122.026 288.368 121.968 289.461 121.932 290.238C121.932 290.605 121.889 290.893 121.882 291.101C121.883 291.2 121.873 291.299 121.853 291.396Z" fill="#455A64"/>
<path d="M116.35 232.879C115.138 233.277 113.89 233.554 112.623 233.706C111.069 233.972 109.746 234.159 109.148 234.188V234.044C109.343 234.102 109.443 234.138 109.443 234.167C109.443 234.195 109.321 234.167 109.12 234.167H108.688L109.12 234.037C109.681 233.872 111.004 233.598 112.558 233.318C113.805 233.047 115.075 232.9 116.35 232.879Z" fill="#455A64"/>
<path d="M116.055 234.944C114.932 234.995 113.808 234.945 112.695 234.793C111.571 234.77 110.452 234.647 109.35 234.426C111.598 234.243 113.861 234.417 116.055 234.944Z" fill="#455A64"/>
<path opacity="0.2" d="M80.9188 180.551C81.2967 181.036 81.7726 181.436 82.3156 181.725C82.8585 182.014 83.4563 182.185 84.0698 182.227C85.3548 182.379 86.6546 182.355 87.933 182.155C96.1702 181.241 104.897 180.4 112.961 178.436C102.523 179.018 91.4941 178.824 81.0555 179.407L80.9476 180.299" fill="black"/>
<g opacity="0.2">
<path d="M91.674 195.262L97.5587 218.096L97.1486 196.226L91.674 195.262Z" fill="black"/>
</g>
</svg>
