<?xml version="1.0" standalone="no"?>
<!DOCTYPE svg PUBLIC "-//W3C//DTD SVG 20010904//EN"
 "http://www.w3.org/TR/2001/REC-SVG-20010904/DTD/svg10.dtd">
<svg version="1.0" xmlns="http://www.w3.org/2000/svg"
 width="640.000000pt" height="451.000000pt" viewBox="0 0 640.000000 451.000000"
 preserveAspectRatio="xMidYMid meet">

<g transform="translate(0.000000,451.000000) scale(0.100000,-0.100000)"
fill="#000000" stroke="none">
<path d="M2635 3898 c-100 -35 -153 -164 -105 -257 19 -38 72 -91 91 -91 5 0
9 -43 9 -96 0 -88 -2 -99 -25 -126 -17 -20 -25 -42 -25 -67 0 -24 9 -52 25
-75 23 -33 25 -47 25 -136 l0 -99 -122 -3 -123 -3 0 -105 0 -105 -93 -3 c-83
-2 -96 0 -125 20 -43 31 -105 31 -146 1 -29 -22 -38 -23 -231 -23 l-200 0 0
-114 0 -114 -35 -22 c-70 -43 -108 -135 -85 -207 38 -116 151 -172 255 -124
130 60 156 216 51 309 -20 17 -41 32 -46 32 -6 0 -10 23 -10 50 l0 50 135 0
c127 0 136 -1 171 -25 49 -33 103 -33 142 0 27 23 38 25 126 25 l96 0 0 -210
0 -210 -96 0 c-88 0 -99 2 -126 25 -73 62 -188 4 -188 -95 0 -99 101 -151 184
-95 33 22 47 25 131 25 l95 0 0 -210 0 -210 -90 0 c-79 0 -93 3 -126 25 -50
34 -112 34 -152 0 -26 -22 -39 -25 -109 -25 l-80 0 -24 37 c-34 52 -91 83
-157 83 -201 0 -261 -259 -81 -350 79 -41 187 -13 236 61 l26 39 78 0 c67 0
83 -4 115 -25 48 -33 99 -33 144 0 30 22 43 25 127 25 l92 0 3 -107 3 -108
118 -3 118 -3 -3 -107 -3 -107 -175 -2 -175 -3 -20 32 c-77 124 -265 108 -326
-27 -45 -98 -6 -199 96 -246 51 -24 99 -24 150 0 39 17 95 72 95 92 0 5 69 9
159 9 l159 0 30 -29 c38 -39 89 -48 136 -26 68 32 89 126 41 183 -23 28 -25
38 -25 131 l0 101 210 0 210 0 0 -100 c0 -90 -2 -102 -26 -137 -35 -52 -30
-112 15 -157 27 -27 39 -31 82 -31 46 0 54 4 85 37 43 48 46 97 9 152 -23 33
-25 47 -25 136 l0 100 210 0 210 0 0 -101 c0 -93 -2 -103 -25 -131 -47 -56
-27 -151 39 -182 45 -21 74 -20 114 4 61 38 79 133 32 175 -18 16 -20 31 -20
127 0 97 2 108 18 108 10 0 40 11 68 25 56 28 101 88 111 147 l6 38 96 0 c62
0 101 -4 109 -12 8 -8 12 -59 12 -164 0 -139 -2 -153 -18 -158 -34 -11 -74
-64 -87 -114 -31 -117 45 -229 163 -239 108 -10 202 77 202 187 0 59 -22 102
-74 146 l-46 38 0 144 c0 139 1 145 25 174 19 22 25 41 25 75 0 38 -5 50 -34
79 -28 28 -42 34 -76 34 -40 0 -100 -25 -100 -42 0 -4 -45 -8 -100 -8 l-100 0
0 210 0 210 95 0 c84 0 98 -3 131 -25 85 -58 184 -3 184 102 0 45 -20 77 -60
98 -44 23 -94 19 -128 -10 -27 -23 -38 -25 -126 -25 l-96 0 0 210 0 210 96 0
c89 0 98 -2 127 -26 27 -23 38 -25 81 -21 40 3 55 11 78 36 51 57 32 152 -36
185 -47 22 -77 20 -120 -9 -33 -22 -47 -25 -131 -25 l-95 0 0 110 0 110 -100
0 -100 0 0 108 c0 71 4 112 12 120 8 8 57 12 154 12 l141 0 26 -39 c86 -130
296 -92 338 61 36 135 -95 265 -230 228 -45 -12 -106 -60 -116 -91 -6 -18 -17
-19 -156 -19 -136 0 -152 2 -171 20 -49 45 -137 32 -175 -26 -25 -38 -23 -96
5 -133 19 -27 22 -42 22 -136 l0 -105 -207 2 -208 3 -3 94 c-3 88 -1 96 24
132 49 71 30 155 -43 186 -49 20 -99 9 -135 -29 -38 -41 -40 -112 -3 -156 23
-28 25 -38 25 -131 l0 -101 -210 0 -210 0 0 110 c0 61 4 110 9 110 13 0 41 64
41 93 0 13 -11 41 -25 61 -22 33 -25 47 -25 131 0 84 2 94 19 100 31 10 79 71
91 116 39 144 -104 276 -245 227z m111 -153 c25 -39 11 -65 -37 -65 -33 0 -41
4 -49 26 -13 32 -13 30 6 48 23 24 61 20 80 -9z m1672 -447 c21 -21 14 -66
-13 -84 -30 -19 -57 -12 -75 21 -11 20 -10 28 4 50 18 27 63 34 84 13z m-468
-1157 c0 -374 -3 -687 -6 -696 -18 -45 -24 -45 -739 -45 l-675 0 0 710 0 710
710 0 710 0 0 -679z m-2260 219 c11 -11 20 -26 20 -33 0 -24 -31 -57 -55 -57
-49 0 -72 55 -38 92 21 24 48 23 73 -2z m0 -770 c24 -24 25 -47 3 -72 -18 -20
-63 -24 -81 -6 -20 20 -14 65 10 82 30 21 44 20 68 -4z m448 -572 c18 -18 14
-63 -8 -83 -45 -41 -110 18 -76 70 18 27 63 34 84 13z m2280 0 c21 -21 14 -66
-13 -84 -30 -20 -58 -11 -74 22 -9 22 -9 31 4 50 17 26 62 33 83 12z"/>
<path d="M2905 2427 c-3 -7 -4 -156 -3 -332 l3 -320 333 -3 332 -2 0 335 0
335 -330 0 c-257 0 -332 -3 -335 -13z m533 -319 l-3 -203 -197 -3 -198 -2 0
205 0 205 200 0 200 0 -2 -202z"/>
<path d="M4668 2261 c-156 -99 -86 -341 99 -341 30 0 66 6 81 14 59 31 112
112 112 171 0 59 -53 140 -112 171 -47 25 -128 18 -180 -15z m133 -111 c38
-21 15 -100 -30 -100 -28 0 -53 25 -53 53 0 50 37 71 83 47z"/>
</g>
</svg>
