<svg width="23" height="23" viewBox="0 0 23 23" fill="none" xmlns="http://www.w3.org/2000/svg">
<path opacity="0.1" fill-rule="evenodd" clip-rule="evenodd" d="M0.674072 11.3578C0.674072 5.20696 5.66033 0.220703 11.8112 0.220703C17.962 0.220703 22.9483 5.20696 22.9483 11.3578C22.9483 17.5087 17.962 22.4949 11.8112 22.4949C5.66033 22.4949 0.674072 17.5087 0.674072 11.3578Z" fill="white"/>
<path fill-rule="evenodd" clip-rule="evenodd" d="M11.4777 9.27246L11.501 9.65783L11.1115 9.61064C9.69373 9.42975 8.45509 8.81631 7.40341 7.78604L6.88926 7.27483L6.75683 7.65234C6.47638 8.49386 6.65556 9.38257 7.23982 9.98028C7.55143 10.3106 7.48131 10.3578 6.94379 10.1612C6.75683 10.0983 6.59323 10.0511 6.57765 10.0747C6.52312 10.1297 6.71009 10.8454 6.8581 11.1285C7.06064 11.5218 7.47352 11.9071 7.92535 12.1352L8.30707 12.3161L7.85524 12.324C7.41899 12.324 7.40341 12.3318 7.45015 12.497C7.60596 13.0082 8.22138 13.5508 8.90692 13.7868L9.38991 13.9519L8.96924 14.2036C8.34602 14.5654 7.61375 14.7699 6.88147 14.7856C6.53091 14.7935 6.24268 14.8249 6.24268 14.8485C6.24268 14.9272 7.19308 15.3676 7.74618 15.5406C9.40549 16.0518 11.3764 15.8316 12.8565 14.9586C13.9082 14.3373 14.9599 13.1026 15.4507 11.9071C15.7155 11.2701 15.9804 10.1061 15.9804 9.54772C15.9804 9.18595 16.0038 9.13876 16.44 8.7062C16.6971 8.45453 16.9386 8.17927 16.9853 8.10062C17.0632 7.95119 17.0554 7.95119 16.6581 8.08489C15.996 8.32083 15.9025 8.28938 16.2297 7.93547C16.4712 7.6838 16.7594 7.22764 16.7594 7.09394C16.7594 7.07035 16.6426 7.10967 16.5101 7.18046C16.3699 7.2591 16.0583 7.37707 15.8246 7.44786L15.4039 7.58156L15.0222 7.32202C14.8119 7.18046 14.5158 7.02316 14.36 6.97597C13.9627 6.86587 13.3551 6.8816 12.9968 7.00743C12.023 7.36134 11.4076 8.27365 11.4777 9.27246Z" fill="white"/>
</svg>
