<svg width="308" height="230" viewBox="0 0 308 230" fill="none" xmlns="http://www.w3.org/2000/svg">
<path d="M153.669 229.664C219.49 229.664 272.848 226.549 272.848 222.706C272.848 218.863 219.49 215.748 153.669 215.748C87.8478 215.748 34.4894 218.863 34.4894 222.706C34.4894 226.549 87.8478 229.664 153.669 229.664Z" fill="#F5F5F5"/>
<path d="M214.675 67.3083L208.578 64.8496C208.578 64.8496 200.532 79.5219 198.227 80.2657C195.092 81.2737 188.601 84.0766 184.753 84.5684C184.23 85.1831 183.376 87.0947 183.456 87.7893C188.625 89.5165 199.985 87.2238 202.419 85.4166C207.957 81.3168 214.675 67.3083 214.675 67.3083Z" fill="#E58A7B"/>
<path d="M216.55 63.9701C217.687 68.1683 211.528 76.614 211.528 76.614L203.457 72.09C203.457 72.09 204.969 68.6171 206.814 65.0827C209.77 59.3723 215.253 59.1818 216.55 63.9701Z" fill="#4CAF4F"/>
<path opacity="0.2" d="M216.55 63.9701C217.687 68.1683 211.528 76.614 211.528 76.614L203.457 72.09C203.457 72.09 204.969 68.6171 206.814 65.0827C209.77 59.3723 215.253 59.1818 216.55 63.9701Z" fill="black"/>
<path opacity="0.2" d="M206.66 73.8981L209.838 75.6807L210.397 65.9258C208.547 67.3457 207.244 71.6238 206.66 73.8981Z" fill="black"/>
<path d="M211.239 60.8119C211.239 60.8119 204.957 74.7896 208.621 100.815H233.374C233.767 97.0163 232.464 78.4777 237.179 60.5783C234.463 60.0477 231.716 59.6965 228.954 59.5272C225.451 59.3243 221.94 59.3243 218.437 59.5272C216.009 59.7738 213.603 60.2032 211.239 60.8119Z" fill="#4CAF4F"/>
<path opacity="0.2" d="M211.239 60.8119C211.239 60.8119 204.957 74.7896 208.621 100.815H233.374C233.767 97.0163 232.464 78.4777 237.179 60.5783C234.463 60.0477 231.716 59.6965 228.954 59.5272C225.451 59.3243 221.94 59.3243 218.437 59.5272C216.009 59.7738 213.603 60.2032 211.239 60.8119Z" fill="black"/>
<g style="mix-blend-mode:multiply">
<path d="M205.498 223.259C205.461 223.923 214.847 224.457 226.459 224.457C238.07 224.457 247.523 223.923 247.56 223.259C247.597 222.595 238.217 222.066 226.6 222.066C214.983 222.066 205.541 222.601 205.498 223.259Z" fill="#E8ECF1"/>
</g>
<path d="M222.021 205.816L217.631 207.516L221.412 217.285L225.803 215.586L222.021 205.816Z" fill="#E58A7B"/>
<path d="M241.598 218.53H236.969L235.273 207.816H239.901L241.598 218.53Z" fill="#E58A7B"/>
<path d="M236.65 217.996H241.85C241.94 217.996 242.027 218.029 242.096 218.087C242.165 218.146 242.21 218.227 242.225 218.316L242.895 222.428C242.909 222.531 242.901 222.636 242.871 222.736C242.841 222.835 242.79 222.927 242.721 223.006C242.652 223.084 242.567 223.146 242.472 223.189C242.377 223.231 242.274 223.253 242.17 223.252C240.356 223.221 239.484 223.11 237.197 223.11C235.789 223.11 232.894 223.258 230.94 223.258C228.985 223.258 228.856 221.34 229.661 221.162C233.275 220.381 234.677 219.318 235.882 218.285C236.094 218.098 236.367 217.996 236.65 217.996Z" fill="#263238"/>
<path d="M221.283 216.41L226.2 214.972C226.288 214.947 226.382 214.953 226.466 214.989C226.549 215.025 226.619 215.088 226.661 215.169L228.505 218.857C228.548 218.95 228.57 219.052 228.57 219.155C228.569 219.258 228.546 219.359 228.502 219.453C228.458 219.546 228.394 219.628 228.315 219.694C228.236 219.76 228.144 219.808 228.044 219.834C226.256 220.326 225.057 220.627 222.82 221.279C221.277 221.727 219.703 222.459 218.179 222.944C217.122 223.282 214.638 223.295 213.354 223.295C211.454 223.295 211.03 221.291 211.848 221.199C213.907 220.971 214.184 221.076 215.321 220.504C217.181 219.691 218.868 218.526 220.287 217.074C220.555 216.769 220.898 216.54 221.283 216.41Z" fill="#263238"/>
<path d="M185.527 84.545L180.438 82.4121L178.342 88.0548C180.428 88.3726 182.55 88.3726 184.636 88.0548L185.527 84.545Z" fill="#E58A7B"/>
<path d="M176.651 82.2637L176.516 86.0132L178.342 88.0416L180.438 82.3989L176.651 82.2637Z" fill="#E58A7B"/>
<path d="M222.623 206.645L218.219 208.346L220.17 213.398L224.574 211.697L222.623 206.645Z" fill="#CF6F64"/>
<path d="M239.901 207.816H235.273L236.152 213.342H240.78L239.901 207.816Z" fill="#CF6F64"/>
<path opacity="0.2" d="M207.834 93.777C207.926 94.8896 208.031 96.0267 208.166 97.1946L226.569 91.2199C229.443 90.3682 231.941 88.5621 233.65 86.0997C233.724 84.4585 233.816 82.7313 233.958 80.9303C234.019 80.0574 234.093 79.16 234.173 78.2503C234.253 77.3406 234.363 76.3325 234.48 75.3613L207.834 93.777Z" fill="black"/>
<path d="M213.845 73.6161L213.231 73.5423C213.593 70.4689 215.886 68.0471 218.302 68.1086V68.7232C216.187 68.6802 214.171 70.8623 213.845 73.6161Z" fill="white"/>
<path d="M217.122 79.2879H217.017V78.6732C219.132 78.7531 221.117 76.5464 221.443 73.7988L222.057 73.8726C221.732 76.8783 219.513 79.2879 217.122 79.2879Z" fill="white"/>
<path d="M228.61 47.6816C227.743 51.0685 226.723 57.2706 228.954 59.5264C228.954 59.5264 227.393 62.9625 221.105 62.9625C215.358 62.9625 218.437 59.5264 218.437 59.5264C222.26 58.629 222.328 55.8384 221.824 53.1953L228.61 47.6816Z" fill="#E58A7B"/>
<path d="M225.844 49.9316L221.83 53.1956C221.954 53.8029 222.026 54.4199 222.045 55.0396C223.219 56.2075 225.573 53.2509 225.813 51.7388C225.935 51.1435 225.945 50.5307 225.844 49.9316Z" fill="#CF6F64"/>
<path d="M214.927 47.6382C215.207 48.1223 215.583 48.5436 216.032 48.8757C216.482 49.2078 216.995 49.4436 217.54 49.5683C219.015 49.8941 219.753 48.5357 219.347 47.1711C218.984 45.9417 217.773 44.2883 216.273 44.571C215.952 44.6372 215.651 44.7794 215.396 44.9857C215.141 45.192 214.94 45.4564 214.808 45.7568C214.676 46.0571 214.618 46.3847 214.639 46.712C214.66 47.0394 214.759 47.357 214.927 47.6382Z" fill="#CF6F64"/>
<path d="M217.368 36.802C215.069 37.8531 214.257 46.9872 217.146 48.3394C220.035 49.6917 221.719 34.8043 217.368 36.802Z" fill="#263238"/>
<path d="M229.311 42.5867C228.757 47.1722 228.696 49.8706 226.237 52.2187C225.475 52.9979 224.513 53.5514 223.456 53.8181C222.4 54.0847 221.29 54.0542 220.25 53.7299C219.209 53.4056 218.279 52.8 217.561 51.9802C216.843 51.1603 216.365 50.1579 216.181 49.0838C215.437 44.9655 216.464 38.1611 221.062 36.3355C222.028 35.9094 223.09 35.7494 224.139 35.8722C225.187 35.9949 226.184 36.396 227.026 37.0337C227.867 37.6714 228.523 38.5226 228.925 39.499C229.326 40.4754 229.46 41.5415 229.311 42.5867Z" fill="#E58A7B"/>
<path d="M221.756 39.175C225.162 38.3083 227.663 37.7183 226.766 40.5519C225.58 44.3383 224.154 48.0018 226.065 48.1677C227.233 48.2722 232.396 46.084 231.739 43.865C231.167 41.9349 233.583 41.4063 234.013 40.429C235.605 36.8884 231.05 37.3556 231.862 35.2042C232.673 33.0529 228.173 29.5861 225.715 31.3133C221.713 34.104 214.847 34.0609 218.455 29.4693C221.043 26.1931 216.427 26.8631 216.427 26.8631C216.427 26.8631 219.218 28.5166 214.522 31.0736C209.555 33.8028 214.11 41.1359 221.756 39.175Z" fill="#263238"/>
<path d="M231.118 47.6382C230.446 48.611 229.436 49.2989 228.284 49.5683C226.766 49.8941 226.182 48.5357 226.754 47.1711C227.264 45.9417 228.665 44.2883 230.116 44.571C231.567 44.8538 231.898 46.4335 231.118 47.6382Z" fill="#E58A7B"/>
<path d="M208.621 100.814C208.621 100.814 204.465 138.002 204.14 152.115C203.808 166.794 218.222 212.593 218.222 212.593L225.598 209.52C225.598 209.52 216.993 167.673 218.222 153.259C219.525 137.541 224.91 100.839 224.91 100.839L208.621 100.814Z" fill="#4CAF4F"/>
<path opacity="0.2" d="M218.947 111.024C215.634 117.896 217.865 131.487 219.66 139.539C220.343 133.853 221.154 127.682 221.922 121.972C221.849 113.194 221.166 106.414 218.947 111.024Z" fill="black"/>
<path d="M225.272 207.086C225.309 207.086 226.145 209.434 226.145 209.434L217.638 213.011L216.298 210.516L225.272 207.086Z" fill="#4CAF4F"/>
<path d="M217.404 100.814C217.404 100.814 220.582 136.183 222.684 149.429C224.996 163.942 234.056 212.273 234.056 212.273H242.532C242.532 212.273 237.455 165.116 236.496 150.745C235.451 135.156 233.374 100.814 233.374 100.814H217.404Z" fill="#4CAF4F"/>
<path d="M242.661 210.067C242.698 210.067 242.944 212.434 242.944 212.434H233.626L232.962 209.717L242.661 210.067Z" fill="#4CAF4F"/>
<path opacity="0.2" d="M239.416 207.265C239.397 207.265 239.378 207.258 239.363 207.246C239.349 207.234 239.339 207.216 239.336 207.197C239.287 206.767 234.708 164.17 233.847 151.262C232.913 137.26 231.032 106.2 231.013 105.887C231.012 105.876 231.014 105.866 231.017 105.856C231.02 105.847 231.026 105.838 231.033 105.83C231.04 105.823 231.048 105.817 231.057 105.813C231.067 105.809 231.077 105.807 231.087 105.807C231.107 105.807 231.127 105.814 231.142 105.828C231.156 105.842 231.165 105.86 231.167 105.88C231.167 106.194 233.066 137.229 234.001 151.256C234.861 164.164 239.441 206.73 239.484 207.191C239.485 207.201 239.485 207.212 239.482 207.222C239.48 207.232 239.475 207.241 239.469 207.249C239.462 207.257 239.454 207.264 239.445 207.269C239.436 207.274 239.426 207.277 239.416 207.277V207.265Z" fill="black"/>
<path d="M222.279 43.8656C222.279 44.2405 222.045 44.5417 221.799 44.5417C221.554 44.5417 221.375 44.2405 221.4 43.8656C221.424 43.4906 221.633 43.1895 221.879 43.1895C222.125 43.1895 222.303 43.4968 222.279 43.8656Z" fill="#263238"/>
<path d="M218.062 43.8656C218.062 44.2405 217.822 44.5417 217.583 44.5417C217.343 44.5417 217.158 44.2405 217.177 43.8656C217.195 43.4906 217.417 43.1895 217.663 43.1895C217.908 43.1895 218.087 43.4968 218.062 43.8656Z" fill="#263238"/>
<path d="M219.39 44.0547C218.877 45.1996 218.215 46.2722 217.423 47.2448C218.038 47.8595 219.187 47.5768 219.187 47.5768L219.39 44.0547Z" fill="#DF5753"/>
<path d="M219.5 49.1459C219.486 49.146 219.472 49.1431 219.459 49.1374C219.446 49.1318 219.434 49.1236 219.424 49.1132C219.414 49.1028 219.407 49.0906 219.402 49.0772C219.397 49.0638 219.395 49.0495 219.396 49.0353C219.398 49.0054 219.411 48.9772 219.432 48.9567C219.454 48.9361 219.483 48.9246 219.513 48.9247C219.983 48.9279 220.448 48.8258 220.873 48.6258C221.299 48.4259 221.674 48.1331 221.971 47.7691C221.993 47.7505 222.02 47.7402 222.048 47.7402C222.077 47.7402 222.104 47.7505 222.125 47.7691C222.145 47.7897 222.156 47.8172 222.156 47.8459C222.156 47.8746 222.145 47.9021 222.125 47.9227C221.807 48.3096 221.406 48.6203 220.951 48.832C220.497 49.0436 220.001 49.1509 219.5 49.1459Z" fill="#263238"/>
<path d="M223.029 42.7332C222.999 42.7483 222.967 42.7562 222.933 42.7562C222.9 42.7562 222.868 42.7483 222.838 42.7332C222.608 42.5845 222.347 42.4921 222.074 42.4632C221.802 42.4344 221.527 42.47 221.271 42.5672C221.246 42.5797 221.219 42.5871 221.191 42.5889C221.163 42.5907 221.135 42.5869 221.109 42.5777C221.082 42.5685 221.058 42.5542 221.037 42.5355C221.017 42.5168 221 42.4941 220.988 42.4689C220.965 42.4142 220.965 42.3527 220.986 42.2976C221.008 42.2425 221.051 42.1981 221.105 42.1738C221.426 42.0426 221.774 41.9908 222.12 42.0229C222.466 42.055 222.798 42.17 223.09 42.3582C223.114 42.3743 223.134 42.3948 223.149 42.4187C223.165 42.4425 223.176 42.4692 223.181 42.4973C223.186 42.5253 223.185 42.5541 223.179 42.5819C223.173 42.6097 223.162 42.6361 223.145 42.6594C223.114 42.6947 223.074 42.7203 223.029 42.7332Z" fill="#263238"/>
<path d="M216.433 41.5045C216.4 41.4965 216.371 41.4795 216.347 41.4553C216.327 41.4353 216.31 41.4113 216.299 41.385C216.288 41.3586 216.283 41.3302 216.283 41.3016C216.283 41.273 216.288 41.2447 216.299 41.2183C216.31 41.1919 216.327 41.168 216.347 41.148C216.583 40.8837 216.876 40.6775 217.205 40.5452C217.533 40.413 217.887 40.3585 218.24 40.3858C218.269 40.3901 218.296 40.4002 218.32 40.4155C218.344 40.4307 218.365 40.4508 218.381 40.4744C218.397 40.4981 218.408 40.5248 218.414 40.5528C218.419 40.5809 218.419 40.6098 218.412 40.6378C218.399 40.6947 218.366 40.7448 218.318 40.7788C218.271 40.8127 218.212 40.8282 218.154 40.8222C217.875 40.8046 217.595 40.8508 217.337 40.9573C217.078 41.0638 216.847 41.2278 216.661 41.4368C216.633 41.468 216.597 41.4907 216.556 41.5027C216.516 41.5146 216.474 41.5152 216.433 41.5045Z" fill="#263238"/>
<path d="M239.557 66.6265L233.165 64.9238C233.165 64.9238 226.895 80.3583 224.676 81.3602C221.664 82.7371 214.036 87.507 210.791 89.7629C210.612 90.5312 210.754 92.5658 211.159 93.1251C216.691 92.117 227.282 88.0418 229.495 85.9703C234.542 81.2434 239.557 66.6265 239.557 66.6265Z" fill="#E58A7B"/>
<path d="M235.095 218.807C234.783 218.832 234.472 218.747 234.216 218.568C234.137 218.496 234.077 218.405 234.044 218.304C234.011 218.203 234.004 218.094 234.025 217.99C234.029 217.924 234.051 217.861 234.087 217.807C234.124 217.753 234.175 217.71 234.234 217.682C234.751 217.418 236.195 218.334 236.361 218.438C236.379 218.45 236.393 218.467 236.401 218.487C236.409 218.507 236.41 218.529 236.404 218.549C236.399 218.571 236.388 218.59 236.373 218.606C236.358 218.623 236.339 218.635 236.318 218.641C235.917 218.74 235.507 218.795 235.095 218.807ZM234.48 217.848C234.434 217.838 234.385 217.838 234.339 217.848C234.315 217.86 234.296 217.879 234.282 217.902C234.269 217.925 234.263 217.951 234.265 217.977C234.249 218.049 234.251 218.124 234.273 218.194C234.294 218.264 234.334 218.327 234.388 218.377C234.628 218.592 235.23 218.617 236.023 218.463C235.551 218.152 235.019 217.943 234.462 217.848H234.48Z" fill="#4CAF4F"/>
<path d="M236.287 218.641C236.271 218.646 236.254 218.646 236.238 218.641C235.777 218.383 234.91 217.369 235.039 216.853C235.059 216.771 235.105 216.698 235.171 216.645C235.237 216.593 235.318 216.564 235.402 216.564C235.485 216.553 235.568 216.56 235.648 216.584C235.728 216.608 235.801 216.65 235.863 216.705C236.373 217.141 236.404 218.481 236.404 218.549C236.407 218.569 236.403 218.59 236.393 218.608C236.383 218.626 236.368 218.639 236.349 218.647C236.328 218.652 236.307 218.649 236.287 218.641ZM235.464 216.767H235.421C235.279 216.767 235.261 216.846 235.255 216.877C235.181 217.178 235.728 217.947 236.183 218.309C236.181 217.79 236.02 217.284 235.722 216.859C235.65 216.797 235.558 216.764 235.464 216.767Z" fill="#4CAF4F"/>
<path d="M218.775 218.039C218.399 218.17 217.99 218.17 217.613 218.039C217.528 217.993 217.456 217.926 217.403 217.844C217.35 217.763 217.319 217.669 217.312 217.572C217.304 217.511 217.312 217.45 217.335 217.393C217.357 217.336 217.394 217.285 217.441 217.246C217.933 216.804 219.943 217.246 220.17 217.332C220.192 217.338 220.211 217.351 220.225 217.369C220.238 217.387 220.245 217.408 220.244 217.431C220.245 217.454 220.239 217.477 220.227 217.496C220.215 217.516 220.198 217.532 220.177 217.541C219.724 217.746 219.255 217.912 218.775 218.039ZM217.773 217.308C217.703 217.322 217.637 217.354 217.583 217.4C217.563 217.415 217.548 217.435 217.539 217.457C217.531 217.48 217.529 217.505 217.534 217.529C217.538 217.594 217.558 217.656 217.592 217.711C217.626 217.766 217.674 217.811 217.73 217.843C218.056 218.015 218.812 217.88 219.789 217.468C219.131 217.302 218.45 217.248 217.773 217.308Z" fill="#4CAF4F"/>
<path d="M220.158 217.541H220.109C219.494 217.43 218.265 216.723 218.228 216.195C218.228 216.072 218.283 215.9 218.578 215.801C218.678 215.766 218.784 215.751 218.889 215.757C218.995 215.764 219.098 215.791 219.193 215.838C219.857 216.164 220.207 217.344 220.226 217.4C220.23 217.418 220.229 217.438 220.224 217.456C220.219 217.474 220.209 217.491 220.195 217.504C220.186 217.519 220.173 217.532 220.158 217.541ZM218.701 215.986H218.64C218.449 216.053 218.449 216.133 218.449 216.158C218.449 216.478 219.341 217.062 219.961 217.258C219.818 216.765 219.516 216.332 219.101 216.029C218.977 215.966 218.835 215.951 218.701 215.986Z" fill="#4CAF4F"/>
<path d="M211.313 89.4004L204.902 92.3508L204.158 94.1949L206.525 95.7869C206.525 95.7869 210.95 95.3074 212.21 92.4615L211.313 89.4004Z" fill="#E58A7B"/>
<path d="M211.583 93.2295C211.44 91.9977 211.033 90.8112 210.391 89.7505L211.405 88.9883C212.168 90.2104 212.655 91.5845 212.831 93.0144L211.583 93.2295Z" fill="#263238"/>
<path d="M212.678 90.2733C212.813 90.4864 212.88 90.7362 212.868 90.9885C212.857 91.2409 212.768 91.4836 212.614 91.6836C212.459 91.8837 212.247 92.0313 212.006 92.1065C211.765 92.1817 211.506 92.1808 211.266 92.1039C211.025 92.0269 210.814 91.8778 210.661 91.6766C210.508 91.4755 210.421 91.2322 210.412 90.9797C210.402 90.7273 210.47 90.478 210.607 90.2658C210.745 90.0536 210.944 89.8888 211.178 89.7938C211.44 89.6599 211.745 89.6352 212.026 89.725C212.307 89.8148 212.541 90.0118 212.678 90.2733Z" fill="#263238"/>
<path d="M200.568 94.7365L201.423 95.597L207.176 93.1383L204.902 92.3516L200.568 94.7365Z" fill="#E58A7B"/>
<path opacity="0.2" d="M225.272 207.086C225.309 207.086 226.145 209.434 226.145 209.434L217.638 213.011L216.298 210.516L225.272 207.086Z" fill="black"/>
<path opacity="0.2" d="M242.661 210.067C242.698 210.067 242.944 212.434 242.944 212.434H233.626L232.962 209.717L242.661 210.067Z" fill="black"/>
<path d="M241.223 64.8552C242.913 70.3074 236.306 77.7634 236.306 77.7634L227.178 74.0385C228.26 70.8871 229.507 67.7951 230.915 64.7753C233.718 58.733 239.514 59.3539 241.223 64.8552Z" fill="#4CAF4F"/>
<path opacity="0.2" d="M241.223 64.8552C242.913 70.3074 236.306 77.7634 236.306 77.7634L227.178 74.0385C228.26 70.8871 229.507 67.7951 230.915 64.7753C233.718 58.733 239.514 59.3539 241.223 64.8552Z" fill="black"/>
<path d="M150.522 10.2305H146.594V10.8636H150.522V10.2305Z" fill="#4CAF4F"/>
<path d="M201.366 35.2885L200.891 45.8379L201.524 45.8664L201.999 35.317L201.366 35.2885Z" fill="#4CAF4F"/>
<path d="M200.144 13.0703H127.613L120.864 164.108H193.395L200.144 13.0703Z" fill="#4CAF4F"/>
<path opacity="0.56" d="M197.981 15.1484H125.449L118.7 166.186H191.232L197.981 15.1484Z" fill="#FAFAFA"/>
<path opacity="0.07" d="M195.817 17.2188H123.285L116.53 168.257H189.062L195.817 17.2188Z" fill="#4CAF4F"/>
<path d="M187.562 83.0938H125.652L125.136 94.6496H187.046L187.562 83.0938Z" fill="white"/>
<path d="M159.699 74.6602H126.027L125.799 79.8296H159.471L159.699 74.6602Z" fill="#4CAF4F"/>
<path d="M186.167 114.283H124.257L123.74 125.839H185.65L186.167 114.283Z" fill="white"/>
<path opacity="0.47" d="M174.814 141.445H133.182L132.561 155.294H174.193L174.814 141.445Z" fill="#4CAF4F"/>
<path d="M172.029 157.444H130.397C130.379 157.449 130.36 157.449 130.342 157.444C130.336 157.426 130.336 157.407 130.342 157.389L130.957 143.534C130.957 143.525 130.959 143.516 130.962 143.507C130.966 143.498 130.972 143.491 130.979 143.484C130.986 143.478 130.994 143.473 131.003 143.47C131.012 143.467 131.021 143.466 131.03 143.467H172.662C172.67 143.463 172.678 143.461 172.687 143.461C172.695 143.461 172.704 143.463 172.712 143.467C172.716 143.474 172.718 143.483 172.718 143.491C172.718 143.5 172.716 143.508 172.712 143.516L172.109 157.401C172.102 157.416 172.09 157.428 172.076 157.435C172.062 157.443 172.045 157.446 172.029 157.444ZM130.471 157.297H171.955L172.57 143.59H131.086L130.471 157.297Z" fill="white"/>
<path d="M152.427 105.85H124.632L124.404 111.025H152.194L152.427 105.85Z" fill="#4CAF4F"/>
<path d="M174.021 45.7643C173.862 49.1274 172.666 52.3589 170.597 55.0151C169.065 57.0215 167.095 58.6503 164.836 59.7766C162.577 60.9028 160.09 61.4966 157.566 61.5122C155.526 61.5278 153.505 61.1256 151.627 60.3304C149.748 59.5352 148.052 58.3638 146.644 56.8885C145.235 55.4132 144.144 53.6651 143.436 51.7519C142.729 49.8388 142.421 47.801 142.531 45.7643C142.747 41.5378 144.57 37.5535 147.626 34.6262C150.682 31.699 154.742 30.0499 158.973 30.0163C161.015 29.9972 163.038 30.397 164.919 31.1908C166.799 31.9846 168.497 33.1557 169.908 34.6316C171.318 36.1074 172.41 37.8568 173.118 39.7716C173.825 41.6865 174.133 43.726 174.021 45.7643Z" fill="white"/>
<path d="M175.502 33.3108C175.462 34.2051 175.144 35.0645 174.592 35.7695C174.184 36.3024 173.66 36.735 173.059 37.0344C172.458 37.3337 171.797 37.4919 171.126 37.4968C170.475 37.5007 169.834 37.3454 169.257 37.0443C168.681 36.7432 168.187 36.3055 167.819 35.7695C167.331 35.0452 167.09 34.1831 167.13 33.3108C167.19 32.1887 167.675 31.1315 168.487 30.3548C169.299 29.5781 170.377 29.1404 171.501 29.131C172.043 29.1261 172.58 29.2322 173.08 29.4428C173.579 29.6534 174.03 29.9641 174.405 30.3557C174.78 30.7473 175.071 31.2115 175.259 31.7197C175.448 32.228 175.531 32.7695 175.502 33.3108Z" fill="#4CAF4F"/>
<path d="M132.321 88.8714C132.292 89.3667 132.075 89.8325 131.716 90.1747C131.357 90.5169 130.881 90.7101 130.385 90.7155C130.145 90.7183 129.908 90.672 129.687 90.5794C129.466 90.4867 129.266 90.3498 129.1 90.1769C128.934 90.0041 128.806 89.7991 128.722 89.5745C128.639 89.35 128.602 89.1107 128.615 88.8714C128.641 88.3751 128.857 87.9077 129.217 87.5649C129.576 87.2221 130.054 87.0298 130.551 87.0274C130.79 87.0254 131.027 87.0724 131.248 87.1653C131.468 87.2582 131.668 87.3952 131.833 87.5679C131.999 87.7405 132.128 87.9452 132.212 88.1693C132.296 88.3935 132.333 88.6324 132.321 88.8714Z" fill="#263238"/>
<path d="M140.607 88.8715C140.579 89.3673 140.363 89.8339 140.003 90.1764C139.644 90.5189 139.167 90.7116 138.671 90.7155C138.432 90.7175 138.195 90.6706 137.975 90.5776C137.754 90.4846 137.555 90.3475 137.39 90.1748C137.225 90.002 137.097 89.7973 137.014 89.5731C136.93 89.349 136.894 89.1102 136.907 88.8715C136.933 88.3762 137.148 87.9097 137.506 87.5671C137.865 87.2244 138.341 87.0314 138.837 87.0275C139.076 87.0246 139.314 87.0709 139.535 87.1636C139.756 87.2562 139.955 87.3931 140.121 87.566C140.287 87.7388 140.416 87.9438 140.499 88.1684C140.583 88.3929 140.62 88.6322 140.607 88.8715Z" fill="#263238"/>
<path d="M148.899 88.8715C148.871 89.3673 148.655 89.8339 148.295 90.1764C147.936 90.5189 147.459 90.7116 146.963 90.7155C146.723 90.7175 146.486 90.6706 146.266 90.5776C146.045 90.4847 145.846 90.3477 145.68 90.1751C145.514 90.0024 145.386 89.7978 145.302 89.5736C145.218 89.3495 145.181 89.1105 145.192 88.8715C145.221 88.3757 145.436 87.9091 145.796 87.5666C146.156 87.2241 146.632 87.0314 147.129 87.0275C147.368 87.0246 147.606 87.0709 147.827 87.1636C148.048 87.2562 148.247 87.3931 148.413 87.566C148.579 87.7388 148.708 87.9438 148.791 88.1684C148.875 88.3929 148.912 88.6322 148.899 88.8715Z" fill="#263238"/>
<path d="M130.926 120.061C130.896 120.556 130.68 121.022 130.321 121.364C129.962 121.706 129.486 121.9 128.99 121.905C128.75 121.907 128.513 121.86 128.293 121.767C128.072 121.674 127.873 121.537 127.707 121.364C127.541 121.192 127.413 120.987 127.329 120.763C127.245 120.539 127.208 120.3 127.219 120.061C127.247 119.565 127.463 119.099 127.823 118.756C128.183 118.414 128.659 118.221 129.156 118.217C129.395 118.215 129.632 118.262 129.853 118.355C130.073 118.448 130.272 118.585 130.438 118.757C130.604 118.93 130.733 119.135 130.817 119.359C130.9 119.583 130.938 119.822 130.926 120.061Z" fill="#263238"/>
<path d="M139.212 120.061C139.184 120.556 138.969 121.021 138.61 121.364C138.252 121.706 137.777 121.899 137.282 121.905C137.042 121.908 136.804 121.861 136.583 121.769C136.363 121.676 136.163 121.539 135.997 121.366C135.831 121.194 135.702 120.989 135.619 120.764C135.535 120.539 135.499 120.3 135.511 120.061C135.539 119.565 135.755 119.099 136.115 118.756C136.474 118.414 136.951 118.221 137.448 118.217C137.687 118.215 137.924 118.262 138.144 118.355C138.364 118.448 138.563 118.585 138.728 118.758C138.893 118.93 139.022 119.135 139.105 119.359C139.188 119.583 139.224 119.822 139.212 120.061Z" fill="#263238"/>
<path d="M147.522 120.061C147.494 120.557 147.278 121.023 146.919 121.366C146.559 121.708 146.082 121.901 145.586 121.905C145.347 121.906 145.11 121.859 144.89 121.765C144.67 121.672 144.471 121.535 144.305 121.363C144.14 121.19 144.011 120.986 143.927 120.762C143.843 120.538 143.805 120.3 143.816 120.061C143.845 119.566 144.061 119.1 144.421 118.758C144.78 118.416 145.256 118.222 145.752 118.217C145.991 118.214 146.229 118.26 146.45 118.353C146.671 118.446 146.87 118.583 147.036 118.755C147.202 118.928 147.331 119.133 147.415 119.358C147.498 119.582 147.535 119.822 147.522 120.061Z" fill="#263238"/>
<path d="M155.796 120.061C155.766 120.556 155.55 121.022 155.191 121.364C154.831 121.706 154.356 121.9 153.859 121.905C153.62 121.906 153.384 121.858 153.163 121.765C152.943 121.672 152.744 121.535 152.579 121.363C152.413 121.19 152.284 120.986 152.2 120.762C152.116 120.538 152.078 120.3 152.089 120.061C152.119 119.566 152.335 119.1 152.694 118.758C153.053 118.415 153.529 118.222 154.025 118.217C154.265 118.215 154.502 118.262 154.722 118.355C154.943 118.448 155.142 118.585 155.308 118.757C155.474 118.93 155.602 119.135 155.686 119.359C155.77 119.583 155.807 119.822 155.796 120.061Z" fill="#263238"/>
<path d="M164.118 120.061C164.089 120.556 163.873 121.022 163.513 121.364C163.154 121.706 162.678 121.9 162.182 121.905C161.943 121.908 161.705 121.861 161.484 121.769C161.263 121.676 161.063 121.539 160.897 121.366C160.732 121.194 160.603 120.989 160.519 120.764C160.436 120.539 160.399 120.3 160.412 120.061C160.44 119.565 160.656 119.099 161.015 118.756C161.375 118.414 161.851 118.221 162.348 118.217C162.587 118.215 162.825 118.262 163.045 118.355C163.266 118.448 163.465 118.585 163.631 118.757C163.796 118.93 163.925 119.135 164.009 119.359C164.093 119.583 164.13 119.822 164.118 120.061Z" fill="#263238"/>
<path d="M162.86 44.9439C165.433 42.428 165.57 38.3953 163.165 35.9366C160.761 33.478 156.726 33.5244 154.153 36.0403C151.581 38.5562 151.444 42.5888 153.848 45.0475C156.253 47.5062 160.288 47.4598 162.86 44.9439Z" fill="#4CAF4F"/>
<path d="M170.597 55.0151C169.066 57.0214 167.095 58.6503 164.836 59.7765C162.577 60.9028 160.09 61.4965 157.566 61.5122C155.118 61.5329 152.703 60.9511 150.534 59.8181C148.364 58.685 146.506 57.0355 145.125 55.0151C148.112 52.04 152.839 50.0977 158.076 50.0977C163.313 50.0977 167.874 52.04 170.597 55.0151Z" fill="#4CAF4F"/>
<path opacity="0.1" d="M162.86 44.9439C165.433 42.428 165.57 38.3953 163.165 35.9366C160.761 33.478 156.726 33.5244 154.153 36.0403C151.581 38.5562 151.444 42.5888 153.848 45.0475C156.253 47.5062 160.288 47.4598 162.86 44.9439Z" fill="white"/>
<path opacity="0.1" d="M170.597 55.0151C169.066 57.0214 167.095 58.6503 164.836 59.7765C162.577 60.9028 160.09 61.4965 157.566 61.5122C155.118 61.5329 152.703 60.9511 150.534 59.8181C148.364 58.685 146.506 57.0355 145.125 55.0151C148.112 52.04 152.839 50.0977 158.076 50.0977C163.313 50.0977 167.874 52.04 170.597 55.0151Z" fill="white"/>
<path d="M80.1597 97.4332C79.5758 98.7118 78.9611 100.119 78.4264 101.484C77.8916 102.849 77.3445 104.256 76.8712 105.658C75.9049 108.42 75.1688 111.257 74.6707 114.14L74.5355 115.044C74.5226 115.199 74.5371 115.355 74.5785 115.505C74.7236 116.014 74.952 116.496 75.2546 116.931C76.044 118.056 76.9597 119.087 77.9838 120.004C79.0635 121.008 80.1961 121.954 81.3768 122.838C82.557 123.747 83.7986 124.633 85.0218 125.469L83.8724 127.626C80.9516 126.353 78.1792 124.764 75.605 122.887C74.2317 121.885 72.9922 120.712 71.917 119.396C71.2796 118.612 70.7826 117.724 70.4479 116.771C70.2533 116.176 70.1537 115.553 70.1528 114.927C70.1528 114.779 70.1528 114.564 70.1528 114.46V114.159L70.2143 113.544C70.5667 110.341 71.2401 107.183 72.2243 104.115C72.7037 102.603 73.2139 101.097 73.7979 99.6276C74.3818 98.1586 74.9842 96.7202 75.7279 95.2266L80.1597 97.4332Z" fill="#E58A7B"/>
<path d="M84.1551 125.087L88.5009 122.887L87.376 127.657C87.376 127.657 84.3949 128.493 83.0118 127.042L84.1551 125.087Z" fill="#E58A7B"/>
<path d="M92.4779 123.667L91.3223 127.614L87.3761 127.657L88.501 122.887L92.4779 123.667Z" fill="#E58A7B"/>
<path d="M98.6123 74.4199C98.8447 75.2718 99.1683 76.0961 99.5773 76.8786C99.4578 77.0141 99.3039 77.1148 99.1318 77.17C98.9598 77.2252 98.776 77.2328 98.6 77.1921L98.6123 74.4199Z" fill="#DF5753"/>
<path d="M98.4832 74.4567C98.7378 74.4567 98.9442 74.1402 98.9442 73.7499C98.9442 73.3595 98.7378 73.043 98.4832 73.043C98.2286 73.043 98.0222 73.3595 98.0222 73.7499C98.0222 74.1402 98.2286 74.4567 98.4832 74.4567Z" fill="#263238"/>
<path d="M98.348 73.067L99.2823 72.8027C99.2823 72.8027 98.8275 73.5281 98.348 73.067Z" fill="#263238"/>
<path d="M86.6077 78.9316C87.167 81.7899 87.7264 87.0331 85.7225 88.9447C85.7225 88.9447 86.5093 91.846 91.8263 91.846C97.6718 91.846 94.6169 88.9447 94.6169 88.9447C91.4267 88.1825 91.5066 85.816 92.066 83.5909L86.6077 78.9316Z" fill="#E58A7B"/>
<path d="M85.0526 72.4164C85.3476 77.1924 85.3722 79.2208 87.7817 81.6734C91.4145 85.3614 97.217 83.96 98.3541 79.2147C99.3807 74.912 98.7291 67.8309 94.0514 65.9316C93.0246 65.5086 91.9069 65.3545 90.804 65.484C89.7011 65.6134 88.6495 66.0221 87.7485 66.6713C86.8476 67.3205 86.1272 68.1889 85.6554 69.1942C85.1837 70.1995 84.9762 71.3085 85.0526 72.4164Z" fill="#E58A7B"/>
<path d="M85.5259 67.045C83.1287 67.9178 79.9324 67.2663 81.1863 74.6608C82.514 82.4918 80.4733 85.0672 80.4733 85.0672C80.4733 85.0672 89.5643 87.0035 98.8459 84.9505C98.8459 84.9505 96.0123 79.9962 96.8052 76.345C97.8194 71.7349 97.0203 70.0323 97.0203 70.0323C97.0203 70.0323 88.8943 65.8156 85.5259 67.045Z" fill="#263238"/>
<path d="M95.668 74.9051C95.6705 75.8133 95.9305 76.7021 96.4179 77.4683C97.0694 78.4641 97.8378 78.083 98.0283 77.0258C98.2004 76.0976 98.0713 74.4564 97.2415 73.8172C96.4117 73.1779 95.6803 73.8049 95.668 74.9051Z" fill="#E58A7B"/>
<path d="M83.4421 67.8494C82.7537 65.9132 86.0361 62.932 92.9819 64.1614C99.9277 65.3907 100.229 71.1748 100.229 71.1748L98.8275 69.5029L98.8889 71.2609L91.7525 72.6316L83.4421 67.8494Z" fill="#263238"/>
<path d="M84.0322 89.2702C83.9912 88.9895 84.0614 88.704 84.2279 88.4743C84.3944 88.2447 84.644 88.0891 84.9235 88.0408C87.0871 87.6843 92.0045 86.959 94.4755 87.3032C96.3195 87.5614 96.799 88.6309 96.8789 89.5099C96.8914 89.6638 96.8708 89.8186 96.8185 89.9639C96.7662 90.1092 96.6834 90.2416 96.5757 90.3523C96.468 90.4629 96.3378 90.5492 96.194 90.6053C96.0501 90.6615 95.8959 90.6862 95.7417 90.6778L85.0587 90.1983C84.8068 90.1856 84.5671 90.0863 84.38 89.9172C84.193 89.748 84.0701 89.5195 84.0322 89.2702Z" fill="#4CAF4F"/>
<path opacity="0.6" d="M84.0322 89.2702C83.9912 88.9895 84.0614 88.704 84.2279 88.4743C84.3944 88.2447 84.644 88.0891 84.9235 88.0408C87.0871 87.6843 92.0045 86.959 94.4755 87.3032C96.3195 87.5614 96.799 88.6309 96.8789 89.5099C96.8914 89.6638 96.8708 89.8186 96.8185 89.9639C96.7662 90.1092 96.6834 90.2416 96.5757 90.3523C96.468 90.4629 96.3378 90.5492 96.194 90.6053C96.0501 90.6615 95.8959 90.6862 95.7417 90.6778L85.0587 90.1983C84.8068 90.1856 84.5671 90.0863 84.38 89.9172C84.193 89.748 84.0701 89.5195 84.0322 89.2702Z" fill="black"/>
<path d="M90.2097 196.655L94.1744 199.408L100.807 190.416L96.8421 187.668L90.2097 196.655Z" fill="#E58A7B"/>
<path d="M80.965 196.476L85.1509 198.861L91.0211 189.352L86.8351 186.967L80.965 196.476Z" fill="#E58A7B"/>
<path d="M100.801 190.416L97.383 195.05L93.4183 192.303L96.8359 187.668L100.801 190.416Z" fill="#CF6F64"/>
<path d="M86.829 186.967L91.0211 189.358L87.9969 194.257L83.8048 191.866L86.829 186.967Z" fill="#CF6F64"/>
<path d="M93.5536 119.291C93.5536 119.291 109.031 138.795 106.124 157.45C103.782 172.516 90.1975 192.917 90.1975 192.917L83.811 189.745C88.3126 180.725 92.1541 171.39 95.3054 161.814C96.2772 158.841 96.5608 155.686 96.1349 152.588C95.709 149.489 94.5846 146.528 92.8467 143.927C85.0035 132.476 72.4395 139.293 80.8913 119.291H93.5536Z" fill="#4CAF4F"/>
<path opacity="0.6" d="M93.5536 119.291C93.5536 119.291 109.031 138.795 106.124 157.45C103.782 172.516 90.1975 192.917 90.1975 192.917L83.811 189.745C88.3126 180.725 92.1541 171.39 95.3054 161.814C96.2772 158.841 96.5608 155.686 96.1349 152.588C95.709 149.489 94.5846 146.528 92.8467 143.927C85.0035 132.476 72.4395 139.293 80.8913 119.291H93.5536Z" fill="black"/>
<path opacity="0.4" d="M101.145 131.819L98.895 129.582C98.895 129.76 103.253 156.665 104.476 164.225C105.198 162.017 105.751 159.756 106.13 157.464C107.568 148.311 104.562 138.962 101.145 131.819Z" fill="black"/>
<path d="M100.462 119.291C100.462 119.291 119.099 143.804 119.628 158.501C120.064 170.795 99.3438 194.613 99.3438 194.613L93.32 190.716C93.32 190.716 105.448 173.8 108.502 159.983C107.322 146.288 82.3665 119.291 82.3665 119.291H100.462Z" fill="#4CAF4F"/>
<path opacity="0.6" d="M100.462 119.291C100.462 119.291 119.099 143.804 119.628 158.501C120.064 170.795 99.3438 194.613 99.3438 194.613L93.32 190.716C93.32 190.716 105.448 173.8 108.502 159.983C107.322 146.288 82.3665 119.291 82.3665 119.291H100.462Z" fill="black"/>
<path d="M77.406 90.0396C75.4144 90.5129 73.5028 97.7538 73.5028 97.7538L81.2907 102.954C81.2907 102.954 83.8847 97.2252 82.975 94.7173C82.0345 92.105 79.9077 89.4434 77.406 90.0396Z" fill="#4CAF4F"/>
<path opacity="0.2" d="M78.9304 94.7051L78.3895 101.018L81.2847 102.96C82.084 101.16 82.6759 99.2756 83.0488 97.342L78.9304 94.7051Z" fill="black"/>
<path d="M102.768 90.1799C102.768 90.1799 105.066 90.9851 100.462 119.285H80.8789C81.2108 111.294 81.217 106.377 77.406 90.0385C80.1481 89.4734 82.9276 89.1077 85.7226 88.9444C88.6835 88.7321 91.6559 88.7321 94.6169 88.9444C98.4402 89.2948 102.768 90.1799 102.768 90.1799Z" fill="#4CAF4F"/>
<path d="M104.759 94.7041C105.202 95.9335 105.669 97.2551 106.161 98.5274C106.652 99.7998 107.119 101.109 107.617 102.4L109.123 106.26L109.504 107.225L109.701 107.705L109.793 107.944C109.793 107.987 109.793 107.987 109.793 107.981C109.681 107.823 109.534 107.692 109.363 107.6C109.12 107.457 108.846 107.375 108.564 107.36C108.33 107.353 108.097 107.397 107.882 107.489C107.599 107.618 107.599 107.674 107.605 107.668C107.656 107.627 107.702 107.579 107.74 107.526C108.081 107.08 108.375 106.6 108.619 106.094C108.908 105.529 109.185 104.926 109.461 104.318C110.002 103.088 110.5 101.816 110.998 100.531C111.496 99.2466 111.969 97.9496 112.43 96.6404L113.832 92.7188L116.198 93.3334C115.731 96.1363 115.129 98.8655 114.403 101.644C114.053 103.027 113.641 104.398 113.174 105.781C112.94 106.475 112.682 107.164 112.387 107.87C112.08 108.638 111.701 109.374 111.256 110.071C111.093 110.305 110.912 110.527 110.715 110.735C110.401 111.074 110.02 111.344 109.597 111.528C109.22 111.689 108.813 111.765 108.404 111.749C107.946 111.732 107.5 111.599 107.107 111.362C106.644 111.073 106.26 110.674 105.988 110.2C105.896 110.04 105.816 109.88 105.761 109.764L105.644 109.53L105.411 109.051L104.943 108.098C104.329 106.819 103.714 105.529 103.179 104.232C102.645 102.935 102.079 101.619 101.55 100.298C101.022 98.9761 100.549 97.6546 100.1 96.2285L104.759 94.7041Z" fill="#E58A7B"/>
<path d="M102.768 90.1803C105.122 90.7396 107.771 97.6977 107.771 97.6977L100.77 103.654C100.77 103.654 96.2397 96.0689 97.1556 93.5671C98.1083 90.9609 99.6942 89.4488 102.768 90.1803Z" fill="#4CAF4F"/>
<path d="M114.944 90.5179L117.403 88.4648L119.112 91.1264L117.852 93.3454C117.852 93.3454 115.848 95.1894 114.077 94.2489C113.797 93.6174 113.729 92.9114 113.886 92.2381C114.042 91.5648 114.414 90.9609 114.944 90.5179Z" fill="#E58A7B"/>
<path d="M121.841 88.471L121.657 89.141L117.766 89.7925L117.385 88.4648L121.841 88.471Z" fill="#E58A7B"/>
<path d="M99.8232 194.928L92.8036 190.391L94.0637 188.203L101.95 193.053L99.8232 194.928Z" fill="#4CAF4F"/>
<path d="M87.8985 198.542C87.2826 198.467 86.6908 198.257 86.1651 197.928C86.1434 197.92 86.1246 197.906 86.1113 197.887C86.098 197.868 86.0908 197.846 86.0908 197.823C86.0908 197.8 86.098 197.778 86.1113 197.759C86.1246 197.74 86.1434 197.726 86.1651 197.719C86.3556 197.657 88.0091 197.147 88.4886 197.54C88.5425 197.585 88.5834 197.643 88.6072 197.709C88.631 197.775 88.6367 197.846 88.6238 197.915C88.6153 198.026 88.5786 198.133 88.5173 198.225C88.456 198.318 88.372 198.393 88.2734 198.444C88.1583 198.507 88.0296 198.54 87.8985 198.542ZM86.5155 197.866C87.2838 198.259 87.8985 198.401 88.1935 198.253C88.2578 198.218 88.3118 198.166 88.3506 198.104C88.3893 198.041 88.4114 197.97 88.4148 197.897C88.4148 197.798 88.4148 197.755 88.3595 197.731C88.1013 197.522 87.1793 197.682 86.5032 197.866H86.5155Z" fill="#263238"/>
<path d="M86.2081 197.969C86.1757 197.969 86.1448 197.956 86.1221 197.933C86.1129 197.916 86.1082 197.897 86.1082 197.877C86.1082 197.858 86.1129 197.839 86.1221 197.822C86.1221 197.767 86.5216 196.433 87.1486 196.132C87.2287 196.095 87.3157 196.076 87.4037 196.076C87.4917 196.076 87.5787 196.095 87.6588 196.132C87.7451 196.159 87.8198 196.214 87.8711 196.289C87.9223 196.363 87.9471 196.453 87.9415 196.543C87.8985 197.097 86.7736 197.859 86.2573 197.988L86.2081 197.969ZM87.4006 196.291C87.3408 196.293 87.2821 196.308 87.2285 196.334C86.8474 196.519 86.5339 197.238 86.3803 197.674C86.9212 197.447 87.6649 196.845 87.6895 196.507C87.6895 196.451 87.6895 196.384 87.5481 196.322C87.5021 196.297 87.4522 196.281 87.4006 196.273V196.291Z" fill="#263238"/>
<path d="M96.67 201.197C95.9754 201.197 95.0103 200.306 94.4817 199.759C94.4682 199.74 94.4609 199.718 94.4609 199.695C94.4609 199.671 94.4682 199.649 94.4817 199.63C94.4938 199.61 94.5111 199.594 94.5317 199.583C94.5522 199.572 94.5753 199.567 94.5985 199.569C94.8444 199.569 96.9773 199.888 97.2785 200.491C97.3104 200.545 97.3272 200.606 97.3272 200.669C97.3272 200.732 97.3104 200.793 97.2785 200.847C97.2333 200.941 97.1651 201.022 97.0801 201.082C96.9952 201.142 96.8964 201.18 96.7929 201.191L96.67 201.197ZM94.8874 199.845C95.6619 200.595 96.3442 201.013 96.7314 200.964C96.7992 200.955 96.8638 200.93 96.9196 200.89C96.9753 200.85 97.0204 200.798 97.051 200.736C97.0648 200.715 97.0721 200.691 97.0721 200.666C97.0721 200.641 97.0648 200.616 97.051 200.595C96.8912 200.263 95.7541 199.98 94.8874 199.845Z" fill="#263238"/>
<path d="M94.955 199.815C94.817 199.819 94.679 199.808 94.5431 199.784C94.5242 199.781 94.5063 199.773 94.4912 199.761C94.4761 199.75 94.4643 199.734 94.4571 199.716C94.4479 199.698 94.4431 199.678 94.4431 199.658C94.4431 199.638 94.4479 199.618 94.4571 199.6C94.494 199.556 95.3238 198.555 96.1106 198.487C96.3333 198.47 96.5539 198.54 96.7252 198.684C96.965 198.893 96.9527 199.077 96.8912 199.194C96.7375 199.612 95.6741 199.815 94.955 199.815ZM94.7952 199.587C95.4836 199.624 96.5839 199.397 96.7252 199.095C96.7252 199.095 96.7744 198.997 96.6146 198.862C96.551 198.807 96.4767 198.765 96.3963 198.74C96.316 198.714 96.2313 198.706 96.1474 198.714C95.6174 198.862 95.1455 199.169 94.7952 199.593V199.587Z" fill="#263238"/>
<path d="M86.3741 197.306L81.1617 195.831C81.0718 195.804 80.9751 195.811 80.89 195.85C80.805 195.89 80.7375 195.96 80.7007 196.046L78.9427 199.998C78.9014 200.1 78.8821 200.208 78.8858 200.318C78.8896 200.427 78.9165 200.534 78.9647 200.632C79.0129 200.73 79.0813 200.817 79.1654 200.887C79.2496 200.957 79.3476 201.008 79.4529 201.037C81.2969 201.517 82.1821 201.652 84.4748 202.309C85.8885 202.703 87.9047 203.434 89.8532 203.988C91.8017 204.541 92.4533 202.641 91.6972 202.236C88.2796 200.429 88.0092 199.162 87.0749 197.81C86.9075 197.565 86.6595 197.387 86.3741 197.306Z" fill="#4CAF4F"/>
<path d="M94.6231 199.039L90.1729 195.966C90.0974 195.911 90.0044 195.885 89.9115 195.894C89.8186 195.903 89.7323 195.946 89.6688 196.015L86.7184 199.187C86.6465 199.269 86.5929 199.365 86.5611 199.469C86.5293 199.573 86.5201 199.683 86.534 199.791C86.548 199.9 86.5848 200.004 86.642 200.096C86.6992 200.189 86.7756 200.269 86.8659 200.33C88.4334 201.381 89.2447 201.805 91.2055 203.163C92.4349 203.999 94.8137 205.856 96.4733 207.011C98.1329 208.167 99.3684 206.581 98.7783 205.954C96.1352 203.133 95.5574 201.362 95.121 199.758C95.0453 199.467 94.8689 199.212 94.6231 199.039Z" fill="#4CAF4F"/>
<path d="M91.0149 193.323L82.9934 189.334L83.8232 187.158L92.3918 191.363L91.0149 193.323Z" fill="#4CAF4F"/>
<path d="M80.5839 118.137L79.9077 119.907C79.8401 120.042 79.9999 120.183 80.2274 120.183H100.561C100.739 120.183 100.887 120.097 100.899 119.987L101.071 118.229C101.071 118.112 100.93 118.008 100.739 118.008H80.9035C80.8438 118.002 80.7836 118.011 80.728 118.033C80.6724 118.056 80.623 118.091 80.5839 118.137Z" fill="#4CAF4F"/>
<path opacity="0.4" d="M80.5839 118.137L79.9077 119.907C79.8401 120.042 79.9999 120.183 80.2274 120.183H100.561C100.739 120.183 100.887 120.097 100.899 119.987L101.071 118.229C101.071 118.112 100.93 118.008 100.739 118.008H80.9035C80.8438 118.002 80.7836 118.011 80.728 118.033C80.6724 118.056 80.623 118.091 80.5839 118.137Z" fill="white"/>
<path d="M83.7864 120.354H83.2516C83.1471 120.354 83.0672 120.299 83.0733 120.231L83.3253 117.951C83.3253 117.889 83.4237 117.834 83.5282 117.834H84.063C84.1675 117.834 84.2474 117.889 84.2412 117.951L83.9892 120.231C83.9831 120.299 83.8909 120.354 83.7864 120.354Z" fill="#4CAF4F"/>
<path d="M96.3257 120.354H95.7971C95.6926 120.354 95.6127 120.299 95.6189 120.231L95.8647 117.951C95.8647 117.889 95.9692 117.834 96.0737 117.834H96.6023C96.7068 117.834 96.7929 117.889 96.7806 117.951L96.5347 120.231C96.504 120.299 96.4364 120.354 96.3257 120.354Z" fill="#4CAF4F"/>
<g style="mix-blend-mode:multiply">
<path d="M83.3192 224.449C92.4138 224.449 99.7863 223.916 99.7863 223.257C99.7863 222.598 92.4138 222.064 83.3192 222.064C74.2246 222.064 66.8521 222.598 66.8521 223.257C66.8521 223.916 74.2246 224.449 83.3192 224.449Z" fill="#F5F5F5"/>
</g>
<path d="M93.3507 221.574C90.4371 220.725 87.204 219.637 85.2493 218.5C85.194 218.463 85.1325 218.445 85.0772 218.414V205.223H90.9719C91.4194 205.197 91.8398 205 92.1473 204.674C92.4547 204.348 92.626 203.917 92.626 203.468C92.626 203.02 92.4547 202.589 92.1473 202.263C91.8398 201.936 91.4194 201.74 90.9719 201.713H85.1079V141.586H81.5674V201.713H75.7095C75.4703 201.699 75.2308 201.734 75.0056 201.816C74.7803 201.898 74.5742 202.025 74.3998 202.189C74.2255 202.353 74.0866 202.552 73.9916 202.772C73.8966 202.992 73.8477 203.229 73.8477 203.468C73.8477 203.708 73.8966 203.945 73.9916 204.165C74.0866 204.385 74.2255 204.583 74.3998 204.748C74.5742 204.912 74.7803 205.039 75.0056 205.121C75.2308 205.203 75.4703 205.237 75.7095 205.223H81.5674V218.396C81.5121 218.396 81.4567 218.445 81.4014 218.482C79.416 219.637 76.2074 220.725 73.2939 221.555C73.097 221.615 72.928 221.743 72.8174 221.916C72.7069 222.089 72.662 222.297 72.691 222.5C72.7199 222.704 72.8208 222.89 72.9754 223.026C73.13 223.161 73.328 223.237 73.5336 223.239H93.111C93.3075 223.226 93.4934 223.146 93.6378 223.012C93.7821 222.878 93.8762 222.698 93.9042 222.503C93.9323 222.308 93.8926 222.11 93.7919 221.941C93.6912 221.771 93.5354 221.642 93.3507 221.574Z" fill="#E0E0E0"/>
<path d="M94.2543 135.463H72.3964C70.6379 135.463 69.2124 136.888 69.2124 138.647V145.144C69.2124 146.903 70.6379 148.328 72.3964 148.328H94.2543C96.0127 148.328 97.4383 146.903 97.4383 145.144V138.647C97.4383 136.888 96.0127 135.463 94.2543 135.463Z" fill="#4CAF4F"/>
<path d="M72.1936 148.334V149.453C72.1936 150.375 73.1955 151.125 74.4249 151.125H92.2505C93.4798 151.125 94.4817 150.375 94.4817 149.453V148.334H72.1936Z" fill="#4CAF4F"/>
<path opacity="0.3" d="M72.1936 148.334V149.453C72.1936 150.375 73.1955 151.125 74.4249 151.125H92.2505C93.4798 151.125 94.4817 150.375 94.4817 149.453V148.334H72.1936Z" fill="white"/>
</svg>
