<svg width="35" height="34" viewBox="0 0 35 34" fill="none" xmlns="http://www.w3.org/2000/svg">
<g clip-path="url(#clip0_24_1899)">
<path d="M31.8528 9.88789C31.6832 9.24966 31.349 8.66717 30.8835 8.19871C30.418 7.73025 29.8377 7.39227 29.2006 7.21857C26.8551 6.58789 17.4801 6.58789 17.4801 6.58789C17.4801 6.58789 8.1051 6.58789 5.75965 7.21857C5.12252 7.39227 4.54218 7.73025 4.07671 8.19871C3.61125 8.66717 3.27698 9.24966 3.10738 9.88789C2.4801 12.2436 2.4801 17.1561 2.4801 17.1561C2.4801 17.1561 2.4801 22.0686 3.10738 24.4243C3.27698 25.0625 3.61125 25.645 4.07671 26.1134C4.54218 26.5819 5.12252 26.9199 5.75965 27.0936C8.1051 27.7243 17.4801 27.7243 17.4801 27.7243C17.4801 27.7243 26.8551 27.7243 29.2006 27.0936C29.8377 26.9199 30.418 26.5819 30.8835 26.1134C31.349 25.645 31.6832 25.0625 31.8528 24.4243C32.4801 22.0686 32.4801 17.1561 32.4801 17.1561C32.4801 17.1561 32.4801 12.2436 31.8528 9.88789Z" fill="#FF0302"/>
<path d="M14.4119 21.6169V12.6953L22.2528 17.1561L14.4119 21.6169Z" fill="#FEFEFE"/>
</g>
<defs>
<clipPath id="clip0_24_1899">
<rect width="30" height="30" fill="white" transform="translate(2.45032 2.15625)"/>
</clipPath>
</defs>
</svg>
